<svg xmlns="http://www.w3.org/2000/svg" version="1.1" width="600px" height="600px" xlink="http://www.w3.org/1999/xlink" style="overflow:hidden!important;"><g id="svga-group-wrapper" transform="scale(3 3)"><g id="svga-group-backs-single"><path id="SvgjsPath17225" d="M225,225H-25V-25h250V225z" fill="#88a65e" stroke-width="none" opacity="1" stroke="none"></path><path id="SvgjsPath17226" d="M225,66.045V46.523c-8.393-7.17-16.444-14.676-24.006-22.532C206.423,16.09,215.705,4.264,225,0.533v-16.039c-3.896,1.01-7.948,3.157-10.891,4.849c-9.592,5.514-16.968,14.41-23.396,23.297C180.981,1.161,172.431-11.375,166.43-25h-16.256c7.101,18.589,18.696,35.418,31.924,50.498c-3.762,6.007-7.353,12.13-11.097,18.132c-6.771,10.854-13.008,21.979-18.061,33.713c-1.74-0.122-3.482-0.236-5.227-0.348c-0.102-11.296-1.301-22.637-2.591-33.427C142.364,20.495,137.825-2.268,133.128-25h-15.287c3.512,16.925,6.991,33.854,9.757,50.925c2.627,16.216,5.104,33.229,5.117,49.989c-17.066-1.536-33.684-4.704-47.991-15.619c-22.846-17.429-21.9-26.78-25.009-40.538C68.462,4.662,80.021-9.181,83.404-25H67.848c-2.288,7.421-6.745,14.566-10.568,20.732c-1.766,2.849-3.54,5.708-5.319,8.565C41.416-4.602,16.985-1.963,3.134-5.856c-8.089-2.274-17.358-7.185-25.183-11.213c-0.973-0.501-1.96-1.017-2.951-1.55v16.811c7.296,3.502,14.678,6.469,20.881,9.151c12.571,5.436,27.6,2.613,42.814,7.009c2.774,0.801,3.976,1.791,4.725,3.446C37.528,26.922,30.89,33.68,18.638,36.037C6.717,38.331-9.568,36.45-25,35.374V50.51c14.17,0.911,30.442,2.151,42.378,0.754c12.875-1.506,23.256-6.821,30.822-14.903c3.926,13.052,9.926,23.987,32.905,39.741c15.079,10.337,32.932,13.381,50.891,14.876c-2.058,20.178-10.428,37.32-32.693,54.405c-10.407,7.985-21.317,14.728-34.237,24.035c-2.063-0.633-4.131-1.247-6.204-1.832c-14.62-4.125-46.417-6.59-53.1-6.965c8.508-6.75,17.07-13.123,22.152-23.144c11.073-21.834,0.773-48.529-17.324-59.654C2.211,72.673-11.466,69.181-25,64.823v15.465c6.097,2.013,12.208,3.99,18.242,6.175c3.371,1.221,7.316,2.72,10.326,4.67c-1.389-0.644,14.647,9.087,13.954,28.72c-0.661,18.694-21.119,26.841-34.167,41.017c-2.763,0.267-5.568,0.658-8.354,1.198V225h8.315c-2.877-17.495-2.37-34.53,8.331-50.064c8.69-0.111,43.984,2.377,59.317,6.059C37.81,193.899,34.342,209.025,34.122,225H48.77c0.262-8.053,1.59-15.874,5.038-23.062c3.074-6.407,8.375-11.441,14.043-15.887c6.325,2.192,12.58,4.603,18.827,6.916c21.501,7.963,39.663-16.236,68.072-27.625c0.472-0.189,0.954-0.367,1.429-0.554c10.135,21.642,24.926,41.005,40.126,60.211H215.3c-16.396-20.788-33.895-42.817-44.951-65.021c25.817-7.328,33.013-2.973,40.158,3.964c5.458,5.298,10.602,12.362,14.493,20.076v-26.446c-0.996-1.161-2.006-2.287-3.028-3.367c-7.024-7.418-15.717-12.491-26.009-13.126c-10.466-0.645-21.483,2.115-31.569,5.142c-7.333-20.176-7.046-36.563-1.767-53.077c15.35,1.577,40.417,6.625,48.157,20.097c5.229,9.103,8.712,18.285,14.216,28.972v-34.389c-1.05-1.908-2.147-3.734-3.344-5.472c-10.035-14.583-35.667-21.38-53.283-23.575c5.96-12.576,12.812-22.861,24.354-41.835C202.896,47.331,213.716,56.986,225,66.045z M147.094,92c0.152,0.009,0.306,0.019,0.459,0.028c-0.258,0.887-0.503,1.777-0.737,2.671C146.924,93.802,147.006,92.901,147.094,92z M109.519,173.981c-4.553,2.729-9.252,6.184-14.766,5.801c-3.813-0.264-8.413-2.824-12.214-4.384c23.267-16.107,52.827-33.469,61.801-67.581c-1.749,15.194,0.747,28.782,6.11,43.354C135.916,157.305,124.394,165.065,109.519,173.981z" fill="#759746" stroke-width="none" opacity="1" stroke="none"></path></g><g id="svga-group-subwrapper" ><g id="svga-group-hair-back" ><path id="SvgjsPath17080" d="M100.5,100.5h-1v-1h1V100.5z" fill="#2a232b" stroke-width="none" opacity="1" stroke="none"></path></g><g id="svga-group-humanbody-single"><path id="SvgjsPath16921" d="M190.858 199.866c-6.008-10.158-13.474-11.973-19.628-13.936 -6.323-2.016-19.346-3.178-26.449-4.6 -6.86-1.373-23.153-5.789-23.339-13.488 -0.192-8.066 4.291-40.09 4.291-40.09H74.005c0 0 4.487 32.023 4.294 40.09 -0.184 7.699-16.48 12.115-23.341 13.488 -7.104 1.422-20.125 2.584-26.448 4.6 -6.156 1.963-13.624 3.777-19.632 13.936 -3.644 6.16-6.008 16.133-6.008 27.133h194C196.869 215.999 194.509 206.026 190.858 199.866z" fill="#ffd0bc" stroke-width="none" opacity="1" stroke="none"></path><path id="SvgjsPath16922" d="M121.442 167.843c2.495 10.929 18.165 13.698 26.293 15.325 21.909 4.379 33.772 5.134 42.297 19.539 2.903 4.916 5.459 15.864 5.962 24.153 1.835 0.291 0.531-17.432-5.136-26.994 -9.742-16.472-29.089-15.135-46.077-18.535C137.921 179.958 121.628 175.542 121.442 167.843L121.442 167.843zM78.558 167.843c-0.186 7.699-16.479 12.115-23.339 13.488 -16.988 3.4-36.335 2.063-46.077 18.535 -5.667 9.563-6.971 27.285-5.136 26.994 0.503-8.289 3.059-19.237 5.962-24.153 8.524-14.405 20.388-15.16 42.297-19.539C60.393 181.541 76.063 178.771 78.558 167.843L78.558 167.843z" fill="#ffe2d6" stroke-width="none" opacity="1" stroke="none"></path><path id="SvgjsPath16923" d="M51.206 189.513c0 0 28.641 0.299 33.473 1.885 2.314 0.758 8.372 5.633 8.372 5.633s-6.556-3.17-8.658-3.758C79.51 191.909 51.206 189.513 51.206 189.513zM99.795 199.999c2.053-0.041 7.887-3.799 7.887-3.799s-5.574 2.059-7.342 2.16c-1.491 0.086-6.366-1.238-6.366-1.238S98.112 200.032 99.795 199.999zM117.008 192.757c6.75-1.818 29.786-3.23 29.786-3.23s-23.791-0.516-30.51 1.725c-2.252 0.752-7.562 5.16-7.562 5.16S114.786 193.354 117.008 192.757z" fill="#f0b399" stroke-width="none" opacity="1" stroke="none"></path><path id="SvgjsPath16924" d="M190.858 199.866c-9.741-16.471-29.122-15.142-46.077-18.535 -6.86-1.373-23.153-5.789-23.339-13.488 -0.192-8.066 4.291-40.09 4.291-40.09H74.005c0 0 4.487 32.023 4.294 40.09 -0.184 7.699-16.48 12.115-23.341 13.488 -7.104 1.422-20.125 2.584-26.448 4.6 -6.156 1.963-13.624 3.777-19.632 13.936 -3.644 6.16-6.008 16.133-6.008 27.133h194C196.869 215.999 194.509 206.026 190.858 199.866z" fill="none" stroke="#d17f5b" stroke-width="1.5" opacity="1"></path></g><g id="svga-group-chinshadow-single"><path id="SvgjsPath17221" d="M96.621 172.397c1.862 1.009 4.905 1.009 6.765 0.001 4.022-2.175 10.793-6.271 17.707-10.99 0.604-7.53 1.97-18.516 2.938-25.903 -14.398-1.508-33.984-1.493-48.319 0.038 0.961 7.323 2.309 18.157 2.919 25.666C85.646 166.01 92.547 170.19 96.621 172.397z" fill="url(#SvgjsLinearGradient17222)" opacity="1"></path></g><g id="svga-group-clothes-single" ><path id="SvgjsPath17208" d="M36.917 226.987c-12.142-0.106-34.504-0.481-34.504-0.481 -1.001-13.221 2.596-27.552 13.625-35.288 12.837-8.999 26.79-7.649 37.699-10.586 1 0.851 7.132 5.092 15.783 8.984 17.875 8.037 35.664 11.938 66.937 18.887 7.121-21.609 8.549-27.237 8.753-28.237 0.012 0.039 1.217-0.015 1.259-0.015 0.868 0 1.157 0.083 1.898 0.661 1.372-0.662 2.97-0.267 3.693 0.703 -3.046 12.205 4.021 43.22 4.021 45.2C138.413 226.815 120.95 227.716 36.917 226.987z" fill="#ce005b" stroke-width="none" opacity="1" stroke="none"></path><path id="SvgjsPath17209" d="M2.319 226.605c-0.842-13.045 3.389-27.448 14.244-35.063 12.837-8.999 26.263-7.477 37.172-10.413 0.146 0.124 1.683 0.998 2.04 1.256C17.586 186.399 4.214 199.521 2.319 226.605zM152.059 181.615c-0.144-0.192-0.329-0.354-0.532-0.498 -0.395-0.277-0.88-0.454-1.405-0.507 -0.572-0.058-1.183 0.025-1.756 0.302 -0.372-0.29-0.631-0.455-0.905-0.548 -0.272-0.092-0.562-0.113-0.993-0.113 -0.002 0-0.016 0-0.021 0.001 -0.123 0.004-1.227 0.051-1.238 0.014 -0.057 0.275 0.368-0.521 0.033 0.692 0.512 2.387-0.894 6.45-3.241 22.042 4.722-16.694 5.029-20.603 6.493-21.467 1.563 1.452-0.73 13.11 1.507 26.467 -0.506-8.89-0.193-24.89 1.863-25.892C151.976 181.263 151.878 182.339 152.059 181.615zM47.247 183.5c9.949 11.154 13.767 13.82 35.127 21.874C60.79 195.24 60.259 195.633 47.247 183.5zM52.952 182.397c14.55 15.296 34.438 21.115 65.001 29.648C84.391 201.231 67.467 196.433 52.952 182.397z" fill="#dd166e" stroke-width="none" opacity="1" stroke="none"></path><path id="SvgjsPath17210" d="M148.378 180.795c-0.229-0.18-0.719-0.509-1.068-0.579 -0.62-0.14-2.07-0.019-2.2 0.031 -1.778 9.483-5.687 19.042-8.721 28.139 -27.713-6.149-62.451-12.981-82.68-27.851 -15.189 4.111-53.002-0.132-51.41 45.681 0 0.13 0.01 0.26 0.02 0.39 0 0 56.588 0.76 56.59 0.76 27.246 0.539 96.468-0.45 97.47-0.45 0-9.142-6.396-31.019-4.24-45.359C151.432 180.605 149.782 180.116 148.378 180.795zM155.811 226.476c-54.167-1.382-122.589-1.144-153.231-0.271 0.987-44.587 35.332-39.994 51.72-44.38 20.665 15.798 56.059 22.312 82 26.87 -1.166 3.355-2.854 8.168-4.6 11.87 4.504-7.593 12.158-29.512 13.76-39.7 1.52-0.324 2.495 0.128 2.74 0.49 -1.521 7.91-2.222 15.998-3.53 24.079 2.125-10.09 2.051-11.999 4.3-24.339 0.561-0.08 1.141-0.051 1.721 0.109 0.46 0.2 0.62 0.48 0.91 0.811C149.588 191.271 152.864 208.45 155.811 226.476z" fill="#a00047" stroke-width="none" opacity="1" stroke="none"></path></g><g id="svga-group-head" ><g id="svga-group-ears-left" ><path id="SvgjsPath17058" d="M47.001 83.974c-1.376-2.313-5.638-7.997-9.98-6.603 -2.749 0.882-3.293 3.765-3.735 6.311 -0.588 3.386 0.471 10.083 1.389 12.503 0.881 2.325 3.533 6.816 5.264 8.527 2.13 2.1 4.775 8.793 5.194 9.487 0.66 1.097 1.536 2.745 4.122 2.538 2.853-0.229 4.584-1.742 5.856-1.999C58.253 114.109 50.582 89.995 47.001 83.974z" fill="#ffd0bc" stroke="#d17f5b" stroke-width="1.5" opacity="1"></path><path id="SvgjsPath17059" d="M44.197 97.997c-0.132-0.548 0.007-1.47 0.142-2.362 0.124-0.812 0.24-1.579 0.169-2.121 -0.267-2.032-1.773-5.893-2.757-7.985 -1.132-2.407-2.963-5.439-5.262-6.221 -0.95-0.324-1.575 0.063-1.938 0.456 -0.266 0.289-0.325 0.627-0.238 0.667 0.086 0.04 0.285-0.24 0.572-0.504 0.235-0.216 0.579-0.402 1.051-0.363 -0.19 1.011-1.167 6.49-0.744 10.225 0.333 2.938 1.593 5.131 1.79 5.46 0.029 0.346 0.077 0.685 0.148 1.014 0.929 4.287 4.971 9.163 6.378 10.758 0.259 0.295 0.531 0.47 0.598 0.398 0.066-0.072-0.094-0.364-0.353-0.66 -1.388-1.585-5.391-6.442-6.289-10.579 -0.952-4.389 2.318-10.896 3.048-12.272 0.371 0.646 0.687 1.267 0.93 1.785 0.19 0.406 0.402 0.881 0.619 1.395 -0.429 0.718-3.434 5.958-2.338 10.153 0.406 1.546 2.235 3.54 3.447 4.086 0.667 0.301 0.919 0.75 1.209 1.271 0.336 0.604 0.718 1.288 1.828 1.784 0.225 0.102 0.429 0.142 0.61 0.142 0.313 0 0.551-0.126 0.725-0.276 0.018 0.266 0.017 0.604 0.009 0.917 -0.012 0.404 0.042 0.737 0.137 0.745 0.094 0.008 0.196-0.313 0.207-0.717 0.016-0.496 0.013-1.11-0.072-1.403 -0.248-0.865-1.008-1.841-1.813-2.875C45.221 99.896 44.403 98.844 44.197 97.997zM36.95 94.196c-2.177-6.731 0.656-12.54 1.144-13.464 0.85 0.775 1.6 1.811 2.21 2.824C39.86 84.365 37.041 89.669 36.95 94.196zM46.341 104.042c-1.004-0.447-1.339-1.051-1.666-1.633 -0.293-0.527-0.598-1.072-1.369-1.42 -0.168-0.075-0.352-0.191-0.542-0.323 -2.486-5.906 0.272-8.488 0.963-9.017 0.211 0.722 0.369 1.384 0.439 1.915 0.063 0.488-0.052 1.263-0.167 2.012 -0.142 0.929-0.286 1.89-0.137 2.512 0.226 0.926 1.069 2.009 1.884 3.057 0.723 0.929 1.466 1.888 1.721 2.67C47.359 103.972 47.017 104.345 46.341 104.042z" fill="#d17f5b" stroke-width="none" opacity="1" stroke="none"></path></g><g id="svga-group-ears-right" ><path id="SvgjsPath17060" d="M152.736 83.974c1.377-2.313 5.639-7.997 9.98-6.603 2.75 0.882 3.293 3.765 3.736 6.311 0.588 3.386-0.471 10.083-1.389 12.503 -0.881 2.325-3.533 6.816-5.266 8.527 -2.129 2.1-4.775 8.793-5.193 9.487 -0.658 1.097-1.535 2.745-4.121 2.538 -2.854-0.229-4.584-1.742-5.857-1.999C141.484 114.109 149.156 89.995 152.736 83.974z" fill="#ffd0bc" stroke="#d17f5b" stroke-width="1.5" opacity="1"></path><path id="SvgjsPath17061" d="M153.727 100.913c-0.805 1.033-1.564 2.009-1.813 2.875 -0.086 0.293-0.088 0.907-0.072 1.403 0.012 0.404 0.113 0.725 0.207 0.717s0.148-0.341 0.137-0.745c-0.008-0.313-0.008-0.651 0.01-0.917 0.174 0.15 0.412 0.276 0.725 0.276 0.182 0 0.385-0.04 0.609-0.142 1.109-0.496 1.492-1.18 1.828-1.784 0.289-0.52 0.543-0.969 1.209-1.271 1.213-0.546 3.041-2.54 3.447-4.086 1.096-4.194-1.908-9.435-2.338-10.153 0.217-0.513 0.43-0.988 0.619-1.395 0.244-0.518 0.559-1.139 0.93-1.785 0.73 1.377 4 7.883 3.049 12.272 -0.896 4.137-4.9 8.994-6.289 10.579 -0.258 0.296-0.418 0.588-0.352 0.66 0.066 0.071 0.338-0.104 0.598-0.398 1.406-1.596 5.449-6.471 6.379-10.758 0.07-0.329 0.117-0.668 0.146-1.014 0.197-0.329 1.459-2.523 1.791-5.46 0.422-3.735-0.555-9.214-0.744-10.225 0.473-0.039 0.814 0.146 1.051 0.363 0.287 0.264 0.486 0.544 0.572 0.504s0.027-0.378-0.238-0.667c-0.363-0.393-0.988-0.779-1.938-0.456 -2.299 0.782-4.131 3.814-5.262 6.221 -0.984 2.093-2.49 5.953-2.758 7.985 -0.072 0.542 0.045 1.309 0.17 2.121 0.135 0.892 0.273 1.814 0.141 2.362C155.336 98.844 154.518 99.896 153.727 100.913zM159.434 83.555c0.611-1.013 1.361-2.049 2.211-2.824 0.488 0.925 3.32 6.733 1.145 13.464C162.697 89.669 159.879 84.365 159.434 83.555zM152.27 103.816c0.254-0.782 0.998-1.741 1.721-2.67 0.816-1.048 1.658-2.131 1.885-3.057 0.148-0.622 0.004-1.583-0.137-2.512 -0.115-0.749-0.23-1.524-0.166-2.012 0.068-0.531 0.227-1.193 0.438-1.915 0.691 0.529 3.449 3.111 0.965 9.017 -0.191 0.132-0.375 0.248-0.543 0.323 -0.771 0.348-1.074 0.893-1.369 1.42 -0.326 0.582-0.662 1.186-1.666 1.633C152.721 104.345 152.379 103.972 152.27 103.816z" fill="#d17f5b" stroke-width="none" opacity="1" stroke="none"></path></g><g id="svga-group-faceshape-wrap" ><g id="svga-group-faceshape-single" ><path id="SvgjsPath17218" d="M140.337 130.669c-6.672 9.572-28.551 24.338-37.142 29.263 -1.757 1.008-4.626 1.008-6.383-0.001 -8.584-4.93-30.469-19.691-37.144-29.262C51.541 119.018 41.15 77 41.138 76.946c-1.3-4.911-1.996-10.066-2.004-15.382C39.082 28.09 66.289 0.919 99.907 0.867c33.621-0.052 60.913 27.033 60.963 60.507 0.009 5.316-0.669 10.473-1.952 15.389C158.901 76.815 148.488 118.976 140.337 130.669z" fill="#ffd0bc" stroke-width="none" opacity="1"></path><path id="SvgjsPath17219" d="M132.741 10.389c15.702 10.981 25.962 29.15 25.93 49.708 -0.009 5.316-0.704 10.471-2.004 15.382 -0.012 0.053-10.491 42.01-18.53 53.723 -6.665 9.715-25.83 26.717-37.145 29.995 -0.475 0.138-1.505 0.138-1.98 0 -11.314-3.278-30.479-20.28-37.144-29.995 -8.039-11.713-18.519-53.669-18.53-53.723 -1.3-4.911-1.996-10.066-2.004-15.382 -0.032-20.559 10.227-38.727 25.929-49.708C50.326 21.172 39.101 40.061 39.134 61.564c0.008 5.316 0.704 10.471 2.004 15.382 0.012 0.053 10.403 42.071 18.53 53.723 6.675 9.57 28.56 24.332 37.144 29.262 0 0.001 0.001 0.001 0.002 0.001 -0.001 0-0.005 0-0.005 0 0.879 0.504 2.036 0.757 3.193 0.755 1.157 0.002 2.314-0.251 3.193-0.755h-0.005c0 0 0.001 0 0.002-0.001 8.585-4.93 30.469-19.691 37.145-29.262 8.127-11.651 18.519-53.669 18.529-53.723 1.3-4.911 1.996-10.066 2.004-15.382C160.904 40.061 149.679 21.172 132.741 10.389z" fill="#f7c1aa" stroke-width="none" opacity="1"></path><path id="SvgjsPath17220" d="M140.337 130.669c-6.672 9.572-28.551 24.338-37.142 29.263 -1.757 1.008-4.626 1.008-6.383-0.001 -8.584-4.93-30.469-19.691-37.144-29.262C51.541 119.018 41.15 77 41.138 76.946c-1.3-4.911-1.996-10.066-2.004-15.382C39.082 28.09 66.289 0.919 99.907 0.867c33.621-0.052 60.913 27.033 60.963 60.507 0.009 5.316-0.669 10.473-1.952 15.389C158.901 76.815 148.488 118.976 140.337 130.669z" fill="none" stroke="#d17f5b" stroke-width="1.5" opacity="1"></path></g></g><g id="svga-group-mouth-single" ><path id="SvgjsPath17199" d="M100.457 141.651c-3.24 0-3.697-2.678-3.697-2.678l7.125-0.188C103.884 138.785 103.307 141.651 100.457 141.651z" fill="url(#SvgjsLinearGradient17200)" opacity="1"></path><path id="SvgjsPath17203" d="M99.886 139.415c-1.668 0-2.938-0.171-3.027-0.184 -0.137-0.02-0.232-0.146-0.213-0.282 0.019-0.138 0.147-0.227 0.282-0.214 0.037 0.006 3.7 0.5 6.766-0.195 0.146-0.03 0.27 0.057 0.3 0.189 0.03 0.135-0.055 0.269-0.188 0.299C102.485 139.327 101.082 139.415 99.886 139.415zM100.071 134.142c-1.291 0-2.542-0.477-3.8-0.71 -1.408-0.262-2.812-0.038-4.221 0.096 -1.202 0.114-2.384 0.097-3.574-0.118 -0.566-0.103-1.409-0.165-1.893-0.491 -0.496-0.335-0.404-1.114 0.155-1.324 0.528-0.2 1.35 0.216 1.882 0.317 0.608 0.116 1.225 0.189 1.845 0.198 1.366 0.018 2.719-0.258 4.083-0.306 1.445-0.048 2.835 0.352 4.231 0.658 1.247 0.273 2.325 0.09 3.553-0.174 2.13-0.459 4.259-0.573 6.429-0.67 1.073-0.049 2.167-0.256 3.19-0.583 0.436-0.141 0.953-0.512 1.411-0.261 0.528 0.29 0.503 1.082-0.042 1.337 -1.781 0.837-3.78 0.972-5.715 1.061 -1.235 0.056-2.475 0.117-3.694 0.334C102.64 133.731 101.371 134.142 100.071 134.142z" fill="#d17f5b" stroke-width="none" opacity="1" stroke="none"></path></g><g id="svga-group-eyes-left" ><g id="svga-group-eyesback-left"><path id="SvgjsPath17103" d="M76.925 80.872c4.607 0.618 8.048 3.822 11.044 9 0.004 0.006 0.013 0.004 0.018 0.009 0.008 0.032 0.022 0.063 0.029 0.094 0.29 1.188-0.752 2.198-2.068 2.988 -4.747 0.924-9.302 2.162-14.155 1.625 -9.719-1.074-10.042-6.145-10.551-7.458 -0.291-1.299-0.374-2.626-0.397-3.883 1.844 0.032 3.983-1.056 5.781-1.555C68.731 81.108 73.444 80.404 76.925 80.872z" fill="url(#SvgjsRadialGradient17104)" opacity="1"></path></g><g id="svga-group-eyesiriswrapper-left" transform="translate(0 1)"><g id="svga-group-eyesiriscontrol-left" ><g id="svga-group-eyesiris-left" ><path id="SvgjsPath17161" d="M72.886 86.517l-6.655-1.519C66.084 85.643 66 86.311 66 86.999c0 0.689 0.085 1.357 0.231 2.001l8.768-2.001L72.886 86.517z" fill="#ea2e2e" stroke-width="none" opacity="1"></path><path id="SvgjsPath17162" d="M67.969 92.608c0.838 1.049 1.907 1.902 3.129 2.492l3.9-8.099L67.969 92.608z" fill="#f09330" stroke-width="none" opacity="1"></path><path id="SvgjsPath17163" d="M75.001 95.999c1.399 0 2.719-0.329 3.899-0.898l-3.9-8.1L75.001 95.999z" fill="#64398e" stroke-width="none" opacity="1"></path><path id="SvgjsPath17164" d="M75 87l7.032 5.607c0.83-1.039 1.432-2.265 1.736-3.606L75 87z" fill="#393b97" stroke-width="none" opacity="1"></path><path id="SvgjsPath17165" d="M75 86.999l2.738-0.625 6.03-1.376c-0.305-1.341-0.906-2.567-1.736-3.606L75 86.999z" fill="#00aa4f" stroke-width="none" opacity="1"></path><path id="SvgjsPath17166" d="M78.9 78.897c-1.182-0.57-2.501-0.898-3.9-0.898v8.998L78.9 78.897z" fill="#fae636" stroke-width="none" opacity="1"></path><path id="SvgjsPath17167" d="M71.098 78.898c-1.222 0.59-2.291 1.442-3.13 2.492l7.03 5.607L71.098 78.898z" fill="#9c2d91" stroke-width="none" opacity="1"></path><path id="SvgjsPath17168" d="M75 86.999L83.769 89C83.915 88.356 84 87.688 84 86.999s-0.085-1.357-0.231-2.001l-6.03 1.376L75 86.999z" fill="#ea2e2e" stroke-width="none" opacity="1"></path><path id="SvgjsPath17169" d="M75 86.999L75 86.999 75.001 87l3.9 8.1c1.223-0.59 2.293-1.443 3.131-2.493L75 86.999 75 86.999z" fill="#9b328d" stroke-width="none" opacity="1"></path><path id="SvgjsPath17170" d="M75 87L75 87 75 87 75 87 75 87 75 87 75 87l-3.9 8.1c1.181 0.57 2.501 0.899 3.9 0.899h0.001L75 87 75 87z" fill="#fde92b" stroke-width="none" opacity="1"></path><path id="SvgjsPath17171" d="M74.999 87L74.999 87 74.999 87 74.999 87 74.999 87 74.999 87 74.999 87 74.999 87 74.999 87 74.999 87 74.999 87l-8.768 2.001c0.305 1.341 0.907 2.567 1.737 3.607L74.999 87 74.999 87z" fill="#00aa4f" stroke-width="none" opacity="1"></path><path id="SvgjsPath17172" d="M75 86.998L75 86.998 75 86.998 75 86.998 75 86.998 75 86.998 75 86.998v-8.999c-1.4 0-2.72 0.329-3.901 0.899L75 86.998 75 86.998z" fill="#65378f" stroke-width="none" opacity="1"></path><path id="SvgjsPath17173" d="M75 86.999L75 86.999 75 86.999l7.032-5.608c-0.838-1.05-1.908-1.903-3.131-2.493l-3.9 8.1L75 86.999z" fill="#ec9236" stroke-width="none" opacity="1"></path><path id="SvgjsPath17174" d="M74.999 86.999L74.999 86.999l-7.031-5.608c-0.83 1.04-1.432 2.266-1.736 3.606l6.654 1.519L74.999 86.999z" fill="#393b97" stroke-width="none" opacity="1"></path><path id="SvgjsPath17175" d="M75 77.999c4.971 0 9 4.029 9 9s-4.029 9-9 9 -9-4.029-9-9S70.029 77.999 75 77.999z" fill="#000000" stroke-width="none" opacity="0.3"></path><path id="SvgjsPath17176" d="M78.5 86.999c0 1.933-1.566 3.5-3.5 3.5s-3.5-1.567-3.5-3.5 1.566-3.5 3.5-3.5S78.5 85.066 78.5 86.999z" fill="#000000" stroke-width="none" opacity="1"></path><path id="SvgjsPath17177" d="M71.653 93.108c-0.47 0.469-1.396 0.304-2.069-0.369 -0.674-0.673-0.84-1.601-0.369-2.07 0.469-0.47 1.395-0.304 2.068 0.369C71.956 91.712 72.122 92.639 71.653 93.108z" fill="#ffffff" stroke-width="none" opacity="0.7"></path><path id="SvgjsPath17178" d="M81.809 85.326c-0.702 0.703-2.403 0.142-3.8-1.254 -1.396-1.396-1.957-3.098-1.256-3.8 0.703-0.703 2.405-0.142 3.8 1.254C81.949 82.922 82.512 84.624 81.809 85.326z" fill="#ffffff" stroke-width="none" opacity="0.9"></path></g></g></g><g id="svga-group-eyesfront-left"><path id="SvgjsPath17128" d="M55.5 88c0 13.808 8.283 24.999 18.5 24.999S92.5 101.808 92.5 88c0-13.809-8.283-25.001-18.5-25.001S55.5 74.191 55.5 88zM61.241 87.132c-0.291-1.299-0.374-2.626-0.397-3.883 1.844 0.032 3.983-1.056 5.781-1.555 2.106-0.586 6.819-1.29 10.3-0.822 4.607 0.618 8.048 3.822 11.044 9 0.004 0.006 0.013 0.004 0.018 0.009 0.008 0.032 0.022 0.063 0.029 0.094 0.29 1.188-0.752 2.198-2.068 2.988 -4.747 0.924-9.302 2.162-14.155 1.625C62.073 93.516 61.75 88.445 61.241 87.132z" fill="#ffd0bc" stroke-width="none" opacity="1" stroke="none"></path><path id="SvgjsPath17129" d="M75.005 100.952c9.299 1.281 17.73-4.324 18.83-12.528 1.101-8.205-5.541-15.895-14.842-17.18 -9.301-1.28-17.729 4.326-18.829 12.53C59.064 91.977 65.704 99.664 75.005 100.952zM60.844 83.249c1.844 0.032 3.983-1.056 5.781-1.555 2.106-0.586 6.819-1.29 10.3-0.822 4.607 0.618 8.048 3.822 11.044 9 0.004 0.006 0.013 0.004 0.018 0.009 0.008 0.032 0.022 0.063 0.029 0.094 0.29 1.188-0.752 2.198-2.068 2.988 -4.747 0.924-9.302 2.162-14.155 1.625 -9.719-1.074-10.042-6.145-10.551-7.458C60.95 85.833 60.867 84.506 60.844 83.249z" fill="url(#SvgjsRadialGradient17130)" opacity="1"></path><path id="SvgjsPath17134" d="M61.241 87.132c-0.291-1.299-0.374-2.626-0.397-3.883 1.844 0.032 3.983-1.056 5.781-1.555 2.106-0.586 6.819-1.29 10.3-0.822 4.607 0.618 8.048 3.822 11.044 9 0.004 0.006 0.013 0.004 0.018 0.009 0.008 0.032 0.022 0.063 0.029 0.094 0.29 1.188-0.752 2.198-2.068 2.988 -4.747 0.924-9.302 2.162-14.155 1.625C62.073 93.516 61.75 88.445 61.241 87.132z" fill="url(#SvgjsRadialGradient17135)" opacity="1"></path><path id="SvgjsPath17138" d="M76.428 75.952c3.311 0.503 6.572 2.172 9.612 4.298 0.65 0.455 1.396 0.972 2.57 1.622 -0.834-0.189-1.614-0.667-2.343-1.106 0.76 0.798 1.475 1.76 2.063 2.694 -2.63-3.653-7.485-6.286-11.574-7.082 -3.927-0.765-10.991 0.142-16.17 3.104C65.306 76.058 72.317 75.327 76.428 75.952z" fill="#d17f5b" stroke-width="none" opacity="1" stroke="none"></path><path id="SvgjsPath17139" d="M88.054 89.86c-0.034 0.003-0.066-0.014-0.084-0.043 -2.996-5.044-6.437-8.167-11.045-8.769 -3.479-0.456-8.192 0.23-10.3 0.801 -1.867 0.505-4.106 1.641-5.996 1.518 -1.754-0.115-3.748-1.511-4.801-2.513 1.128 0.843 4.185 1.027 5.099 0.811 -0.282-0.073-1.853-1.056-2.157-1.348 0.741 0.422 3.617 0.862 4.542 0.628 -0.265-0.14-1.585-1.042-1.891-1.398 0.14 0.122 3.378 0.74 5.034 0.188 9.938-3.31 18.034-0.452 21.862 9.95 0.014 0.035 0.009 0.074-0.011 0.105 -0.021 0.031-0.054 0.051-0.091 0.055L88.054 89.86zM61.004 86.846c-0.644 2.483 1.093 7.881 10.4 8.505 6.612 0.442 15.696-2.737 14.568-2.526 -4.756 0.9-9.318 2.112-14.181 1.589C60.769 93.227 61.832 87.027 61.004 86.846z" fill="#000000" stroke-width="none" opacity="1" stroke="none"></path></g></g><g id="svga-group-eyes-right" ><g id="svga-group-eyesback-right"><path id="SvgjsPath17111" d="M123.075 80.872c-4.607 0.618-8.048 3.822-11.044 9 -0.004 0.006-0.013 0.004-0.018 0.009 -0.008 0.032-0.022 0.063-0.029 0.094 -0.29 1.188 0.752 2.198 2.068 2.988 4.747 0.924 9.302 2.162 14.155 1.625 9.719-1.074 10.042-6.145 10.551-7.458 0.291-1.299 0.374-2.626 0.397-3.883 -1.844 0.032-3.983-1.056-5.781-1.555C131.269 81.108 126.556 80.404 123.075 80.872z" fill="url(#SvgjsRadialGradient17112)" opacity="1"></path></g><g id="svga-group-eyesiriswrapper-right" transform="translate(0 1)"><g id="svga-group-eyesiriscontrol-right" ><g id="svga-group-eyesiris-right" ><path id="SvgjsPath17179" d="M122.886 86.517l-6.655-1.519c-0.146 0.645-0.23 1.313-0.23 2.001 0 0.689 0.085 1.357 0.231 2.001l8.768-2.001L122.886 86.517z" fill="#ea2e2e" stroke-width="none" opacity="1"></path><path id="SvgjsPath17180" d="M117.969 92.608c0.838 1.049 1.907 1.902 3.129 2.492l3.9-8.099L117.969 92.608z" fill="#f09330" stroke-width="none" opacity="1"></path><path id="SvgjsPath17181" d="M125.001 95.999c1.399 0 2.719-0.329 3.899-0.898l-3.9-8.1L125.001 95.999z" fill="#64398e" stroke-width="none" opacity="1"></path><path id="SvgjsPath17182" d="M125 87l7.032 5.607c0.83-1.039 1.432-2.265 1.736-3.606L125 87z" fill="#393b97" stroke-width="none" opacity="1"></path><path id="SvgjsPath17183" d="M125 86.999l2.738-0.625 6.03-1.376c-0.305-1.341-0.906-2.567-1.736-3.606L125 86.999z" fill="#00aa4f" stroke-width="none" opacity="1"></path><path id="SvgjsPath17184" d="M128.9 78.897c-1.182-0.57-2.501-0.898-3.9-0.898v8.998L128.9 78.897z" fill="#fae636" stroke-width="none" opacity="1"></path><path id="SvgjsPath17185" d="M121.098 78.898c-1.222 0.59-2.291 1.442-3.13 2.492l7.03 5.607L121.098 78.898z" fill="#9c2d91" stroke-width="none" opacity="1"></path><path id="SvgjsPath17186" d="M125 86.999L133.769 89c0.146-0.645 0.231-1.313 0.231-2.001s-0.085-1.357-0.231-2.001l-6.03 1.376L125 86.999z" fill="#ea2e2e" stroke-width="none" opacity="1"></path><path id="SvgjsPath17187" d="M125 86.999L125 86.999 125.001 87l3.9 8.1c1.223-0.59 2.293-1.443 3.131-2.493L125 86.999 125 86.999z" fill="#9b328d" stroke-width="none" opacity="1"></path><path id="SvgjsPath17188" d="M125 87L125 87 125 87 125 87 125 87 125 87 125 87l-3.9 8.1c1.181 0.57 2.501 0.899 3.9 0.899h0.001L125 87 125 87z" fill="#fde92b" stroke-width="none" opacity="1"></path><path id="SvgjsPath17189" d="M124.999 87L124.999 87 124.999 87 124.999 87 124.999 87 124.999 87 124.999 87 124.999 87 124.999 87 124.999 87 124.999 87l-8.768 2.001c0.305 1.341 0.907 2.567 1.737 3.607L124.999 87 124.999 87z" fill="#00aa4f" stroke-width="none" opacity="1"></path><path id="SvgjsPath17190" d="M125 86.998L125 86.998 125 86.998 125 86.998 125 86.998 125 86.998 125 86.998v-8.999c-1.4 0-2.72 0.329-3.901 0.899L125 86.998 125 86.998z" fill="#65378f" stroke-width="none" opacity="1"></path><path id="SvgjsPath17191" d="M125 86.999L125 86.999 125 86.999l7.032-5.608c-0.838-1.05-1.908-1.903-3.131-2.493l-3.9 8.1L125 86.999z" fill="#ec9236" stroke-width="none" opacity="1"></path><path id="SvgjsPath17192" d="M124.999 86.999L124.999 86.999l-7.031-5.608c-0.83 1.04-1.432 2.266-1.736 3.606l6.654 1.519L124.999 86.999z" fill="#393b97" stroke-width="none" opacity="1"></path><path id="SvgjsPath17193" d="M125 77.999c4.971 0 9 4.029 9 9s-4.029 9-9 9 -9-4.029-9-9S120.029 77.999 125 77.999z" fill="#000000" stroke-width="none" opacity="0.3"></path><path id="SvgjsPath17194" d="M128.5 86.999c0 1.933-1.566 3.5-3.5 3.5s-3.5-1.567-3.5-3.5 1.566-3.5 3.5-3.5S128.5 85.066 128.5 86.999z" fill="#000000" stroke-width="none" opacity="1"></path><path id="SvgjsPath17195" d="M121.653 93.108c-0.47 0.469-1.396 0.304-2.069-0.369 -0.674-0.673-0.84-1.601-0.369-2.07 0.469-0.47 1.395-0.304 2.068 0.369C121.956 91.712 122.122 92.639 121.653 93.108z" fill="#ffffff" stroke-width="none" opacity="0.7"></path><path id="SvgjsPath17196" d="M131.809 85.326c-0.702 0.703-2.403 0.142-3.8-1.254 -1.396-1.396-1.957-3.098-1.256-3.8 0.703-0.703 2.405-0.142 3.8 1.254C131.949 82.922 132.512 84.624 131.809 85.326z" fill="#ffffff" stroke-width="none" opacity="0.9"></path></g></g></g><g id="svga-group-eyesfront-right"><path id="SvgjsPath17149" d="M126 62.999c-10.217 0-18.5 11.193-18.5 25.001 0 13.808 8.283 24.999 18.5 24.999S144.5 101.808 144.5 88C144.5 74.191 136.217 62.999 126 62.999zM128.208 94.589c-4.854 0.537-9.408-0.702-14.155-1.625 -1.316-0.791-2.358-1.8-2.068-2.988 0.007-0.032 0.021-0.063 0.029-0.094 0.005-0.005 0.014-0.003 0.018-0.009 2.996-5.178 6.437-8.382 11.044-9 3.48-0.468 8.193 0.236 10.3 0.822 1.798 0.499 3.938 1.587 5.781 1.555 -0.023 1.257-0.106 2.583-0.397 3.883C138.25 88.445 137.927 93.516 128.208 94.589z" fill="#ffd0bc" stroke-width="none" opacity="1" stroke="none"></path><path id="SvgjsPath17150" d="M139.836 83.774c-1.101-8.205-9.528-13.811-18.829-12.53 -9.301 1.285-15.942 8.976-14.842 17.18 1.1 8.204 9.531 13.809 18.83 12.528C134.296 99.664 140.936 91.977 139.836 83.774zM138.759 87.132c-0.509 1.313-0.832 6.384-10.551 7.458 -4.854 0.537-9.408-0.702-14.155-1.625 -1.316-0.791-2.358-1.8-2.068-2.988 0.007-0.032 0.021-0.063 0.029-0.094 0.005-0.005 0.014-0.003 0.018-0.009 2.996-5.178 6.437-8.382 11.044-9 3.48-0.468 8.193 0.236 10.3 0.822 1.798 0.499 3.938 1.587 5.781 1.555C139.133 84.506 139.05 85.833 138.759 87.132z" fill="url(#SvgjsRadialGradient17151)" opacity="1"></path><path id="SvgjsPath17155" d="M138.759 87.132c0.291-1.299 0.374-2.626 0.397-3.883 -1.844 0.032-3.983-1.056-5.781-1.555 -2.106-0.586-6.819-1.29-10.3-0.822 -4.607 0.618-8.048 3.822-11.044 9 -0.004 0.006-0.013 0.004-0.018 0.009 -0.008 0.032-0.022 0.063-0.029 0.094 -0.29 1.188 0.752 2.198 2.068 2.988 4.747 0.924 9.302 2.162 14.155 1.625C137.927 93.516 138.25 88.445 138.759 87.132z" fill="url(#SvgjsRadialGradient17156)" opacity="1"></path><path id="SvgjsPath17159" d="M123.572 75.952c-3.311 0.503-6.572 2.172-9.612 4.298 -0.65 0.455-1.396 0.972-2.57 1.622 0.834-0.189 1.614-0.667 2.343-1.106 -0.76 0.798-1.475 1.76-2.063 2.694 2.63-3.653 7.485-6.286 11.574-7.082 3.927-0.765 10.991 0.142 16.17 3.104C134.694 76.058 127.683 75.327 123.572 75.952z" fill="#d17f5b" stroke-width="none" opacity="1" stroke="none"></path><path id="SvgjsPath17160" d="M111.784 89.846c-0.037-0.003-0.07-0.024-0.091-0.055 -0.02-0.031-0.024-0.07-0.011-0.105 3.828-10.402 11.925-13.26 21.862-9.95 1.656 0.552 4.895-0.067 5.034-0.188 -0.306 0.355-1.626 1.258-1.891 1.398 0.925 0.234 3.801-0.206 4.542-0.628 -0.305 0.292-1.875 1.275-2.157 1.348 0.914 0.216 3.971 0.032 5.099-0.811 -1.053 1.002-3.047 2.398-4.801 2.513 -1.89 0.124-4.129-1.012-5.996-1.518 -2.107-0.571-6.82-1.256-10.3-0.801 -4.608 0.602-8.049 3.725-11.045 8.769 -0.018 0.029-0.05 0.046-0.084 0.043L111.784 89.846zM128.208 94.413c-4.862 0.523-9.425-0.688-14.181-1.589 -1.128-0.211 7.956 2.969 14.568 2.526 9.308-0.624 11.044-6.021 10.4-8.505C138.168 87.027 139.231 93.227 128.208 94.413z" fill="#000000" stroke-width="none" opacity="1" stroke="none"></path></g></g><g id="svga-group-facehighlight-single" ><path id="SvgjsPath16913" d="M140.204 113.007c0.035 22.275-17.995 40.365-40.273 40.396 -22.274 0.036-40.361-17.993-40.396-40.272C59.501 90.857 77.53 72.77 99.808 72.735 122.083 72.701 140.171 90.73 140.204 113.007z" fill="url(#SvgjsRadialGradient16914)" opacity="1"></path><path id="SvgjsPath16917" d="M135,55.999c0,19.329-15.671,35-35,35c-19.329,0-35-15.671-35-35s15.671-35,35-35C119.329,20.999,135,36.67,135,55.999z" fill="url(#SvgjsRadialGradient16918)" opacity="1"></path></g><g id="svga-group-eyebrows-left" ><path id="SvgjsPath17197" d="M52.488 73.87c7.475-9.383 20.338-7.822 30.878-6.314 2.681 0.384 5.441 0.672 8.07 1.336 1.884 0.475 3.365 2.622 1.851 4.356 -0.708 0.825-2.253 0.672-3.207 0.652C77.459 73.645 63.193 66.387 52.488 73.87z" fill="#2a232b" stroke-width="none" opacity="1" stroke="none"></path></g><g id="svga-group-eyebrows-right" ><path id="SvgjsPath17198" d="M147.577 73.49c-2.164-1.448-4.454-2.47-7.043-2.889 -9.497-1.54-27.586 4.79-32.341 3.45 -2.912-0.822-2.323-3.739-1.035-4.458 0.775-0.433 0.99-0.422 7.909-1.612C126.824 65.961 139.988 64.355 147.577 73.49z" fill="#2a232b" stroke-width="none" opacity="1" stroke="none"></path></g><g id="svga-group-nose-single" ><path id="SvgjsPath17204" d="M105.496 114.749c0.889 6.039-4.018 3.352-5.652 3.615 -1.306 0.213-6.255 1.983-5.962-3.694 0.138-2.701 2.768-5.247 5.854-5.247C102.626 109.423 104.913 110.802 105.496 114.749z" fill="#fff4ef" stroke-width="none" opacity="0.2" stroke="none"></path><path id="SvgjsPath17205" d="M103.762 116.205c0.029 0.096-1.657 2.01-1.74 1.93 -0.439 0.316-1.191 0.45-2.019 0.458 -0.558 0.005-1.057-0.47-1.46-0.427 -0.015-0.063-3.645-1.408-3.868-1.931 -0.334 0.075-0.576 0.236-0.672 0.476 -0.248 0.624 0.567 1.547 1.82 2.063 0.619 0.254 1.561 0.434 2.049 0.402 0.331 0.478 0.906 0.743 1.984 0.734 1.189-0.012 2.336-0.283 2.549-0.843 0.292 0.178 1.4-0.069 1.814-0.27 0.457-0.222 1.215-0.857 1.233-1.633C105.467 116.506 104.473 116.081 103.762 116.205z" fill="#f0b399" stroke-width="none" opacity="1" stroke="none"></path><path id="SvgjsPath17206" d="M98.529 118.552c-0.074 0.18-0.236 0.309-0.449 0.392 -0.286-0.466-0.875-0.945-1.635-1.278 -0.884-0.384-1.748-0.458-2.27-0.25 -0.182-0.296-0.243-0.583-0.142-0.821 0.26-0.62 1.477-0.68 2.72-0.141C97.995 116.995 98.79 117.936 98.529 118.552zM104.806 117.053c0.154-0.042 0.28 0.012 0.401 0.036 0.072-0.595-0.415-1.023-1.237-1.004 -0.965 0.024-2.019 0.658-2.351 1.417 -0.28 0.645 0.053 1.166 0.751 1.296C102.381 118.693 102.845 117.594 104.806 117.053z" fill="#d17f5b" stroke-width="none" opacity="1" stroke="none"></path></g><g id="svga-group-hair-front" ><path id="SvgjsPath17082" d="M152.307 91.487c-3.852-4.398-4.376-6.578-2.979-11.314 -3.135-2.417-4.33-5.415-2.256-11.703 -8.03-0.362-9.319-3.996-8.175-11.755 -4.594-0.54-7.891-3.289-8.357-8.541 -3.963 0.138-8.343-1.103-9.574-4.694 -4.476 0.66-6.139-0.673-7.297-3.01 -4.41 1.766-7.511 0.911-10.794-2.012 -2.949 0.936-5.324 0.157-7.744-1.107 -1.709 3.5-3.815 4.289-7.577 3.619 -1.134 4.489-5.215 7.274-11.498 5.855 -1.717 4.607-4.878 6.44-9.475 5.764 -2.797 4.744-7.751 6.055-13.437 5.505 1.914 4.99 0.686 7.206-3.663 8.643 2.276 5.206 3.236 6.714-0.048 11.011 3.455 5.17 1.254 11.14-2.436 12.382v0.423c-8.695-10.118-8.114-74.354-0.022-74.653 -1.651-7.591 101.586-6.334 101.586-1.216C156.112 15.083 158.648 87.485 152.307 91.487z" fill="#2a232b" stroke-width="none" opacity="0.1" stroke="none"></path><path id="SvgjsPath17083" d="M152.306 91.585c-3.854-4.643-4.377-6.941-2.981-11.94 -3.133-2.549-4.329-5.714-2.254-12.349 -8.032-0.382-9.32-4.218-8.176-12.405 -4.592-0.569-7.891-3.47-8.357-9.013 -3.963 0.146-8.342-1.163-9.574-4.953 -4.475 0.696-6.137-0.71-7.296-3.178 -4.409 1.864-7.51 0.962-10.793-2.122 -2.949 0.986-5.324 0.166-7.743-1.168 -1.709 3.693-3.815 4.525-7.577 3.818 -1.134 4.737-5.215 7.677-11.497 6.178 -1.718 4.862-4.878 6.796-9.475 6.083 -2.797 5.005-7.751 6.39-13.435 5.809 1.914 5.266 0.685 7.604-3.663 9.121 2.275 5.494 3.235 7.085-0.048 11.62 3.455 5.457 1.253 11.754-2.437 13.065v0.445c3.952 11.448-9.554 16.223-11.48 6.834 -5.114-0.087-7.45-3.416-3.724-8.759 -7.115-1.293-6.373-7.842 0.1-11.886 -5.866-2.453-9.144-6.8-2.46-12.625 -8.059-3.511-6.461-10.86 0.006-16.754 -5.489-4.566-2.71-8.938 4.064-11.443 -2.809-5.928 0.644-10.55 7.04-11.991 -4.444-5.361-1.657-11.837 6.434-12.152C45.326 3.81 50.979 0.26 59.132 1.968c1.805-5.814 5.683-6.576 11.382-4.692 1.562-4.613 6.007-5.533 10.743-4.105 3.044-3.768 7.978-1.952 12.283 0.107 3.656-4.056 8.893-2.555 13.356 0.653 5.712-4.897 12.8-2.474 17.862 3.303 6.497-2.672 11.717-1.117 15.407 5.396 6.038-0.279 8.394 2.509 8.394 7.909 7.55 0.422 16.386 6.16 13.794 14.477 5.662 1.042 8.607 5.278 6.109 12.043 3.362 1.625 4.864 5.743 4.707 7.82 -0.178 2.294-1.575 4.652-2.786 6.823 5.17 3.334 6.954 10.875 3.206 14.727 2.481 3.13 0.363 10.575-4.989 14.529 2.983 3.18 3.861 4.363-3.475 10.415 4.771 6.469 1.16 11.849-3.096 11.849l0 0c-1.118 0-1.891-0.299-2.845-0.725C154.076 110.256 144.69 103.662 152.306 91.585z" fill="#2a232b" stroke-width="none" opacity="1" stroke="none"></path><path id="SvgjsPath17084" d="M161 88c-3 0-7 2-7 0 -0.902-2.708 0.643-4.227 3.159-6.358C155.256 82.731 153 81.867 153 81c-1.802-4.503-0.347-9.808 4.342-12.281C155.562 69.375 153.5 69.75 152 69c-2.398-3.198-1.593-9.58 1.89-12.016 -3.294 1.13-6.876 2.276-9.89 0.016 -3-4-1-11 4-14 -4 0-9 4-13 2 -4-3-1-7 2-10 -4 0-8 6-12 1 -1-2 1-4 1-6 -2 2-7 6-9 3 -1-3 3-5 3-8 -2 2-8 6-9 3 -1-2 0-6 3-7 -5 1-8 9-13 5 -1 0-2-4-1-6 -2 4-5 7-9 9 -1-2-3-4-2-6 -2 4-1 11-7 11 -1 0-4.061-3.793-4.061-5.793C77.939 33.207 78 38 75 40c-4 3-7-2-9-6 -2 6-3 12-9 14 -3 1-6-1-7-4 0 4-1.166 8.23 2 12 -4.096-3.56-8.275-1.443-12 0 4 6 10 14 0 17 5 1 10 7 7 11 -2 1-4-1-6-2 3.798 6.646 4.882 16.889-5.287 16.197 2.491 8.342 15.125 3.522 11.286-7.6v-0.445c3.69-1.311 5.891-7.609 2.437-13.065 3.284-4.535 2.324-6.125 0.048-11.62 4.348-1.516 5.577-3.855 3.663-9.121 5.684 0.581 10.638-0.803 13.435-5.809 4.597 0.713 7.757-1.222 9.475-6.083 6.282 1.499 10.362-1.441 11.497-6.178 3.762 0.707 5.868-0.125 7.577-3.818 2.419 1.334 4.794 2.155 7.743 1.168 3.283 3.084 6.384 3.986 10.793 2.122 1.159 2.467 2.821 3.874 7.296 3.178 1.232 3.79 5.611 5.099 9.574 4.953 0.467 5.543 3.766 8.444 8.357 9.013 -1.145 8.187 0.144 12.023 8.176 12.405 -2.075 6.635-0.879 9.8 2.254 12.349 -1.396 4.999-0.872 7.297 2.981 11.94 -6.637 10.525-0.362 16.882 4.742 13.207C153.603 99.472 155.788 91.475 161 88z" fill="#1b141c" stroke-width="none" opacity="1" stroke="none"></path><path id="SvgjsPath17085" d="M173.59 66.428c3.748-3.852 1.964-11.393-3.206-14.727 0.185-0.331 0.806-1.293 1.411-2.6 0.699-1.394 1.267-2.82 1.375-4.224 0.022-0.3 0.007-0.647-0.041-1.02 0.014-2.504-1.075-5.065-4.666-6.8 2.498-6.765-0.447-11.001-6.109-12.043 2.592-8.317-6.244-14.055-13.794-14.477 0-5.4-2.355-8.188-8.394-7.909 -3.69-6.513-8.91-8.067-15.407-5.396 -5.063-5.777-12.15-8.2-17.862-3.303 -4.464-3.208-9.7-4.709-13.356-0.653 -4.305-2.059-9.239-3.875-12.283-0.107 -4.736-1.428-9.182-0.508-10.743 4.105 -5.699-1.884-9.577-1.122-11.382 4.692C50.979 0.26 45.326 3.81 46.978 11.822c-8.091 0.315-10.878 6.791-6.434 12.152 -6.396 1.441-9.848 6.063-7.04 11.991 -6.775 2.506-9.553 6.877-4.064 11.443 -6.467 5.894-8.065 13.243-0.006 16.754 -6.684 5.824-3.406 10.172 2.46 12.625 -6.472 4.043-7.215 10.592-0.1 11.886 -0.225 0.323-0.426 0.637-0.607 0.945 -0.062 0.104-0.109 0.204-0.166 0.306 -0.11 0.2-0.221 0.399-0.313 0.592 -0.057 0.12-0.101 0.235-0.152 0.353 -0.072 0.167-0.145 0.335-0.203 0.498 -0.044 0.123-0.076 0.241-0.112 0.361 -0.045 0.148-0.09 0.297-0.124 0.44 -0.028 0.122-0.046 0.239-0.066 0.357 -0.022 0.132-0.043 0.264-0.055 0.392 -0.011 0.118-0.014 0.233-0.017 0.347 -0.002 0.118-0.002 0.235 0.005 0.348 0.007 0.114 0.02 0.226 0.035 0.335 0.015 0.104 0.034 0.205 0.057 0.305 0.025 0.11 0.055 0.217 0.09 0.321 0.03 0.089 0.064 0.176 0.101 0.261 0.045 0.105 0.092 0.208 0.146 0.307 0.042 0.074 0.088 0.145 0.136 0.216 0.065 0.1 0.132 0.199 0.209 0.292 0.048 0.059 0.104 0.114 0.156 0.17 0.089 0.095 0.179 0.19 0.28 0.278 0.048 0.042 0.103 0.079 0.153 0.118 0.119 0.093 0.238 0.185 0.37 0.268 0.03 0.019 0.065 0.034 0.096 0.053 0.711 0.421 1.604 0.702 2.651 0.824 0.005 0 0.01 0.002 0.015 0.002l0 0c0.333 0.038 0.676 0.064 1.038 0.071 0.055 0.268 0.122 0.521 0.195 0.765 2.503 0.17 4.321-0.324 5.588-1.262C38.826 96.513 37.753 93.917 35 93c-0.066-0.022-0.114-0.053-0.175-0.078 1.14-1.365 2.434-2.966 1.869-5.297C37.117 87.366 37.558 87.147 38 87c-0.526 0-1.051-0.064-1.561-0.171 -0.008-0.021-0.014-0.041-0.022-0.062 -0.649-1.574-2.054-2.709-3.728-3.014 -0.34-0.062-0.594-0.134-0.78-0.2 0.814-1.526 7.467-5.587 5.172-9.072C37.076 74.321 37.054 74.161 37 74c-0.469-1.406-2.256-1.717-4.125-2.265 -1.273-0.643-1.9-1.217-2.112-1.498 0.835-2.016 4.208-2.979 3.613-6.836 -0.023-0.151-0.061-0.283-0.093-0.421C35.064 61.762 35.654 60.383 36 59c-2.654 0-5.738-0.886-6.935-2.648 0.671-2.583 4.604-5.38 5.379-8.358C35.933 47.333 37.533 46.733 39 46c-2.268 0-5.672-2.285-5.907-4.265 1.794-0.933 4.501-2.122 5.292-4.294C39.51 36.902 40.654 36.449 42 36c-1.533-1.533-4.232-3.065-4.512-4.147 0.002-0.164 0.015-0.319 0.049-0.459C37.62 31.25 37.765 31.117 38 31c0.601-0.501 1.139-0.953 1.643-1.384 1.969-0.763 4.708-1.311 5.634-4.029 0.562-1.646 0.227-3.465-0.883-4.804 -0.038-0.045-0.067-0.086-0.103-0.131C44.239 19.868 44.143 19 44 18c0-0.108 0.028-0.203 0.046-0.303 1.513-0.886 5.085-0.883 6.688-2.587C52.493 15.002 54.354 15 56 15c-2.998-2.248-3.187-6.181-1.41-8.432 2.518-0.036 5.943 1.124 8.015-0.858 0.85 0.217 1.684 0.465 2.475 0.783C64.712 5.458 65 4.084 65 3c0.618-0.618 1.411-1.101 2.289-1.455 0.968 0.286 2.057 0.732 3.226 0.732 1.549 0 2.476-0.408 3.107-0.984C75.083 1.771 76.327 2.654 77 4c-1-3 0.763-5.015 2-6 0.086-0.069 0.169-0.131 0.254-0.197 0.179 0.045 0.364 0.096 0.56 0.155 6.004 1.811 2.094-4.704 11.569-0.169 2.221 1.062 3.684 0.428 4.853-0.393 2.464 0.842 5.023 1.989 4.691 2.624 1.099-0.776 2.167-1.444 3.223-1.97 1.854 1.007 3.764 1.597 6.002-0.323 0.294-0.252 0.583-0.46 0.869-0.645 1.061 0.28 2.146 0.77 3.276 1.523 0.594 1.188 2.477 3.767 1.296 4.536 1.856-0.819 3.612-1.951 5.392-2.728 1.276 1.018 2.52 1.82 3.775 1.82 1.223 0 2.636-0.728 4.158-1.078C129.521 1.527 130 2.024 130 3c0 0.945-0.231 1.659-0.678 2.157 2.01-0.653 3.993-1.064 5.887-1.042 0.202 0.302 0.404 0.622 0.606 0.979 1.647 2.906 3.893 2.402 5.541 2.454 0.046 1.747-0.923 3.8-3.209 4.319 2.041-0.107 4.381 0.482 6.373 1.589 0.593 0.818 1.423 1.442 2.398 1.783 1.505 1.5 2.41 3.42 2.092 5.625 0.928-0.192 1.892-0.23 2.989 0.136 2 2 5 7 1 9 5-1 13 2 9 8 0 0-2 1-3 2 2.843 0 5.671 0.522 7.796 1.891 1.167 1.209 1.636 3.042-0.778 7.375 -0.452 0.81-0.688 1.509-0.768 2.131C164.261 51.777 163.16 52 162 52c1.239 0 2.303 0.176 3.271 0.447 0.374 2.064 2.676 3.243 4.129 5.238 -0.965 1.202-2.816 2.259-4.399 3.314 2.108 0.327 3.335 2.419 3.607 4.834 -0.124 0.531-0.136 1.1 0.03 1.726 -0.155 2.112-1.008 4.218-2.638 5.44 -0.3 0-0.528 0-0.566 0 1.001 0.317 1.839 0.995 2.321 1.773 -0.568 0.78-1.27 1.53-2.125 2.162 -2.992 2.21-2.23 4.737-1.201 6.494 -0.315-0.025-0.654-0.061-1.049-0.117 0.066 0 0.831-1.633 1.613-1.009 0.339 0.482 0.64 0.861 0.766 1.083 -0.158 0.386 0.498 1.692-2.447 4.122 -2.049 1.69-1.842 4.799-0.19 6.88 0.944 1.19 1.349 2.315 1.445 3.341 -0.477 2.259-1.398 4.345-2.536 5.492 0.165 0 0.327-0.022 0.49-0.039 0.126 0.266 1.102 0.021 2.154-0.721 1.038-0.628 1.877-1.619 2.333-2.884 0.802-1.969 0.696-4.71-1.882-8.206 7.336-6.051 6.458-7.235 3.475-10.415C173.953 77.003 176.071 69.558 173.59 66.428z" fill="#3a353a" stroke-width="none" opacity="1" stroke="none"></path><path id="SvgjsPath17086" d="M174.299 66.416c3.293-3.392 1.876-11.575-3.25-14.88 1.12-2.01 2.44-4.31 2.62-6.62 0.191-2.535-1.812-6.772-4.58-8.11 2.549-6.915-1.351-11.307-6.09-12.18 2.412-7.708-6.373-14.135-13.939-14.56 0-5.233-2.849-8.217-8.61-7.95 -3.271-5.763-8.628-8.322-15.55-5.48 -6.263-7.151-13.772-6.987-18.03-3.34 -4.078-2.933-9.855-4.615-13.45-0.63 -4.297-2.055-9.469-3.629-12.34-0.07 -2.803-0.845-9.092-1.229-10.88 4.05 -5.332-1.761-9.714-0.724-11.41 4.74 -7.848-1.643-13.989 2.354-12.42 9.96 -7.782 0.308-10.638 7.607-6.73 12.32 -4.588 1.033-9.819 5.691-6.82 12.02 -6.342 2.346-9.419 7.351-4.14 11.74 -4.602 4.192-8.915 13.07-0.17 16.88 -5.861 5.104-3.096 10.314 2.3 12.57 -5.79 3.619-6.346 10.97 0.13 12.15 -2.858 4.098-1.602 8.805 4.17 8.9 1.995 9.712 16.81 4.148 12.39-7.41v-0.01c3.433-1.22 5.983-7.964 2.54-13.4 2.995-4.138 1.749-5.778-0.39-10.94 4.537-1.58 5.66-5.331 4.24-9.24 6.073 0.623 10.812-1.999 12.96-5.84 4.749 0.733 8.072-1.908 9.53-6.04 5.768 1.377 10.458-1.623 11.55-6.19 3.305 0.621 5.926-0.446 7.43-3.7 2.279 1.258 4.956 1.851 7.39 1.04 3.477 3.271 7.086 3.713 10.67 2.2 1.332 2.827 4.07 3.576 7.2 3.09 1.018 3.134 5.415 5.06 9.46 4.91 0.441 5.225 4.121 8.416 8.25 8.93 -1.039 7.4 0.329 12.072 8.07 12.44 -2.208 7.042-1.61 8.265 2.319 12.19 -1.379 4.964-0.396 7.617 2.971 11.67 -7.787 12.375 2.62 19.174 7.68 11.5 6.18 2.762 11.669-4.593 6.44-11.67 4.317-3.566 7.809-5.878 3.54-10.43C174.24 77.414 176.76 69.558 174.299 66.416zM168.6 80.305c-1-0.87-2.221-1.56-3.4-1.74 0.59 0.095 2.724 1.762 3.7 3.62 2.193 3.788-2.641 8.104-3.641 8.58 -0.63-0.72-1.399-1.32-2.27-1.71 4.498 1.989 4.397 15.001-3.12 13.23 1.866-3.573 1.295-7.331 1.295-7.331s0.289-0.26-1.816 5.105c-3.267 8.313-12.995 4.456-7.328-8.034 0.451-1.005 1.216-2.309 2.31-2.44 -0.68 0.02-1.27 0.4-1.78 0.93 -4.503-7.609-3.564-11.15-1.56-15.6 -0.79 1.24-1.45 2.58-1.93 3.97 -4.906-4.514-1.425-13.327-0.33-16.7 -0.7 1.4-1.41 2.94-1.99 4.54 -9.358-0.954-9.139-14.536-6.12-15.1 -1.2-0.15-1.8 1.13-2.11 2.63 -3.972-1.242-9.11-5.575-7.75-14.05 -0.439 1.52-0.72 3.17-0.739 4.82 -3.147-0.441-8.19-1.053-9.051-4.32l0.311-3.92c-0.62 1.28-1.03 2.64-0.83 3.96 -8.767 0.467-7.61-8.084-6.51-9.93 -0.899 1.236-1.521 4.139-1 6.17 -5.244 1.009-7.273 0.052-9.391-1.11 3.052-1.383 5.58-5.213 6-7.56 -0.153 0.813-2.374 3.287-3.01 3.86 -1.835 1.646-3.758 2.042-5.18 2.48h-0.01c-1.831 0.58-3.86 0.32-5.661-0.3 0.656-1.524 0.784-4.702 0.62-5.04 0.227 1.095-1.416 8.48-8.2 8.48 0.14-1.33-0.08-2.69-0.74-3.95 2.076 5.417-4.969 11.143-10.82 10.68 0.572-1.61 1.061-5.427 1-5.67 0.173 1-3.134 11.186-10.24 11.28 0.41-1.03 0.59-2.17 0.44-3.4 0.453 3.618-5.418 9.59-14.1 9.59 -0.57-1.32-1.42-2.53-2.39-3.5 2.111 3.032 2.345 6.896 1.96 7.3 0 1.958-2.408 3.82-4.16 4.77 -0.83-1.67-1.88-3.24-3.04-4.58 2.176 3.245 6.751 10.324 3.61 16.18 -0.882-1.159-1.674-2.069-4.591-3.262 6 2.454 7.52 14.298 2.142 16.592 -0.813-1.504-2.588-3.028-2.588-3.028s1.437 1.745 1.908 3.979c0.512 1 0.633 5.174-1.87 8.39 -1.934 2.5-6.979 3.894-8.85-1.25 1.71-0.09 3.43-0.58 4.63-1.27 -1.479 0.748-9.968 1.232-9.34-4.28 0.301-3.081 2.626-6.51 5.77-6.51 -1.84-0.27-3.73 0.71-5.13 2.22 -7.167-2.636-2.441-10.856 4.77-13.85 -1 0.269-2.281 0.543-4.55 1.91 -8.558-4.525-1.959-13.669 1.67-14.3 -1.56 0.14-2.99 0.84-4.25 1.78 -8.094-4.805-1.063-18.69 4.81-17.8 -1.85-0.58-3.42 0-4.79 1.04 -5.861-5.887 4.912-12.546 8.54-11.51 -1.31-0.48-2.69-0.38-4.02-0.01 -0.86-3.383 0.16-11.205 11.24-11.75 -1.45-0.15-2.93-0.27-4.37-0.1 -3.506-6.863 2.523-13.311 11.41-11.15 -1.44-0.57-3.04-0.92-4.63-0.99 0-12.784 15.759-8.419 16.88-8.29 -1.48-0.5-3.02-1.02-4.57-1.42 3.495-6.831 14.659-4.202 15.91-0.45 -0.41-1.85-2.07-3.05-3.77-3.83 3.366-5.466 11.211-4.896 12.29-1.93 -0.19-0.78-0.62-1.38-1.18-1.83 2.964-2.01 12.098-1.161 13.67 2.6 -0.3-1.23-1.08-2.13-2.07-2.8 1.896-1.267 6.499-1.938 11.55 0.48 -1.103 1.13-1.61 2.212-2.47 3.47 1.06-1.12 2.04-2.23 3.21-3.08 1.07 0.64 1.91 1.54 2.25 2.89 -0.132-1-0.128-1.918-1.66-3.28 4.873-3.02 10.861 0.167 15.53 3.56 -1.141 0.54-2.28 1.07-3.44 1.49 6.318-1.098 10.604-4.965 18.681 3.39 -1.721 0.24-3.431 0.62-4.98 0.84 0.387 0.02 7.437-0.082 7.69 0.16 3.846 0.547 5.627 3.225 6.579 6.81 -1.229 0.17-2.289 0.73-2.84 1.96 2.756-4.704 17.408 3.675 16.391 12.35 -1.83-0.02-3.63 0.46-5.24 1.47 6.482-2.601 13.192 1.838 11.71 10.49 -0.73-0.06-1.45 0.12-2.11 0.66 2.186-1.81 8.681 2.768 4.641 14 -1.08-0.49-2.25-0.6-3.16 0.28 3.409-3.306 9.756 10.281 6.7 14.58 -1.051-0.86-2.311-1.5-3.7-1.8C175.596 65.811 173.77 75.195 168.6 80.305z" fill="#000000" stroke-width="none" opacity="1" stroke="none"></path></g><g id="svga-group-glasses-single" ><path id="SvgjsPath17045" d="M100,18.13L100,18.13L100,18.13L100,18.13z" fill="#26120b" stroke-width="none" opacity="1"></path></g></g></g><rect id="SvgjsRect16898" width="200" height="15" x="0" y="185" fill="#ecf0f1" opacity="0.5" style="display:none;"></rect><text id="SvgjsText16899" font-family="&quot;Roboto&quot;, &quot;Helvetica Neue&quot;, Helvetica, Arial, sans-serif" style="font-size:0.84em;font-family:&quot;Roboto&quot;, &quot;Helvetica Neue&quot;, Helvetica, Arial, sans-serif;text-anchor:middle;font-weight:400;display:none;" font-size="0.84em" text-anchor="middle" font-weight="400" fill="#000000" x="100" y="185"><tspan id="SvgjsTspan16900" dy="1.2em" x="100" style="font-size:0.84em;font-family:&quot;Roboto&quot;, &quot;Helvetica Neue&quot;, Helvetica, Arial, sans-serif;text-anchor:middle;font-weight:400;">Created on AvatarMaker.com</tspan></text></g><defs id="SvgjsDefs16866"><radialGradient id="SvgjsRadialGradient16914" cx="100" cy="113" r="40" gradientUnits="userSpaceOnUse" class="svga-on-canvas-facehighlight-gradient-single-0"><stop id="SvgjsStop16915" stop-opacity="0.5" stop-color="#ffe2d6" offset="0" ></stop><stop id="SvgjsStop16916" stop-opacity="0" stop-color="#ffd0bc" offset="0.9" ></stop></radialGradient><radialGradient id="SvgjsRadialGradient16918" cx="100" cy="57" r="36" gradientUnits="userSpaceOnUse" class="svga-on-canvas-facehighlight-gradient-single-1"><stop id="SvgjsStop16919" stop-opacity="0.5" stop-color="#ffe2d6" offset="0" ></stop><stop id="SvgjsStop16920" stop-opacity="0" stop-color="#ffd0bc" offset="0.9" ></stop></radialGradient><radialGradient id="SvgjsRadialGradient16999" cx="-558.588" cy="-490.918" r="84.646" gradientTransform="matrix(0.096 -0.0248 0.0245 0.0961 140.5478 120.3577)" gradientUnits="userSpaceOnUse" class="svga-on-canvas-eyesiris-gradient-left-1"><stop id="SvgjsStop17000" stop-opacity="0.8" stop-color="#ffffff" offset="0" ></stop><stop id="SvgjsStop17001" stop-opacity="0" stop-color="#ffffff" offset="1" ></stop></radialGradient><radialGradient id="SvgjsRadialGradient17003" cx="-565.337" cy="-492.691" r="84.644" gradientTransform="matrix(0.0991 8.856325e-004 -0.0011 0.0991 130.3774 136.3533)" gradientUnits="userSpaceOnUse" class="svga-on-canvas-eyesiris-gradient-left-2"><stop id="SvgjsStop17004" stop-opacity="0.8" stop-color="#ffffff" offset="0" ></stop><stop id="SvgjsStop17005" stop-opacity="0" stop-color="#ffffff" offset="1" ></stop></radialGradient><linearGradient id="SvgjsLinearGradient17009" x1="122.283" y1="93.047" x2="123.61" y2="91.466" gradientTransform="matrix(1 0 0 1 -52 0)" gradientUnits="userSpaceOnUse" class="svga-on-canvas-eyesiris-gradient-left-5"><stop id="SvgjsStop17010" stop-opacity="1" stop-color="#ffffff" offset="0" ></stop><stop id="SvgjsStop17011" stop-opacity="0" stop-color="#ffffff" offset="1" ></stop></linearGradient><linearGradient id="SvgjsLinearGradient17013" x1="127" y1="85" x2="125" y2="87" gradientTransform="matrix(1 0 0 1 -50 0)" gradientUnits="userSpaceOnUse" class="svga-on-canvas-eyesiris-gradient-left-6"><stop id="SvgjsStop17014" stop-opacity="1" stop-color="#ffffff" offset="0" ></stop><stop id="SvgjsStop17015" stop-opacity="0" stop-color="#ffffff" offset="1" ></stop></linearGradient><linearGradient id="SvgjsLinearGradient17017" x1="130" y1="81" x2="126" y2="85" gradientTransform="matrix(1 0 0 1 -50 0)" gradientUnits="userSpaceOnUse" class="svga-on-canvas-eyesiris-gradient-left-7"><stop id="SvgjsStop17018" stop-opacity="1" stop-color="#ffffff" offset="0" ></stop><stop id="SvgjsStop17019" stop-opacity="0" stop-color="#ffffff" offset="1" ></stop></linearGradient><radialGradient id="SvgjsRadialGradient17022" cx="-578.76" cy="-490.73" r="84.646" gradientTransform="matrix(0.096 -0.0248 0.0245 0.0961 192.4794 119.8404)" gradientUnits="userSpaceOnUse" class="svga-on-canvas-eyesiris-gradient-right-1"><stop id="SvgjsStop17023" stop-opacity="0.8" stop-color="#ffffff" offset="0" ></stop><stop id="SvgjsStop17024" stop-opacity="0" stop-color="#ffffff" offset="1" ></stop></radialGradient><radialGradient id="SvgjsRadialGradient17026" cx="-584.778" cy="-487.329" r="84.644" gradientTransform="matrix(0.0991 8.856325e-004 -0.0011 0.0991 182.3104 135.839)" gradientUnits="userSpaceOnUse" class="svga-on-canvas-eyesiris-gradient-right-2"><stop id="SvgjsStop17027" stop-opacity="0.8" stop-color="#ffffff" offset="0" ></stop><stop id="SvgjsStop17028" stop-opacity="0" stop-color="#ffffff" offset="1" ></stop></radialGradient><linearGradient id="SvgjsLinearGradient17032" x1="120.284" y1="93.047" x2="121.611" y2="91.467" gradientUnits="userSpaceOnUse" class="svga-on-canvas-eyesiris-gradient-right-5"><stop id="SvgjsStop17033" stop-opacity="1" stop-color="#ffffff" offset="0" ></stop><stop id="SvgjsStop17034" stop-opacity="0" stop-color="#ffffff" offset="1" ></stop></linearGradient><linearGradient id="SvgjsLinearGradient17036" x1="127" y1="85" x2="125" y2="87" gradientUnits="userSpaceOnUse" class="svga-on-canvas-eyesiris-gradient-right-6"><stop id="SvgjsStop17037" stop-opacity="1" stop-color="#ffffff" offset="0" ></stop><stop id="SvgjsStop17038" stop-opacity="0" stop-color="#ffffff" offset="1" ></stop></linearGradient><linearGradient id="SvgjsLinearGradient17040" x1="130" y1="81" x2="126" y2="85" gradientUnits="userSpaceOnUse" class="svga-on-canvas-eyesiris-gradient-right-7"><stop id="SvgjsStop17041" stop-opacity="1" stop-color="#ffffff" offset="0" ></stop><stop id="SvgjsStop17042" stop-opacity="0" stop-color="#ffffff" offset="1" ></stop></linearGradient><radialGradient id="SvgjsRadialGradient17104" cx="125.523" cy="88.627" r="13.218" gradientTransform="matrix(-1.0975 0.096 0.0956 1.0928 203.2283 -20.8703)" gradientUnits="userSpaceOnUse" class="svga-on-canvas-eyesback-gradient-left-0"><stop id="SvgjsStop17105" stop-opacity="1" stop-color="#ffffff" offset="0" ></stop><stop id="SvgjsStop17106" stop-opacity="1" stop-color="#fdfefe" offset="0.544" ></stop><stop id="SvgjsStop17107" stop-opacity="1" stop-color="#f6f8f9" offset="0.74" ></stop><stop id="SvgjsStop17108" stop-opacity="1" stop-color="#eaeff2" offset="0.879" ></stop><stop id="SvgjsStop17109" stop-opacity="1" stop-color="#d9e3e8" offset="0.992" ></stop><stop id="SvgjsStop17110" stop-opacity="1" stop-color="#d8e2e7" offset="1" ></stop></radialGradient><radialGradient id="SvgjsRadialGradient17112" cx="125.523" cy="88.627" r="13.218" gradientTransform="matrix(1.0975 0.096 -0.0956 1.0928 -3.2288 -20.8703)" gradientUnits="userSpaceOnUse" class="svga-on-canvas-eyesback-gradient-right-0"><stop id="SvgjsStop17113" stop-opacity="1" stop-color="#ffffff" offset="0" ></stop><stop id="SvgjsStop17114" stop-opacity="1" stop-color="#fdfefe" offset="0.544" ></stop><stop id="SvgjsStop17115" stop-opacity="1" stop-color="#f6f8f9" offset="0.74" ></stop><stop id="SvgjsStop17116" stop-opacity="1" stop-color="#eaeff2" offset="0.879" ></stop><stop id="SvgjsStop17117" stop-opacity="1" stop-color="#d9e3e8" offset="0.992" ></stop><stop id="SvgjsStop17118" stop-opacity="1" stop-color="#d8e2e7" offset="1" ></stop></radialGradient><radialGradient id="SvgjsRadialGradient17120" cx="125.523" cy="88.627" r="13.218" gradientTransform="matrix(-1.0975 0.096 0.0956 1.0928 203.2283 -20.8703)" gradientUnits="userSpaceOnUse" class="svga-on-canvas-eyesfront-gradient-left-0"><stop id="SvgjsStop17121" stop-opacity="1" stop-color="#ffffff" offset="0" ></stop><stop id="SvgjsStop17122" stop-opacity="1" stop-color="#fdfefe" offset="0.544" ></stop><stop id="SvgjsStop17123" stop-opacity="1" stop-color="#f6f8f9" offset="0.74" ></stop><stop id="SvgjsStop17124" stop-opacity="1" stop-color="#eaeff2" offset="0.879" ></stop><stop id="SvgjsStop17125" stop-opacity="1" stop-color="#d9e3e8" offset="0.992" ></stop><stop id="SvgjsStop17126" stop-opacity="1" stop-color="#d8e2e7" offset="1" ></stop></radialGradient><radialGradient id="SvgjsRadialGradient17130" cx="122.915" cy="85.507" fx="136.35" fy="84.425" r="17.038" gradientTransform="matrix(0.9926 0.1216 0.1079 -0.8805 -54.1424 145.8439)" gradientUnits="userSpaceOnUse" class="svga-on-canvas-eyesfront-gradient-left-3"><stop id="SvgjsStop17131" stop-opacity="1" stop-color="#f0b399" offset="0" ></stop><stop id="SvgjsStop17132" stop-opacity="0.3" stop-color="#f0b399" offset="0.7" ></stop><stop id="SvgjsStop17133" stop-opacity="0" stop-color="#ffd0bc" offset="1" ></stop></radialGradient><radialGradient id="SvgjsRadialGradient17135" cx="78.447" cy="85.328" r="26.192" gradientTransform="matrix(0.7158 -0.1012 0.1016 0.7275 7.9808 45.9445)" gradientUnits="userSpaceOnUse" class="svga-on-canvas-eyesfront-gradient-left-4"><stop id="SvgjsStop17136" stop-opacity="0" stop-color="#000000" offset="0.9" ></stop><stop id="SvgjsStop17137" stop-opacity="0.3" stop-color="#000000" offset="1" ></stop></radialGradient><radialGradient id="SvgjsRadialGradient17141" cx="125.523" cy="88.627" r="13.218" gradientTransform="matrix(1.0975 0.096 -0.0956 1.0928 -3.2288 -20.8703)" gradientUnits="userSpaceOnUse" class="svga-on-canvas-eyesfront-gradient-right-0"><stop id="SvgjsStop17142" stop-opacity="1" stop-color="#ffffff" offset="0" ></stop><stop id="SvgjsStop17143" stop-opacity="1" stop-color="#fdfefe" offset="0.544" ></stop><stop id="SvgjsStop17144" stop-opacity="1" stop-color="#f6f8f9" offset="0.74" ></stop><stop id="SvgjsStop17145" stop-opacity="1" stop-color="#eaeff2" offset="0.879" ></stop><stop id="SvgjsStop17146" stop-opacity="1" stop-color="#d9e3e8" offset="0.992" ></stop><stop id="SvgjsStop17147" stop-opacity="1" stop-color="#d8e2e7" offset="1" ></stop></radialGradient><radialGradient id="SvgjsRadialGradient17151" cx="122.915" cy="85.507" fx="136.35" fy="84.425" r="17.038" gradientTransform="matrix(-0.9926 0.1216 -0.1079 -0.8805 254.1424 145.8439)" gradientUnits="userSpaceOnUse" class="svga-on-canvas-eyesfront-gradient-right-3"><stop id="SvgjsStop17152" stop-opacity="1" stop-color="#f0b399" offset="0" ></stop><stop id="SvgjsStop17153" stop-opacity="0.3" stop-color="#f0b399" offset="0.7" ></stop><stop id="SvgjsStop17154" stop-opacity="0" stop-color="#ffd0bc" offset="1" ></stop></radialGradient><radialGradient id="SvgjsRadialGradient17156" cx="78.447" cy="85.328" r="26.192" gradientTransform="matrix(-0.7158 -0.1012 -0.1016 0.7275 192.0192 45.9445)" gradientUnits="userSpaceOnUse" class="svga-on-canvas-eyesfront-gradient-right-4"><stop id="SvgjsStop17157" stop-opacity="0" stop-color="#000000" offset="0.9" ></stop><stop id="SvgjsStop17158" stop-opacity="0.3" stop-color="#000000" offset="1" ></stop></radialGradient><linearGradient id="SvgjsLinearGradient17200" x1="100" y1="142" x2="100" y2="139" gradientUnits="userSpaceOnUse" class="svga-on-canvas-mouth-gradient-single-0"><stop id="SvgjsStop17201" stop-opacity="1" stop-color="#f7c1aa" offset="0.1" ></stop><stop id="SvgjsStop17202" stop-opacity="1" stop-color="#f0b399" offset="1" ></stop></linearGradient><linearGradient id="SvgjsLinearGradient17222" x1="99.98" y1="171.27" x2="99.98" y2="136.351" gradientUnits="userSpaceOnUse" class="svga-on-canvas-chinshadow-gradient-single-0"><stop id="SvgjsStop17223" stop-opacity="0.8" stop-color="#f0b399" offset="0" ></stop><stop id="SvgjsStop17224" stop-opacity="1" stop-color="#d17f5b" offset="0.7" ></stop></linearGradient></defs></svg>