<svg xmlns="http://www.w3.org/2000/svg" version="1.1" width="600px" height="600px" xlink="http://www.w3.org/1999/xlink" style="overflow:hidden!important;"><g id="svga-group-wrapper" transform="scale(3 3)"><g id="svga-group-backs-single"><path id="SvgjsPath13490" d="M225 225H-25V-25h250V225z" fill="#ecf0f1" stroke-width="none" opacity="1"></path><path id="SvgjsPath13491" d="M99.093,225h-0.221L-25-23.26V-25H1.992L99.093,225z M58.936-25H34.616l64.735,250h0.193L58.936-25z M-25,146.607v15.437L96.026,225h0.738L-25,146.607z M112.078-25H88.791l10.991,250h0.185L112.078-25z M-25,103.112v21.017L97.442,225h0.412L-25,103.112z M92.652,225H94.6L-25,179.631v12.78L92.652,225z M-25,36.37v33.745L98.278,225h0.281L-25,36.37z M225,162.044v-15.437L103.236,225h0.737L225,162.044z M225,192.411v-12.78L105.4,225h1.947L225,192.411z M225,124.128v-21.016L102.146,225h0.412L225,124.128z M165.383-25h-24.318l-40.609,250h0.193L165.383-25z M225,70.114V36.37L101.44,225h0.281L225,70.114z M225-23.261V-25h-26.992l-97.101,250h0.221L225-23.261z" fill="url(#SvgjsRadialGradient13492)" opacity="1"></path></g><g id="svga-group-subwrapper" ><g id="svga-group-hair-back" ><path id="SvgjsPath13398" d="M100.5,100.5h-1v-1h1V100.5z" fill="#fef6e1" stroke-width="none" opacity="1" stroke="none"></path></g><g id="svga-group-humanbody-single"><path id="SvgjsPath13240" d="M195.417 199.778c-2.196-4.746-8.195-11.779-14.86-13.722 -8.239-2.403-26.837-5.308-33.733-6.923 -5.528-1.296-16.662-11.294-20.564-14.65 -0.7-0.6-1.273-1.839-1.287-2.76 -0.139-10.864 4.195-39.724 4.195-39.724H100 70.833c0 0 4.334 28.859 4.193 39.724 -0.011 0.921-0.587 2.16-1.285 2.76 -3.902 3.356-15.036 13.354-20.564 14.65 -6.897 1.615-25.495 4.619-33.733 7.022 -6.667 1.942-12.664 8.876-14.86 13.622 -3.708 8.008-4.584 22.5-4.584 35h100 100C200 222.278 199.123 207.786 195.417 199.778z" fill="#e9b995" stroke-width="none" opacity="1" stroke="none"></path><path id="SvgjsPath13241" d="M159.156 184.058c24.342 3.542 34.586 8.708 37.794 50.721H200c0-12.5-0.877-26.992-4.583-35 -2.196-4.746-8.195-11.779-14.86-13.722 -8.239-2.403-26.837-5.308-33.733-6.923 -5.528-1.296-18.242-12.069-21.643-16.35 3.36 4.704 12.791 15.605 21.054 18.46C150.188 182.61 153.48 183.232 159.156 184.058zM53.766 181.244c8.263-2.854 17.693-13.756 21.054-18.46 -3.4 4.28-16.114 15.054-21.643 16.35 -6.896 1.615-25.494 4.619-33.733 7.022 -6.665 1.942-12.664 8.876-14.86 13.622 -3.706 8.008-4.583 22.5-4.583 35h3.05c3.188-41.744 13.475-47.183 37.794-50.721C46.52 183.232 49.813 182.61 53.766 181.244z" fill="#f8d3b8" stroke-width="none" opacity="1" stroke="none"></path><path id="SvgjsPath13242" d="M95.646 197.62c0 0-5.074-1.609-7.083-2.379 -10.449-4.009-44.395-6.607-44.395-6.607s35.754 1.419 43.644 2.779c-0.458-4.767-3.017-20.004-3.017-20.004s5.149 16.815 6.409 21.057C91.878 194.734 95.646 197.62 95.646 197.62zM106.445 196.278c-0.089 0.073-0.191 0.168-0.302 0.268C106.256 196.461 106.358 196.372 106.445 196.278zM95.646 197.62c0 0 2.893 2.992 4.347 3.03 1.91 0.051 4.828-2.899 6.151-4.104 -1.265 0.957-4.159 1.391-5.31 1.436C99.504 198.033 95.646 197.62 95.646 197.62zM116.664 190.101c-1.545 0.248-4.386 0.789-4.386 0.789l2.287-14.89c-0.646 3.071-4.474 16.211-8.12 20.278 1.91-1.616 6.158-2.391 8.324-2.704 10.236-1.484 10.232-1.483 41.062-4.94C155.831 188.634 126.76 188.479 116.664 190.101z" fill="#daa075" stroke-width="none" opacity="1" stroke="none"></path><path id="SvgjsPath13243" d="M195.417 199.778c-2.196-4.746-8.195-11.779-14.86-13.722 -8.239-2.403-26.837-5.308-33.733-6.923 -5.528-1.296-16.662-11.294-20.564-14.65 -0.7-0.6-1.273-1.839-1.287-2.76 -0.139-10.864 4.195-39.724 4.195-39.724H100 70.833c0 0 4.334 28.859 4.193 39.724 -0.011 0.921-0.587 2.16-1.285 2.76 -3.902 3.356-15.036 13.354-20.564 14.65 -6.897 1.615-25.495 4.619-33.733 7.022 -6.667 1.942-12.664 8.876-14.86 13.622 -3.708 8.008-4.584 22.5-4.584 35h100 100C200 222.278 199.123 207.786 195.417 199.778z" fill="none" stroke="#bb7440" stroke-width="1.5" opacity="1"></path></g><g id="svga-group-chinshadow-single"><path id="SvgjsPath13478" d="M124.253 159.292c0.209-6.588 1.387-16.822 2.44-24.934 -15.046-2.317-38.404-2.272-53.372 0.112 1.041 8.028 2.198 18.103 2.419 24.664 8.455 6.921 18.045 12.742 24.414 12.731C106.453 171.856 115.887 166.136 124.253 159.292z" fill="url(#SvgjsLinearGradient13479)" opacity="1"></path></g><g id="svga-group-clothes-single" ><path id="SvgjsPath13465" d="M-0.35 235.399c-5.397-68.442 34.095-42.726 62.751-62.455 0.43-2.869 2.012-4.49 4.209-6.688 8.539-8.537 3.556-12.475 6.837-16.225 0.061 0.682 0.121 1.609 0.203 2.609 14.335 15.54 41.122 21.975 52.534 1.957 0.057-1.388 0.281-4.84 0.455-6.532 2.596 1.968 2.467 4.504 2.671 7.165 0.952 12.423 8.132 15.523 9.356 18.519 29.112 18.84 64.362-8.488 61.582 61.22C190.104 235.4 82.543 236.083-0.35 235.399z" fill="#4b2824" stroke-width="none" opacity="1" stroke="none"></path><path id="SvgjsPath13466" d="M200.249 234.97c-0.493 0.021-1.225 0.043-2.165 0.064C197.343 222.419 196.966 209.61 190 198c-10-16-30-10-46-18 -12.592-5.396-14.666-18.072-15.685-30.026 0.869 1.59 0.853 3.393 0.995 5.258 0.952 12.423 8.132 15.523 9.356 18.519C167.779 192.59 203.029 165.262 200.249 234.97zM12 194.805c11.883-11.718 38-5.801 51-20.801 2.369-5.019 8.619-7.769 9.354-21.899 -0.828 3.247 1.257 7.153-5.743 14.152 -2.197 2.197-3.779 3.818-4.209 6.688 -28.656 19.729-68.148-5.987-62.751 62.455 0.475 0.004 0.955 0.008 1.432 0.012C0.058 220.805 2.523 204.149 12 194.805zM73.869 166.735c14.154 9.8 28.403 14.222 47.5 6.75C98.572 180.314 85.85 173.819 73.869 166.735zM93.095 170.59c12.673 4 24.608 2.148 35.774-6.604C117.411 171.174 106.868 173.999 93.095 170.59zM67.786 176.957c11.886 10.565 44.754 17.908 69.083-1.222C111.67 193.004 79.525 186.392 67.786 176.957zM86.209 180.108c16.699 7.246 43.293-0.997 47.602-5.373C129.232 178.65 101.399 185.549 86.209 180.108z" fill="#5a3834" stroke-width="none" opacity="1" stroke="none"></path><path id="SvgjsPath13467" d="M139.439 173.615h-0.011c-0.119-0.06-0.239-0.13-0.359-0.2 -0.018-0.054-0.39-0.846-0.851-1.3 -13.21-13.021-4.921-19.103-11.609-24.479 -0.035 0.62-0.531 4.908-0.62 6.819 -11.334 19.824-38.513 12.837-52.13-1.939 -0.045-0.542-0.211-2.664-0.29-3.221 -1.843 1.843-2.156 3.686-2.122 6.281 0.117 9.025-8.533 10.548-9.508 17.079 -28.303 19.487-68.409-6.355-62.75 63.24 84.796 0.705 195.013-0.026 201.541-0.45C203.572 167.624 173.061 191.379 139.439 173.615zM126.739 148.365c0.092 0.092 0.661 0.819 1.11 1.521 -0.366 1-0.638 2.347-1.53 3.93C126.651 149.852 126.667 149.771 126.739 148.365zM73.379 150.216c0.037 0.463 0.12 1.46 0.16 1.949 -0.29-0.31-0.57-0.6-0.82-0.88C72.919 150.905 73.129 150.545 73.379 150.216zM65.859 167.075c18.439 21.978 40.26 18.955 62.26 11.08 -30.612 9.414-44.329 5.81-61.99-11.37 7.46-6.32 5.691-8.829 6.35-15.01 20.39 23.21 50.375 17.96 55.81-1.13h0.01c1.958 11.071-2.637 8.336 10.301 23.06 -12.049 15.935-54.963 20.369-76.121-0.739C62.904 170.416 64.056 168.941 65.859 167.075zM0.109 234.838C0 165.37 32.869 196.235 62.059 173.204c18.395 20.038 59.684 22.314 76.89 0.892 24.883 17.816 61.965-6.61 60.533 60.223C140.951 233.913 65.786 234.118 0.109 234.838zM120.929 174.306c-5.603 3.779-29.402 8.238-44-5.38h-0.01l-0.07-0.061c0.235 0.061 0.513 0.131 0.73 0.46 -0.01-0.01-0.03-0.03-0.06-0.05 -0.085-0.105-0.354-0.32-0.5-0.32C103.716 186.869 130.316 168.975 120.929 174.306zM128.089 164.665c-17.654 15.185-38.134 9.989-54.24-3.34C89.656 172.72 108.896 177.796 128.089 164.665z" fill="#1d0805" stroke-width="none" opacity="1" stroke="none"></path></g><g id="svga-group-head" ><g id="svga-group-ears-left" ><path id="SvgjsPath13460" d="M47.001 83.231c-1.376-2.453-5.638-8.48-9.98-7.003 -2.749 0.935-3.293 3.993-3.735 6.693 -0.588 3.591 0.471 10.694 1.389 13.26 0.881 2.467 3.533 7.23 5.264 9.045 2.13 2.225 4.775 9.324 5.194 10.061 0.66 1.162 1.536 2.911 4.122 2.692 2.853-0.244 4.584-1.85 5.856-2.121C58.253 115.192 50.582 89.616 47.001 83.231z" fill="#e9b995" stroke="#bb7440" stroke-width="1.5" opacity="1"></path><path id="SvgjsPath13461" d="M44.197 98.104c-0.132-0.581 0.007-1.56 0.142-2.504 0.124-0.861 0.24-1.675 0.169-2.251 -0.267-2.154-1.773-6.249-2.757-8.467 -1.132-2.554-2.963-5.77-5.262-6.599 -0.95-0.343-1.575 0.067-1.938 0.484 -0.266 0.305-0.325 0.665-0.238 0.707 0.086 0.042 0.285-0.254 0.572-0.535 0.235-0.229 0.579-0.426 1.051-0.385 -0.19 1.073-1.167 6.883-0.744 10.845 0.333 3.115 1.593 5.442 1.79 5.791 0.029 0.367 0.077 0.726 0.148 1.075 0.929 4.547 4.971 9.717 6.378 11.409 0.259 0.313 0.531 0.497 0.598 0.423 0.066-0.076-0.094-0.387-0.353-0.7 -1.388-1.679-5.391-6.831-6.289-11.218 -0.952-4.656 2.318-11.556 3.048-13.017 0.371 0.685 0.687 1.344 0.93 1.893 0.19 0.431 0.402 0.936 0.619 1.479 -0.429 0.762-3.434 6.32-2.338 10.767 0.406 1.641 2.235 3.755 3.447 4.333 0.667 0.32 0.919 0.797 1.209 1.349 0.336 0.64 0.718 1.365 1.828 1.892 0.225 0.108 0.429 0.151 0.61 0.151 0.313 0 0.551-0.135 0.725-0.293 0.018 0.28 0.017 0.64 0.009 0.97 -0.012 0.431 0.042 0.783 0.137 0.791 0.094 0.008 0.196-0.332 0.207-0.76 0.016-0.526 0.013-1.177-0.072-1.488 -0.248-0.917-1.008-1.953-1.813-3.048C45.221 100.116 44.403 99.003 44.197 98.104zM36.95 94.073c-2.177-7.139 0.656-13.3 1.144-14.28 0.85 0.822 1.6 1.919 2.21 2.995C39.86 83.646 37.041 89.271 36.95 94.073zM46.341 104.515c-1.004-0.475-1.339-1.115-1.666-1.733 -0.293-0.559-0.598-1.136-1.369-1.505 -0.168-0.081-0.352-0.203-0.542-0.343 -2.486-6.263 0.272-9.001 0.963-9.562 0.211 0.766 0.369 1.468 0.439 2.031 0.063 0.517-0.052 1.339-0.167 2.134 -0.142 0.985-0.286 2.004-0.137 2.664 0.226 0.982 1.069 2.131 1.884 3.242 0.723 0.986 1.466 2.003 1.721 2.832C47.359 104.439 47.017 104.836 46.341 104.515z" fill="#bb7440" stroke-width="none" opacity="1" stroke="none"></path></g><g id="svga-group-ears-right" ><path id="SvgjsPath13462" d="M152.736 83.231c1.377-2.453 5.639-8.48 9.98-7.003 2.75 0.935 3.293 3.993 3.736 6.693 0.588 3.591-0.471 10.694-1.389 13.26 -0.881 2.467-3.533 7.23-5.266 9.045 -2.129 2.225-4.775 9.324-5.193 10.061 -0.658 1.162-1.535 2.911-4.121 2.692 -2.854-0.244-4.584-1.85-5.857-2.121C141.484 115.192 149.156 89.616 152.736 83.231z" fill="#e9b995" stroke="#bb7440" stroke-width="1.5" opacity="1"></path><path id="SvgjsPath13463" d="M153.727 101.196c-0.805 1.096-1.564 2.131-1.813 3.048 -0.086 0.311-0.088 0.962-0.072 1.488 0.012 0.428 0.113 0.768 0.207 0.76s0.148-0.36 0.137-0.791c-0.008-0.331-0.008-0.69 0.01-0.97 0.174 0.158 0.412 0.293 0.725 0.293 0.182 0 0.385-0.043 0.609-0.151 1.109-0.526 1.492-1.252 1.828-1.892 0.289-0.552 0.543-1.028 1.209-1.349 1.213-0.578 3.041-2.692 3.447-4.333 1.096-4.447-1.908-10.005-2.338-10.767 0.217-0.544 0.43-1.049 0.619-1.479 0.244-0.549 0.559-1.208 0.93-1.893 0.73 1.46 4 8.361 3.049 13.017 -0.896 4.387-4.9 9.539-6.289 11.218 -0.258 0.313-0.418 0.624-0.352 0.7 0.066 0.074 0.338-0.109 0.598-0.423 1.406-1.692 5.449-6.862 6.379-11.409 0.07-0.35 0.117-0.708 0.146-1.075 0.197-0.349 1.459-2.676 1.791-5.791 0.422-3.961-0.555-9.772-0.744-10.845 0.473-0.042 0.814 0.156 1.051 0.385 0.287 0.281 0.486 0.577 0.572 0.535 0.086-0.042 0.027-0.402-0.238-0.707 -0.363-0.417-0.988-0.827-1.938-0.484 -2.299 0.83-4.131 4.045-5.262 6.599 -0.984 2.218-2.49 6.313-2.758 8.467 -0.072 0.576 0.045 1.39 0.17 2.251 0.135 0.945 0.273 1.924 0.141 2.504C155.336 99.003 154.518 100.116 153.727 101.196zM159.434 82.787c0.611-1.075 1.361-2.173 2.211-2.995 0.488 0.98 3.32 7.141 1.145 14.28C162.697 89.271 159.879 83.646 159.434 82.787zM152.27 104.275c0.254-0.829 0.998-1.846 1.721-2.832 0.816-1.111 1.658-2.26 1.885-3.242 0.148-0.66 0.004-1.679-0.137-2.664 -0.115-0.795-0.23-1.617-0.166-2.134 0.068-0.563 0.227-1.266 0.438-2.031 0.691 0.561 3.449 3.299 0.965 9.562 -0.191 0.14-0.375 0.263-0.543 0.343 -0.771 0.369-1.074 0.946-1.369 1.505 -0.326 0.618-0.662 1.258-1.666 1.733C152.721 104.836 152.379 104.439 152.27 104.275z" fill="#bb7440" stroke-width="none" opacity="1" stroke="none"></path></g><g id="svga-group-faceshape-wrap" ><g id="svga-group-faceshape-single" ><path id="SvgjsPath13475" d="M158.918 78.006l-0.005 0c-0.012 0.054-9.983 41.375-18.186 54.159 -6.452 10.056-28.899 29.684-40.573 29.701 -11.671 0.021-34.17-19.539-40.652-29.576 -8.242-12.758-18.353-54.042-18.365-54.096h-0.001c-1.298-4.992-1.994-10.231-2.002-15.634C39.082 28.536 66.289 0.92 99.907 0.867c33.621-0.053 60.913 27.476 60.963 61.499C160.879 67.769 160.201 73.01 158.918 78.006z" fill="#e9b995" stroke-width="none" opacity="1"></path><path id="SvgjsPath13476" d="M124.597 6.119c18.568 10.001 31.371 30.966 31.404 55.247 0.008 5.403-0.616 10.644-1.796 15.641l-0.005 0c-0.011 0.054-9.185 41.375-16.73 54.159 -5.937 10.056-26.588 29.684-37.327 29.701 -10.737 0.021-31.437-19.539-37.4-29.576 -7.582-12.758-16.885-54.042-16.896-54.096h-0.001c-1.195-4.992-1.835-10.231-1.842-15.634C43.969 37.217 56.775 16.161 75.391 6.126 54.006 15.706 39.096 37.37 39.134 62.56c0.008 5.403 0.704 10.643 2.002 15.634h0.001c0.012 0.054 10.123 41.338 18.365 54.096 6.482 10.037 28.981 29.597 40.652 29.576 11.673-0.018 34.121-19.646 40.573-29.701 8.202-12.784 18.174-54.105 18.186-54.159l0.005 0c1.283-4.997 1.961-10.237 1.952-15.641C160.833 37.238 145.928 15.667 124.597 6.119z" fill="#e1ac85" stroke-width="none" opacity="1"></path><path id="SvgjsPath13477" d="M158.918 78.006l-0.005 0c-0.012 0.054-9.983 41.375-18.186 54.159 -6.452 10.056-28.899 29.684-40.573 29.701 -11.671 0.021-34.17-19.539-40.652-29.576 -8.242-12.758-18.353-54.042-18.365-54.096h-0.001c-1.298-4.992-1.994-10.231-2.002-15.634C39.082 28.536 66.289 0.92 99.907 0.867c33.621-0.053 60.913 27.476 60.963 61.499C160.879 67.769 160.201 73.01 158.918 78.006z" fill="none" stroke="#bb7440" stroke-width="1.5" opacity="1"></path></g></g><g id="svga-group-mouth-single" ><path id="SvgjsPath13449" d="M99.999 139.499c-5.771 0-7.125-2.385-7.125-2.385h14.253C107.127 137.114 105.074 139.499 99.999 139.499z" fill="url(#SvgjsLinearGradient13450)" opacity="1"></path><path id="SvgjsPath13453" d="M82.714 133.245c3.826-0.701 8.662-2.674 11.707-2.744 1.573-0.038 3.262 0.642 4.961 0.859 1.18 0.153 4.529-0.853 5.732-0.859 3.155-0.018 8.781 2.043 12.174 2.744 0.185 0.043 0 0 0 0s-7.021 4.444-17.287 4.444C88.381 137.689 82.714 133.245 82.714 133.245S82.525 133.283 82.714 133.245z" fill="#fe856a" stroke-width="none" opacity="1" stroke="none"></path><path id="SvgjsPath13454" d="M117.761 133.204c-0.258-0.056-0.84-0.021-1.045-0.016 -0.422 0.013-0.756-0.085-1.682-0.094 -1.033-0.009-5.48-0.199-6.948-0.25 -2.954-0.106-5.31 0.49-8.118 0.49 -2.811 0-5.368-0.653-8.323-0.548 -1.466 0.056-5.709 0.293-6.743 0.308 -0.921 0.013-1.282 0.098-1.709 0.089 -0.199-0.007-0.827-0.037-1.072 0.034 -0.203 0.064-0.124 0.414 0.04 0.505 0.395 0.22 1.938-0.171 2.719-0.161 1.078 0.011 5.335-0.037 6.826-0.09 2.888-0.104 5.464 0.606 8.262 0.606 2.801 0 5.173-0.657 8.063-0.553 1.485 0.053 5.941 0.044 7.021 0.036 0.783-0.01 2.45 0.33 2.849 0.161C118.091 133.641 117.989 133.254 117.761 133.204z" fill="#d03a18" stroke-width="none" opacity="1" stroke="none"></path><path id="SvgjsPath13455" d="M87.409 134.113c1.815-0.054 3.684-0.205 5.5-0.162 2.239 0.052 4.365 0.521 6.604 0.6 2.417 0.085 4.659-0.36 7.028-0.515 1.975-0.123 4.068 0.044 6.05 0.084C103.299 137.905 93.387 136.744 87.409 134.113zM106.888 132.305c1.823-0.063 3.693 0.062 5.516 0.103 -9.196-2.434-7.134-0.943-11.926-0.519 -2.092 0.186-3.736-0.851-5.776-0.851 -2.21 0.052-4.438 0.812-6.352 1.335 1.779-0.06 3.608-0.194 5.392-0.104 2.181 0.105 4.295 0.526 6.498 0.526C102.489 132.796 104.64 132.375 106.888 132.305z" fill="#ff9077" stroke-width="none" opacity="1" stroke="none"></path><path id="SvgjsPath13456" d="M87.409 134.113c1.815-0.054 3.684-0.205 5.5-0.162 2.239 0.052 4.365 0.521 6.604 0.6 2.417 0.085 4.659-0.36 7.028-0.515 1.975-0.123 4.068 0.044 6.05 0.084C103.299 137.905 93.387 136.744 87.409 134.113zM106.888 132.305c1.823-0.063 3.693 0.062 5.516 0.103 -9.196-2.434-7.134-0.943-11.926-0.519 -2.092 0.186-3.736-0.851-5.776-0.851 -2.21 0.052-4.438 0.812-6.352 1.335 1.779-0.06 3.608-0.194 5.392-0.104 2.181 0.105 4.295 0.526 6.498 0.526C102.489 132.796 104.64 132.375 106.888 132.305z" fill="#ff9a84" stroke-width="none" opacity="1" stroke="none"></path></g><g id="svga-group-eyes-left" ><g id="svga-group-eyesback-left"><path id="SvgjsPath13407" d="M59.164 79.489c0.656 2.984 5.746 12.648 16.527 11.916 3.947-0.268 12.147-1.775 12.605-4.859 0.442-2.96-12.741-8.905-17.873-8.456C59.658 79.032 59.164 79.489 59.164 79.489z" fill="url(#SvgjsRadialGradient13408)" opacity="1"></path></g><g id="svga-group-eyesiriswrapper-left" transform="translate(0.5 0.5)"><g id="svga-group-eyesiriscontrol-left" ><g id="svga-group-eyesiris-left" ><path id="SvgjsPath13423" d="M79.788 85.588c-0.869 3.192-4.16 5.073-7.358 4.196 -3.195-0.876-5.083-4.178-4.212-7.371 0.868-3.195 4.167-5.076 7.362-4.198C78.773 79.09 80.658 82.392 79.788 85.588z" fill="#66724e" stroke="#36441a" stroke-width="0.5" opacity="1"></path><path id="SvgjsPath13424" d="M73.265 80.413l-0.156-0.279c-0.548 0.218-1.076 0.445-1.575 0.687l0.37 0.894 -0.047 0.517 -1.426-0.839c-0.466 0.259-0.898 0.529-1.318 0.804l0.004 0.009 -0.489 0.55 0.781 0.799 -1.052 0.574 0.398 0.657 1.857 0.185 -1.741 1.181 1.863-0.103 -0.982 1.693 2.297-1.39 -0.618 2.364 1.329-2.184 0.256 2.343 0.384-2.072 0.353-0.043 0.5 2.35 0.152-0.705c0.201-0.052 0.718 0.704 0.915 0.651L74.736 86.5l1.282 2.556 -0.52-2.651 1.578 2.05c0.057-0.018 0.196-0.85 0.252-0.867l-0.982-1.469 1.785 0.539 -1.071-1.16 -0.86-0.712 3.586 0.803 -1.997-1.217 1.411-0.577 -3.055-0.309 3.021-1.602 -2.734 0.698 -0.736-0.399 -0.181-0.354 0.052-0.846 0.061-1.389 -1.248 2.198 -0.11-1.609 -0.157-0.421c-0.25 0.087-0.495 0.172-0.736 0.265L73.265 80.413z" fill="#788165" stroke-width="none" opacity="1" stroke="none"></path><path id="SvgjsPath13425" d="M79.856 82.755c-5.242 0.239-7.907 1.36-11.707 2.631 -0.732-3.229 1.298-6.438 4.53-7.164S79.125 79.525 79.856 82.755z" fill="#55633a" stroke-width="none" opacity="0.9" stroke="none"></path><path id="SvgjsPath13426" d="M74.869 81.998c-1.319-0.378-2.666 0.375-3.005 1.69 -0.342 1.308 0.452 2.678 1.771 3.056 1.32 0.379 2.667-0.375 3.009-1.684C76.987 83.745 76.19 82.376 74.869 81.998z" fill="#000000" stroke-width="none" opacity="0.8"></path><path id="SvgjsPath13427" d="M74.869 81.998c-1.319-0.378-2.666 0.375-3.005 1.69 -0.342 1.308 0.452 2.678 1.771 3.056 1.32 0.379 2.667-0.375 3.009-1.684C76.987 83.745 76.19 82.376 74.869 81.998z" fill="none" stroke="#36441a" stroke-width="0.75" opacity="1"></path><path id="SvgjsPath13428" d="M69.631 87.56c0.613 0.973 1.426 1.706 2.578 1.95 1.326 0.281 1.477-1.483 0.528-1.685 -0.72-0.152-1.176-0.505-1.552-1.102C70.497 85.63 69.079 86.684 69.631 87.56L69.631 87.56z" fill="#ffffff" stroke-width="none" opacity="0.4"></path><path id="SvgjsPath13429" d="M75.033 81.493c0.929 0.187 1.469 0.768 1.938 1.64 0.862 1.604 3.299 0.178 2.437-1.425 -0.757-1.408-2.019-2.613-3.625-2.938C73.726 78.355 73.438 81.171 75.033 81.493L75.033 81.493z" fill="url(#SvgjsLinearGradient13430)" opacity="1"></path></g></g></g><g id="svga-group-eyesfront-left"><path id="SvgjsPath13288" d="M53.294 83c0.809 10.899 11.637 23.583 20.506 22.236 10.498 0.106 20.864-7.868 20.864-22.305s-5.087-26.528-21.127-26.528C62.037 56.402 53.294 68.563 53.294 83zM61.752 82.523c-0.506-2.285 5.191-3.973 12.711-3.051 7.518 0.923 12.738 5.524 12.052 7.844 -0.38 1.286-10.639 3.245-14.253 2.847C68.598 89.758 62.974 88.04 61.752 82.523z" fill="#e9b995" stroke-width="none" opacity="1" stroke="none"></path><path id="SvgjsPath13289" d="M72.262 90.163c3.614 0.398 13.873-1.561 14.253-2.847 0.687-2.32-4.534-6.921-12.052-7.844C68.003 78.68 62.9 79.816 61.907 81.6c0.898-6.4 7.7-11.397 15.987-11.434 8.911-0.037 16.148 5.676 16.172 12.765 0.021 7.088-7.185 12.862-16.095 12.902 -8.913 0.037-16.149-5.676-16.173-12.764 0-0.105 0.016-0.208 0.019-0.313C63.147 88.083 68.651 89.764 72.262 90.163z" fill="url(#SvgjsRadialGradient13290)" opacity="1"></path><path id="SvgjsPath13294" d="M61.752 82.523c-0.506-2.285 5.191-3.973 12.711-3.051 7.518 0.923 12.738 5.524 12.052 7.844 -0.38 1.286-10.639 3.245-14.253 2.847C68.598 89.758 62.974 88.04 61.752 82.523z" fill="url(#SvgjsRadialGradient13295)" opacity="1"></path><path id="SvgjsPath13298" d="M62.148 77.417c4.208-1.978 9.35-2.16 13.838-1.005 2.404 0.561 4.965 1.285 7.063 2.638 1.945 1.135 3.525 2.5 5.002 4.19 -1.342-1.701-2.773-3.118-4.623-4.27 -2.276-1.416-4.769-2.294-7.364-2.916C71.478 74.928 66.342 75.184 62.148 77.417z" fill="#bb7440" stroke-width="none" opacity="1" stroke="none"></path><path id="SvgjsPath13299" d="M62.769 78.02c0.88-0.352 4.065-1 5.456-1.066 1.687-0.082 5.073 0.125 6.735 0.424 3.374 0.608 9.251 2.483 11.678 7.184 0.746 1.445 0.074 2.456-0.123 2.675 0.3-2.426-4.838-6.746-12.052-7.604 -7.52-0.894-13.217 0.743-12.711 2.958 1.222 5.348 6.846 7.013 10.51 7.405 4.099 0.439 11.684-1.539 12.686-1.753 -1.999 1.009-7.524 2.095-9.767 2.303 -0.744 0.07-2.24 0.104-2.986 0.085 -5.949-0.158-10.169-3.175-11.729-7.26C59.464 80.745 60.56 78.902 62.769 78.02z" fill="#000000" stroke-width="none" opacity="1" stroke="none"></path></g></g><g id="svga-group-eyes-right" ><g id="svga-group-eyesback-right"><path id="SvgjsPath13415" d="M140.437 79.489c-0.656 2.984-5.746 12.648-16.527 11.916 -3.947-0.268-12.147-1.775-12.605-4.859 -0.442-2.96 12.741-8.905 17.873-8.456C139.942 79.032 140.437 79.489 140.437 79.489z" fill="url(#SvgjsRadialGradient13416)" opacity="1"></path></g><g id="svga-group-eyesiriswrapper-right" transform="translate(-0.5 0.5)"><g id="svga-group-eyesiriscontrol-right" ><g id="svga-group-eyesiris-right" ><path id="SvgjsPath13433" d="M131.788 85.587c-0.869 3.193-4.16 5.074-7.358 4.196 -3.195-0.876-5.082-4.178-4.212-7.371 0.867-3.195 4.167-5.076 7.361-4.198C130.774 79.091 132.658 82.393 131.788 85.587z" fill="#66724e" stroke="#36441a" stroke-width="0.5" opacity="1"></path><path id="SvgjsPath13434" d="M125.266 80.413l-0.155-0.278c-0.548 0.217-1.076 0.445-1.576 0.686l0.37 0.894 -0.047 0.517 -1.426-0.839c-0.467 0.259-0.898 0.529-1.317 0.804l0.004 0.009 -0.49 0.551 0.782 0.799 -1.052 0.573 0.397 0.657 1.857 0.185 -1.741 1.181 1.863-0.103 -0.982 1.692 2.296-1.39 -0.616 2.364 1.328-2.184 0.257 2.343 0.384-2.073 0.353-0.043 0.501 2.35 0.151-0.704c0.201-0.052 0.719 0.703 0.915 0.651l-0.585-2.556 1.283 2.556 -0.521-2.651 1.577 2.05c0.057-0.018 0.197-0.85 0.253-0.867l-0.982-1.469 1.786 0.538 -1.071-1.16 -0.859-0.712 3.586 0.802 -1.997-1.216 1.411-0.577 -3.054-0.308 3.021-1.603 -2.734 0.698 -0.736-0.399 -0.18-0.354 0.052-0.847 0.061-1.388 -1.247 2.198 -0.11-1.609 -0.156-0.422c-0.25 0.087-0.495 0.173-0.735 0.265L125.266 80.413z" fill="#788165" stroke-width="none" opacity="1" stroke="none"></path><path id="SvgjsPath13435" d="M131.855 82.755c-5.24 0.239-7.906 1.36-11.706 2.631 -0.731-3.229 1.298-6.438 4.53-7.164C127.911 77.495 131.126 79.525 131.855 82.755z" fill="#55633a" stroke-width="none" opacity="0.9" stroke="none"></path><path id="SvgjsPath13436" d="M126.87 81.998c-1.319-0.378-2.666 0.376-3.005 1.69 -0.343 1.308 0.451 2.678 1.77 3.056 1.322 0.379 2.668-0.375 3.009-1.684C128.987 83.745 128.189 82.376 126.87 81.998z" fill="#000000" stroke-width="none" opacity="0.8"></path><path id="SvgjsPath13437" d="M126.87 81.998c-1.319-0.378-2.666 0.376-3.005 1.69 -0.343 1.308 0.451 2.678 1.77 3.056 1.322 0.379 2.668-0.375 3.009-1.684C128.987 83.745 128.189 82.376 126.87 81.998z" fill="none" stroke="#36441a" stroke-width="0.75" opacity="1"></path><path id="SvgjsPath13438" d="M121.632 87.56c0.612 0.973 1.426 1.706 2.577 1.95 1.326 0.281 1.478-1.482 0.528-1.685 -0.72-0.152-1.177-0.504-1.552-1.102C122.498 85.63 121.079 86.684 121.632 87.56L121.632 87.56z" fill="#ffffff" stroke-width="none" opacity="0.4"></path><path id="SvgjsPath13439" d="M127.034 81.493c0.929 0.187 1.469 0.767 1.938 1.639 0.862 1.604 3.3 0.178 2.437-1.425 -0.757-1.408-2.018-2.613-3.625-2.938C125.727 78.355 125.438 81.171 127.034 81.493L127.034 81.493z" fill="url(#SvgjsLinearGradient13440)" opacity="1"></path></g></g></g><g id="svga-group-eyesfront-right"><path id="SvgjsPath13308" d="M126.063 56.402c-16.04 0-21.127 12.091-21.127 26.528s10.366 22.412 20.864 22.305c8.869 1.347 19.697-11.337 20.506-22.236C146.307 68.563 137.563 56.402 126.063 56.402zM127.339 90.163c-3.614 0.398-13.873-1.561-14.253-2.847 -0.687-2.32 4.534-6.921 12.052-7.844 7.52-0.922 13.217 0.767 12.711 3.051C136.627 88.04 131.003 89.758 127.339 90.163z" fill="#e9b995" stroke-width="none" opacity="1" stroke="none"></path><path id="SvgjsPath13309" d="M127.339 90.163c-3.614 0.398-13.873-1.561-14.253-2.847 -0.687-2.32 4.534-6.921 12.052-7.844 6.46-0.792 11.563 0.345 12.556 2.128 -0.898-6.4-7.7-11.397-15.987-11.434 -8.911-0.037-16.148 5.676-16.172 12.765 -0.021 7.088 7.185 12.862 16.095 12.902 8.913 0.037 16.149-5.676 16.173-12.764 0-0.105-0.016-0.208-0.019-0.313C136.453 88.083 130.949 89.764 127.339 90.163z" fill="url(#SvgjsRadialGradient13310)" opacity="1"></path><path id="SvgjsPath13314" d="M137.849 82.523c0.506-2.285-5.191-3.973-12.711-3.051 -7.518 0.923-12.738 5.524-12.052 7.844 0.38 1.286 10.639 3.245 14.253 2.847C131.003 89.758 136.627 88.04 137.849 82.523z" fill="url(#SvgjsRadialGradient13315)" opacity="1"></path><path id="SvgjsPath13318" d="M137.452 77.417c-4.208-1.978-9.35-2.16-13.838-1.005 -2.404 0.561-4.965 1.285-7.063 2.638 -1.945 1.135-3.525 2.5-5.002 4.19 1.342-1.701 2.773-3.118 4.623-4.27 2.276-1.416 4.769-2.294 7.364-2.916C128.123 74.928 133.259 75.184 137.452 77.417z" fill="#bb7440" stroke-width="none" opacity="1" stroke="none"></path><path id="SvgjsPath13319" d="M136.832 78.02c-0.88-0.352-4.065-1-5.456-1.066 -1.687-0.082-5.073 0.125-6.735 0.424 -3.374 0.608-9.251 2.483-11.678 7.184 -0.746 1.445-0.074 2.456 0.123 2.675 -0.3-2.426 4.838-6.746 12.052-7.604 7.52-0.894 13.217 0.743 12.711 2.958 -1.222 5.348-6.846 7.013-10.51 7.405 -4.099 0.439-11.684-1.539-12.686-1.753 1.999 1.009 7.524 2.095 9.767 2.303 0.744 0.07 2.24 0.104 2.986 0.085 5.949-0.158 10.169-3.175 11.729-7.26C140.137 80.745 139.041 78.902 136.832 78.02z" fill="#000000" stroke-width="none" opacity="1" stroke="none"></path></g></g><g id="svga-group-facehighlight-single" ><path id="SvgjsPath13232" d="M141 113.974c0.035 22.622-18.292 40.994-40.938 41.025 -22.642 0.037-41.028-18.273-41.063-40.9 -0.035-22.62 18.292-41.064 40.937-41.1C122.579 72.964 140.967 91.349 141 113.974z" fill="url(#SvgjsRadialGradient13233)" opacity="1"></path><path id="SvgjsPath13236" d="M137.5 53.999c0 20.711-16.789 37.5-37.499 37.5 -20.711 0-37.501-16.789-37.501-37.5s16.79-37.5 37.501-37.5C120.711 16.499 137.5 33.288 137.5 53.999z" fill="url(#SvgjsRadialGradient13237)" opacity="1"></path></g><g id="svga-group-eyebrows-left" ><path id="SvgjsPath13443" d="M56.113 72.739c32.178-9.407 39.48 9.836 32.802 3.849C81.977 70.368 65.958 70.92 56.113 72.739z" fill="#fef6e1" stroke-width="none" opacity="1" stroke="none"></path></g><g id="svga-group-eyebrows-right" ><path id="SvgjsPath13444" d="M143.889 72.731c-9.304-1.701-22.773-2.38-30.946 2.53 -1.01 0.606-5.017 4.041-3.951 1.625C110.929 72.486 123.744 66.882 143.889 72.731z" fill="#fef6e1" stroke-width="none" opacity="1" stroke="none"></path></g><g id="svga-group-nose-single" ><path id="SvgjsPath13457" d="M96.831 88.524c0 0-1.399 11.117-2.026 13.281 -1.379 4.752-6.168 11.417-5.239 14.429 1.859 6.022 7.537 4.493 10.524 4.471 2.763-0.022 8.072 1.552 9.162-2.37 0.352-1.266-0.441-4.466-0.441-4.466s-2.644 3.112-8.875 2.767c-1.778-0.099-4.671-2.096-4.704-4.912 -0.043-3.817 1.802-7.035 2.205-10.824C97.741 98.022 96.831 88.524 96.831 88.524z" fill="#daa075" stroke-width="none" opacity="1" stroke="none"></path><path id="SvgjsPath13458" d="M105.194 118.969c1.075 0 1.366 0.326 1.366 0.729 0 0.404-0.335 1.026-1.366 0.73 -1.134-0.323-3.113-0.175-3.113-0.175S104.117 118.969 105.194 118.969zM94.922 118.969c-1.077 0.001-1.366 0.328-1.366 0.733 -0.001 0.403 0.323 0.983 1.366 0.729 1.15-0.282 3.112-0.175 3.112-0.175S95.999 118.973 94.922 118.969zM108.81 113.869c0 0 1.489 1.933 1.18 3.975 -0.301 1.983-3.31 2.861-3.31 2.861s2.089-1.516 2.342-3.356C109.14 116.486 108.81 113.869 108.81 113.869zM90.427 111.883c0 0-1.086 2.704-0.772 4.352 0.571 2.976 3.704 4.164 3.704 4.164s-1.955-2.039-2.65-3.842C89.948 114.587 90.427 111.883 90.427 111.883z" fill="#bb7440" stroke-width="none" opacity="1" stroke="none"></path><path id="SvgjsPath13459" d="M105.141 115.311c1.043-0.889 1.148-1.396 0.932-1.729 -0.215-0.334-0.841-0.545-1.714 0.528 -0.963 1.18-3.056 2.054-3.056 2.054S104.098 116.198 105.141 115.311z" fill="#f8d3b8" stroke-width="none" opacity="1" stroke="none"></path></g><g id="svga-group-beardwrap" ><g id="svga-group-beard-single" ><path id="SvgjsPath13250" d="M100,18.13L100,18.13L100,18.13L100,18.13z" fill="#2a232b" stroke-width="none" opacity="1"></path></g></g><g id="svga-group-mustache-single" ><path id="SvgjsPath13404" d="M78.2 160.83c-0.04-14.14-4.74-21.27-3.37-28.71 2.09-11.38 22.61-11.79 23.85-8.24 0.87 2.5-0.94 4.93-3.21 5.69 -4.48 1.59-13.58 1.37-14.33 6.91 -0.25 1.51 0.13 3.84 0.57 6.54C82.77 149.45 84.07 157.43 78.2 160.83zM121.8 160.83c-8.41-4.87-2.08-19.26-2.94-24.34 -0.75-5.54-9.85-5.32-14.33-6.91 -2.27-0.76-4.08-3.19-3.21-5.69 1.23-3.55 21.75-3.14 23.85 8.24C126.54 139.55 121.84 146.7 121.8 160.83z" fill="#fef6e1" stroke-width="none" opacity="1" stroke="none"></path><path id="SvgjsPath13405" d="M121.9 161c-8.68-4.81-2.29-19.45-3.14-24.5 -0.3-2.26-2.05-3.54-4.29-4.39 11.73-1.49 0.96 18.23 6.28 26.47 -1.23-6.82 1.2-13.2 1.98-20 0.66-5.71 0.02-11.12-7.66-15.23 4.08 1.09 9.58 5.38 10.2 8.74C126.65 139.59 121.9 146.75 121.9 161zM120.89 137.31c0.58-6.91-6.79-9.4-13.59-9.73 -1.09-0.07-2.2-0.17-3.11-0.51 -1.83-0.61-2.54-2.25-2.54-2.25 0.02-0.01 0.1 0.38 0.44 0.93 1.43 2.42 4.46 2.51 8.22 3.01 0 0 3.31 0.38 7.1 2.66 2.53 2.05 3.08 2.19 3.41 6.89C120.82 138.32 120.85 137.94 120.89 137.31zM114.05 124.72c-0.08-0.04-2.51-0.93-2.51-0.84 -2.82-0.74-5.5-0.89-8.27-0.24 4.91-0.54 15.27 1.71 18.17 8.72C120.46 128.5 118.01 126.3 114.05 124.72zM121.1 145.03c0.78-3.6 0.83-4.17 0.83-4.17 0.48-3.09 0.07-5.2-0.22-6.72 0.11 1.76 0.19 3.08-0.36 6.63 -0.06 0-1.63 7.67-1.5 9.4 0.05 0.82-0.04 0.13 0.15 1.42C119.96 149.14 120.5 147.72 121.1 145.03zM103.49 124.65c4.5 2.57 10.51 1.75 14.75 4.69C114.35 125.68 107.75 126.38 103.49 124.65zM74.73 132.1c0.62-3.36 6.12-7.64 10.2-8.74 -7.68 4.11-8.31 9.52-7.66 15.23 0.78 6.8 3.21 13.18 1.98 20 5.32-8.24-5.45-27.96 6.28-26.47 -2.25 0.85-3.99 2.13-4.29 4.39 -0.85 5.05 5.54 19.69-3.14 24.5C78.1 146.75 73.35 139.59 74.73 132.1zM79.18 138.32c0.33-4.7 0.88-4.84 3.41-6.89 3.79-2.28 7.1-2.66 7.1-2.66 3.76-0.5 6.79-0.6 8.22-3.01 0.34-0.55 0.42-0.94 0.44-0.93 0 0-0.71 1.65-2.54 2.25 -0.91 0.34-2.02 0.44-3.11 0.51 -6.8 0.33-14.17 2.82-13.59 9.73C79.15 137.94 79.18 138.32 79.18 138.32zM78.57 132.36c2.89-7.01 13.25-9.26 18.17-8.72 -2.77-0.66-5.45-0.5-8.27 0.24 0-0.08-2.44 0.81-2.51 0.84C81.99 126.3 79.55 128.5 78.57 132.36zM80.01 151.58c0.19-1.28 0.09-0.6 0.15-1.42 0.13-1.73-1.45-9.4-1.5-9.4 -0.55-3.55-0.47-4.87-0.36-6.63 -0.3 1.52-0.7 3.63-0.22 6.72 0 0 0.05 0.57 0.83 4.17C79.5 147.72 80.04 149.14 80.01 151.58zM81.77 129.34c4.24-2.94 10.24-2.12 14.75-4.69C92.25 126.38 85.65 125.68 81.77 129.34z" fill="#efe1bc" stroke-width="none" opacity="1" stroke="none"></path><path id="SvgjsPath13406" d="M125.27 132.1c-2.1-11.41-22.76-11.94-24.04-8.25 -0.9 2.58 0.99 5.05 3.27 5.82 4.46 1.59 13.53 1.38 14.26 6.83 0.85 5.05-5.54 19.69 3.14 24.5C121.9 146.75 126.65 139.59 125.27 132.1zM121.56 160.37c0 0.02 0 0.05 0.01 0.07 -3.67-2.78-4.24-5.62-2.09-19.21 0.24-1.83 2.43-8.04-4.27-10.28 -2.8-1.09-8.75-1.65-10.39-2.12 -1.83-0.49-4.49-2.71-3.24-4.87 1.94-3.36 18.53-1.19 21.7 5.68C126.67 136.97 120.51 145.69 121.56 160.37zM78.1 161c8.68-4.81 2.29-19.45 3.14-24.5 0.73-5.45 9.8-5.24 14.26-6.83 2.28-0.77 4.17-3.24 3.27-5.82 -1.28-3.69-21.94-3.16-24.04 8.25C73.35 139.59 78.1 146.75 78.1 161zM76.72 129.64c3.17-6.87 19.76-9.04 21.7-5.68 1.24 2.16-1.41 4.38-3.24 4.87 -1.64 0.47-7.59 1.03-10.39 2.12 -6.71 2.25-4.51 8.45-4.27 10.28 2.15 13.59 1.58 16.43-2.09 19.21 0.01-0.02 0.01-0.05 0.01-0.07C79.49 145.69 73.33 136.97 76.72 129.64z" fill="#d0b87a" stroke-width="none" opacity="1" stroke="none"></path></g><g id="svga-group-hair-front" ><path id="SvgjsPath13400" d="M45.777 90.313c-2.998-2.502-6.749-8.939-8.423-17.962 -0.356-1.849-0.61-3.75-0.88-5.763 -1.131-8.446-3.555-18.289-1.878-28.373 2.013-12.337 11.271-25.693 23.036-33.237 18.191-11.772 64.171-17.033 73.754-1.537 5.559-0.203 11.557 1.249 15.699 4.471 13.709 10.284 19.01 45.211 15.211 62.559 -2.528 11.847-3.191 14.954-8.264 19.599 1.812-54.323-0.99-39.665-3.306-54.253 -2.715-1.99-3.727-1.168-7.909-3.542 -8.318-6.142-7.915-8.602-11.683-12.898 -3.356 3.969-8.181 7.463-11.907 9.077 0.944-1.547 1.749-3.282 2.282-4.398l-0.446-0.373c-3.129 2.262-9.451 5.478-13.336 5.823 2.087-2.565 1.843-2.242 2.677-3.805 -3.116 1.916-6.427 3.217-10.604 3.583 3.935-1.944 5.699-3.274 8.751-5.817l-0.279-0.518c-21.191 6.437-26.218 7.895-41.755 10.651 -13.012 1.627-8.248 0.252-12.968 0.252 -7.593 0-8.798 22.789-8.47 30.387C45.925 85.479 44.837 81.343 45.777 90.313z" fill="#fef6e1" stroke-width="none" opacity="1" stroke="none"></path><path id="SvgjsPath13401" d="M162.296 70.471c-2.528 11.847-3.191 14.954-8.264 19.599 1.812-54.323-0.99-39.665-3.306-54.253 -2.715-1.99-3.727-1.168-7.909-3.542 -8.318-6.142-7.915-8.602-11.683-12.898 -3.356 3.969-8.181 7.463-11.907 9.077 0.944-1.547 1.749-3.282 2.282-4.398l-0.446-0.373c-3.129 2.262-9.451 5.478-13.336 5.823 2.087-2.565 1.843-2.242 2.677-3.805 -3.116 1.916-6.427 3.217-10.604 3.583 3.935-1.944 5.699-3.274 8.751-5.817l-0.279-0.518c-21.191 6.437-26.218 7.895-41.755 10.651 -13.012 1.627-8.248 0.252-12.968 0.252 -7.593 0-8.798 22.789-8.47 30.387 0.846 21.241-0.242 17.104 0.698 26.075 -2.998-2.502-6.749-8.939-8.423-17.962 -0.356-1.849-0.61-3.75-0.88-5.763 -1.131-8.446-3.555-18.289-1.878-28.373 1.59-9.746 13.727-24.08 22.024-31.729 -25.5 23.75-18 50.252-13.75 71.5C41.619 59.235 38 29 55 28c23 0 48.869-3.265 64.869-19.265C118.869 15.735 118 17 113 22c4-3 9-5 11-10 -1 4-1 7-4 10 3-2 6-5 9-8 0 3-2 6-3 9 2-5 8-8 9-13 -3 13 12.369 19.985 17.119 22.735 6.5 9 6.75 28 5.25 43.75 5.5-18 3-48.75-13.25-70C161.869 19.485 165.6 55.386 162.296 70.471zM60.369 19.985c12.207-0.359 21.165-2.337 34.25-9.75C82.032 15.751 74.067 18.383 60.369 19.985zM93.619 15.735c6.46-2.681 10.955-8.497 18.25-10.25C105.146 7.818 100.471 13.67 93.619 15.735zM54.869 19.485c4.629-8.324 14.52-15.222 27-16.25C71.713 5.123 60.837 10.953 54.869 19.485z" fill="#efe1bc" stroke-width="none" opacity="1" stroke="none"></path><path id="SvgjsPath13402" d="M86.619 0c13.085-5.594 24.996-5.023 37.5 1.985 -13.123-5.605-23.154-4.532-23.154-4.532C98.577-2.36 94.759-2.452 86.619 0zM138.119 7.985c4.139 1.594 5.866 4.016 8.383 7.511 3.685 5.954 4.716 8.533 6.863 14.489C151.28 21.431 146.603 10.292 138.119 7.985zM114.619 7.735c-7.115 6.003-12.274 9.237-26.5 14C99.361 19.065 106.526 15.916 114.619 7.735zM137.619 13.985c2.067 7.036 5.876 10.957 11.75 14.5C143.909 24.378 140.339 20.566 137.619 13.985zM58.619 10.235c0 0-0.486 0.36-1.287 0.952 -9.145 6.479-16.294 18.86-16.463 34.548C42.864 30.127 49.049 19.143 58.619 10.235zM63.369 14.735c7.757-4.055 11.339-4.087 24.25-6.25C76.476 9.262 70.964 9.793 63.369 14.735zM84.417 18.964c-4.565 2.29-15.277 4.855-15.277 4.74 -3.757 0.834-10.27 2.281-10.27 2.281 2.522-0.319 6.849-0.825 10.418-1.591 0 0.135 8.796-1.985 11.379-3.319 2.836-1.338 1.875-0.813 4.703-2.59C85.369 18.485 85.008 18.667 84.417 18.964z" fill="#fffefb" stroke-width="none" opacity="1" stroke="none"></path><path id="SvgjsPath13403" d="M147.27 7.675c-4.229-3.289-10.323-4.741-15.721-4.54 -4.611-7.454-19.151-9.598-27.97-9.69 -13.304-0.138-34.324 3.653-46.11 11.28 -10.968 7.032-21.023 20.286-23.17 33.44 -1.284 7.721-0.178 15.721 1.13 23.38 0.64 3.7 0.97 7.43 1.63 10.86 1.897 10.227 6.295 16.626 9.09 18.57 -1.065-9.855 0.097-4.998-0.77-26.75 -0.403-9.331 1.305-30.714 8.49-30.06 4.883 0.345 1.014 1.191 12.7-0.271 15.347-2.722 20.366-4.152 41.79-10.659 -3.357 2.798-5.103 4.068-9.6 6.22 -0.01-0.01-0.01 0-0.01 0 -0.14 0.07-0.29 0.14-0.43 0.2 3.719-0.024 8.346-1.305 11.299-3.12 -0.407 0.762-1.632 2.147-2.539 3.3 3.844 0 10.74-3.438 14.16-5.91 -0.48 1-1.603 3.462-2.811 5.21 1.141-0.57 3.874-1.313 9.33-5.93 1.11-0.93 2.38-2.19 3.38-3.37 3.349 3.818 3.148 6.516 11.53 12.7 4.158 2.36 5.282 1.625 7.78 3.45 2.206 14.448 5.134-0.795 3.26 54.78 5.6-4.96 6.275-8.026 8.88-20.23C166.297 53.602 161.249 18.163 147.27 7.675zM160.949 70.325c-2.216 12.286-2.402 14.36-6.88 19.22 0.814-10.8 1.53-20.459 1.319-31.34 -0.444-16.061-2.58-13.048-4.1-22.72 -2.878-2.021-4.273-1.655-6.92-2.85 -0.46-0.17-0.84-0.46-1.27-0.68 -8.392-5.824-8.398-8.604-11.83-12.27 0.971-1.114 1.813-2.391 2.09-2.94 -1.509 2.264-7.977 8.239-14.11 11.63 1.059-1.676 1.864-3.305 2.44-4.78 1.735-1.212 2.92-2.358 3.92-3.35 -3.419 2.84-12.225 7.96-17.75 9.07 0.174-0.179 1.875-1.826 2.516-3.074 1.355-0.542 5.016-2.779 6.304-4.203 -6.304 4.203-13.475 6.72-15.979 7.136 3.064-1.149 7.04-4.731 9.08-6.36 1.971-1.574 2.353-2.206 4.399-4.28 -1.344 0.938-3.44 2.993-6.056 4.097 -1.547 0.653-43.89 12.498-51.254 10.574 -1.478-0.37-3.149-0.818-4.62-0.39 -11.8 5.076-7.461 37.634-7.3 47.63 0.136 8.423 0.74 9.89 0.74 9.89 -7.751-7.36-8.089-23.554-8.9-29.18 -1.028-7.456-1.923-15.371-0.55-22.77 2.24-12.64 11.912-25.407 22.26-32.06 15.469-10.04 61.594-18.533 73.04-2.83C159.954 3.495 163.94 50.271 160.949 70.325z" fill="#d0b87a" stroke-width="none" opacity="1" stroke="none"></path></g><g id="svga-group-glasses-single" ><path id="SvgjsPath13445" d="M148.02 85.54c-0.11 1.96-0.35 4.05-0.59 6.25 -1.04 9.74-5.26 12.49-24.57 11.1 -6.3-0.45-11.06-4.04-13.41-10.1 -0.99-2.55-1.87-5.52-2.37-8.48C116.7 77.81 139.4 77.62 148.02 85.54zM51.98 85.54c0.11 1.96 0.35 4.05 0.59 6.25 1.04 9.74 5.26 12.49 24.57 11.1 6.3-0.45 11.06-4.04 13.41-10.1 0.99-2.55 1.87-5.52 2.37-8.48C83.3 77.81 60.6 77.62 51.98 85.54z" fill="#ffffff" stroke-width="none" opacity="0.2"></path><path id="SvgjsPath13446" d="M148.02 85.54c-8.62-7.92-31.33-7.73-40.93-1.23 -0.36-2.11-0.52-4.22-0.36-6.16h0c0.66-7.81 13.45-6.88 20.98-7.17C146.33 70.26 148.56 76.34 148.02 85.54zM93.27 78.14L93.27 78.14c-0.66-7.81-13.45-6.88-20.99-7.17 -18.61-0.71-20.85 5.37-20.31 14.56 8.62-7.92 31.33-7.73 40.93-1.23C93.26 82.19 93.43 80.09 93.27 78.14z" fill="#ffffff" stroke-width="none" opacity="0.4"></path><path id="SvgjsPath13447" d="M149.91 75.08c-0.62-1.42-1.48-2.7-2.56-3.65 -2.47-2.16-7.08-2.46-11.39-2.71 -4.19-0.23-12.15-0.42-17.46-0.08 -13.8 0.9-13.57 7-13.57 7 -1.81 0-8.03 0-9.84 0 0 0 0.23-6.11-13.57-7 -5.32-0.34-13.27-0.16-17.46 0.08 -4.31 0.24-8.93 0.55-11.39 2.71 -1.09 0.95-1.94 2.22-2.56 3.65l-8.19-1.58v3.99c7.17 1.38 9.02 1.82 10.02 1.76 -0.25 3.01-0.36 8.35 0.29 12.59 1.54 10.07 5.78 12.78 24.94 11.4 6.36-0.46 11.35-4.23 13.72-10.33 1.86-4.8 3.14-9.09 2.81-14.28h12.64c-0.33 5.19 0.95 9.49 2.81 14.28 2.36 6.1 7.36 9.87 13.72 10.33 19.17 1.38 23.41-1.33 24.94-11.4 0.65-4.24 0.54-9.58 0.29-12.59 1 0.06 2.85-0.38 10.02-1.76V73.5L149.91 75.08zM90.07 92.61c-2.27 5.87-6.88 9.35-12.98 9.78 -19.08 1.37-22.61-1.33-24.04-10.68 -0.76-5.01-0.35-11.52-0.25-12.52 0.19-0.03 0.31-0.06 0.32-0.1 1.09-6.36 6.45-8.42 29.02-7.35 3.73 0.18 6.92 0.88 8.69 2.75 1.04 1.09 2.04 2.66 1.95 4.17l0.04 0C93.02 81.2 92.44 86.5 90.07 92.61zM146.94 91.72c-1.43 9.35-4.96 12.05-24.04 10.68 -6.1-0.44-10.71-3.92-12.98-9.78 -2.37-6.11-2.94-11.41-2.74-13.95l0.04 0c-0.09-1.5 0.91-3.07 1.95-4.17 1.77-1.87 4.96-2.57 8.69-2.75 22.57-1.06 27.92 0.99 29.02 7.35 0.01 0.04 0.13 0.08 0.32 0.1C147.29 80.2 147.71 86.71 146.94 91.72z" fill="#130b3c" stroke-width="none" opacity="1" stroke="none"></path><path id="SvgjsPath13448" d="M104.94 75.34c0.17-1.26 1.63-5.92 13.54-6.69 5.32-0.34 13.27-0.16 17.46 0.08 4.31 0.24 8.93 0.55 11.39 2.71 1.09 0.95 1.94 2.22 2.56 3.65l0 0c-3.72-6.16-10.22-5.54-14.01-5.75 -2.3-0.13-6.21-0.27-10.28-0.27 -2.77 0-5.15 0.06-7.06 0.19C111.48 69.71 107.56 70.92 104.94 75.34zM95.06 75.34c-0.17-1.26-1.63-5.92-13.54-6.69 -5.32-0.34-13.27-0.16-17.46 0.08 -4.31 0.24-8.93 0.55-11.39 2.71 -1.09 0.95-1.94 2.22-2.56 3.65l0 0c3.72-6.16 10.22-5.54 14.01-5.75 2.3-0.13 6.21-0.27 10.28-0.27 2.77 0 5.15 0.06 7.06 0.19C88.52 69.71 92.44 70.92 95.06 75.34z" fill="#1e154b" stroke-width="none" opacity="1" stroke="none"></path></g></g></g><rect id="SvgjsRect13217" width="200" height="15" x="0" y="185" fill="#ecf0f1" opacity="0.5" style="display:none;"></rect><text id="SvgjsText13218" font-family="&quot;Roboto&quot;, &quot;Helvetica Neue&quot;, Helvetica, Arial, sans-serif" style="font-size:0.84em;font-family:&quot;Roboto&quot;, &quot;Helvetica Neue&quot;, Helvetica, Arial, sans-serif;text-anchor:middle;font-weight:400;display:none;" font-size="0.84em" text-anchor="middle" font-weight="400" fill="#000000" x="100" y="185"><tspan id="SvgjsTspan13219" dy="1.2em" x="100" style="font-size:0.84em;font-family:&quot;Roboto&quot;, &quot;Helvetica Neue&quot;, Helvetica, Arial, sans-serif;text-anchor:middle;font-weight:400;">Created on AvatarMaker.com</tspan></text></g><defs id="SvgjsDefs13182"><radialGradient id="SvgjsRadialGradient13233" cx="100" cy="114" r="41" gradientUnits="userSpaceOnUse" class="svga-on-canvas-facehighlight-gradient-single-0"><stop id="SvgjsStop13234" stop-opacity="0.5" stop-color="#f8d3b8" offset="0" ></stop><stop id="SvgjsStop13235" stop-opacity="0" stop-color="#e9b995" offset="0.9" ></stop></radialGradient><radialGradient id="SvgjsRadialGradient13237" cx="100" cy="54" r="37" gradientUnits="userSpaceOnUse" class="svga-on-canvas-facehighlight-gradient-single-1"><stop id="SvgjsStop13238" stop-opacity="0.5" stop-color="#f8d3b8" offset="0" ></stop><stop id="SvgjsStop13239" stop-opacity="0" stop-color="#e9b995" offset="0.9" ></stop></radialGradient><radialGradient id="SvgjsRadialGradient13281" cx="129.041" cy="83.945" r="15.117" gradientTransform="matrix(-0.9945 0.1042 0.1042 0.9945 192.8281 -12.4633)" gradientUnits="userSpaceOnUse" class="svga-on-canvas-eyesfront-gradient-left-0"><stop id="SvgjsStop13282" stop-opacity="1" stop-color="#ffffff" offset="0" ></stop><stop id="SvgjsStop13283" stop-opacity="1" stop-color="#fcfdfd" offset="0.316" ></stop><stop id="SvgjsStop13284" stop-opacity="1" stop-color="#f4f7f8" offset="0.505" ></stop><stop id="SvgjsStop13285" stop-opacity="1" stop-color="#e5ecef" offset="0.661" ></stop><stop id="SvgjsStop13286" stop-opacity="1" stop-color="#d8e2e7" offset="0.76" ></stop></radialGradient><radialGradient id="SvgjsRadialGradient13290" cx="121.986" cy="82.496" fx="133.239" fy="82.527" r="16.003" gradientTransform="matrix(0.9998 0.0208 0.0166 -0.7998 -45.3195 145.9395)" gradientUnits="userSpaceOnUse" class="svga-on-canvas-eyesfront-gradient-left-3"><stop id="SvgjsStop13291" stop-opacity="1" stop-color="#daa075" offset="0" ></stop><stop id="SvgjsStop13292" stop-opacity="0.3" stop-color="#daa075" offset="0.7" ></stop><stop id="SvgjsStop13293" stop-opacity="0" stop-color="#e9b995" offset="1" ></stop></radialGradient><radialGradient id="SvgjsRadialGradient13295" cx="68.931" cy="105.995" r="29.524" gradientTransform="matrix(1.0336 0 0 1.0336 -1.6796 1.3127)" gradientUnits="userSpaceOnUse" class="svga-on-canvas-eyesfront-gradient-left-4"><stop id="SvgjsStop13296" stop-opacity="0" stop-color="#000000" offset="0.95" ></stop><stop id="SvgjsStop13297" stop-opacity="0.2" stop-color="#000000" offset="1" ></stop></radialGradient><radialGradient id="SvgjsRadialGradient13301" cx="128.643" cy="83.986" r="15.116" gradientTransform="matrix(0.9945 0.1042 -0.1042 0.9945 7.1738 -12.4633)" gradientUnits="userSpaceOnUse" class="svga-on-canvas-eyesfront-gradient-right-0"><stop id="SvgjsStop13302" stop-opacity="1" stop-color="#ffffff" offset="0" ></stop><stop id="SvgjsStop13303" stop-opacity="1" stop-color="#fcfdfd" offset="0.316" ></stop><stop id="SvgjsStop13304" stop-opacity="1" stop-color="#f4f7f8" offset="0.505" ></stop><stop id="SvgjsStop13305" stop-opacity="1" stop-color="#e5ecef" offset="0.661" ></stop><stop id="SvgjsStop13306" stop-opacity="1" stop-color="#d8e2e7" offset="0.76" ></stop></radialGradient><radialGradient id="SvgjsRadialGradient13310" cx="121.587" cy="82.496" fx="132.839" fy="82.527" r="16.003" gradientTransform="matrix(-0.9998 0.0208 -0.0166 -0.7998 244.5208 145.9478)" gradientUnits="userSpaceOnUse" class="svga-on-canvas-eyesfront-gradient-right-3"><stop id="SvgjsStop13311" stop-opacity="1" stop-color="#daa075" offset="0" ></stop><stop id="SvgjsStop13312" stop-opacity="0.3" stop-color="#daa075" offset="0.7" ></stop><stop id="SvgjsStop13313" stop-opacity="0" stop-color="#e9b995" offset="1" ></stop></radialGradient><radialGradient id="SvgjsRadialGradient13315" cx="69.316" cy="105.995" r="29.524" gradientTransform="matrix(-1.0336 0 0 1.0336 201.6796 1.3127)" gradientUnits="userSpaceOnUse" class="svga-on-canvas-eyesfront-gradient-right-4"><stop id="SvgjsStop13316" stop-opacity="0" stop-color="#000000" offset="0.95" ></stop><stop id="SvgjsStop13317" stop-opacity="0.2" stop-color="#000000" offset="1" ></stop></radialGradient><radialGradient id="SvgjsRadialGradient13322" cx="-568.659" cy="-521.042" r="59.751" gradientTransform="matrix(0.096 -0.0248 0.0245 0.0961 141.2814 119.9893)" gradientUnits="userSpaceOnUse" class="svga-on-canvas-eyesiris-gradient-left-1"><stop id="SvgjsStop13323" stop-opacity="1" stop-color="#ffffff" offset="0" ></stop><stop id="SvgjsStop13324" stop-opacity="0" stop-color="#ffffff" offset="1" ></stop></radialGradient><radialGradient id="SvgjsRadialGradient13326" cx="-582.838" cy="-519.099" r="59.745" gradientTransform="matrix(0.0991 8.856319e-004 -0.0011 0.0991 131.1134 135.9855)" gradientUnits="userSpaceOnUse" class="svga-on-canvas-eyesiris-gradient-left-2"><stop id="SvgjsStop13327" stop-opacity="1" stop-color="#ffffff" offset="0" ></stop><stop id="SvgjsStop13328" stop-opacity="0" stop-color="#ffffff" offset="1" ></stop></radialGradient><linearGradient id="SvgjsLinearGradient13332" x1="122.67" y1="88.268" x2="123.606" y2="87.152" gradientTransform="matrix(1 0 0 1 -52 0)" gradientUnits="userSpaceOnUse" class="svga-on-canvas-eyesiris-gradient-left-5"><stop id="SvgjsStop13333" stop-opacity="1" stop-color="#ffffff" offset="0" ></stop><stop id="SvgjsStop13334" stop-opacity="0" stop-color="#ffffff" offset="1" ></stop></linearGradient><linearGradient id="SvgjsLinearGradient13340" x1="129.636" y1="79.822" x2="127.91" y2="81.879" gradientTransform="matrix(1 0 0 1 -52 0)" gradientUnits="userSpaceOnUse" class="svga-on-canvas-eyesiris-gradient-left-7"><stop id="SvgjsStop13341" stop-opacity="1" stop-color="#ffffff" offset="0" ></stop><stop id="SvgjsStop13342" stop-opacity="0" stop-color="#ffffff" offset="1" ></stop></linearGradient><radialGradient id="SvgjsRadialGradient13345" cx="-568.654" cy="-521.042" r="59.752" gradientTransform="matrix(0.096 -0.0248 0.0245 0.0961 193.2804 119.9894)" gradientUnits="userSpaceOnUse" class="svga-on-canvas-eyesiris-gradient-right-1"><stop id="SvgjsStop13346" stop-opacity="1" stop-color="#ffffff" offset="0" ></stop><stop id="SvgjsStop13347" stop-opacity="0" stop-color="#ffffff" offset="1" ></stop></radialGradient><radialGradient id="SvgjsRadialGradient13349" cx="-582.833" cy="-519.102" r="59.747" gradientTransform="matrix(0.0991 8.856319e-004 -0.0011 0.0991 183.1126 135.9856)" gradientUnits="userSpaceOnUse" class="svga-on-canvas-eyesiris-gradient-right-2"><stop id="SvgjsStop13350" stop-opacity="1" stop-color="#ffffff" offset="0" ></stop><stop id="SvgjsStop13351" stop-opacity="0" stop-color="#ffffff" offset="1" ></stop></radialGradient><linearGradient id="SvgjsLinearGradient13355" x1="122.67" y1="88.268" x2="123.606" y2="87.152" gradientUnits="userSpaceOnUse" class="svga-on-canvas-eyesiris-gradient-right-5"><stop id="SvgjsStop13356" stop-opacity="1" stop-color="#ffffff" offset="0" ></stop><stop id="SvgjsStop13357" stop-opacity="0" stop-color="#ffffff" offset="1" ></stop></linearGradient><linearGradient id="SvgjsLinearGradient13363" x1="129.636" y1="79.822" x2="127.91" y2="81.879" gradientUnits="userSpaceOnUse" class="svga-on-canvas-eyesiris-gradient-right-7"><stop id="SvgjsStop13364" stop-opacity="1" stop-color="#ffffff" offset="0" ></stop><stop id="SvgjsStop13365" stop-opacity="0" stop-color="#ffffff" offset="1" ></stop></linearGradient><radialGradient id="SvgjsRadialGradient13408" cx="126.447" cy="84.159" r="11.163" gradientTransform="matrix(-0.9962 0.0872 0.0872 0.9962 192.5183 -10.188)" gradientUnits="userSpaceOnUse" class="svga-on-canvas-eyesback-gradient-left-0"><stop id="SvgjsStop13409" stop-opacity="1" stop-color="#ffffff" offset="0" ></stop><stop id="SvgjsStop13410" stop-opacity="1" stop-color="#fdfefe" offset="0.544" ></stop><stop id="SvgjsStop13411" stop-opacity="1" stop-color="#f6f8f9" offset="0.74" ></stop><stop id="SvgjsStop13412" stop-opacity="1" stop-color="#eaeff2" offset="0.879" ></stop><stop id="SvgjsStop13413" stop-opacity="1" stop-color="#d9e3e8" offset="0.992" ></stop><stop id="SvgjsStop13414" stop-opacity="1" stop-color="#d8e2e7" offset="1" ></stop></radialGradient><radialGradient id="SvgjsRadialGradient13416" cx="126.049" cy="84.193" r="11.164" gradientTransform="matrix(0.9962 0.0872 -0.0872 0.9962 7.4817 -10.188)" gradientUnits="userSpaceOnUse" class="svga-on-canvas-eyesback-gradient-right-0"><stop id="SvgjsStop13417" stop-opacity="1" stop-color="#ffffff" offset="0" ></stop><stop id="SvgjsStop13418" stop-opacity="1" stop-color="#fdfefe" offset="0.544" ></stop><stop id="SvgjsStop13419" stop-opacity="1" stop-color="#f6f8f9" offset="0.74" ></stop><stop id="SvgjsStop13420" stop-opacity="1" stop-color="#eaeff2" offset="0.879" ></stop><stop id="SvgjsStop13421" stop-opacity="1" stop-color="#d9e3e8" offset="0.992" ></stop><stop id="SvgjsStop13422" stop-opacity="1" stop-color="#d8e2e7" offset="1" ></stop></radialGradient><linearGradient id="SvgjsLinearGradient13430" x1="132" y1="78" x2="126" y2="84" gradientTransform="matrix(1 0 0 1 -50 0)" gradientUnits="userSpaceOnUse" class="svga-on-canvas-eyesiris-gradient-left-6"><stop id="SvgjsStop13431" stop-opacity="1" stop-color="#ffffff" offset="0" ></stop><stop id="SvgjsStop13432" stop-opacity="0" stop-color="#ffffff" offset="1" ></stop></linearGradient><linearGradient id="SvgjsLinearGradient13440" x1="132" y1="78" x2="126" y2="84" gradientUnits="userSpaceOnUse" class="svga-on-canvas-eyesiris-gradient-right-6"><stop id="SvgjsStop13441" stop-opacity="1" stop-color="#ffffff" offset="0" ></stop><stop id="SvgjsStop13442" stop-opacity="0" stop-color="#ffffff" offset="1" ></stop></linearGradient><linearGradient id="SvgjsLinearGradient13450" x1="100" y1="140" x2="100" y2="137" gradientUnits="userSpaceOnUse" class="svga-on-canvas-mouth-gradient-single-0"><stop id="SvgjsStop13451" stop-opacity="1" stop-color="#e1ac85" offset="0.1" ></stop><stop id="SvgjsStop13452" stop-opacity="1" stop-color="#daa075" offset="1" ></stop></linearGradient><linearGradient id="SvgjsLinearGradient13479" x1="100" y1="172" x2="100" y2="133" gradientUnits="userSpaceOnUse" class="svga-on-canvas-chinshadow-gradient-single-0"><stop id="SvgjsStop13480" stop-opacity="0.8" stop-color="#daa075" offset="0" ></stop><stop id="SvgjsStop13481" stop-opacity="1" stop-color="#bb7440" offset="0.7" ></stop></linearGradient><radialGradient id="SvgjsRadialGradient13492" cx="100" cy="225" r="250" gradientUnits="userSpaceOnUse" class="svga-on-canvas-backs-gradient-single-1"><stop id="SvgjsStop13493" stop-opacity="0" stop-color="#ecf0f1" offset="0" ></stop><stop id="SvgjsStop13494" stop-opacity="1" stop-color="#c6dce2" offset="1" ></stop></radialGradient></defs></svg>