<svg xmlns="http://www.w3.org/2000/svg" version="1.1" width="600px" height="600px" xlink="http://www.w3.org/1999/xlink" style="overflow:hidden!important;"><g id="svga-group-wrapper" transform="scale(3 3)"><g id="svga-group-backs-single"><path id="SvgjsPath39093" d="M225 225H-25V-25h250V225z" fill="#ce6130" stroke-width="none" opacity="1" stroke="none"></path><path id="SvgjsPath39094" d="M30.816 56.624l3.375 1.049 -2.886 2.041 0.045 3.535 -2.833-2.114 -3.347 1.136 1.134-3.348 -2.114-2.833 3.535 0.044 2.041-2.886L30.816 56.624zM40.051 33.259l-1.586 5.428 -5.372 1.771 4.672 3.187L37.79 49.3l4.475-3.458 5.385 1.725 -1.905-5.325 3.303-4.588 -5.653 0.168L40.051 33.259zM9.358 99.38l-2.422 3.986 -4.711 0.273 3.104 3.526 -1.17 4.508 4.344-1.807 3.987 2.514 -0.421-4.643 3.633-2.954 -4.602-1.063L9.358 99.38zM11.271 71.054l0.168 3.531 -2.814 2.14 3.41 0.932 1.166 3.337 1.939-2.955 3.534-0.077 -2.21-2.759 1.019-3.384 -3.306 1.25L11.271 71.054zM5.396 51.958l3.615-2.959 0.182 4.63 3.969 2.479L8.755 57.71 7.592 62.2l-2.905-3.641L0 58.856l2.612-3.853 -1.735-4.307L5.396 51.958zM5.222 135.998l2.556-1.095 -0.621 2.515 1.908 1.88 -2.799 0.256 -1.377 2.256 -1.111-2.357 -2.758-0.484 2.115-1.714 -0.329-2.556L5.222 135.998zM20.532 155.007l2.81 0.867 -2.402 1.688 0.038 2.922 -2.358-1.748 -2.785 0.939 0.943-2.768 -1.76-2.342 2.942 0.037 1.699-2.387L20.532 155.007zM31.034 83.795l4.647 0.739 -3.406 3.215 0.738 4.622 -4.139-2.236 -4.191 2.116 0.849-4.598 -3.329-3.312 4.666-0.606 2.132-4.164L31.034 83.795zM22.119 29.902l5.203 1.198 -4.104 3.329 0.474 5.232 -4.507-2.832 -4.909 2.035 1.322-5.08 -3.509-3.974 5.325-0.307 2.738-4.491L22.119 29.902zM26.758 136.314l4.432-0.083 -2.633 3.463 1.437 4.064 -4.2-1.354L22.251 145l0.04-4.301 -3.627-2.46 4.226-1.304 1.298-4.115L26.758 136.314zM56.458 148.571l4.296-0.914 -1.894 3.861 2.184 3.68 -4.349-0.525 -2.947 3.188 -0.792-4.187 -4.005-1.709 3.86-2.063 0.468-4.242L56.458 148.571zM41.369 162.985l5.203 1.198 -4.104 3.329 0.474 5.232 -4.507-2.832 -4.909 2.035 1.322-5.08 -3.509-3.975 5.325-0.307 2.738-4.491L41.369 162.985zM30.869 110.835l5.203 1.199 -4.104 3.328 0.474 5.232 -4.507-2.832 -4.909 2.035 1.322-5.08 -3.509-3.974 5.325-0.308 2.738-4.49L30.869 110.835zM45.782 133.007l2.81 0.867 -2.402 1.688 0.038 2.922 -2.358-1.748 -2.785 0.939 0.943-2.768 -1.76-2.342 2.942 0.037 1.699-2.387L45.782 133.007zM39.066 13.124l3.375 1.049 -2.886 2.041 0.045 3.535 -2.833-2.114 -3.347 1.136 1.134-3.348 -2.114-2.833 3.535 0.044 2.041-2.886L39.066 13.124zM60.934 3.517L65.4 3.387l-2.609 3.538 1.505 4.106 -4.255-1.331 -3.536 2.667 -0.019-4.36L52.795 5.55l4.244-1.365L58.293 0 60.934 3.517zM65.782 172.007l2.81 0.867 -2.402 1.688 0.038 2.922 -2.358-1.748 -2.785 0.939 0.943-2.768 -1.76-2.342 2.942 0.037 1.699-2.387L65.782 172.007zM49.908 108.489l4.072-0.469 -2.299 3.158 1.465 3.299 -3.91-0.764 -3.165 2.505 -0.116-3.63 -3.422-1.752 3.84-1.479 1.047-3.586L49.908 108.489zM169.184 120.86l-3.376-1.049 2.886-2.041 -0.045-3.535 2.833 2.113 3.347-1.135 -1.134 3.348 2.114 2.832 -3.535-0.045 -2.04 2.887L169.184 120.86zM159.948 144.224l1.587-5.428 5.371-1.771 -4.672-3.187 -0.024-5.655 -4.475 3.458 -5.386-1.725 1.905 5.325 -3.303 4.589 5.652-0.168L159.948 144.224zM190.642 78.103l2.422-3.986 4.712-0.273 -3.104-3.526 1.17-4.508 -4.345 1.807 -3.987-2.514 0.421 4.643 -3.633 2.954 4.602 1.063L190.642 78.103zM188.729 106.43l-0.168-3.531 2.814-2.14 -3.409-0.932L186.8 96.49l-1.939 2.955 -3.534 0.077 2.211 2.759 -1.02 3.384 3.307-1.25L188.729 106.43zM194.604 125.525l-3.615 2.959 -0.182-4.63 -3.969-2.479 4.406-1.602 1.163-4.49 2.905 3.642 4.688-0.298 -2.612 3.853 1.735 4.307L194.604 125.525zM194.778 41.485l-2.556 1.095 0.62-2.515 -1.907-1.88 2.799-0.256 1.377-2.256 1.11 2.357 2.759 0.484 -2.115 1.714 0.329 2.556L194.778 41.485zM179.468 22.477l-2.811-0.867 2.402-1.688L179.022 17l2.358 1.748 2.784-0.939 -0.943 2.768 1.76 2.342 -2.942-0.037 -1.699 2.387L179.468 22.477zM168.966 93.688l-4.647-0.739 3.406-3.215 -0.738-4.622 4.139 2.236 4.191-2.116 -0.85 4.598 3.329 3.312 -4.665 0.606 -2.132 4.164L168.966 93.688zM177.881 147.581l-5.203-1.198 4.104-3.329 -0.474-5.232 4.507 2.832 4.909-2.035 -1.322 5.08 3.509 3.975 -5.325 0.307 -2.737 4.491L177.881 147.581zM173.241 41.169l-4.432 0.083 2.634-3.463 -1.437-4.064 4.2 1.354 3.541-2.595 -0.039 4.301 3.627 2.46 -4.226 1.304 -1.299 4.115L173.241 41.169zM151.968 35.013l-4.296 0.914 1.894-3.861 -2.185-3.68 4.349 0.525 2.947-3.188 0.792 4.187 4.006 1.709 -3.86 2.063 -0.469 4.242L151.968 35.013zM158.631 14.498l-5.203-1.198 4.104-3.329 -0.474-5.232 4.507 2.832 4.909-2.035 -1.322 5.08 3.509 3.975 -5.325 0.307 -2.737 4.491L158.631 14.498zM169.131 66.648l-5.203-1.199 4.104-3.328 -0.474-5.232 4.507 2.832 4.909-2.035 -1.322 5.08 3.509 3.974 -5.325 0.308 -2.737 4.49L169.131 66.648zM131.544 149.7l-2.81-0.867 2.402-1.688 -0.038-2.922 2.358 1.748 2.784-0.939 -0.943 2.768 1.76 2.342 -2.942-0.037 -1.699 2.387L131.544 149.7zM160.934 164.36l-3.376-1.049 2.886-2.041 -0.045-3.535 2.833 2.113 3.347-1.135 -1.134 3.348 2.114 2.832 -3.535-0.045 -2.04 2.887L160.934 164.36zM139.065 173.967l-4.466 0.13 2.609-3.539 -1.505-4.105 4.255 1.33 3.535-2.667 0.019 4.36 3.691 2.457 -4.243 1.365 -1.254 4.186L139.065 173.967zM134.218 5.477l-2.811-0.867 2.402-1.688L133.772 0l2.358 1.748 2.784-0.939 -0.943 2.768 1.76 2.342 -2.942-0.037 -1.699 2.387L134.218 5.477zM151.776 111.519l-4.072 0.469 2.299-3.158 -1.465-3.299 3.91 0.764 3.165-2.505 0.115 3.63 3.423 1.752 -3.84 1.479 -1.048 3.586L151.776 111.519z" fill="#dd774a" stroke-width="none" opacity="1" stroke="none"></path></g><g id="svga-group-subwrapper" ><g id="svga-group-hair-back" ><path id="SvgjsPath38964" d="M100.5,100.5h-1v-1h1V100.5z" fill="#2a232b" stroke-width="none" opacity="1"></path></g><g id="svga-group-humanbody-single"><path id="SvgjsPath38804" d="M195.417 199.778c-2.196-4.746-8.195-11.779-14.86-13.722 -8.239-2.403-26.837-5.308-33.733-6.923 -5.528-1.296-16.662-11.294-20.564-14.65 -0.7-0.6-1.273-1.839-1.287-2.76 -0.139-10.864 4.195-39.724 4.195-39.724H100 70.833c0 0 4.334 28.859 4.193 39.724 -0.011 0.921-0.587 2.16-1.285 2.76 -3.902 3.356-15.036 13.354-20.564 14.65 -6.897 1.615-25.495 4.619-33.733 7.022 -6.667 1.942-12.664 8.876-14.86 13.622 -3.708 8.008-4.584 22.5-4.584 35h100 100C200 222.278 199.123 207.786 195.417 199.778z" fill="#f0c7b1" stroke-width="none" opacity="1" stroke="none"></path><path id="SvgjsPath38805" d="M159.156 184.058c24.342 3.542 34.586 8.708 37.794 50.721H200c0-12.5-0.877-26.992-4.583-35 -2.196-4.746-8.195-11.779-14.86-13.722 -8.239-2.403-26.837-5.308-33.733-6.923 -5.528-1.296-18.242-12.069-21.643-16.35 3.36 4.704 12.791 15.605 21.054 18.46C150.188 182.61 153.48 183.232 159.156 184.058zM53.766 181.244c8.263-2.854 17.693-13.756 21.054-18.46 -3.4 4.28-16.114 15.054-21.643 16.35 -6.896 1.615-25.494 4.619-33.733 7.022 -6.665 1.942-12.664 8.876-14.86 13.622 -3.706 8.008-4.583 22.5-4.583 35h3.05c3.188-41.744 13.475-47.183 37.794-50.721C46.52 183.232 49.813 182.61 53.766 181.244z" fill="#ffe4d6" stroke-width="none" opacity="1" stroke="none"></path><path id="SvgjsPath38806" d="M95.646 197.62c0 0-5.074-1.609-7.083-2.379 -10.449-4.009-44.395-6.607-44.395-6.607s35.754 1.419 43.644 2.779c-0.458-4.767-3.017-20.004-3.017-20.004s5.149 16.815 6.409 21.057C91.878 194.734 95.646 197.62 95.646 197.62zM106.445 196.278c-0.089 0.073-0.191 0.168-0.302 0.268C106.256 196.461 106.358 196.372 106.445 196.278zM95.646 197.62c0 0 2.893 2.992 4.347 3.03 1.91 0.051 4.828-2.899 6.151-4.104 -1.265 0.957-4.159 1.391-5.31 1.436C99.504 198.033 95.646 197.62 95.646 197.62zM116.664 190.101c-1.545 0.248-4.386 0.789-4.386 0.789l2.287-14.89c-0.646 3.071-4.474 16.211-8.12 20.278 1.91-1.616 6.158-2.391 8.324-2.704 10.236-1.484 10.232-1.483 41.062-4.94C155.831 188.634 126.76 188.479 116.664 190.101z" fill="#e1ac8f" stroke-width="none" opacity="1" stroke="none"></path><path id="SvgjsPath38807" d="M195.417 199.778c-2.196-4.746-8.195-11.779-14.86-13.722 -8.239-2.403-26.837-5.308-33.733-6.923 -5.528-1.296-16.662-11.294-20.564-14.65 -0.7-0.6-1.273-1.839-1.287-2.76 -0.139-10.864 4.195-39.724 4.195-39.724H100 70.833c0 0 4.334 28.859 4.193 39.724 -0.011 0.921-0.587 2.16-1.285 2.76 -3.902 3.356-15.036 13.354-20.564 14.65 -6.897 1.615-25.495 4.619-33.733 7.022 -6.667 1.942-12.664 8.876-14.86 13.622 -3.708 8.008-4.584 22.5-4.584 35h100 100C200 222.278 199.123 207.786 195.417 199.778z" fill="none" stroke="#c27b55" stroke-width="1.5" opacity="1"></path></g><g id="svga-group-chinshadow-single"><path id="SvgjsPath39089" d="M109.536 170.861c4.446-1.662 9.623-5.664 14.692-10.57 0.134-7.874 1.927-22.141 3.129-30.907 -15.727-1.816-38.988-1.81-54.712 0.013 1.201 8.766 2.992 23.017 3.125 30.887 5.071 4.909 10.251 8.915 14.699 10.578C94.942 172.534 105.063 172.534 109.536 170.861z" fill="url(#SvgjsLinearGradient39090)" opacity="1"></path></g><g id="svga-group-clothes-single" ><path id="SvgjsPath39070" d="M83.208 235.787c-42.755 0-73.116-0.341-83.557-0.936 -3.228-41.46 17.049-50.314 25.922-52.197 5.111-1.218 9.139-1.593 12.692-1.923 8.462-0.786 15.16-1.409 30.099-12.227 0.523 0.666 1.8 2.359 4.153 5.55 6.948 9.244 17.385 14.505 28.689 14.505 0.001 0 0.002 0 0.004 0 12.805-0.002 24.814-6.654 33.019-18.271 15.056 9.254 18.229 9.549 25.801 10.25 2.497 0.231 5.604 0.52 9.799 1.21 11.838 1.591 20.825 8.087 26.003 18.786 4.405 9.103 6.021 21.193 4.56 34.087 -11.646 0.646-63.764 1.166-117.175 1.166C83.212 235.787 83.211 235.787 83.208 235.787z" fill="#f3f1f4" stroke-width="none" opacity="1"></path><path id="SvgjsPath39071" d="M170.909 182.255c-16.76-2.76-17.282-1.24-36.82-12.64 -16.477 23.799-46.336 23.876-61.12 4.21 -0.313-0.425-4.146-5.627-4.52-6 -21.537 15.697-25.967 10.671-43.18 14.539 -17.198 3.865-28.875 17.4-26.11 52.611 0.01 0.12 0.01 0.229 0.03 0.35 26.152 1.595 181.717 0.986 201.65-0.229C202.268 210.162 200.249 187.03 170.909 182.255zM-0.331 234.966c-0.458-22.065 2.924-46.19 26.26-50.9 17.291-3.49 21.274 1.1 42.39-15.7 1.11 1.66 2.4 3.72 3.84 5.98 13.218 20.3 44.471 23.502 62.05-4 1.851 1.43 4.03 3.02 6.47 4.59 23.186 15.306 60.738-4.709 59.65 59.89C134.92 233.624 65.973 233.646-0.331 234.966z" fill="#cfc8d7" stroke-width="none" opacity="1"></path><path id="SvgjsPath39072" d="M107.44 237.709c-2.775 0-10.727 0.208-16.512-0.23l-0.01-0.171c-0.818-18.658 1.129-30.719 4.537-39.288l0.048-0.123 -0.093-0.093c-0.905-0.904-2.425-1.935-4.034-3.025 -1.611-1.093-3.275-2.221-4.336-3.246 0.625-0.732 1.395-1.454 2.348-2.201 0.245-0.125 1.162-0.843 5.974-4.971 0.214-0.184 0.345-0.296 0.362-0.31 0.818-0.178 2.138-0.293 3.738-0.293 2.183 0 4.731 0.221 6.512 0.563 1.561 1.458 3.451 5.329 4.158 7.17 -0.976 2.291-2.128 3.129-3.717 4.284 -0.774 0.563-1.652 1.201-2.652 2.112l-0.083 0.075 0.021 0.111c4.026 20.31 4.027 25.054 4.027 29.642 0.001 2.021 0.001 6.609 0.339 9.985C107.917 237.707 107.704 237.709 107.44 237.709z" fill="#131111" stroke-width="none" opacity="1"></path><path id="SvgjsPath39073" d="M110.35 191.495c-0.754-1.995-2.71-5.93-4.28-7.359 -2.876-0.563-7.983-0.843-10.47-0.24 -0.108 0.088-6.248 5.383-6.31 5.26 -0.906 0.708-1.788 1.504-2.52 2.39 2.061 2.076 6.655 4.556 8.5 6.4 -3.65 9.18-5.33 21.59-4.55 39.38 0.01 0.11 0.01 0.23 0.02 0.34 6.756 0.52 16.55 0.331 17.55 0.223 -1.16-11.307 1.438-10.455-4.39-39.853C106.968 195.241 108.865 195.04 110.35 191.495zM105.1 210.535c-0.021-0.05-0.04-0.1-0.051-0.13 2 10.55 1.38 18.632 2.891 26.972 -4.736-0.318-12.014-0.052-16.771-0.052 0.369-7.198 1.188-31.684 4.74-39.74 0.17-0.046 0.339-0.084 0.509-0.125l-1.032 34.736 2.747-35.066c0.02-0.002 0.04-0.005 0.06-0.008l1.801 32.605 0.417-32.734c0.026 0.001 0.051-0.001 0.077 0l4.199 36.355 -2.3-36.137c0.314 0.063 0.629 0.141 0.942 0.233 0.03 0 0.07 0.01 0.1 0.03C103.533 198.476 104.365 205.876 105.1 210.535zM104.219 196.726c-2.774-1.251-6.363-1.026-9.129 0.24 -1.681-1.813-4.08-3.077-7.53-5.391 0.55-0.479 1.26-1.07 2.21-1.81 0.08 0 3.48-2.771 3.54-2.83 0.92-0.84 1.74-1.79 2.52-2.62 2.93-0.12 7.23 0.02 9.82 0.14 1.5 1.876 2.931 4.696 4.01 6.94C107.699 194.266 105.759 195.545 104.219 196.726z" fill="#000000" stroke-width="none" opacity="1"></path><path id="SvgjsPath39074" d="M78.196 213.077c-11.534-40.071-9.954-27.403-13.027-43.143 2.028-4.813 7.587-12.618 8.67-13.775l0.08-0.086c2.292 24.007 8.958 13.636 23.784 27.722C89.228 189.449 81.372 204.127 78.196 213.077zM135.364 170.3c-1.448-3.702-8.248-11.669-9.386-12.873 1.424 20.678-15.146 16.551-24.35 26.2 8.812 5.713 17.173 20.66 20.172 29.455C134.653 176.403 132.021 191.215 135.364 170.3z" fill="#f3f1f4" stroke-width="none" opacity="1"></path><path id="SvgjsPath39075" d="M125.801 156.967c0 5.137-0.42 9.162-1.262 10.339 -2.443 5.809-13.103 9.853-16.39 11.51 -2.495 1.227-4.942 2.809-6.83 4.85 3.813 2.476 5.705 3.383 12.93 14.44 4.246 7.109 6.539 12.448 7.561 15.64 12.922-35.152 10.657-23.062 13.793-43.507C134.018 166.153 126.801 157.885 125.801 156.967zM121.709 210.676c-2.716-8.644-11.075-22.913-19.43-27.091 3.937-2.957 5.031-3.131 9.729-5.279 14.396-6.42 14.985-12.385 14.138-20.271 1.207 1.423 7.328 8.664 8.896 12.023C131.034 193.116 126.945 192.299 121.709 210.676zM79.199 171.896c-4.408-3.649-3.16-8.162-5.189-16.215 -0.902 1-7.741 8.882-10.016 14.305 7.125 24.375 7.375 22.5 14.185 43.75 3.031-8.905 11.558-24.37 20.24-30.009C91.489 177.401 82.765 174.999 79.199 171.896zM84.659 197.405c-2.221 3.666-4.517 7.48-6.37 13.28 -1.17-7.95-11.17-32.296-12.92-40.95 1.638-3.588 7.771-12.451 8.521-13.165 1.366 7.078 0.066 13.462 5.669 16.995 2.621 1.996 11.104 5.32 17.52 10.36C93.188 186.235 91.094 187.596 84.659 197.405z" fill="#cfc8d7" stroke-width="none" opacity="1"></path><path id="SvgjsPath39076" d="M49.857 234.908c-8.87 0-16.864-0.137-23.156-0.396 -0.07-0.556-0.155-1.27-0.257-2.121 -1.053-8.829-3.834-32.147-9.695-47.528 9.497-3.835 25.02-6.691 36.643-8.118 7.833 16.249 26.729 42.336 39.987 57.234 -14.945 0.607-29.971 0.929-43.519 0.929C49.86 234.908 49.859 234.908 49.857 234.908zM150.143 234.908c8.87 0 16.863-0.137 23.156-0.396 0.07-0.556 0.154-1.27 0.256-2.121 1.054-8.829 3.835-32.147 9.695-47.528 -9.497-3.835-25.02-6.691-36.643-8.118 -7.833 16.249-26.729 42.336-39.987 57.234 14.945 0.607 29.971 0.929 43.519 0.929C150.141 234.908 150.141 234.908 150.143 234.908z" fill="#6a3a47" stroke-width="none" opacity="1" stroke="none"></path><path id="SvgjsPath39077" d="M32.153 211.959l-10.48-12.96 2.43-16.078 9.723 12.804L32.153 211.959zM47.384 192.569l-11.591-12.686 -1.968 15.841 11.61 12.397L47.384 192.569zM58.817 188.148l-11.708-10.331 0.275 14.752 12.322 11.557L58.817 188.148zM42.32 223.673l-10.167-11.714 -5.018 15.35 11.118 12.987L42.32 223.673zM58.107 219.842l-12.671-11.72 -3.116 15.551 14.234 11.113L58.107 219.842zM73.379 213.533l-13.673-9.407 -1.599 15.716 14.288 11.107L73.379 213.533zM166.174 195.725l9.724-12.804 2.43 16.078 -10.48 12.96L166.174 195.725zM154.564 208.122l11.609-12.397 -1.967-15.841 -11.592 12.686L154.564 208.122zM140.294 204.126l12.321-11.557 0.275-14.752 -11.708 10.331L140.294 204.126zM161.746 240.296l11.119-12.987 -5.019-15.35 -10.167 11.714L161.746 240.296zM143.445 234.786l14.234-11.113 -3.115-15.551 -12.672 11.72L143.445 234.786zM127.605 230.949l14.287-11.107 -1.599-15.716 -13.673 9.407L127.605 230.949z" fill="#794e5a" stroke-width="none" opacity="1" stroke="none"></path><path id="SvgjsPath39078" d="M53.689 176.205c-10.802 1.308-27.48 4.184-37.58 8.38 0 0.011 0.01 0.021 0.01 0.03 6.68 17.19 9.418 44.907 10.14 50.38 13.662 0.58 38.444 0.678 68.2-0.56C81.652 220.216 61.683 192.972 53.689 176.205zM26.929 234.266c0-8.767-2.644-33.854-9.81-49.33 14.354-4.252 24.106-5.545 36.1-7.931 8.677 20.651 22.083 40.424 38.45 56.45C70.854 232.966 47.735 233.228 26.929 234.266zM105.541 234.436c29.756 1.237 54.538 1.14 68.199 0.56 0.723-5.473 3.461-33.189 10.141-50.38 0-0.01 0.01-0.02 0.01-0.03 -10.1-4.196-26.777-7.072-37.58-8.38C138.317 192.972 118.348 220.216 105.541 234.436zM108.331 233.455c16.367-16.026 29.772-35.799 38.45-56.45 11.993 2.386 21.746 3.679 36.1 7.931 -7.166 15.477-9.811 40.563-9.811 49.33C152.266 233.228 129.146 232.966 108.331 233.455z" fill="#3c0f1b" stroke-width="none" opacity="1" stroke="none"></path></g><g id="svga-group-head" ><g id="svga-group-ears-left" ><path id="SvgjsPath39065" d="M46.778 83.613c-2.623-1.48-8.575-8.52-11.138-7.517 -1.655 0.646-2.377 5.504-2.638 7.47 -0.333 2.525-0.929 7.711-0.328 10.185 0.725 2.985 3.631 8.507 5.37 11.027 1.468 2.122 5.211 5.797 6.407 8.088 0.759 1.454 1.493 5.373 4.083 5.12 1.674-0.164 5.537-3.072 5.744-4.452C55.406 106.057 51.943 86.528 46.778 83.613z" fill="#f0c7b1" stroke="#c27b55" stroke-width="1.5" opacity="1"></path><path id="SvgjsPath39066" d="M43.313 99.76c-0.125-0.556 0.006-1.491 0.133-2.395 0.115-0.824 0.224-1.601 0.158-2.151 -0.251-2.06-1.66-5.975-2.578-8.097 -1.059-2.44-2.771-5.515-4.919-6.307 -0.888-0.33-1.473 0.063-1.813 0.461 -0.248 0.292-0.305 0.636-0.223 0.676 0.082 0.041 0.266-0.244 0.535-0.512 0.219-0.219 0.542-0.407 0.983-0.368 -0.178 1.026-1.091 6.582-0.696 10.369 0.311 2.978 1.489 5.202 1.673 5.536 0.028 0.352 0.073 0.695 0.139 1.028 0.869 4.347 4.648 9.29 5.963 10.908 0.243 0.298 0.496 0.476 0.56 0.404 0.062-0.074-0.087-0.368-0.33-0.668 -1.298-1.609-5.042-6.533-5.879-10.728 -0.89-4.45 2.167-11.048 2.849-12.443 0.348 0.655 0.643 1.285 0.87 1.809 0.179 0.412 0.378 0.894 0.581 1.414 -0.402 0.729-3.211 6.042-2.187 10.295 0.38 1.568 2.088 3.589 3.223 4.143 0.624 0.306 0.859 0.761 1.13 1.288 0.314 0.613 0.673 1.307 1.708 1.81 0.211 0.101 0.402 0.144 0.571 0.144 0.293 0 0.515-0.126 0.679-0.281 0.017 0.268 0.016 0.611 0.007 0.928 -0.01 0.411 0.041 0.747 0.129 0.756 0.088 0.008 0.182-0.318 0.192-0.726 0.016-0.503 0.013-1.125-0.067-1.422 -0.232-0.877-0.942-1.867-1.694-2.915C44.27 101.685 43.504 100.618 43.313 99.76zM36.538 95.905c-2.035-6.825 0-13.093 0.458-14.029 0.795 0.785 2.108 2.213 2.679 3.239C39.258 85.938 36.623 91.315 36.538 95.905zM45.318 105.891c-0.938-0.456-1.253-1.067-1.557-1.657 -0.275-0.535-0.56-1.087-1.281-1.44 -0.157-0.077-0.33-0.193-0.505-0.328 -2.324-5.988 0.254-8.606 0.899-9.142 0.199 0.731 0.346 1.403 0.411 1.941 0.061 0.495-0.05 1.28-0.156 2.041 -0.132 0.942-0.268 1.916-0.127 2.546 0.211 0.94 0.999 2.038 1.76 3.1 0.677 0.943 1.373 1.915 1.609 2.708C46.271 105.818 45.949 106.195 45.318 105.891z" fill="#c27b55" stroke-width="none" opacity="1" stroke="none"></path></g><g id="svga-group-ears-right" ><path id="SvgjsPath39067" d="M152.961 83.613c2.623-1.48 8.574-8.52 11.137-7.517 1.656 0.646 2.379 5.504 2.639 7.47 0.334 2.525 0.928 7.711 0.328 10.185 -0.725 2.985-3.631 8.507-5.371 11.027 -1.467 2.122-5.211 5.797-6.406 8.088 -0.76 1.454-1.492 5.373-4.084 5.12 -1.674-0.164-5.535-3.072-5.744-4.452C144.332 106.057 147.795 86.528 152.961 83.613z" fill="#f0c7b1" stroke="#c27b55" stroke-width="1.5" opacity="1"></path><path id="SvgjsPath39068" d="M154.729 102.716c-0.752 1.047-1.463 2.038-1.695 2.915 -0.078 0.297-0.082 0.919-0.066 1.422 0.012 0.407 0.105 0.733 0.193 0.726 0.088-0.009 0.139-0.345 0.129-0.756 -0.01-0.316-0.01-0.66 0.006-0.928 0.164 0.155 0.387 0.281 0.68 0.281 0.168 0 0.359-0.043 0.57-0.144 1.035-0.503 1.395-1.196 1.709-1.81 0.271-0.527 0.506-0.982 1.131-1.288 1.133-0.554 2.842-2.575 3.223-4.143 1.023-4.253-1.785-9.566-2.188-10.295 0.203-0.52 0.402-1.002 0.582-1.414 0.225-0.524 0.521-1.154 0.869-1.809 0.682 1.395 3.738 7.993 2.848 12.443 -0.838 4.195-4.582 9.118-5.879 10.728 -0.242 0.3-0.393 0.594-0.33 0.668 0.064 0.071 0.318-0.106 0.561-0.404 1.314-1.618 5.094-6.561 5.963-10.908 0.066-0.333 0.111-0.677 0.139-1.028 0.184-0.334 1.363-2.558 1.674-5.536 0.395-3.788-0.518-9.343-0.695-10.369 0.441-0.039 0.764 0.149 0.982 0.368 0.268 0.268 0.453 0.552 0.535 0.512 0.08-0.041 0.023-0.384-0.223-0.676 -0.342-0.397-0.926-0.791-1.813-0.461 -2.148 0.792-3.861 3.867-4.92 6.307 -0.92 2.123-2.326 6.037-2.578 8.097 -0.066 0.55 0.043 1.328 0.158 2.151 0.127 0.904 0.256 1.839 0.133 2.395C156.234 100.618 155.469 101.685 154.729 102.716zM160.064 85.115c0.57-1.026 1.883-2.455 2.678-3.239 0.457 0.936 2.494 7.204 0.459 14.029C163.115 91.315 160.48 85.938 160.064 85.115zM153.367 105.66c0.236-0.793 0.932-1.765 1.609-2.708 0.762-1.063 1.549-2.16 1.76-3.1 0.141-0.631 0.006-1.604-0.127-2.546 -0.105-0.76-0.217-1.546-0.156-2.041 0.066-0.539 0.213-1.21 0.412-1.941 0.645 0.536 3.223 3.154 0.898 9.142 -0.176 0.134-0.348 0.25-0.504 0.328 -0.723 0.353-1.008 0.905-1.281 1.44 -0.305 0.59-0.619 1.201-1.559 1.657C153.789 106.195 153.467 105.818 153.367 105.66z" fill="#c27b55" stroke-width="none" opacity="1" stroke="none"></path></g><g id="svga-group-faceshape-wrap" ><g id="svga-group-faceshape-single" ><path id="SvgjsPath39086" d="M144.004 126.306c-6.87 10.846-23.072 30.329-34.468 34.563 -4.474 1.663-14.594 1.663-19.067 0 -11.396-4.235-27.596-23.719-34.467-34.563 -6.753-10.657-14.852-48.287-14.863-48.341 -1.3-4.961-1.996-10.168-2.004-15.538C39.082 28.614 66.289 1.169 99.907 1.116c33.621-0.053 60.913 27.306 60.963 61.119 0.009 5.37-0.669 10.579-1.952 15.544C158.901 77.832 150.78 115.606 144.004 126.306z" fill="#f0c7b1" stroke-width="none" opacity="1"></path><path id="SvgjsPath39087" d="M110.152 1.978c26.994 6.303 47.097 30.644 47.052 59.708 -0.009 5.369-0.704 10.577-2.004 15.537 -0.012 0.054-7.377 37.684-14.13 48.341 -6.872 10.844-22.339 29.588-33.734 33.823 -1.476 0.549-5.027 1.103-7.334 1.103 -2.307 0-5.857-0.554-7.333-1.103 -11.396-4.235-26.863-22.979-33.734-33.823 -6.753-10.657-14.119-48.287-14.13-48.341 -1.3-4.96-1.996-10.168-2.004-15.537C42.756 32.622 62.857 8.281 89.853 1.978 61.03 6.845 39.087 32.061 39.134 62.427c0.008 5.369 0.704 10.576 2.004 15.538 0.012 0.054 8.11 37.684 14.863 48.341 6.871 10.845 23.072 30.328 34.467 34.563 2.239 0.833 5.889 1.247 9.537 1.244 3.646 0.001 7.292-0.411 9.53-1.244 11.396-4.235 27.596-23.719 34.468-34.563 6.753-10.657 14.852-48.287 14.862-48.341 1.3-4.961 1.996-10.168 2.004-15.538C160.918 32.061 138.975 6.845 110.152 1.978z" fill="#e8b9a0" stroke-width="none" opacity="1"></path><path id="SvgjsPath39088" d="M144.004 126.306c-6.87 10.846-23.072 30.329-34.468 34.563 -4.474 1.663-14.594 1.663-19.067 0 -11.396-4.235-27.596-23.719-34.467-34.563 -6.753-10.657-14.852-48.287-14.863-48.341 -1.3-4.961-1.996-10.168-2.004-15.538C39.082 28.614 66.289 1.169 99.907 1.116c33.621-0.053 60.913 27.306 60.963 61.119 0.009 5.37-0.669 10.579-1.952 15.544C158.901 77.832 150.78 115.606 144.004 126.306z" fill="none" stroke="#c27b55" stroke-width="1.5" opacity="1"></path></g></g><g id="svga-group-mouth-single" ><path id="SvgjsPath39058" d="M100.389 141.808c-3.458 0-4.907-2.678-4.907-2.678l9.74-0.188C105.222 138.941 103.433 141.808 100.389 141.808z" fill="url(#SvgjsLinearGradient39059)" opacity="1"></path><path id="SvgjsPath39062" d="M98.82 139.206c-1.781 0-3.136-0.171-3.231-0.184 -0.146-0.02-0.248-0.146-0.228-0.282 0.02-0.138 0.157-0.227 0.301-0.214 0.04 0.006 6.084 0.5 9.357-0.195 0.156-0.03 0.289 0.057 0.321 0.189 0.031 0.135-0.06 0.269-0.202 0.299C103.729 139.118 100.096 139.206 98.82 139.206zM84.391 133.824c-0.365-0.663 4.097 0.111 6.79-0.551 2.98-0.732 6.101 0.208 9.133 0.479 2.382 0.213 4.838-0.975 7.191-0.436 3.261 0.747 8.236-0.196 7.843 0.594 -0.273 0.548-4.893 1.05-7.524 0.604 -2.301-0.39-4.683 0.556-7.006 0.73 -2.885 0.217-5.767-1.385-8.614-0.933C88.922 134.832 84.701 134.388 84.391 133.824z" fill="#c27b55" stroke-width="none" opacity="1" stroke="none"></path></g><g id="svga-group-eyes-left" ><g id="svga-group-eyesback-left"><path id="SvgjsPath39095" d="M60.505 80.842c0.241 2.336 0.667 11.497 13.706 11.489 5.836-0.005 13.361-3.612 13.211-8.063 0 0-6.704-7.009-14-7.009S60.504 80.831 60.505 80.842z" fill="url(#SvgjsRadialGradient39096)" opacity="1"></path></g><g id="svga-group-eyesiriswrapper-left" transform="translate(0.5 0.75)"><g id="svga-group-eyesiriscontrol-left" ><g id="svga-group-eyesiris-left" ><path id="SvgjsPath39339" d="M81.235 86.526c-1.086 5.079-5.203 8.071-9.202 6.676 -3.996-1.394-6.356-6.647-5.269-11.727 1.085-5.083 5.211-8.075 9.208-6.679C79.965 76.189 82.322 81.442 81.235 86.526z" fill="#3c8d8e" stroke="#0c5f60" stroke-width="0.5" opacity="1"></path><path id="SvgjsPath39340" d="M81.056 84.591c-0.553 5.639-3.844 8.577-7.441 8.271 -3.323-0.285-6.293-3.404-6.57-8.791 1.15-0.42 2.676 0.263 4.014 0.002 -0.003 0.062-0.02 0.117-0.021 0.18 -0.109 2.068 1.195 3.87 2.908 4.017 1.72 0.146 3.197-1.419 3.303-3.486 0.012-0.269-0.001-0.534-0.033-0.789C78.409 84.225 79.869 83.999 81.056 84.591z" fill="#529c9d" stroke-width="none" opacity="1"></path><path id="SvgjsPath39341" d="M75.084 80.814c-1.65-0.6-3.334 0.599-3.76 2.69 -0.426 2.081 0.567 4.26 2.217 4.861 1.65 0.603 3.333-0.598 3.764-2.68C77.733 83.595 76.737 81.417 75.084 80.814z" fill="#000000" stroke-width="none" opacity="0.9"></path><path id="SvgjsPath39342" d="M75.084 80.814c-1.65-0.6-3.334 0.599-3.76 2.69 -0.426 2.081 0.567 4.26 2.217 4.861 1.65 0.603 3.333-0.598 3.764-2.68C77.733 83.595 76.737 81.417 75.084 80.814z" fill="none" stroke="#0c5f60" stroke-width="0.75" opacity="1"></path><path id="SvgjsPath39343" d="M70.451 89.818c-0.157 0.695-1.008 0.399-0.854-0.298 0.153-0.673 0.562-1.086 0.818-1.679 0.276-0.633 1.039-0.067 0.762 0.567C70.965 88.897 70.572 89.273 70.451 89.818L70.451 89.818zM71.807 88.71c-0.234 0.348-0.542 1.638-0.675 2.06 -0.211 0.672 0.642 0.961 0.851 0.298 0.073-0.229 0.32-1.373 0.45-1.563C72.799 88.958 72.18 88.16 71.807 88.71L71.807 88.71zM73.646 92.031c0.459-0.676 0.413-1.45 0.403-2.292 -0.007-0.723-0.888-0.724-0.882 0 0.007 0.465 0.115 1.114-0.146 1.498C72.65 91.781 73.271 92.579 73.646 92.031L73.646 92.031zM74.545 89.599c0.009 0.697 0.074 1.377 0.236 2.044 0.169 0.69 1.021 0.396 0.854-0.298 -0.142-0.576-0.2-1.144-0.205-1.746C75.421 88.875 74.54 88.875 74.545 89.599L74.545 89.599z" fill="#ffffff" stroke-width="none" opacity="0.5"></path><path id="SvgjsPath39344" d="M79.246 82.364c-0.868 0.663-2.174 0.066-2.916-1.334 -0.738-1.402-0.63-3.077 0.242-3.738 0.868-0.667 2.175-0.068 2.91 1.333C80.225 80.027 80.118 81.7 79.246 82.364z" fill="#ffffff" stroke-width="none" opacity="0.8"></path></g></g></g><g id="svga-group-eyesfront-left"><path id="SvgjsPath39120" d="M55.199 83.999c0 13.807 8.507 25 19 25s19-11.193 19-25 -8.507-25-19-25S55.199 70.192 55.199 83.999zM60.505 80.842c-0.001-0.011 5.621-3.583 12.917-3.583s14 7.009 14 7.009c0.15 4.45-7.375 8.058-13.211 8.063C61.172 92.339 60.746 83.179 60.505 80.842z" fill="#f0c7b1" stroke-width="none" opacity="1"></path><path id="SvgjsPath39121" d="M58.098 84.073c-0.078 7.733 8.894 13.964 18.553 13.926 9.657-0.044 17.473-6.342 17.446-14.077C94.072 76.191 86.23 69.959 76.57 70 66.909 70.043 58.202 73.495 58.098 84.073zM60.505 80.842c-0.001-0.011 5.621-3.583 12.917-3.583s14 7.009 14 7.009c0.15 4.45-7.375 8.058-13.211 8.063C61.172 92.339 60.746 83.179 60.505 80.842z" fill="url(#SvgjsRadialGradient39122)" opacity="1"></path><path id="SvgjsPath39126" d="M60.505 80.842c0.241 2.336 0.667 11.497 13.706 11.489 5.836-0.005 13.361-3.612 13.211-8.063 0 0-6.704-7.009-14-7.009S60.504 80.831 60.505 80.842z" fill="url(#SvgjsRadialGradient39127)" opacity="1"></path><path id="SvgjsPath39130" d="M88.143 81.99c-0.995-1.708-5.02-5.623-10.804-6.99C84.38 76.245 86.134 78.672 88.143 81.99z" fill="#c27b55" stroke-width="none" opacity="1"></path><path id="SvgjsPath39131" d="M60.707 81.467c0.099 1.422 1.79 5.64 2.534 6.819 -2.275-1.08-2.705-4.186-7.099-8.199 14.067-7.027 24.748-5.142 32 5.061C78.764 76.573 71.396 75.496 60.707 81.467zM83.776 89.792c0 0-6.42 2.373-9.923 2.41 -3.503 0.039-8.483-1.906-8.483-1.906s4.851 2.565 8.483 2.57C77.487 92.872 83.776 89.792 83.776 89.792z" fill="#1b1929" stroke-width="none" opacity="1"></path></g></g><g id="svga-group-eyes-right" ><g id="svga-group-eyesback-right"><path id="SvgjsPath39103" d="M139.097 80.842c-0.241 2.336-0.667 11.497-13.706 11.489 -5.836-0.005-13.361-3.612-13.211-8.063 0 0 6.704-7.009 14-7.009S139.098 80.831 139.097 80.842z" fill="url(#SvgjsRadialGradient39104)" opacity="1"></path></g><g id="svga-group-eyesiriswrapper-right" transform="translate(-0.5 0.75)"><g id="svga-group-eyesiriscontrol-right" ><g id="svga-group-eyesiris-right" ><path id="SvgjsPath39345" d="M133.235 86.526c-1.086 5.079-5.202 8.071-9.201 6.676 -3.997-1.394-6.356-6.647-5.27-11.727 1.086-5.083 5.212-8.075 9.208-6.679C131.965 76.189 134.322 81.442 133.235 86.526z" fill="#3c8d8e" stroke="#0c5f60" stroke-width="0.5" opacity="1"></path><path id="SvgjsPath39346" d="M133.056 84.591c-0.553 5.639-3.844 8.577-7.44 8.271 -3.322-0.285-6.294-3.404-6.57-8.791 1.151-0.42 2.677 0.263 4.014 0.002 -0.003 0.062-0.019 0.117-0.021 0.18 -0.108 2.068 1.195 3.87 2.909 4.017 1.72 0.146 3.197-1.419 3.302-3.486 0.013-0.269-0.001-0.534-0.032-0.789C130.409 84.225 131.869 83.999 133.056 84.591z" fill="#529c9d" stroke-width="none" opacity="1"></path><path id="SvgjsPath39347" d="M127.084 80.814c-1.65-0.6-3.335 0.599-3.76 2.69 -0.427 2.081 0.567 4.26 2.217 4.861 1.65 0.603 3.334-0.598 3.765-2.68C129.733 83.595 128.736 81.417 127.084 80.814z" fill="#000000" stroke-width="none" opacity="0.9"></path><path id="SvgjsPath39348" d="M127.084 80.814c-1.65-0.6-3.335 0.599-3.76 2.69 -0.427 2.081 0.567 4.26 2.217 4.861 1.65 0.603 3.334-0.598 3.765-2.68C129.733 83.595 128.736 81.417 127.084 80.814z" fill="none" stroke="#0c5f60" stroke-width="0.75" opacity="1"></path><path id="SvgjsPath39349" d="M122.451 89.818c-0.157 0.695-1.008 0.399-0.854-0.298 0.153-0.673 0.562-1.086 0.817-1.679 0.276-0.633 1.039-0.067 0.762 0.567C122.965 88.897 122.571 89.273 122.451 89.818L122.451 89.818zM123.807 88.71c-0.234 0.348-0.542 1.638-0.675 2.06 -0.211 0.672 0.642 0.961 0.851 0.298 0.072-0.229 0.32-1.373 0.449-1.563C124.8 88.958 124.18 88.16 123.807 88.71L123.807 88.71zM125.646 92.031c0.46-0.676 0.414-1.45 0.403-2.292 -0.007-0.723-0.889-0.724-0.882 0 0.008 0.465 0.115 1.114-0.146 1.498C124.65 91.781 125.271 92.579 125.646 92.031L125.646 92.031zM126.545 89.599c0.009 0.697 0.074 1.377 0.236 2.044 0.17 0.69 1.021 0.396 0.854-0.298 -0.143-0.576-0.201-1.144-0.205-1.746C127.422 88.875 126.54 88.875 126.545 89.599L126.545 89.599z" fill="#ffffff" stroke-width="none" opacity="0.5"></path><path id="SvgjsPath39350" d="M131.246 82.364c-0.868 0.663-2.174 0.066-2.916-1.334 -0.738-1.402-0.63-3.077 0.243-3.738 0.867-0.667 2.174-0.068 2.909 1.333C132.225 80.027 132.118 81.7 131.246 82.364z" fill="#ffffff" stroke-width="none" opacity="0.8"></path></g></g></g><g id="svga-group-eyesfront-right"><path id="SvgjsPath39141" d="M125.402 58.999c-10.493 0-19 11.193-19 25s8.507 25 19 25 19-11.193 19-25S135.896 58.999 125.402 58.999zM125.391 92.331c-5.836-0.005-13.361-3.612-13.211-8.063 0 0 6.704-7.009 14-7.009s12.918 3.572 12.917 3.583C138.855 83.179 138.43 92.339 125.391 92.331z" fill="#f0c7b1" stroke-width="none" opacity="1"></path><path id="SvgjsPath39142" d="M123.031 70c-9.66-0.041-17.502 6.192-17.526 13.922 -0.026 7.735 7.789 14.033 17.446 14.077 9.659 0.038 18.631-6.193 18.553-13.926C141.399 73.495 132.692 70.043 123.031 70zM125.391 92.331c-5.836-0.005-13.361-3.612-13.211-8.063 0 0 6.704-7.009 14-7.009s12.918 3.572 12.917 3.583C138.855 83.179 138.43 92.339 125.391 92.331z" fill="url(#SvgjsRadialGradient39143)" opacity="1"></path><path id="SvgjsPath39147" d="M139.097 80.842c-0.241 2.336-0.667 11.497-13.706 11.489 -5.836-0.005-13.361-3.612-13.211-8.063 0 0 6.704-7.009 14-7.009S139.098 80.831 139.097 80.842z" fill="url(#SvgjsRadialGradient39148)" opacity="1"></path><path id="SvgjsPath39151" d="M111.459 81.99c0.995-1.708 5.02-5.623 10.804-6.99C115.222 76.245 113.468 78.672 111.459 81.99z" fill="#c27b55" stroke-width="none" opacity="1"></path><path id="SvgjsPath39152" d="M111.459 85.148c7.252-10.203 17.933-12.088 32-5.061 -4.394 4.013-4.823 7.119-7.099 8.199 0.744-1.179 2.436-5.397 2.534-6.819C128.205 75.496 120.838 76.573 111.459 85.148zM125.748 92.866c3.633-0.005 8.483-2.57 8.483-2.57s-4.98 1.944-8.483 1.906c-3.503-0.038-9.923-2.41-9.923-2.41S122.114 92.872 125.748 92.866z" fill="#1b1929" stroke-width="none" opacity="1"></path></g></g><g id="svga-group-facehighlight-single" ><path id="SvgjsPath38796" d="M141 113.974c0.035 22.622-18.292 40.994-40.938 41.025 -22.642 0.037-41.028-18.273-41.063-40.9 -0.035-22.62 18.292-41.064 40.937-41.1C122.579 72.964 140.967 91.349 141 113.974z" fill="url(#SvgjsRadialGradient38797)" opacity="1"></path><path id="SvgjsPath38800" d="M137.5 53.999c0 20.711-16.789 37.5-37.499 37.5 -20.711 0-37.501-16.789-37.501-37.5s16.79-37.5 37.501-37.5C120.711 16.499 137.5 33.288 137.5 53.999z" fill="url(#SvgjsRadialGradient38801)" opacity="1"></path></g><g id="svga-group-eyebrows-left" ><path id="SvgjsPath39153" d="M56.113 72.739c32.178-9.407 39.48 9.836 32.802 3.849C81.977 70.368 65.958 70.92 56.113 72.739z" fill="#2a232b" stroke-width="none" opacity="1"></path></g><g id="svga-group-eyebrows-right" ><path id="SvgjsPath39154" d="M143.889 72.731c-9.304-1.701-22.773-2.38-30.946 2.53 -1.01 0.606-5.017 4.041-3.951 1.625C110.929 72.486 123.744 66.882 143.889 72.731z" fill="#2a232b" stroke-width="none" opacity="1"></path></g><g id="svga-group-nose-single" ><path id="SvgjsPath39063" d="M99.979 120.982c-2.599-0.079-7.224-2.758-6.672-5.166 0.511-2.238 3.422 0.816 6.766 0.844 3.343 0.027 7.336-1.967 7.806 0.277C108.636 120.561 104.166 121.112 99.979 120.982z" fill="#e8b9a0" stroke-width="none" opacity="1" stroke="none"></path><path id="SvgjsPath39064" d="M105.793 119.62c0.21 0.275 0.572 0.275 0.797-0.002 0.231-0.277 0.243-0.727 0.027-1.001 -1.568-2.021-4.39 0.688-4.177 0.969C102.519 119.691 104.608 118.113 105.793 119.62zM94.106 114.477c0.329 2.148 1.012 5.016 6.507 6.519 -5.417-0.161-8.937-1.169-8.908-6.206 0.015-2.549 2.678-7.79 2.678-7.79S93.758 112.207 94.106 114.477z" fill="#c27b55" stroke-width="none" opacity="1" stroke="none"></path></g><g id="svga-group-beardwrap" ><g id="svga-group-beard-single" ><path id="SvgjsPath38814" d="M100,18.13L100,18.13L100,18.13L100,18.13z" fill="#2a232b" stroke-width="none" opacity="1"></path></g></g><g id="svga-group-mustache-single" ><path id="SvgjsPath38812" d="M100,18.13L100,18.13L100,18.13L100,18.13z" fill="#2a232b" stroke-width="none" opacity="1"></path></g><g id="svga-group-hair-front" ><path id="SvgjsPath38966" d="M152.176 96.021c-4.33-11.451-2.396-20.042-3.227-37.21 -1.283-26.428-7.483-23.179-21.749-24.214C105.156 33 97.497 22.794 81.063 22.794c-8.887 0-19.24 4.048-27.173 11.001 -6.378 43.485 2.638 39.87-6.744 61.845 -5.953-6.247-6.721-15.865-11.134-28.495 -3.519-10.451-2.658-11.011-6.527-16.049 2.484 0.449 2.734 0.429 3.842 0.429 -1.97-4.306-4.479-11.951-5.429-15.273 2.329-1.116 4.839-3.909 6.47-5.919 -0.931-2.128-1.646-4.554-2.079-6.625 0.077-0.026 0.438-0.16 0.438-0.16l0.004-0.017c5.681-2.417 6.84-15.944 10.785-19.389 1.941-1.814 3.806-2.531 5.534-3.446 0.204-1.895 0.295-2.277 0.575-3.63 9.402-2.521 12.254-1.199 25.53-4.893 4.564-1.27 7.709-2.153 17.317-1.75 3.525 1.779 16.06 10.479 25.484 1.602 7.254 4.527 13.574 5.105 22.624 10.252 15.179 8.89 17.244 15.147 16.352 29.56 10.493 13.965 8.167 30.567 3.577 47.23C157.639 89.383 154.886 92.761 152.176 96.021z" fill="#2a232b" stroke-width="none" opacity="1"></path><path id="SvgjsPath38967" d="M152 82c-1-8 3-15 4-22 -1 2-3 3-3 5 0-7 3-13 2-20 -1 2-2 3-4 4 3-7 0-15-5-21 1 3 2 5 2 8 -6-9-20-10-30-15 2 3 6 5 9 7 -14-5-27-11-40-17 2.206 2.206 3.875 6.024 6.589 7.499 1.143 0.163 0.978 0.531 0 0C81.581 16.79 68.958 15.479 58 10c0 4 3 7 6 9 -3 0-6-3-8-2 -3 2 3 4 2 6 -3 2-6-1-9-1 2 3 0 8 2 11 -2-1-4-3-4-2 -1 4-3 5-3 8 0 5 3 10 3 15 0-1.608-1.938-1.279-2.697-2.127 5.009 13.975 4.782 28.692 2.606 43.497 0.082 0.089 0.154 0.184 0.237 0.271 9.382-21.975 0.366-18.36 6.744-61.845 7.933-6.953 18.286-11.001 27.173-11.001 16.435 0 24.094 10.207 46.138 11.802 14.266 1.036 20.466-2.214 21.749 24.214 0.83 17.168-1.104 25.759 3.227 37.21 0.005-0.005 0.009-0.011 0.014-0.016C152.841 88.595 155 81.796 155 75 154 77 153 79 152 82z" fill="#0c080c" stroke-width="none" opacity="1"></path><path id="SvgjsPath38968" d="M159.263 71.488C158.954 72.145 157 72.343 157 73c0-3 3.516-5.243 2.924-10.264 0 0.396-3.158 2.95-3.475 3.346 -0.206 1 4.288-10.681 4.288-14.542C159.263 53.999 158 54 158 56c0-4-0.006-9.854-0.006-13.854 0 2-1.994 4.949-1.994 6.949 0.933-7.464-3.404-16.095-4.28-23.501 -0.511 1.795-1.479 3.889-0.72 5.406 -3-4-2-11-7-14 -1 2-1 4-2 6 -3-4-7-7-9-11 0 2 0 3 0 5 -5-4-12-6-15-12 0 2 0 5 0 7 -4-1-10.495-4.596-12.495-7.596C105.505 7.404 109 12 109 15c-8-4-14-10-22-14 0 2 2 4 1 6 -4-2-11.771-2-13.771-6 0 3 3.11 6 3.11 9 -9-1-11.009-3.822-19.242-7.596C57.097 4.404 56 7 55 9c-2-2-3-4-6-4 0 3 3 7 1 10 -1 1-5-3-5-2 -2 4 0 10-2 14 0 1-3-2-5-1 3.872 5.807 1.202 12.548 3.745 18.416C41.843 44.598 41.93 44.79 42 45c-0.096-0.193-0.17-0.389-0.255-0.584C40.452 41.988 36.93 41.79 36 39c0 7.303 4.157 13.774 5.645 20.932C42.15 60.233 42.404 60.788 42 62c-0.087-0.697-0.214-1.385-0.355-2.068C40.897 59.486 39.596 59.596 39 59c4.728 9.455 6.191 25.673 7.909 36.369 3.545-15.374 1.709-31.456-2.606-43.497C44.118 51.666 44 51.392 44 51c0.109 0.29 0.198 0.582 0.303 0.873C45.063 52.721 47 52.392 47 54c0-5-3-10-3-15 0-3 2-4 3-8 0-1 2 1 4 2 -2-3 0-8-2-11 3 0 6 3 9 1 1-2-5-4-2-6 2-1 5 2 8 2 -3-2-6-5-6-9 10.958 5.479 23.581 6.79 35.589 8.499C90.875 17.024 89.206 13.206 87 11c13 6 26 12 40 17 -3-2-7-4-9-7 10 5 24 6 30 15 0-3-1-5-2-8 5 6 8 14 5 21 2-1 3-2 4-4 1 7-2 13-2 20 0-2 2-3 3-5 -1 7-5 14-4 22 1-3 2-5 3-7 0 6.796-2.159 13.595-2.811 21.004 0.814-0.979 1.633-1.975 2.457-3.163C154.545 85.429 157.479 79.338 159.263 71.488z" fill="#1b141c" stroke-width="none" opacity="1"></path><path id="SvgjsPath38969" d="M93.119 18.235c-1.128 0.089-2.468 0.279-4.94-0.096 -6.698-0.927-28.617-1.793-29.81-8.654 1.055 3.353 7.405 4.299 12.204 5.198 0 0 3.382 0.651 8.723 1.251C89.291 17.101 87.179 17.888 93.119 18.235zM115.897 23.746C92 13.389 93.7 14.531 88.119 10.985c7.333 6.156 9.839 6.172 22.619 12.018 5.921 2.667 7.078 2.561 15.131 4.482C120.224 25.241 119.559 25.287 115.897 23.746zM118.619 20.735c9.914 8.153 22.008 6.125 29.75 15C142.164 25.918 128.518 26.908 118.619 20.735zM59.905 17.331c-2.668-0.805-3.997-0.43-5.286 0.404 4.225-1.989 8.651 2.923 13.75 1.5C66.006 19.523 59.905 17.53 59.905 17.331zM57.051 23.932c-2.328-0.734-5.203-1.979-7.151-1.927 -1.03 0.024-1.281 0.48-1.281 0.48 0.975-1.139 5.609 1.099 8.396 1.626 0.766 0.16 1.354 0.123 1.354 0.123S57.783 24.176 57.051 23.932zM45.652 35.678c0.687-1.892 1.461-3.751 1.256-5.482 -0.104-0.627-0.309-0.955-0.289-0.96 0.464 1.973-0.313 3.175-1.68 6.136 -3.015 6.453 0.924 11.484 2.43 18.364C46.86 45.866 43.166 42.389 45.652 35.678zM154.369 45.985c0.32 2.168 0.225 3.63-0.154 7.075 0 0-0.695 5.779-2.096 11.425C154.198 59.638 155.94 51.389 154.369 45.985zM155.869 61.485c-3.387 9.387-3.936 12.846-4.5 20.25C155.099 64.497 153.284 73.154 155.869 61.485z" fill="#2a232b" stroke-width="none" opacity="1"></path><path id="SvgjsPath38970" d="M114.869-1.765c-6.126 0.965-12.52 1.734-24-5.25C101.949-1.999 107.334-1.517 114.869-1.765zM128.401 0.19c-6.076-2.194-6.475-4.768-11.032-6.205 4.159 1.884 4.127 4.303 9.559 6.761 2.642 1.249 11.822 3.782 17.441 7.439C139.405 3.794 136.066 3.059 128.401 0.19zM60.619-2.015c11.593 0.241 13.441-2.719 26.75-4.25C75.403-6.414 74.136-3.561 60.619-2.015zM90.869-1.765c4.669 0.559 11.405 4.746 13.5 9.5C102.84 2.405 96.201-1.735 90.869-1.765zM116.869-0.265c4.652 2.475 6.308 7.699 12 8.75C123.284 6.637 122.178 1.803 116.869-0.265zM108.869 0.735c1.193 2.033 2.93 4.107 7.5 7C111.036 3.353 110.121 2.431 108.869 0.735zM132.119 5.485c5.115 0.627 10.451 5.663 11 11.25C143.375 11.229 138.428 5.581 132.119 5.485zM149.458 14.007c-2.307-2.946-4.339-3.642-5.339-4.022 1.428 0.741 2.997 1.725 4.866 4.386 0 0 3.437 4.57 4.884 9.614C152.871 17.907 149.458 14.007 149.458 14.007zM54.369-0.265c0.185-0.391 5.324 1.866 5.73 2.03 1.229 0.479 7.383 2.967 9.52 3.22C68.618 4.717 54.423-1.414 54.369-0.265zM45.869 5.985c0.682 0.896 1.458 2.263 2.01 3.245 0 0 0.296 0.523 0.571 1.059 0.27 0.537 0.51 1.086 0.51 1.086C49.634 12.912 49.955 13.861 50 15 50.252 12.019 47.702 7.872 45.869 5.985zM42.869 8.985c-2.517 6.149-2.489 9.708 0 16C41.306 18.681 40.986 15.697 42.869 8.985z" fill="#3a353a" stroke-width="none" opacity="1"></path><path id="SvgjsPath38971" d="M157.239 31.745c0.228-3.5 0.323-5.684 0.02-9.14 -1.138-10.129-7.217-15.136-16.529-20.59 -9.158-5.208-15.513-5.751-22.811-10.37 -9.334 9.042-21.935 0.184-25.37-1.52 -16.776-0.716-14.191 2.518-32.75 4.78 -6.844 0.773-9.67 1.72-9.67 1.72 -0.26 0.07-0.52 0.13-0.76 0.2 -0.2 1-0.381 1.616-0.6 3.68 -1.516 0.801-3.484 1.572-5.45 3.41 -4.048 3.536-5.212 17.195-10.83 19.39v0.01c-0.118 0.043-0.428 0.163-0.55 0.18 0.419 2.096 1.188 4.75 2.08 6.79 -1.594 1.959-4.17 4.807-6.48 5.8 0.546 1.98 3.313 10.751 5.32 15.14 -1.1 0-2.003-0.194-4.09-0.56 4.388 5.578 3.281 5.653 6.96 16.58 4.481 12.826 5.208 22.595 11.49 28.9 5.633-10.646 5.146-15.583 5.19-19.41 0.123-5.265-2.433-18.462 1.935-42.798 9.262-8.105 22.378-12.754 34.815-9.932 13.001 2.94 19.525 9.551 38.02 10.89 14.399 1.046 20.201-2.213 21.471 23.93 0.841 17.373-1.163 26.023 3.43 37.78 2.669-3.22 5.645-6.408 8.72-17.46C165.299 62.807 167.816 45.939 157.239 31.745zM161.02 70.726c-3.468 16.597-5.491 19.609-9.061 24.96 -2.882-8.88-2.093-17.47-1.8-26.59 1.486-39.246-8.424-34.825-22.86-35.92 -17.688-1.192-24.622-7.896-37.76-10.54 -11.972-2.45-25.25 0.755-36.35 11.16 -6.045 27.128 0.578 41.608-4.78 55.37 -1.162 2.943-0.429 3.694-1.28 5.84 -4.636-6.978-5.874-16.832-7.41-21.79 -4.784-12.176-4.632-16.171-9.84-21.97 1.271 0.277 2.91 0.457 4.21 0.24 -0.01-0.01-0.01-0.01-0.01-0.02 -0.332-1.001-4.524-12.47-5.75-15.33 2.387-1.152 4.729-3.746 6.35-5.83 -1.292-4.088 0.314 1.902-2.1-6.66 7.366-2.215 6.6-16.125 14.11-21.21 0.997-0.665 1.88-1.213 2.86-1.83 0.221-1.879 0.071-0.771 0.52-3.63 8.803-1.813 12.4-0.024 25.18-4.05 9.681-2.356 16.636-2.269 17.64-2.16 6.167 3.862 9.656 6.038 16.91 5.53 3.323-0.272 5.966-1.878 8.28-4.24 4.01 3.008 8.485 4.831 13.99 7.35 22.244 10.181 24.229 18.459 24.229 32.18 1.398 1.975 2.938 5.099 3.7 7.19C164.593 50.117 163.096 61.037 161.02 70.726z" fill="#000000" stroke-width="none" opacity="1"></path></g><g id="svga-group-glasses-single" ><path id="SvgjsPath38932" d="M100,18.13L100,18.13L100,18.13L100,18.13z" fill="#26120b" stroke-width="none" opacity="1"></path></g></g></g><rect id="SvgjsRect38781" width="200" height="15" x="0" y="185" fill="#ecf0f1" opacity="0.5" style="display:none;"></rect><text id="SvgjsText38782" font-family="&quot;Roboto&quot;, &quot;Helvetica Neue&quot;, Helvetica, Arial, sans-serif" style="font-size:0.84em;font-family:&quot;Roboto&quot;, &quot;Helvetica Neue&quot;, Helvetica, Arial, sans-serif;text-anchor:middle;font-weight:400;display:none;" font-size="0.84em" text-anchor="middle" font-weight="400" fill="#000000" x="100" y="185"><tspan id="SvgjsTspan38783" dy="1.2em" x="100" style="font-size:0.84em;font-family:&quot;Roboto&quot;, &quot;Helvetica Neue&quot;, Helvetica, Arial, sans-serif;text-anchor:middle;font-weight:400;">Created on AvatarMaker.com</tspan></text></g><defs id="SvgjsDefs38746"><radialGradient id="SvgjsRadialGradient38797" cx="100" cy="114" r="41" gradientUnits="userSpaceOnUse" class="svga-on-canvas-facehighlight-gradient-single-0"><stop id="SvgjsStop38798" stop-opacity="0.5" stop-color="#ffe4d6" offset="0" ></stop><stop id="SvgjsStop38799" stop-opacity="0" stop-color="#f0c7b1" offset="0.9" ></stop></radialGradient><radialGradient id="SvgjsRadialGradient38801" cx="100" cy="54" r="37" gradientUnits="userSpaceOnUse" class="svga-on-canvas-facehighlight-gradient-single-1"><stop id="SvgjsStop38802" stop-opacity="0.5" stop-color="#ffe4d6" offset="0" ></stop><stop id="SvgjsStop38803" stop-opacity="0" stop-color="#f0c7b1" offset="0.9" ></stop></radialGradient><linearGradient id="SvgjsLinearGradient39059" x1="100" y1="142" x2="100" y2="139" gradientUnits="userSpaceOnUse" class="svga-on-canvas-mouth-gradient-single-0"><stop id="SvgjsStop39060" stop-opacity="1" stop-color="#e8b9a0" offset="0.1" ></stop><stop id="SvgjsStop39061" stop-opacity="1" stop-color="#e1ac8f" offset="1" ></stop></linearGradient><linearGradient id="SvgjsLinearGradient39090" x1="100" y1="171" x2="100" y2="128" gradientUnits="userSpaceOnUse" class="svga-on-canvas-chinshadow-gradient-single-0"><stop id="SvgjsStop39091" stop-opacity="0.8" stop-color="#e1ac8f" offset="0" ></stop><stop id="SvgjsStop39092" stop-opacity="1" stop-color="#c27b55" offset="0.7" ></stop></linearGradient><radialGradient id="SvgjsRadialGradient39096" cx="126.035" cy="84.795" r="10.908" gradientTransform="matrix(-1 0 0 1 200 0)" gradientUnits="userSpaceOnUse" class="svga-on-canvas-eyesback-gradient-left-0"><stop id="SvgjsStop39097" stop-opacity="1" stop-color="#ffffff" offset="0" ></stop><stop id="SvgjsStop39098" stop-opacity="1" stop-color="#fdfefe" offset="0.544" ></stop><stop id="SvgjsStop39099" stop-opacity="1" stop-color="#f6f8f9" offset="0.74" ></stop><stop id="SvgjsStop39100" stop-opacity="1" stop-color="#eaeff2" offset="0.879" ></stop><stop id="SvgjsStop39101" stop-opacity="1" stop-color="#d9e3e8" offset="0.992" ></stop><stop id="SvgjsStop39102" stop-opacity="1" stop-color="#d8e2e7" offset="1" ></stop></radialGradient><radialGradient id="SvgjsRadialGradient39104" cx="125.637" cy="84.795" r="10.908" gradientUnits="userSpaceOnUse" class="svga-on-canvas-eyesback-gradient-right-0"><stop id="SvgjsStop39105" stop-opacity="1" stop-color="#ffffff" offset="0" ></stop><stop id="SvgjsStop39106" stop-opacity="1" stop-color="#fdfefe" offset="0.544" ></stop><stop id="SvgjsStop39107" stop-opacity="1" stop-color="#f6f8f9" offset="0.74" ></stop><stop id="SvgjsStop39108" stop-opacity="1" stop-color="#eaeff2" offset="0.879" ></stop><stop id="SvgjsStop39109" stop-opacity="1" stop-color="#d9e3e8" offset="0.992" ></stop><stop id="SvgjsStop39110" stop-opacity="1" stop-color="#d8e2e7" offset="1" ></stop></radialGradient><radialGradient id="SvgjsRadialGradient39112" cx="126.035" cy="84.795" r="10.908" gradientTransform="matrix(-1 0 0 1 200 0)" gradientUnits="userSpaceOnUse" class="svga-on-canvas-eyesfront-gradient-left-0"><stop id="SvgjsStop39113" stop-opacity="1" stop-color="#ffffff" offset="0" ></stop><stop id="SvgjsStop39114" stop-opacity="1" stop-color="#fdfefe" offset="0.544" ></stop><stop id="SvgjsStop39115" stop-opacity="1" stop-color="#f6f8f9" offset="0.74" ></stop><stop id="SvgjsStop39116" stop-opacity="1" stop-color="#eaeff2" offset="0.879" ></stop><stop id="SvgjsStop39117" stop-opacity="1" stop-color="#d9e3e8" offset="0.992" ></stop><stop id="SvgjsStop39118" stop-opacity="1" stop-color="#d8e2e7" offset="1" ></stop></radialGradient><radialGradient id="SvgjsRadialGradient39122" cx="123.813" cy="83.449" fx="136.255" fy="83.484" r="17.696" gradientTransform="matrix(0.9998 0.0208 0.0166 -0.7998 -48.9873 147.6178)" gradientUnits="userSpaceOnUse" class="svga-on-canvas-eyesfront-gradient-left-3"><stop id="SvgjsStop39123" stop-opacity="1" stop-color="#e1ac8f" offset="0" ></stop><stop id="SvgjsStop39124" stop-opacity="0.3" stop-color="#e1ac8f" offset="0.7" ></stop><stop id="SvgjsStop39125" stop-opacity="0" stop-color="#f0c7b1" offset="1" ></stop></radialGradient><radialGradient id="SvgjsRadialGradient39127" cx="122.749" cy="106.061" r="28.568" gradientTransform="matrix(-0.8829 -0.4695 -0.4131 0.777 229.4492 81.2793)" gradientUnits="userSpaceOnUse" class="svga-on-canvas-eyesfront-gradient-left-4"><stop id="SvgjsStop39128" stop-opacity="0" stop-color="#000000" offset="0.9" ></stop><stop id="SvgjsStop39129" stop-opacity="0.2" stop-color="#000000" offset="1" ></stop></radialGradient><radialGradient id="SvgjsRadialGradient39133" cx="125.637" cy="84.795" r="10.908" gradientUnits="userSpaceOnUse" class="svga-on-canvas-eyesfront-gradient-right-0"><stop id="SvgjsStop39134" stop-opacity="1" stop-color="#ffffff" offset="0" ></stop><stop id="SvgjsStop39135" stop-opacity="1" stop-color="#fdfefe" offset="0.544" ></stop><stop id="SvgjsStop39136" stop-opacity="1" stop-color="#f6f8f9" offset="0.74" ></stop><stop id="SvgjsStop39137" stop-opacity="1" stop-color="#eaeff2" offset="0.879" ></stop><stop id="SvgjsStop39138" stop-opacity="1" stop-color="#d9e3e8" offset="0.992" ></stop><stop id="SvgjsStop39139" stop-opacity="1" stop-color="#d8e2e7" offset="1" ></stop></radialGradient><radialGradient id="SvgjsRadialGradient39143" cx="123.414" cy="83.449" fx="135.857" fy="83.484" r="17.696" gradientTransform="matrix(-0.9998 0.0208 -0.0166 -0.7998 248.1905 147.6261)" gradientUnits="userSpaceOnUse" class="svga-on-canvas-eyesfront-gradient-right-3"><stop id="SvgjsStop39144" stop-opacity="1" stop-color="#e1ac8f" offset="0" ></stop><stop id="SvgjsStop39145" stop-opacity="0.3" stop-color="#e1ac8f" offset="0.7" ></stop><stop id="SvgjsStop39146" stop-opacity="0" stop-color="#f0c7b1" offset="1" ></stop></radialGradient><radialGradient id="SvgjsRadialGradient39148" cx="122.351" cy="106.061" r="28.568" gradientTransform="matrix(0.8829 -0.4695 0.4131 0.777 -29.4959 81.0923)" gradientUnits="userSpaceOnUse" class="svga-on-canvas-eyesfront-gradient-right-4"><stop id="SvgjsStop39149" stop-opacity="0" stop-color="#000000" offset="0.9" ></stop><stop id="SvgjsStop39150" stop-opacity="0.2" stop-color="#000000" offset="1" ></stop></radialGradient><radialGradient id="SvgjsRadialGradient39251" cx="-568.659" cy="-521.042" r="59.751" gradientTransform="matrix(0.096 -0.0248 0.0245 0.0961 141.2814 119.9893)" gradientUnits="userSpaceOnUse" class="svga-on-canvas-eyesiris-gradient-left-1"><stop id="SvgjsStop39252" stop-opacity="1" stop-color="#ffffff" offset="0" ></stop><stop id="SvgjsStop39253" stop-opacity="0" stop-color="#ffffff" offset="1" ></stop></radialGradient><radialGradient id="SvgjsRadialGradient39255" cx="-582.838" cy="-519.099" r="59.745" gradientTransform="matrix(0.0991 8.856319e-004 -0.0011 0.0991 131.1134 135.9855)" gradientUnits="userSpaceOnUse" class="svga-on-canvas-eyesiris-gradient-left-2"><stop id="SvgjsStop39256" stop-opacity="1" stop-color="#ffffff" offset="0" ></stop><stop id="SvgjsStop39257" stop-opacity="0" stop-color="#ffffff" offset="1" ></stop></radialGradient><linearGradient id="SvgjsLinearGradient39261" x1="122.67" y1="88.268" x2="123.606" y2="87.152" gradientTransform="matrix(1 0 0 1 -52 0)" gradientUnits="userSpaceOnUse" class="svga-on-canvas-eyesiris-gradient-left-5"><stop id="SvgjsStop39262" stop-opacity="1" stop-color="#ffffff" offset="0" ></stop><stop id="SvgjsStop39263" stop-opacity="0" stop-color="#ffffff" offset="1" ></stop></linearGradient><linearGradient id="SvgjsLinearGradient39265" x1="127.212" y1="82.296" x2="126.463" y2="83.189" gradientTransform="matrix(1 0 0 1 -52 0)" gradientUnits="userSpaceOnUse" class="svga-on-canvas-eyesiris-gradient-left-6"><stop id="SvgjsStop39266" stop-opacity="1" stop-color="#ffffff" offset="0" ></stop><stop id="SvgjsStop39267" stop-opacity="0" stop-color="#ffffff" offset="1" ></stop></linearGradient><linearGradient id="SvgjsLinearGradient39269" x1="129.636" y1="79.822" x2="127.91" y2="81.879" gradientTransform="matrix(1 0 0 1 -52 0)" gradientUnits="userSpaceOnUse" class="svga-on-canvas-eyesiris-gradient-left-7"><stop id="SvgjsStop39270" stop-opacity="1" stop-color="#ffffff" offset="0" ></stop><stop id="SvgjsStop39271" stop-opacity="0" stop-color="#ffffff" offset="1" ></stop></linearGradient><radialGradient id="SvgjsRadialGradient39274" cx="-568.654" cy="-521.042" r="59.752" gradientTransform="matrix(0.096 -0.0248 0.0245 0.0961 193.2804 119.9894)" gradientUnits="userSpaceOnUse" class="svga-on-canvas-eyesiris-gradient-right-1"><stop id="SvgjsStop39275" stop-opacity="1" stop-color="#ffffff" offset="0" ></stop><stop id="SvgjsStop39276" stop-opacity="0" stop-color="#ffffff" offset="1" ></stop></radialGradient><radialGradient id="SvgjsRadialGradient39278" cx="-582.833" cy="-519.102" r="59.747" gradientTransform="matrix(0.0991 8.856319e-004 -0.0011 0.0991 183.1126 135.9856)" gradientUnits="userSpaceOnUse" class="svga-on-canvas-eyesiris-gradient-right-2"><stop id="SvgjsStop39279" stop-opacity="1" stop-color="#ffffff" offset="0" ></stop><stop id="SvgjsStop39280" stop-opacity="0" stop-color="#ffffff" offset="1" ></stop></radialGradient><linearGradient id="SvgjsLinearGradient39284" x1="122.67" y1="88.268" x2="123.606" y2="87.152" gradientUnits="userSpaceOnUse" class="svga-on-canvas-eyesiris-gradient-right-5"><stop id="SvgjsStop39285" stop-opacity="1" stop-color="#ffffff" offset="0" ></stop><stop id="SvgjsStop39286" stop-opacity="0" stop-color="#ffffff" offset="1" ></stop></linearGradient><linearGradient id="SvgjsLinearGradient39288" x1="127.212" y1="82.296" x2="126.463" y2="83.189" gradientUnits="userSpaceOnUse" class="svga-on-canvas-eyesiris-gradient-right-6"><stop id="SvgjsStop39289" stop-opacity="1" stop-color="#ffffff" offset="0" ></stop><stop id="SvgjsStop39290" stop-opacity="0" stop-color="#ffffff" offset="1" ></stop></linearGradient><linearGradient id="SvgjsLinearGradient39292" x1="129.636" y1="79.822" x2="127.91" y2="81.879" gradientUnits="userSpaceOnUse" class="svga-on-canvas-eyesiris-gradient-right-7"><stop id="SvgjsStop39293" stop-opacity="1" stop-color="#ffffff" offset="0" ></stop><stop id="SvgjsStop39294" stop-opacity="0" stop-color="#ffffff" offset="1" ></stop></linearGradient></defs></svg>