<svg xmlns="http://www.w3.org/2000/svg" version="1.1" width="600px" height="600px" xlink="http://www.w3.org/1999/xlink" style="overflow:hidden!important;"><g id="svga-group-wrapper" transform="scale(3 3)"><g id="svga-group-backs-single"><path id="SvgjsPath9269" d="M225 225H-25V-25h250V225z" fill="#036564" stroke-width="none" opacity="1" stroke="none"></path><path id="SvgjsPath9270" d="M103-37.266L99.131 71.999 96.536-37.598 103-37.266zM73.203-36.265L91.025 71.904 79.65-36.835 73.203-36.265zM66.869-16.598l24.577 89.921L68.869-17.931 66.869-16.598zM26.203-29.931L87.817 74.773 32.243-32.257 26.203-29.931zM23.545-16.454l60.278 91.568L25.536-20.265 23.545-16.454zM-11.865-28.757l57.2 61.532L-6.7-32.658 -11.865-28.757zM-15.464-0.265l94.073 82.174 -89.74-88.174L-15.464-0.265zM-30.131 2.069l85.667 64.667 -85.11-67.506L-30.131 2.069zM-25.19 42.794l99.642 45.712 -96.509-51.375L-25.19 42.794zM-44.131 43.402L56.536 85.069 -44.797 39.735 -44.131 43.402zM-54.775 75.518L53.607 91.994l-109.599-19.45L-54.775 75.518zM-44.102 97.566l109.62 1.232 -109.063-7.68L-44.102 97.566zM-58.131 52.069l89 27.333 -89.667-31L-58.131 52.069zM79.65 236.833l11.375-108.739L73.203 236.263 79.65 236.833zM68.869 217.929l22.577-91.254 -24.577 89.921L68.869 217.929zM30.826 240.293l47.61-91.392 -53.65 89.065L30.826 240.293zM25.536 220.263l58.287-95.379 -60.278 91.568L25.536 220.263zM-11.212 239.563l67.27-86.188 -72.435 82.287L-11.212 239.563zM-11.131 206.263l89.74-88.174 -94.073 82.174L-11.131 206.263zM-29.574 200.769l85.11-67.506 -85.667 64.666L-29.574 200.769zM-22.058 162.867l96.509-51.376 -99.642 45.713L-22.058 162.867zM-44.797 160.263l101.333-45.334 -100.667 41.667L-44.797 160.263zM-55.992 127.454l109.599-19.449L-54.775 124.48 -55.992 127.454zM-58.797 151.597l89.667-31.001 -89 27.333L-58.797 151.597zM120.438-43.631L106.913 64.863l14.599-89.479L120.438-43.631zM141.813-31.87L113.32 73.685l34.767-103.968L141.813-31.87zM149.456-11.494L112.68 75.019 151.219-9.86 149.456-11.494zM187.892-19.824l-71.859 96.851 77.454-93.596L187.892-19.824zM192.61-6.919l-72.688 84.917 74.049-80.838L192.61-6.919zM226.479-19.459l-61.838 61.764 66.318-57.093L226.479-19.459zM226.59 12.723L123.991 85.534l105.924-66.199L226.59 12.723zM243.926 21.075l-94.745 53.14 94.846-50.248L243.926 21.075zM230.489 57.303L127.048 92.708l105.635-29.315L230.489 57.303zM252.527 63.484L145.283 92.157l106.004-25.158L252.527 63.484zM255.805 96.376l-109.623-0.937 112.19 2.214L255.805 96.376zM239.29 109.779l-108.899-9.73 108.426 16.185L239.29 109.779zM241.298 126.083l-67.52-9.087 66.28 12.603L241.298 126.083zM104.827 238.789l-0.426-109.627 -6.031 109.166L104.827 238.789zM114.202 220.376l-9.991-92.682 7.806 93.681L114.202 220.376zM162.61 237.612l-54.587-110.773 48.254 112.112L162.61 237.612zM167.971 224.657l-55.949-97.521L165.4 228.103 167.971 224.657zM198.084 217.32l-79.836-96.065 74.605 101.301L198.084 217.32zM212.936 217.344l-74.315-77.444 73.314 80.159L212.936 217.344zM214.521 176.351l-91.122-60.95 87.131 66.045L214.521 176.351zM233.319 178.757l-92.776-57.118 92.852 60.845L233.319 178.757zM248.926 148.738l-104.393-33.471 105.123 36.601L248.926 148.738zM248.518 172.422l-83.533-41.113 83.608 44.841L248.518 172.422z" fill="#005655" stroke-width="none" opacity="1" stroke="none"></path></g><g id="svga-group-subwrapper" ><g id="svga-group-hair-back" ><path id="SvgjsPath9150" d="M56.121,137.894c-0.284-3.904-1.705-10.141-3.683-16.807c0,0,3.453,13.279,0.099,24.668c1.421-24.748-3.5-31.88-5.756-39.022c0.653-1.621,5.689,1.326,5.69,1.333C55.797,117.583,57.066,132.609,56.121,137.894z M147.76,110.423c-4.348,10.77-7.406,23.196-2.63,31.81c-1.362-13.107,3.633-24.778,6.497-31.218L147.76,110.423z" fill="#73625b" stroke="#452c22" stroke-width="1" stroke-miterlimit="10" opacity="1"></path></g><g id="svga-group-humanbody-single"><path id="SvgjsPath8991" d="M190.858 199.866c-6.008-10.158-13.474-11.973-19.628-13.936 -6.323-2.016-19.346-3.178-26.449-4.6 -6.86-1.373-23.153-5.789-23.339-13.488 -0.192-8.066 4.291-40.09 4.291-40.09H74.005c0 0 4.487 32.023 4.294 40.09 -0.184 7.699-16.48 12.115-23.341 13.488 -7.104 1.422-20.125 2.584-26.448 4.6 -6.156 1.963-13.624 3.777-19.632 13.936 -3.644 6.16-6.008 16.133-6.008 27.133h194C196.869 215.999 194.509 206.026 190.858 199.866z" fill="#ecc4b8" stroke-width="none" opacity="1" stroke="none"></path><path id="SvgjsPath8992" d="M121.442 167.843c2.495 10.929 18.165 13.698 26.293 15.325 21.909 4.379 33.772 5.134 42.297 19.539 2.903 4.916 5.459 15.864 5.962 24.153 1.835 0.291 0.531-17.432-5.136-26.994 -9.742-16.472-29.089-15.135-46.077-18.535C137.921 179.958 121.628 175.542 121.442 167.843L121.442 167.843zM78.558 167.843c-0.186 7.699-16.479 12.115-23.339 13.488 -16.988 3.4-36.335 2.063-46.077 18.535 -5.667 9.563-6.971 27.285-5.136 26.994 0.503-8.289 3.059-19.237 5.962-24.153 8.524-14.405 20.388-15.16 42.297-19.539C60.393 181.541 76.063 178.771 78.558 167.843L78.558 167.843z" fill="#fbe4dd" stroke-width="none" opacity="1" stroke="none"></path><path id="SvgjsPath8993" d="M51.206 189.513c0 0 28.641 0.299 33.473 1.885 2.314 0.758 8.372 5.633 8.372 5.633s-6.556-3.17-8.658-3.758C79.51 191.909 51.206 189.513 51.206 189.513zM99.795 199.999c2.053-0.041 7.887-3.799 7.887-3.799s-5.574 2.059-7.342 2.16c-1.491 0.086-6.366-1.238-6.366-1.238S98.112 200.032 99.795 199.999zM117.008 192.757c6.75-1.818 29.786-3.23 29.786-3.23s-23.791-0.516-30.51 1.725c-2.252 0.752-7.562 5.16-7.562 5.16S114.786 193.354 117.008 192.757z" fill="#dda696" stroke-width="none" opacity="1" stroke="none"></path><path id="SvgjsPath8994" d="M190.858 199.866c-9.741-16.471-29.122-15.142-46.077-18.535 -6.86-1.373-23.153-5.789-23.339-13.488 -0.192-8.066 4.291-40.09 4.291-40.09H74.005c0 0 4.487 32.023 4.294 40.09 -0.184 7.699-16.48 12.115-23.341 13.488 -7.104 1.422-20.125 2.584-26.448 4.6 -6.156 1.963-13.624 3.777-19.632 13.936 -3.644 6.16-6.008 16.133-6.008 27.133h194C196.869 215.999 194.509 206.026 190.858 199.866z" fill="none" stroke="#be725b" stroke-width="1.5" opacity="1"></path></g><g id="svga-group-chinshadow-single"><path id="SvgjsPath9261" d="M100.002 171.005c7.478 0 14.576-2.63 20.879-6.56 0.487-8.706 2.716-25.793 3.721-33.231 -14.77-1.574-34.756-1.565-49.463 0.027 1.001 7.405 3.205 24.29 3.711 33.034C85.222 168.3 92.418 171.005 100.002 171.005z" fill="url(#SvgjsLinearGradient9262)" opacity="1"></path></g><g id="svga-group-clothes-single" ><path id="SvgjsPath9247" d="M30.001 232.556c2.241-18.245 0.078-43.233-0.092-47.774 1.455-3.036 4.17-3.09 7.037-1.8 0.922-1.402 2.811-2.107 5.343-1.056v-0.15c1.067-0.882 1.788-2.667 4.068-1.426 1.595-1.728 3.824-1.542 5.95-0.554h0.071l0.076-0.058c0.684-1.977 2.147-2.091 4.035-1.15v-0.162c0.622-1.629 2.972-1.361 4.711-0.952 12.235 9.88 29.726 21.169 42.436 28.4 0.077-0.057 18.103-13.333 18.103-13.429 1.525-0.984 11.141-7.709 18.003-13.162 1.783-0.63 4.413-0.996 6.045-0.132 1-0.253 1.905-0.696 3.902 1.301l0.049 0.098c1.931-0.992 5.176-1.134 6.063 1.528 1-0.173 3.564-1.396 4.444 0.437l0.142 0.097c1.796-0.519 3.157-0.086 3.735 0.5l0.054-0.06c1.837-0.689 4.266-0.898 5.134 0.906 0.349 0.77 0.219 1.181 0.18 2.072 -4.185 26.167-3.409 37.476-1.301 46.729C145.421 233.437 31.001 232.556 30.001 232.556z" fill="#152c5e" stroke-width="none" opacity="1" stroke="none"></path><path id="SvgjsPath9248" d="M147.809 184.721c-1.866-2.231-3.948-1.846-4.735-1.369 -0.92-2.239-5.886-1.676-7.239-0.997 1.35-1.022 2.674-2.045 3.908-3.025 1.783-0.63 4.413-0.996 6.045-0.132 1-0.253 1.905-0.696 3.902 1.301l0.049 0.098c1.931-0.992 5.176-1.134 6.063 1.528 1-0.173 3.564-1.396 4.444 0.437l0.142 0.097c1.796-0.519 3.157-0.086 3.735 0.5l0.054-0.06c1.837-0.689 4.266-0.898 5.134 0.906 0.349 0.77 0.219 1.181 0.18 2.072 -0.081 1.594-0.201 2.068-0.261 3.546 -0.736-1.415-4.748-2.231-5.492-1.172 -0.625-1.487-3.636-1.367-4.637-0.771 -1.363-1.56-2.625-1.92-4.781-1.184C153.085 184.317 150.813 183.79 147.809 184.721zM37.85 187.905c0.559-2.065 4.329-2.205 6.192-2.293 0.222-0.29 1.76-2.22 4.603-1.372 1.635-2.172 5.477-1.409 6.157-1.299 0.359-0.053 1.34-1.833 4.544-0.923 1.073-1.914 4.254-1.537 5.117-1.384 -0.784-0.612-2.516-2.558-3.263-3.161 -1.739-0.409-4.089-0.677-4.711 0.952v0.162c-1.888-0.94-3.351-0.826-4.035 1.15l-0.076 0.058h-0.071c-2.126-0.988-4.355-1.174-5.95 0.554 -2.28-1.241-3.001 0.544-4.068 1.426v0.15c-2.532-1.052-4.421-0.347-5.343 1.056 -2.867-1.29-5.582-1.236-7.037 1.8 0.028 0.741 0.061 2.708 0.078 4.421C32.901 186.848 36.077 187.322 37.85 187.905z" fill="#233b6d" stroke-width="none" opacity="1" stroke="none"></path><path id="SvgjsPath9249" d="M36.864 183.316c0.907 5.089 4.544 15.515 6.532 20.684C41.042 199.828 36.056 190.003 36.864 183.316 37.239 183.412 36.478 183.164 36.864 183.316zM42.081 182.099C43.768 189.9 47.522 199.561 59 212c-7.562-11.301-14.7-22.954-16.631-29.953C41.59 181.772 42.717 182.067 42.081 182.099zM60.829 201.982c-5.661-6.409-10.564-13.554-14.875-21.828C47.293 184.422 53.033 196.439 60.829 201.982zM60.829 201.982c0.711 0.685 1.432 1.36 2.171 2.018C62.255 203.338 61.546 202.658 60.829 201.982zM93.003 201.242c-9.773-6.18-24.836-17.555-32.916-24.079C63.499 182.655 80.449 196.903 93.003 201.242zM146.209 179.346c-8.199 12.52-18.991 19.974-30.811 28.156 16.005-7.792 24.545-15.85 30.554-28.205C145.479 179.051 146.566 179.333 146.209 179.346zM149.737 180.55l-0.049-0.098c-0.067-0.067-0.129-0.121-0.193-0.184 -4.209 10.353-11.793 19.05-19.876 28.134C139.203 200.562 145.786 192.152 149.737 180.55 148.956 180.625 150.366 180.227 149.737 180.55zM155.801 182.078c-0.038-0.115-0.093-0.211-0.141-0.316 -5.021 13.434-13.518 25.679-20.841 37.578C146.282 208.985 154.089 192.22 155.801 182.078 155.036 182.212 156.238 182.003 155.801 182.078zM160.387 182.611l-0.142-0.097c-0.164-0.343 0.261 0.156 0 0 -3.356 8.513-5.705 16.162-10.709 23.138C156.456 198.356 159.564 190.497 160.387 182.611 159.972 182.629 160.873 182.471 160.387 182.611zM164.122 183.111c-0.182 0.056 0.227-0.124 0.054-0.06L164.122 183.111c-0.32-0.325 0.567 0.094-0.175-0.001 -1.693 11.853-3.762 22.942-7.411 33.89C161.633 205.609 166.119 195.337 164.122 183.111zM140.204 179.196c-0.92 0.099 0.294-0.181-0.463 0.087 -6.862 5.453-16.478 12.178-18.003 13.162 0 0.052-6.032 6.635-10.884 10.22C124.619 193.569 132.183 189.37 140.204 179.196zM56.124 178.753c-0.943-0.664 8.542 14.193 27.968 22.305C72.525 194.913 62.603 187.144 56.124 178.753zM52.454 179.738l-0.076 0.058h-0.071c-1.379 0.36 11.743 19.392 22.617 27.106C66.155 198.831 52.454 179.738 52.454 179.738z" fill="#0a1f4f" stroke-width="none" opacity="1" stroke="none"></path><path id="SvgjsPath9250" d="M169.659 184.745c-0.479-2.571-3.071-2.677-5.51-1.79 -0.011-0.01-0.021 0-0.03 0.011 -0.521-0.531-1.963-0.97-3.76-0.45 -0.813-1.589-2.798-1.15-4.49-0.55 -0.855-2.565-4.369-2.609-6.08-1.555 -0.01-0.02-0.02-0.029-0.03-0.029 -1.962-1.964-2.96-1.581-3.96-1.337 -1.657-0.863-4.365-0.483-6.12 0.16 -5.478 4.403-12.335 9.208-18.04 13.24 0 0.021-8.18 6.05-18.01 13.31 -14.833-8.559-30.813-19.031-42.407-28.379 -1.858-0.413-4.176-0.703-4.823 1.029 0 0-0.01 0.01-0.01 0.021 -1.85-0.927-3.354-0.672-4.03 1.279 -0.01 0-0.01 0-0.01 0 -2.16-1.003-4.326-1.191-6.01 0.521 -0.706-0.388-1.449-0.553-2.19-0.23 -0.964 0.422-1.96 1.622-1.96 1.78 -2.406-1.004-4.412-0.232-5.28 1.08 -2.931-1.329-5.996-1.086-7.1 1.93 0.039 1.009 2.635 24.365 0.08 47.87 0 0 138.4 0.2 138.41 0.2C166.202 227.698 166.187 211.336 169.659 184.745zM30.619 232.365c4.04-16.406 0.239-36.055-0.57-46.6 1.057-2.96 4.225-3.26 6.62-2.32 0.648 4.702 1.932 9.223 4.52 14.28 -0.645-1.521-3.93-13.802-3.93-14.23 1.482-1.62 3.466-1.859 5.11-1.149 2.45 8.3 9.74 20.04 11.8 22.189 -1.262-1.442-11.239-21.45-11.62-22.45 1.039-1.396 2.211-2.01 3.79-1.31 4.081 8.162 9.302 14.953 10.64 16.31 0 0-10.229-16.459-10.23-16.46 1.268-1.227 3.667-0.994 5.45-0.399 0.01 0 0.02 0 0.02 0 25.958 33.4 6.071 5.747 0.39-0.24 0.01-0.04 0.03-0.09 0.05-0.12 1.03-2.18 2.77-1.11 3.95-0.36 5.05 7.28 18.47 16.591 19.69 16.99 -0.77-0.25-13.74-10.62-19.23-17.24 0.096-1 0.355-1.91 3.17-1.619 13.22 12.06 29.62 22.33 42.11 29.069 -12.8 9.45-27.84 20.59-31.25 23.25 1-0.574 50.413-33.261 69.74-50.79 2.095-0.292 3.832-0.058 4.74 0.28 0.01 0.01 0.03 0.01 0.04 0.021 -7.25 10.88-26.72 26.119-30.26 27.76 5.574-2.279 24.845-15.87 30.85-27.88 0.021 0 0.04-0.011 0.05 0 1.029-0.15 2.551 0.856 3.25 1.556 -0.01 0.01-0.02 0.03-0.029 0.05 -3.025 6.143-13.229 20.622-18.07 25.024 7.983-7.262 14.594-15.247 18.55-25.234 2.247-0.725 4.396-0.448 5.601 1.534 -2.163 5.533-0.775 4.988-10.051 19.35 -8.819 13.65-5.71 11.521-12.899 20.511 16.166-20.195 20.67-31.158 23.13-39.521 0-0.01 0.01-0.03 0.01-0.05 1.907-0.574 3.346-0.975 4.15 0.479 0 0 0.01 0 0 0.011 -2.65 7.569-6.2 15.14-7.2 17.229 6.371-9.852 5.551-9.614 7.479-17.33 1.772-0.517 3.196-0.165 3.74 0.29 -1.047 8.581-3.293 18.87-5.319 26.9 0.51-2 5.739-10.38 5.55-26.71 0.01-0.01 0.01-0.01 0-0.021 2.058-0.403 4.226-0.563 5.13 1.41 -2.068 16.94-6.141 27.786-1.41 47.641C128.171 231.516 79.125 231.362 30.619 232.365z" fill="#000f30" stroke-width="none" opacity="1" stroke="none"></path></g><g id="svga-group-head" ><g id="svga-group-ears-left" ><path id="SvgjsPath9242" d="M47.34 82.049c-1.378-2.352-9.403-6.527-11.855-6.357 -4.229 0.292-5.137 5.152-5.446 7.479 -0.609 4.591 0.645 9.778 1.485 12.908 0.687 2.557 2.874 7.41 4.214 9.664 1.197 2.016 4.145 5.663 5.733 7.358 1.398 1.495 4.73 4.215 7.248 3.551 2.769-0.728 6.015-3.857 6.239-5.193C56.165 104.212 50.926 88.167 47.34 82.049z" fill="#ecc4b8" stroke="#be725b" stroke-width="1.5" opacity="1"></path><path id="SvgjsPath9243" d="M42.903 98.548c-0.142-0.572 0.007-1.535 0.151-2.465 0.131-0.848 0.255-1.648 0.18-2.214 -0.284-2.121-1.888-6.15-2.936-8.334 -1.206-2.511-3.157-5.674-5.602-6.492 -1.011-0.338-2.073-0.511-2.145-0.236 -0.611 1.9-0.563 7.178-0.212 11.086 0.987 10.992 10.375 18.911 11.872 20.578 0.276 0.308 0.566 0.49 0.637 0.416 0.072-0.074-0.1-0.379-0.375-0.688 -1.477-1.654-8.314-8.49-9.27-12.807 -1.012-4.581 3-12.111 3.776-13.548 0.397 0.675 0.732 1.322 0.991 1.862 0.204 0.424 0.429 0.92 0.66 1.456 -0.456 0.75-3.656 6.219-2.489 10.596 0.431 1.615 2.379 3.695 3.67 4.266 0.71 0.314 0.978 0.783 1.287 1.325 0.359 0.63 0.765 1.343 1.946 1.861 0.24 0.106 0.457 0.148 0.649 0.148 0.333 0 0.586-0.132 0.773-0.288 0.019 0.275-0.349 2.463-0.357 2.789 -0.012 0.421 0.045 0.77 0.146 0.778 0.101 0.008 0.207-0.327 0.221-0.749 0.016-0.518 0.379-2.992 0.289-3.297 -0.264-0.902-1.073-1.921-1.93-3C43.994 100.53 43.122 99.432 42.903 98.548zM34.428 94.672c-2.316-7.025 1.456-13.179 1.977-14.144 0.906 0.808 1.704 1.89 2.354 2.948C38.286 84.321 34.526 89.947 34.428 94.672zM45.187 104.856c-1.069-0.469-1.427-1.096-1.774-1.704 -0.313-0.549-0.637-1.118-1.458-1.481 -0.179-0.08-0.375-0.199-0.576-0.338 -2.646-6.164 0.289-8.857 1.025-9.411 0.226 0.754 0.394 1.445 0.468 2 0.067 0.509-0.058 1.317-0.179 2.1 -0.149 0.97-0.305 1.973-0.144 2.621 0.239 0.967 1.137 2.098 2.005 3.191 0.771 0.971 1.562 1.97 1.832 2.786C46.271 104.783 45.905 105.173 45.187 104.856z" fill="#be725b" stroke-width="none" opacity="1" stroke="none"></path></g><g id="svga-group-ears-right" ><path id="SvgjsPath9244" d="M152.398 82.049c1.377-2.352 9.402-6.527 11.855-6.357 4.229 0.292 5.137 5.152 5.445 7.479 0.609 4.591-0.645 9.778-1.484 12.908 -0.688 2.557-2.875 7.41-4.215 9.664 -1.197 2.016-4.145 5.663-5.732 7.358 -1.398 1.495-4.73 4.215-7.248 3.551 -2.77-0.728-6.016-3.857-6.238-5.193C143.574 104.212 148.813 88.167 152.398 82.049z" fill="#ecc4b8" stroke="#be725b" stroke-width="1.5" opacity="1"></path><path id="SvgjsPath9245" d="M154.902 101.59c-0.855 1.08-1.666 2.098-1.93 3 -0.09 0.305 0.273 2.779 0.289 3.297 0.014 0.422 0.119 0.757 0.221 0.749 0.102-0.009 0.158-0.357 0.146-0.778 -0.01-0.326-0.377-2.514-0.357-2.789 0.188 0.156 0.439 0.288 0.771 0.288 0.193 0 0.41-0.042 0.65-0.148 1.182-0.518 1.588-1.23 1.945-1.861 0.311-0.542 0.578-1.011 1.287-1.325 1.291-0.571 3.24-2.651 3.67-4.266 1.168-4.376-2.031-9.846-2.488-10.596 0.23-0.536 0.457-1.032 0.66-1.456 0.26-0.54 0.594-1.188 0.99-1.862 0.777 1.437 4.789 8.967 3.777 13.548 -0.955 4.317-7.793 11.153-9.27 12.807 -0.275 0.31-0.447 0.614-0.375 0.688s0.361-0.108 0.637-0.416c1.498-1.667 10.885-9.585 11.873-20.578 0.35-3.908 0.396-9.187-0.213-11.086 -0.072-0.274-1.135-0.102-2.145 0.236 -2.445 0.817-4.396 3.98-5.604 6.492 -1.047 2.185-2.65 6.213-2.936 8.334 -0.076 0.566 0.049 1.366 0.18 2.214 0.145 0.93 0.293 1.893 0.15 2.465C156.617 99.432 155.744 100.53 154.902 101.59zM160.979 83.476c0.65-1.058 1.449-2.14 2.355-2.948 0.52 0.964 4.291 7.119 1.977 14.144C165.211 89.947 161.453 84.321 160.979 83.476zM153.352 104.62c0.271-0.815 1.063-1.814 1.832-2.786 0.869-1.093 1.766-2.224 2.006-3.191 0.16-0.648 0.006-1.651-0.145-2.621 -0.121-0.783-0.246-1.591-0.178-2.1 0.074-0.555 0.242-1.245 0.467-2 0.736 0.553 3.672 3.247 1.025 9.411 -0.201 0.139-0.396 0.258-0.576 0.338 -0.82 0.363-1.145 0.932-1.457 1.481 -0.348 0.608-0.705 1.235-1.775 1.704C153.834 105.173 153.467 104.783 153.352 104.62z" fill="#be725b" stroke-width="none" opacity="1" stroke="none"></path></g><g id="svga-group-faceshape-wrap" ><g id="svga-group-faceshape-single" ><path id="SvgjsPath9258" d="M100.002 0.867C66.381 0.814 39.186 27.899 39.134 61.374c-0.008 5.316 0.669 10.473 1.953 15.389l0.004 0c0.011 0.053 8.713 38.607 14.519 50.351 6.073 12.285 23.814 32.157 44.392 32.157 20.582 0 38.32-19.872 44.392-32.157 5.805-11.743 14.507-50.297 14.519-50.351l0.005 0c1.283-4.916 1.961-10.072 1.952-15.389C160.819 27.899 133.623 0.814 100.002 0.867z" fill="#ecc4b8" stroke-width="none" opacity="1"></path><path id="SvgjsPath9259" d="M120.754 4.453c21.441 9.336 36.411 30.632 36.45 55.454 0.008 5.316-0.669 10.473-1.953 15.389l-0.005 0c-0.011 0.053-8.713 38.607-14.519 50.352 -5.709 11.548-21.608 31.944-40.725 31.944s-35.016-20.396-40.725-31.944c-5.806-11.744-14.507-50.298-14.519-50.352l-0.004 0c-1.284-4.916-1.962-10.072-1.953-15.389 0.038-24.822 15.008-46.118 36.45-55.454 -23.386 8.412-40.076 30.705-40.117 56.92 -0.008 5.316 0.669 10.473 1.953 15.389l0.004 0c0.011 0.053 8.713 38.607 14.519 50.351 6.073 12.285 23.814 32.157 44.392 32.157 20.579 0 38.319-19.872 44.392-32.157 5.805-11.743 14.507-50.297 14.519-50.351l0.005 0c1.283-4.916 1.961-10.072 1.952-15.389C160.83 35.158 144.14 12.865 120.754 4.453z" fill="#e4b5a7" stroke-width="none" opacity="1"></path><path id="SvgjsPath9260" d="M100.002 0.867C66.381 0.814 39.186 27.899 39.134 61.374c-0.008 5.316 0.669 10.473 1.953 15.389l0.004 0c0.011 0.053 8.713 38.607 14.519 50.351 6.073 12.285 23.814 32.157 44.392 32.157 20.582 0 38.32-19.872 44.392-32.157 5.805-11.743 14.507-50.297 14.519-50.351l0.005 0c1.283-4.916 1.961-10.072 1.952-15.389C160.819 27.899 133.623 0.814 100.002 0.867z" fill="none" stroke="#be725b" stroke-width="1.5" opacity="1"></path></g></g><g id="svga-group-mouth-single" ><path id="SvgjsPath9234" d="M99.825 142.068c-3.24 0-4.753-2.802-4.753-2.802s4.797 0.781 9.279-0.064C104.352 139.202 102.675 142.068 99.825 142.068z" fill="url(#SvgjsLinearGradient9235)" opacity="1"></path><path id="SvgjsPath9238" d="M95.211 139.349c-0.132-0.039-0.23-0.149-0.208-0.285 0.021-0.137 0.151-0.224 0.286-0.209 3.612 0.857 5.963 0.661 8.766-0.043 0.145-0.035 0.27 0.062 0.297 0.195s-0.063 0.256-0.193 0.296C101.098 140.207 98.142 140.241 95.211 139.349zM85.447 132.958c0.313-0.144 0.582-0.086 1.073-0.115 1.419-0.249 3.128-0.323 4.54-0.611 1.348-0.274 2.774-0.662 4.158-0.597 1.488 0.071 2.879 0.669 4.353 0.829 1.401 0.151 2.708-0.229 4.053-0.557 1.542-0.376 3.01-0.287 4.56 0.006 1.938 0.363 3.774 0.857 5.689 1.038 0.582 0.055 0.365 0.413 0.032 0.454 -1.713 0.205-3.431-0.068-5.194-0.249 -1.425-0.146-2.868-0.329-4.274 0.021 -1.518 0.379-3.437 0.822-4.605 0.808 -1.3-0.017-2.521-0.538-3.784-0.807 -1.551-0.327-3.091-0.02-4.647 0.143 -1.938 0.201-3.672 0.34-5.579 0.047C85.312 133.29 85.306 133.023 85.447 132.958z" fill="#be725b" stroke-width="none" opacity="1" stroke="none"></path></g><g id="svga-group-eyes-left" ><g id="svga-group-eyesback-left"><path id="SvgjsPath9174" d="M87.406 85c0 0 0.229 1.408 0.229 2.353 0 0.804-0.079 1.592-0.223 2.361 -0.002-0.018-0.004-0.032-0.006-0.049l-1.239 3.592c-12.532 2.012-19.052 1.868-20.346 0 -2.511-3.626-3.766-5.613-4.094-11.03C68.488 82.668 80.211 74.726 87.406 85z" fill="url(#SvgjsRadialGradient9175)" opacity="1"></path></g><g id="svga-group-eyesiriswrapper-left" transform="translate(0 0.25)"><g id="svga-group-eyesiriscontrol-left" ><g id="svga-group-eyesiris-left" ><path id="SvgjsPath9067" d="M83.5 87c0 4.694-3.806 8.5-8.499 8.5 -4.694 0-8.501-3.806-8.501-8.5l0 0c0-4.694 3.807-8.5 8.501-8.5C79.694 78.499 83.5 82.305 83.5 87L83.5 87z" fill="#4e60a3" stroke-width="none" opacity="1"></path><path id="SvgjsPath9068" d="M74.048 78.595c-0.033 0.004-0.066 0.008-0.101 0.012 0.041 0.191 0.081 0.384 0.12 0.575C74.06 78.987 74.055 78.789 74.048 78.595zM74.066 79.18c0.099 2.793 0.262 5.282 0.732 6.183C75.047 84.377 74.625 81.92 74.066 79.18zM74.8 85.365c-0.061 0.236-0.153 0.397-0.294 0.452 -0.142 0.053-0.319-0.008-0.521-0.146 0.058 0.236 0.052 0.422-0.051 0.537 -0.102 0.114-0.285 0.142-0.527 0.11 0.16 0.184 0.242 0.353 0.206 0.5 -0.039 0.148-0.189 0.258-0.415 0.343 0.225 0.088 0.376 0.199 0.411 0.347 0.036 0.148-0.046 0.315-0.205 0.498 0.241-0.029 0.426 0.001 0.525 0.115 0.101 0.114 0.106 0.301 0.05 0.537 0.199-0.137 0.376-0.197 0.518-0.142 0.143 0.053 0.234 0.216 0.291 0.454 0.114-0.215 0.243-0.353 0.396-0.368 0.148-0.02 0.307 0.084 0.466 0.267 0.002-0.244 0.053-0.423 0.181-0.51 0.124-0.086 0.311-0.069 0.537 0.018 -0.11-0.216-0.148-0.398-0.078-0.534 0.071-0.135 0.245-0.207 0.487-0.235 -0.199-0.14-0.321-0.283-0.318-0.436 -0.001-0.153 0.119-0.296 0.321-0.434 -0.241-0.03-0.412-0.103-0.484-0.237 -0.07-0.135-0.031-0.319 0.081-0.535 -0.229 0.085-0.413 0.102-0.538 0.016 -0.126-0.086-0.177-0.267-0.178-0.51 -0.158 0.182-0.316 0.282-0.468 0.262C75.041 85.714 74.911 85.58 74.8 85.365zM75.66 85.471c0.679-0.758 1.446-3.13 2.224-5.813C76.674 82.174 75.662 84.453 75.66 85.471zM77.883 79.657c0.085-0.172 0.172-0.348 0.253-0.524 -0.03-0.011-0.06-0.024-0.09-0.037C77.992 79.284 77.938 79.472 77.883 79.657zM76.377 85.965c0.953-0.357 2.736-2.101 4.671-4.115C78.808 83.517 76.851 85.065 76.377 85.965zM81.048 81.851c0.142-0.106 0.287-0.213 0.433-0.318 -0.021-0.025-0.043-0.047-0.06-0.07C81.297 81.59 81.174 81.722 81.048 81.851zM76.777 86.738c1.01 0.125 3.399-0.591 6.052-1.475C80.068 85.698 77.617 86.159 76.777 86.738zM82.829 85.263c0.156-0.022 0.318-0.048 0.478-0.073 -0.007-0.026-0.013-0.054-0.02-0.081C83.135 85.16 82.979 85.212 82.829 85.263zM76.775 87.606c0.836 0.583 3.284 1.057 6.038 1.505C80.171 88.214 77.786 87.484 76.775 87.606zM82.813 89.111c0.135 0.047 0.271 0.095 0.404 0.138 0.007-0.024 0.013-0.047 0.018-0.071C83.098 89.158 82.954 89.135 82.813 89.111zM76.367 88.375c0.471 0.902 2.42 2.462 4.649 4.142C79.092 90.492 77.32 88.737 76.367 88.375zM81.018 92.514c0.083 0.087 0.17 0.179 0.253 0.268 0.014-0.017 0.027-0.031 0.043-0.046C81.215 92.662 81.113 92.587 81.018 92.514zM75.652 88.867c-0.004 1.019 0.995 3.302 2.191 5.827C77.079 92.006 76.327 89.628 75.652 88.867zM77.844 94.694c0.03 0.106 0.062 0.215 0.09 0.324 0.021-0.008 0.036-0.015 0.055-0.02C77.941 94.896 77.892 94.793 77.844 94.694zM74.788 88.968c-0.476 0.902-0.653 3.386-0.768 6.178C74.594 92.413 75.031 89.958 74.788 88.968zM74.021 95.146c-0.023 0.106-0.044 0.214-0.066 0.323 0.02 0.004 0.035 0.005 0.055 0.007C74.013 95.368 74.018 95.254 74.021 95.146zM73.979 88.657c-0.844 0.576-2.154 2.697-3.553 5.114C72.204 91.617 73.733 89.645 73.979 88.657zM70.427 93.771c-0.074 0.09-0.152 0.185-0.229 0.274 0.018 0.012 0.034 0.02 0.053 0.034C70.309 93.976 70.369 93.873 70.427 93.771zM73.405 88.006c-1.015 0.119-3.16 1.385-5.522 2.875C70.46 89.801 72.726 88.768 73.405 88.006zM67.883 90.884c-0.122 0.051-0.247 0.102-0.372 0.156 0.009 0.019 0.021 0.038 0.033 0.057C67.658 91.027 67.771 90.954 67.883 90.884zM73.198 87.161c-0.951-0.365-3.441-0.238-6.227-0.016C69.755 87.383 72.244 87.521 73.198 87.161zM66.972 87.145c-0.151-0.014-0.308-0.028-0.457-0.041 -0.001 0.027-0.003 0.053-0.001 0.08C66.669 87.169 66.822 87.156 66.972 87.145zM73.407 86.318c-0.67-0.763-2.932-1.809-5.499-2.905C70.259 84.915 72.397 86.196 73.407 86.318zM67.908 83.413c-0.147-0.095-0.297-0.189-0.446-0.285 -0.013 0.026-0.026 0.053-0.041 0.078C67.585 83.276 67.75 83.344 67.908 83.413zM73.985 85.67c-0.239-0.989-1.758-2.967-3.521-5.132C71.849 82.963 73.147 85.09 73.985 85.67zM70.465 80.538c-0.095-0.163-0.188-0.329-0.281-0.494 -0.026 0.018-0.055 0.037-0.079 0.054C70.224 80.245 70.348 80.393 70.465 80.538z" fill="url(#SvgjsRadialGradient9069)" opacity="1"></path><path id="SvgjsPath9072" d="M76.255 78.622c-0.034-0.004-0.066-0.01-0.1-0.014 -0.011 0.196-0.022 0.393-0.034 0.586C76.164 79.004 76.211 78.812 76.255 78.622zM76.12 79.193c-0.627 2.724-1.114 5.17-0.892 6.162C75.724 84.467 75.95 81.984 76.12 79.193zM75.229 85.356c-0.119 0.212-0.25 0.344-0.401 0.36 -0.15 0.014-0.306-0.091-0.464-0.276 -0.006 0.243-0.06 0.421-0.188 0.505 -0.128 0.083-0.313 0.063-0.539-0.03 0.107 0.219 0.143 0.403 0.069 0.536 -0.075 0.133-0.249 0.201-0.489 0.224 0.194 0.144 0.312 0.289 0.308 0.441 -0.003 0.152-0.126 0.292-0.327 0.428 0.24 0.034 0.41 0.111 0.478 0.247 0.067 0.136 0.025 0.318-0.091 0.532 0.229-0.081 0.414-0.093 0.537-0.003 0.123 0.088 0.17 0.27 0.164 0.514 0.166-0.177 0.325-0.278 0.478-0.253 0.148 0.02 0.274 0.16 0.382 0.379 0.064-0.236 0.16-0.396 0.306-0.447 0.143-0.051 0.318 0.014 0.515 0.157 -0.051-0.237-0.041-0.423 0.063-0.536s0.29-0.136 0.532-0.102c-0.157-0.187-0.238-0.356-0.195-0.504 0.039-0.148 0.192-0.255 0.423-0.336 -0.226-0.091-0.372-0.206-0.407-0.354 -0.032-0.149 0.053-0.316 0.218-0.495 -0.243 0.023-0.427-0.009-0.524-0.125 -0.099-0.115-0.102-0.303-0.039-0.538 -0.201 0.134-0.38 0.19-0.521 0.132C75.37 85.756 75.281 85.593 75.229 85.356zM76.033 85.683c0.852-0.558 2.206-2.65 3.652-5.04C77.865 82.76 76.298 84.699 76.033 85.683zM79.685 80.641c0.126-0.145 0.255-0.292 0.38-0.44 -0.027-0.019-0.052-0.04-0.078-0.06C79.886 80.31 79.785 80.477 79.685 80.641zM76.597 86.345c1.013-0.099 3.187-1.322 5.577-2.767C79.578 84.609 77.287 85.598 76.597 86.345zM82.173 83.579c0.165-0.065 0.333-0.131 0.501-0.195 -0.014-0.029-0.029-0.056-0.04-0.083C82.481 83.392 82.328 83.487 82.173 83.579zM76.783 87.194c0.943 0.382 3.437 0.309 6.227 0.142C80.231 87.042 77.745 86.853 76.783 87.194zM83.01 87.336c0.158 0.019 0.32 0.036 0.48 0.053 0.001-0.027 0.002-0.055 0.003-0.083C83.332 87.316 83.168 87.326 83.01 87.336zM76.558 88.033c0.655 0.78 2.898 1.871 5.442 3.017C79.679 89.499 77.565 88.177 76.558 88.033zM82 91.049c0.117 0.08 0.236 0.161 0.354 0.238 0.013-0.021 0.024-0.042 0.035-0.063C82.262 91.168 82.129 91.109 82 91.049zM75.964 88.67c0.221 0.993 1.699 3.004 3.419 5.205C78.048 91.419 76.791 89.266 75.964 88.67zM79.384 93.872c0.059 0.106 0.117 0.217 0.176 0.325 0.018-0.013 0.034-0.023 0.053-0.034C79.536 94.065 79.458 93.967 79.384 93.872zM75.146 88.96c-0.267 0.982 0.107 3.447 0.608 6.195C75.711 92.361 75.601 89.87 75.146 88.96zM75.754 95.155c0.002 0.11 0.004 0.224 0.004 0.337 0.021-0.003 0.038-0.005 0.058-0.005C75.796 95.376 75.775 95.264 75.754 95.155zM74.285 88.834c-0.693 0.748-1.508 3.102-2.341 5.769C73.205 92.11 74.265 89.853 74.285 88.834zM71.944 94.603c-0.05 0.096-0.099 0.195-0.147 0.295 0.017 0.008 0.032 0.013 0.051 0.021C71.879 94.815 71.913 94.707 71.944 94.603zM73.584 88.324c-0.964 0.338-2.779 2.048-4.756 4.021C71.104 90.724 73.091 89.215 73.584 88.324zM68.828 92.345c-0.095 0.067-0.194 0.138-0.29 0.206 0.014 0.016 0.027 0.028 0.041 0.045C68.661 92.511 68.746 92.428 68.828 92.345zM73.197 87.546c-1.01-0.148-3.409 0.521-6.078 1.349C69.889 88.518 72.345 88.106 73.197 87.546zM67.119 88.897c-0.131 0.018-0.265 0.034-0.4 0.054 0.005 0.021 0.011 0.042 0.018 0.063C66.865 88.977 66.993 88.936 67.119 88.897zM73.217 86.677c-0.824-0.599-3.263-1.121-6.01-1.627C69.833 86 72.202 86.777 73.217 86.677zM67.207 85.05c-0.143-0.052-0.29-0.106-0.432-0.158 -0.008 0.026-0.016 0.051-0.021 0.077C66.907 84.995 67.06 85.022 67.207 85.05zM73.637 85.917c-0.45-0.911-2.363-2.506-4.561-4.23C70.959 83.747 72.693 85.538 73.637 85.917zM69.076 81.688c-0.118-0.13-0.236-0.26-0.355-0.391 -0.021 0.022-0.041 0.044-0.061 0.065C68.8 81.471 68.941 81.58 69.076 81.688zM74.363 85.44c0.024-1.017-0.93-3.321-2.073-5.868C72.999 82.273 73.704 84.663 74.363 85.44zM72.29 79.572c-0.049-0.182-0.096-0.366-0.144-0.55 -0.029 0.01-0.062 0.021-0.09 0.032C72.134 79.227 72.214 79.401 72.29 79.572z" fill="url(#SvgjsRadialGradient9073)" opacity="1"></path><path id="SvgjsPath9076" d="M78.334 87c0 1.842-1.492 3.333-3.333 3.333S71.666 88.841 71.666 87c0-1.841 1.494-3.334 3.335-3.334C76.844 83.666 78.334 85.159 78.334 87z" fill="#4e60a3" stroke-width="none" opacity="1"></path><path id="SvgjsPath9077" d="M78.334 87c0 1.842-1.492 3.333-3.333 3.333S71.666 88.841 71.666 87c0-1.841 1.494-3.334 3.335-3.334C76.844 83.666 78.334 85.159 78.334 87z" fill="#000000" stroke-width="none" opacity="0.9"></path><path id="SvgjsPath9078" d="M70.35 90.893c0.636-0.427 1.5-0.255 1.927 0.38 0.427 0.637 0.258 1.5-0.379 1.927 -0.638 0.429-1.5 0.258-1.927-0.378C69.544 92.185 69.713 91.32 70.35 90.893L70.35 90.893z" fill="url(#SvgjsLinearGradient9079)" opacity="0.5"></path><path id="SvgjsPath9082" d="M77.635 86.536c-0.356 0.53-1.373 0.468-2.275-0.136 -0.903-0.605-1.346-1.526-0.991-2.055l0.001-0.001c0.354-0.53 1.372-0.469 2.274 0.137 0.903 0.604 1.346 1.524 0.992 2.054C77.635 86.536 77.635 86.536 77.635 86.536z" fill="url(#SvgjsLinearGradient9083)" opacity="0.5"></path><path id="SvgjsPath9086" d="M81.682 85.121c-0.806 1.237-2.884 1.31-4.641 0.166 -1.756-1.145-2.527-3.075-1.722-4.311 0.806-1.235 2.884-1.31 4.641-0.166C81.715 81.956 82.485 83.887 81.682 85.121L81.682 85.121z" fill="url(#SvgjsLinearGradient9087)" opacity="0.75"></path></g></g></g><g id="svga-group-eyesfront-left"><path id="SvgjsPath9199" d="M55 88c0 13.808 8.507 24.999 19 24.999S93 101.808 93 88c0-13.809-8.507-25.001-19-25.001S55 74.191 55 88zM61.728 82.227c6.761 0.441 18.483-7.501 25.679 2.773 0 0 0.229 1.408 0.229 2.353 0 0.804-0.079 1.592-0.223 2.361 -0.002-0.018-0.004-0.032-0.006-0.049l-1.239 3.592c-12.532 2.012-19.052 1.868-20.346 0C63.311 89.63 62.056 87.644 61.728 82.227z" fill="#ecc4b8" stroke-width="none" opacity="1" stroke="none"></path><path id="SvgjsPath9200" d="M60 86.075c0.023 7.732 7.646 13.964 17.039 13.924C86.428 99.956 94.023 93.656 94 85.924c-0.023-7.733-7.648-13.966-17.041-13.925C67.568 72.042 59.977 78.342 60 86.075zM61.728 82.227c6.761 0.441 18.483-7.501 25.679 2.773 0 0 0.229 1.408 0.229 2.353 0 0.804-0.079 1.592-0.223 2.361 -0.002-0.018-0.004-0.032-0.006-0.049l-1.239 3.592c-12.532 2.012-19.052 1.868-20.346 0C63.311 89.63 62.056 87.644 61.728 82.227z" fill="url(#SvgjsRadialGradient9201)" opacity="1"></path><path id="SvgjsPath9205" d="M65.821 93.256c-2.511-3.626-3.766-5.613-4.094-11.03 6.761 0.441 18.483-7.501 25.679 2.773 0 0 0.229 1.408 0.229 2.353 0 0.804-0.079 1.592-0.223 2.361 -0.002-0.018-0.004-0.032-0.006-0.049l-1.239 3.592C73.635 95.269 67.115 95.125 65.821 93.256z" fill="url(#SvgjsRadialGradient9206)" opacity="1"></path><path id="SvgjsPath9209" d="M66.743 77.239C70.362 76.637 81.612 76.05 86.176 80 79.26 76.121 71.335 77.017 66.743 77.239z" fill="#be725b" stroke-width="none" opacity="1" stroke="none"></path><path id="SvgjsPath9210" d="M66.008 80.011c-2.064 0.413-6.817-0.817-9.987-2.012 1.351 0.882 2.35 1.722 3.659 2.26 -1.147 0.229-2.911 0-5.146-0.496 2.832 1.847 4.239 2.518 5.891 2.667 -0.087 4.733 2.622 8.9 4.449 11.227l-2.278 1.985c1.233-0.639 2.331-1.083 3.351-1.055 1.504 0.662 2.649 1.054 4.465 1.489l-1.55 1.923c1.763-0.754 3.144-1.807 5.583-2.357 4.403-0.993 11.677-1.049 12.431-1.899 0.684-0.771 0.761-2.298 0.532-4.117l-1.041 2.969c-0.109 0.313-0.463 0.608-0.79 0.659 -12.146 1.883-18.48 1.716-19.754-0.093 -2.511-3.568-3.766-5.523-4.094-10.854 6.761 0.435 18.483-7.381 25.679 2.729l-0.352-1.757c0 0.062 1.344 0.662 1.344 0.662C82.736 77.669 77.173 77.778 66.008 80.011z" fill="#2c1630" stroke-width="none" opacity="1" stroke="none"></path></g></g><g id="svga-group-eyes-right" ><g id="svga-group-eyesback-right"><path id="SvgjsPath9182" d="M112.594 85c0 0-0.229 1.408-0.229 2.353 0 0.804 0.079 1.592 0.223 2.361 0.002-0.018 0.004-0.032 0.006-0.049l1.239 3.592c12.532 2.012 19.052 1.868 20.346 0 2.511-3.626 3.766-5.613 4.094-11.03C131.512 82.668 119.789 74.726 112.594 85z" fill="url(#SvgjsRadialGradient9183)" opacity="1"></path></g><g id="svga-group-eyesiriswrapper-right" transform="translate(0 0.25)"><g id="svga-group-eyesiriscontrol-right" ><g id="svga-group-eyesiris-right" ><path id="SvgjsPath9090" d="M133.5 87c0 4.694-3.806 8.5-8.499 8.5 -4.694 0-8.501-3.806-8.501-8.5l0 0c0-4.694 3.807-8.5 8.501-8.5C129.694 78.499 133.5 82.305 133.5 87L133.5 87z" fill="#4e60a3" stroke-width="none" opacity="1"></path><path id="SvgjsPath9091" d="M124.048 78.595c-0.033 0.004-0.066 0.008-0.101 0.012 0.041 0.191 0.081 0.384 0.12 0.575C124.06 78.987 124.055 78.789 124.048 78.595zM124.066 79.18c0.099 2.793 0.262 5.282 0.732 6.183C125.047 84.377 124.625 81.92 124.066 79.18zM124.8 85.365c-0.061 0.236-0.153 0.397-0.294 0.452 -0.142 0.053-0.319-0.008-0.521-0.146 0.058 0.236 0.052 0.422-0.051 0.537 -0.102 0.114-0.285 0.142-0.527 0.11 0.16 0.184 0.242 0.353 0.206 0.5 -0.039 0.148-0.189 0.258-0.415 0.343 0.225 0.088 0.376 0.199 0.411 0.347 0.036 0.148-0.046 0.315-0.205 0.498 0.241-0.029 0.426 0.001 0.525 0.115 0.101 0.114 0.106 0.301 0.05 0.537 0.199-0.137 0.376-0.197 0.518-0.142 0.143 0.053 0.234 0.216 0.291 0.454 0.114-0.215 0.243-0.353 0.396-0.368 0.148-0.02 0.307 0.084 0.466 0.267 0.002-0.244 0.053-0.423 0.181-0.51 0.124-0.086 0.311-0.069 0.537 0.018 -0.11-0.216-0.148-0.398-0.078-0.534 0.071-0.135 0.245-0.207 0.487-0.235 -0.199-0.14-0.321-0.283-0.318-0.436 -0.001-0.153 0.119-0.296 0.321-0.434 -0.241-0.03-0.412-0.103-0.484-0.237 -0.07-0.135-0.031-0.319 0.081-0.535 -0.229 0.085-0.413 0.102-0.538 0.016 -0.126-0.086-0.177-0.267-0.178-0.51 -0.158 0.182-0.316 0.282-0.468 0.262C125.041 85.714 124.911 85.58 124.8 85.365zM125.66 85.471c0.679-0.758 1.446-3.13 2.224-5.813C126.674 82.174 125.662 84.453 125.66 85.471zM127.883 79.657c0.085-0.172 0.172-0.348 0.253-0.524 -0.03-0.011-0.06-0.024-0.09-0.037C127.992 79.284 127.938 79.472 127.883 79.657zM126.377 85.965c0.953-0.357 2.736-2.101 4.671-4.115C128.808 83.517 126.851 85.065 126.377 85.965zM131.048 81.851c0.142-0.106 0.287-0.213 0.433-0.318 -0.021-0.025-0.043-0.047-0.06-0.07C131.297 81.59 131.174 81.722 131.048 81.851zM126.777 86.738c1.01 0.125 3.399-0.591 6.052-1.475C130.068 85.698 127.617 86.159 126.777 86.738zM132.829 85.263c0.156-0.022 0.318-0.048 0.478-0.073 -0.007-0.026-0.013-0.054-0.02-0.081C133.135 85.16 132.979 85.212 132.829 85.263zM126.775 87.606c0.836 0.583 3.284 1.057 6.038 1.505C130.171 88.214 127.786 87.484 126.775 87.606zM132.813 89.111c0.135 0.047 0.271 0.095 0.404 0.138 0.007-0.024 0.013-0.047 0.018-0.071C133.098 89.158 132.954 89.135 132.813 89.111zM126.367 88.375c0.471 0.902 2.42 2.462 4.649 4.142C129.092 90.492 127.32 88.737 126.367 88.375zM131.018 92.514c0.083 0.087 0.17 0.179 0.253 0.268 0.014-0.017 0.027-0.031 0.043-0.046C131.215 92.662 131.113 92.587 131.018 92.514zM125.652 88.867c-0.004 1.019 0.995 3.302 2.191 5.827C127.079 92.006 126.327 89.628 125.652 88.867zM127.844 94.694c0.03 0.106 0.062 0.215 0.09 0.324 0.021-0.008 0.036-0.015 0.055-0.02C127.941 94.896 127.892 94.793 127.844 94.694zM124.788 88.968c-0.476 0.902-0.653 3.386-0.768 6.178C124.594 92.413 125.031 89.958 124.788 88.968zM124.021 95.146c-0.023 0.106-0.044 0.214-0.066 0.323 0.02 0.004 0.035 0.005 0.055 0.007C124.013 95.368 124.018 95.254 124.021 95.146zM123.979 88.657c-0.844 0.576-2.154 2.697-3.553 5.114C122.204 91.617 123.733 89.645 123.979 88.657zM120.427 93.771c-0.074 0.09-0.152 0.185-0.229 0.274 0.018 0.012 0.034 0.02 0.053 0.034C120.309 93.976 120.369 93.873 120.427 93.771zM123.405 88.006c-1.015 0.119-3.16 1.385-5.522 2.875C120.46 89.801 122.726 88.768 123.405 88.006zM117.883 90.884c-0.122 0.051-0.247 0.102-0.372 0.156 0.009 0.019 0.021 0.038 0.033 0.057C117.658 91.027 117.771 90.954 117.883 90.884zM123.198 87.161c-0.951-0.365-3.441-0.238-6.227-0.016C119.755 87.383 122.244 87.521 123.198 87.161zM116.972 87.145c-0.151-0.014-0.308-0.028-0.457-0.041 -0.001 0.027-0.003 0.053-0.001 0.08C116.669 87.169 116.822 87.156 116.972 87.145zM123.407 86.318c-0.67-0.763-2.932-1.809-5.499-2.905C120.259 84.915 122.397 86.196 123.407 86.318zM117.908 83.413c-0.147-0.095-0.297-0.189-0.446-0.285 -0.013 0.026-0.026 0.053-0.041 0.078C117.585 83.276 117.75 83.344 117.908 83.413zM123.985 85.67c-0.239-0.989-1.758-2.967-3.521-5.132C121.849 82.963 123.147 85.09 123.985 85.67zM120.465 80.538c-0.095-0.163-0.188-0.329-0.281-0.494 -0.026 0.018-0.055 0.037-0.079 0.054C120.224 80.245 120.348 80.393 120.465 80.538z" fill="url(#SvgjsRadialGradient9092)" opacity="1"></path><path id="SvgjsPath9095" d="M126.255 78.622c-0.034-0.004-0.066-0.01-0.1-0.014 -0.011 0.196-0.022 0.393-0.034 0.586C126.164 79.004 126.211 78.812 126.255 78.622zM126.12 79.193c-0.627 2.724-1.114 5.17-0.892 6.162C125.724 84.467 125.95 81.984 126.12 79.193zM125.229 85.356c-0.119 0.212-0.25 0.344-0.401 0.36 -0.15 0.014-0.306-0.091-0.464-0.276 -0.006 0.243-0.06 0.421-0.188 0.505 -0.128 0.083-0.313 0.063-0.539-0.03 0.107 0.219 0.143 0.403 0.069 0.536 -0.075 0.133-0.249 0.201-0.489 0.224 0.194 0.144 0.312 0.289 0.308 0.441 -0.003 0.152-0.126 0.292-0.327 0.428 0.24 0.034 0.41 0.111 0.478 0.247 0.067 0.136 0.025 0.318-0.091 0.532 0.229-0.081 0.414-0.093 0.537-0.003 0.123 0.088 0.17 0.27 0.164 0.514 0.166-0.177 0.325-0.278 0.478-0.253 0.148 0.02 0.274 0.16 0.382 0.379 0.064-0.236 0.16-0.396 0.306-0.447 0.143-0.051 0.318 0.014 0.515 0.157 -0.051-0.237-0.041-0.423 0.063-0.536s0.29-0.136 0.532-0.102c-0.157-0.187-0.238-0.356-0.195-0.504 0.039-0.148 0.192-0.255 0.423-0.336 -0.226-0.091-0.372-0.206-0.407-0.354 -0.032-0.149 0.053-0.316 0.218-0.495 -0.243 0.023-0.427-0.009-0.524-0.125 -0.099-0.115-0.102-0.303-0.039-0.538 -0.201 0.134-0.38 0.19-0.521 0.132C125.37 85.756 125.281 85.593 125.229 85.356zM126.033 85.683c0.852-0.558 2.206-2.65 3.652-5.04C127.865 82.76 126.298 84.699 126.033 85.683zM129.685 80.641c0.126-0.145 0.255-0.292 0.38-0.44 -0.027-0.019-0.052-0.04-0.078-0.06C129.886 80.31 129.785 80.477 129.685 80.641zM126.597 86.345c1.013-0.099 3.187-1.322 5.577-2.767C129.578 84.609 127.287 85.598 126.597 86.345zM132.173 83.579c0.165-0.065 0.333-0.131 0.501-0.195 -0.014-0.029-0.029-0.056-0.04-0.083C132.481 83.392 132.328 83.487 132.173 83.579zM126.783 87.194c0.943 0.382 3.437 0.309 6.227 0.142C130.231 87.042 127.745 86.853 126.783 87.194zM133.01 87.336c0.158 0.019 0.32 0.036 0.48 0.053 0.001-0.027 0.002-0.055 0.003-0.083C133.332 87.316 133.168 87.326 133.01 87.336zM126.558 88.033c0.655 0.78 2.898 1.871 5.442 3.017C129.679 89.499 127.565 88.177 126.558 88.033zM132 91.049c0.117 0.08 0.236 0.161 0.354 0.238 0.013-0.021 0.024-0.042 0.035-0.063C132.262 91.168 132.129 91.109 132 91.049zM125.964 88.67c0.221 0.993 1.699 3.004 3.419 5.205C128.048 91.419 126.791 89.266 125.964 88.67zM129.384 93.872c0.059 0.106 0.117 0.217 0.176 0.325 0.018-0.013 0.034-0.023 0.053-0.034C129.536 94.065 129.458 93.967 129.384 93.872zM125.146 88.96c-0.267 0.982 0.107 3.447 0.608 6.195C125.711 92.361 125.601 89.87 125.146 88.96zM125.754 95.155c0.002 0.11 0.004 0.224 0.004 0.337 0.021-0.003 0.038-0.005 0.058-0.005C125.796 95.376 125.775 95.264 125.754 95.155zM124.285 88.834c-0.693 0.748-1.508 3.102-2.341 5.769C123.205 92.11 124.265 89.853 124.285 88.834zM121.944 94.603c-0.05 0.096-0.099 0.195-0.147 0.295 0.017 0.008 0.032 0.013 0.051 0.021C121.879 94.815 121.913 94.707 121.944 94.603zM123.584 88.324c-0.964 0.338-2.779 2.048-4.756 4.021C121.104 90.724 123.091 89.215 123.584 88.324zM118.828 92.345c-0.095 0.067-0.194 0.138-0.29 0.206 0.014 0.016 0.027 0.028 0.041 0.045C118.661 92.511 118.746 92.428 118.828 92.345zM123.197 87.546c-1.01-0.148-3.409 0.521-6.078 1.349C119.889 88.518 122.345 88.106 123.197 87.546zM117.119 88.897c-0.131 0.018-0.265 0.034-0.4 0.054 0.005 0.021 0.011 0.042 0.018 0.063C116.865 88.977 116.993 88.936 117.119 88.897zM123.217 86.677c-0.824-0.599-3.263-1.121-6.01-1.627C119.833 86 122.202 86.777 123.217 86.677zM117.207 85.05c-0.143-0.052-0.29-0.106-0.432-0.158 -0.008 0.026-0.016 0.051-0.021 0.077C116.907 84.995 117.06 85.022 117.207 85.05zM123.637 85.917c-0.45-0.911-2.363-2.506-4.561-4.23C120.959 83.747 122.693 85.538 123.637 85.917zM119.076 81.688c-0.118-0.13-0.236-0.26-0.355-0.391 -0.021 0.022-0.041 0.044-0.061 0.065C118.8 81.471 118.941 81.58 119.076 81.688zM124.363 85.44c0.024-1.017-0.93-3.321-2.073-5.868C122.999 82.273 123.704 84.663 124.363 85.44zM122.29 79.572c-0.049-0.182-0.096-0.366-0.144-0.55 -0.029 0.01-0.062 0.021-0.09 0.032C122.134 79.227 122.214 79.401 122.29 79.572z" fill="url(#SvgjsRadialGradient9096)" opacity="1"></path><path id="SvgjsPath9099" d="M128.334 87c0 1.842-1.492 3.333-3.333 3.333s-3.335-1.492-3.335-3.333c0-1.841 1.494-3.334 3.335-3.334C126.844 83.666 128.334 85.159 128.334 87z" fill="#4e60a3" stroke-width="none" opacity="1"></path><path id="SvgjsPath9100" d="M128.334 87c0 1.842-1.492 3.333-3.333 3.333s-3.335-1.492-3.335-3.333c0-1.841 1.494-3.334 3.335-3.334C126.844 83.666 128.334 85.159 128.334 87z" fill="#000000" stroke-width="none" opacity="0.9"></path><path id="SvgjsPath9101" d="M120.35 90.893c0.636-0.427 1.5-0.255 1.927 0.38 0.427 0.637 0.258 1.5-0.379 1.927 -0.638 0.429-1.5 0.258-1.927-0.378C119.544 92.185 119.713 91.32 120.35 90.893L120.35 90.893z" fill="url(#SvgjsLinearGradient9102)" opacity="0.5"></path><path id="SvgjsPath9105" d="M127.635 86.536c-0.356 0.53-1.373 0.468-2.275-0.136 -0.903-0.605-1.346-1.526-0.991-2.055l0.001-0.001c0.354-0.53 1.372-0.469 2.274 0.137 0.903 0.604 1.346 1.524 0.992 2.054C127.635 86.536 127.635 86.536 127.635 86.536z" fill="url(#SvgjsLinearGradient9106)" opacity="0.5"></path><path id="SvgjsPath9109" d="M131.682 85.121c-0.806 1.237-2.884 1.31-4.641 0.166 -1.756-1.145-2.527-3.075-1.722-4.311 0.806-1.235 2.884-1.31 4.641-0.166C131.715 81.956 132.485 83.887 131.682 85.121L131.682 85.121z" fill="url(#SvgjsLinearGradient9110)" opacity="0.75"></path></g></g></g><g id="svga-group-eyesfront-right"><path id="SvgjsPath9220" d="M126 62.999c-10.493 0-19 11.193-19 25.001 0 13.808 8.507 24.999 19 24.999S145 101.808 145 88C145 74.191 136.493 62.999 126 62.999zM134.179 93.256c-1.294 1.868-7.813 2.013-20.346 0l-1.239-3.592c-0.002 0.018-0.004 0.032-0.006 0.049 -0.144-0.769-0.223-1.557-0.223-2.361 0-0.945 0.229-2.353 0.229-2.353 7.195-10.274 18.918-2.332 25.679-2.773C137.944 87.644 136.689 89.63 134.179 93.256z" fill="#ecc4b8" stroke-width="none" opacity="1" stroke="none"></path><path id="SvgjsPath9221" d="M123.041 71.999c-9.393-0.041-17.018 6.192-17.041 13.925 -0.023 7.732 7.572 14.031 16.961 14.075 9.393 0.04 17.016-6.192 17.039-13.924C140.023 78.342 132.432 72.042 123.041 71.999zM134.179 93.256c-1.294 1.868-7.813 2.013-20.346 0l-1.239-3.592c-0.002 0.018-0.004 0.032-0.006 0.049 -0.144-0.769-0.223-1.557-0.223-2.361 0-0.945 0.229-2.353 0.229-2.353 7.195-10.274 18.918-2.332 25.679-2.773C137.944 87.644 136.689 89.63 134.179 93.256z" fill="url(#SvgjsRadialGradient9222)" opacity="1"></path><path id="SvgjsPath9226" d="M134.179 93.256c2.511-3.626 3.766-5.613 4.094-11.03 -6.761 0.441-18.483-7.501-25.679 2.773 0 0-0.229 1.408-0.229 2.353 0 0.804 0.079 1.592 0.223 2.361 0.002-0.018 0.004-0.032 0.006-0.049l1.239 3.592C126.365 95.269 132.885 95.125 134.179 93.256z" fill="url(#SvgjsRadialGradient9227)" opacity="1"></path><path id="SvgjsPath9230" d="M113.824 80c4.563-3.95 15.813-3.363 19.433-2.761C128.665 77.017 120.74 76.121 113.824 80z" fill="#be725b" stroke-width="none" opacity="1" stroke="none"></path><path id="SvgjsPath9231" d="M133.992 80.011c2.064 0.413 6.817-0.817 9.987-2.012 -1.351 0.882-2.35 1.722-3.659 2.26 1.147 0.229 2.911 0 5.146-0.496 -2.832 1.847-4.239 2.518-5.891 2.667 0.087 4.733-2.622 8.9-4.449 11.227l2.278 1.985c-1.233-0.639-2.331-1.083-3.351-1.055 -1.504 0.662-2.649 1.054-4.465 1.489l1.55 1.923c-1.763-0.754-3.144-1.807-5.583-2.357 -4.403-0.993-11.677-1.049-12.431-1.899 -0.684-0.771-0.761-2.298-0.532-4.117l1.041 2.969c0.109 0.313 0.463 0.608 0.79 0.659 12.146 1.883 18.48 1.716 19.754-0.093 2.511-3.568 3.766-5.523 4.094-10.854 -6.761 0.435-18.483-7.381-25.679 2.729l0.352-1.757c0 0.062-1.344 0.662-1.344 0.662C117.264 77.669 122.827 77.778 133.992 80.011z" fill="#2c1630" stroke-width="none" opacity="1" stroke="none"></path></g></g><g id="svga-group-facehighlight-single" ><path id="SvgjsPath8983" d="M140.204 113.007c0.035 22.275-17.995 40.365-40.273 40.396 -22.274 0.036-40.361-17.993-40.396-40.272C59.501 90.857 77.53 72.77 99.808 72.735 122.083 72.701 140.171 90.73 140.204 113.007z" fill="url(#SvgjsRadialGradient8984)" opacity="1"></path><path id="SvgjsPath8987" d="M135,55.999c0,19.329-15.671,35-35,35c-19.329,0-35-15.671-35-35s15.671-35,35-35C119.329,20.999,135,36.67,135,55.999z" fill="url(#SvgjsRadialGradient8988)" opacity="1"></path></g><g id="svga-group-eyebrows-left" ><path id="SvgjsPath9232" d="M93.3 76.245c-9.176-3.089-12.813-6.054-20.729-8.735 -6.51-2.206-13.342-2.613-20.071-1.34 8.225 0.782 11.916 0.809 20.316 3.833C79.624 72.455 85.97 75.91 93.3 76.245z" fill="#73625b" stroke-width="none" opacity="1" stroke="none"></path></g><g id="svga-group-eyebrows-right" ><path id="SvgjsPath9233" d="M106.5 76.545c9.176-3.089 13.013-6.354 20.929-9.035 6.51-2.206 13.342-2.613 20.071-1.34 -8.225 0.782-11.916 0.809-20.316 3.833C120.376 72.455 113.83 76.21 106.5 76.545z" fill="#73625b" stroke-width="none" opacity="1" stroke="none"></path></g><g id="svga-group-nose-single" ><path id="SvgjsPath9239" d="M93.787 116.99c0 0 1.319-0.969 5.75-0.969 5.24 0 6.685 0.759 6.685 0.759s-3.71 2.4-6.937 1.925C96.513 118.295 93.787 116.99 93.787 116.99z" fill="#dda696" stroke-width="none" opacity="1" stroke="none"></path><path id="SvgjsPath9240" d="M100.06 120.097c-1.181 0-2.382-0.529-3.423-1.045 -0.423-0.208-0.838-0.374-1.304-0.461 -0.582-0.109-1.656 0.086-2.085-0.356 -0.457-0.473-0.085-1.217 0.54-1.244 0.771 0.012 1.551 0.067 2.298 0.267 1.309 0.35 2.427 1.254 3.814 1.366 1.051 0.084 2.219-0.58 3.159-0.977 0.738-0.312 3.209-1.475 3.805-0.457 0.369 0.629-0.222 1.075-0.789 1.107 -0.702 0.039-1.394 0.277-2.043 0.534C102.777 119.327 101.441 120.097 100.06 120.097z" fill="#cd8b77" stroke-width="none" opacity="1" stroke="none"></path><path id="SvgjsPath9241" d="M99.989 116.076c0.556 0 1.853-0.647 1.64-1.902 -1.26-7.41-1.64-20.245-1.64-20.245s-0.964 15.033-1.788 20.245C98.001 115.443 99.36 116.076 99.989 116.076z" fill="#fffbfa" stroke-width="none" opacity="0.2" stroke="none"></path></g><g id="svga-group-hair-front" ><path id="SvgjsPath9152" d="M151.686 97.871c0-11.927-0.214-18.574-3.512-30.116 -1.318-4.613-5.302-8.946-8.959-13.721 -3.451-4.509-6.078-10.609-9.096-16.049 -5.616 3.104-11.944 5.362-20.059 6.589 -4.189 0.633-9.402 1.421-15.795 2.708 -22.479 4.515-44.862 12.433-47.426 30.883 -2.551 14.437-13.806-33.235 53.641-45.936 49.198-9.264 63.93 13.61 60.493 39.159C159.061 85.624 151.686 97.871 151.686 97.871z" fill="#73625b" stroke-width="none" opacity="0.1" stroke="none"></path><path id="SvgjsPath9153" d="M151.417 100.722c2.836-14.29 3.792-26.049-0.761-36.989 -1.874-4.503-5.385-9.09-9.102-13.947 -3.507-4.582-7.132-9.319-10.193-14.848 -5.702 3.156-11.177 3.985-19.42 5.232 -4.256 0.644-9.551 1.445-16.048 2.752 -22.833 4.591-44.64 11.3-49.561 29.146 -2.594 14.676 0.425 24.889 0.562 25.339l0.031 0.095 -0.043 0.136 -0.06 0.083h-0.25l-0.059-0.193c-0.084-0.259-0.868-2.604-3.153-7.5 -7.005-15.01-12.961-31.84-2.395-57.841C47.262 16.686 55.446 6.695 67.499-0.208 77.797-6.107 87.54-8.975 97.284-8.975c8.261 0 21.392 3.475 21.588 4.475 8.281 0.491 15.644-0.313 27.202 12.248 8.979 9.761 21.073 33.709 17.583 59.679 -1.943 14.471-7.979 25.874-10.557 30.743 -0.692 1.308-1.193 2.253-1.294 2.643L151.417 100.722z" fill="#73625b" stroke-width="none" opacity="1" stroke="none"></path><path id="SvgjsPath9154" d="M163.657 67.426c-1.984 14.777-11.24 32.525-12.24 32.296 2.836-14.29 3.792-25.049-0.761-35.989 -4.134-9.933-16.133-20.627-18.963-28.787 -2.224 1.728-8.598 3.397-19.752 5.224 -4.248 0.696-9.551 1.445-16.048 2.752 -22.833 4.591-44.64 11.3-49.561 29.146 -3.892 22.017 4.976 35.981-2.973 18.959 -7.005-15.01-12.961-33.14-2.395-59.141C47.648 15.432 58.337 0.003 75.085-5.464c2.904-0.948 3.78-0.194 0.897 0.961C61.014 1.515 52.744 15.485 45.689 33.832c0 0 0.304-7.335 3.513-13.843 -7.833 13.622-13.98 27.905-8.879 51.601 -0.951-16.854 7.507-30.616 16.673-37.783 -8.38 11.338-12.324 20.929-12.294 31.598 5.167-13.667 16.371-22.259 31.5-24.667 18.59-2.958 48.883-7.153 56.491-13.126 0.312-0.347 0.653-0.686 1.066-1.008 0 6.396 2.777 9.232 5.24 11.396 13.915 12.229 19 28 18 45 2-17-1-34-10-48 8 8 12 19 14 30 1.22-17.085-3.16-33.417-10.611-48.104 2.134 6.681 2.111 12.406 2.39 12.865 -0.604-1-3.022-28.786-28.181-34.475C150.934-1.238 167.531 38.596 163.657 67.426zM149.595 45.788c-0.771-1.002-10.38-14.231-10.343-22.229C138.123 33.06 142.384 36.429 149.595 45.788zM64.803 31.048c8.477-6.569 14.928-9.919 25.442-12.212 6.227-1.359 15.22-1.644 27.042-4.067 0.04-0.008 0.081-0.019 0.122-0.026 0 0-10.631 3.032-26.412 5.793C80.345 22.399 75.041 24.457 64.803 31.048zM84.513 4.102c19.225-4.631 36.823-3.665 50.436 10.549C126.995 6.347 110.959-0.393 84.513 4.102z" fill="#644e45" stroke-width="none" opacity="1" stroke="none"></path><path id="SvgjsPath9155" d="M49.353 54.83c6.177-10.488 12.681-17.599 24.109-21.923 21.07-7.974 37.013-3.576 60.369-11.915 -4.557 1.627-7.094 4.249-33.97 7.959 -17.238 2.382-25.38 4.37-31.725 7.597C59.112 41.139 54.101 47.572 49.353 54.83zM102.038 5.505c-0.013 0.002-0.087 0.005-0.09 0.005 -7.204 0.476-33.15-0.68-52.604 29.249C66.716 12.814 83.166 9.125 102.038 5.505z" fill="#543c32" stroke-width="none" opacity="1" stroke="none"></path><path id="SvgjsPath9156" d="M51.695 46.43c10.477-13.847 18.136-17.225 29.399-18.928C66.793 29.664 51.695 45.36 51.695 46.43 52.058 45.951 51.695 46.43 51.695 46.43zM67.385 8.454C51.056 18.625 47.031 32.039 46.892 33.039 49.467 26.4 59.661 13.267 67.385 8.454zM157.313 77.406c-0.259-9.621 0.057-23.952-14.679-35.755C154.329 52.545 155.494 65.235 157.313 77.406zM57.213 33.421c-0.637 0.263-5.713 5.016-6.229 5.533 -9.832 9.842-11.415 18.801-10.542 32.632C40.237 45.783 56.213 33.833 57.213 33.421zM141.658 19.382c7.828 10.565 12.673 21.56 15.459 29.502 -2.193-5.436-5.308-10.323-10.242-14.787 6.684 7.154 13.271 23.233 13.731 28.865C160.524 61.956 161.244 40.477 141.658 19.382zM100.645 37.108c25.392-4.578 25.475-6.359 33.177-10.399 -8.732 4.581-10.754 5.984-33.37 9.444 -25.869 3.957-47.642 6.37-54.768 27.178C53.682 42.119 75.816 41.586 100.645 37.108z" fill="#827874" stroke-width="none" opacity="1" stroke="none"></path><path id="SvgjsPath9157" d="M151.28 11.084c-7.513-9.719-18.752-17.241-30.852-15.839C89.597-19.604 53.174-3.752 38.345 33.664 25.039 67.235 46.132 101.756 47.706 101c2.401-1.154-4.167-18.054 1.153-30.882 5.416-13.059 25.43-19.579 45.658-24.673 19.117-4.815 27.417-4.69 36.338-9.523 0.003-0.001 0.005-0.003 0.008-0.005 6.412 12.427 14.565 20.061 18.671 31.197 4.276 11.604-0.18 34.874 0.916 35.321 2.902 1.185 11.388-19.541 13.871-30.778C169.387 48.739 163.207 26.516 151.28 11.084zM163.459 67.399c-2.461 18.324-11.344 30.421-11.846 32.362 2.592-13.059 4.02-24.59-0.772-36.105 -3.604-8.663-12.96-17.276-19.401-28.991 -8.695 4.882-16.492 4.22-35.586 8.06C75.84 46.75 51.348 53.125 46.139 72.015c-3.956 22.372 3.399 31.39-2.599 18.928 -4.586-9.527-12.923-32.762-2.391-58.681C46.815 18.316 54.489 7.473 67.599-0.035c19.982-11.446 35.868-10.229 50.924-4.437 1.509-0.282-8.718 2.916-13.15 3.695 6.495 3.255 19.759-13.941 40.555 8.659C155.79 18.604 166.764 42.811 163.459 67.399z" fill="#452c22" stroke-width="none" opacity="1" stroke="none"></path></g><g id="svga-group-glasses-single" ><path id="SvgjsPath9115" d="M100,18.13L100,18.13L100,18.13L100,18.13z" fill="#26120b" stroke-width="none" opacity="1"></path></g></g></g><rect id="SvgjsRect8968" width="200" height="15" x="0" y="185" fill="#ecf0f1" opacity="0.5" style="display:none;"></rect><text id="SvgjsText8969" font-family="&quot;Roboto&quot;, &quot;Helvetica Neue&quot;, Helvetica, Arial, sans-serif" style="font-size:0.84em;font-family:&quot;Roboto&quot;, &quot;Helvetica Neue&quot;, Helvetica, Arial, sans-serif;text-anchor:middle;font-weight:400;display:none;" font-size="0.84em" text-anchor="middle" font-weight="400" fill="#000000" x="100" y="185"><tspan id="SvgjsTspan8970" dy="1.2em" x="100" style="font-size:0.84em;font-family:&quot;Roboto&quot;, &quot;Helvetica Neue&quot;, Helvetica, Arial, sans-serif;text-anchor:middle;font-weight:400;">Created on AvatarMaker.com</tspan></text></g><defs id="SvgjsDefs8936"><radialGradient id="SvgjsRadialGradient8984" cx="100" cy="113" r="40" gradientUnits="userSpaceOnUse" class="svga-on-canvas-facehighlight-gradient-single-0"><stop id="SvgjsStop8985" stop-opacity="0.5" stop-color="#fbe4dd" offset="0" ></stop><stop id="SvgjsStop8986" stop-opacity="0" stop-color="#ecc4b8" offset="0.9" ></stop></radialGradient><radialGradient id="SvgjsRadialGradient8988" cx="100" cy="57" r="36" gradientUnits="userSpaceOnUse" class="svga-on-canvas-facehighlight-gradient-single-1"><stop id="SvgjsStop8989" stop-opacity="0.5" stop-color="#fbe4dd" offset="0" ></stop><stop id="SvgjsStop8990" stop-opacity="0" stop-color="#ecc4b8" offset="0.9" ></stop></radialGradient><radialGradient id="SvgjsRadialGradient9069" cx="-558.588" cy="-490.918" r="84.646" gradientTransform="matrix(0.096 -0.0248 0.0245 0.0961 140.5478 120.3577)" gradientUnits="userSpaceOnUse" class="svga-on-canvas-eyesiris-gradient-left-1"><stop id="SvgjsStop9070" stop-opacity="0.8" stop-color="#ffffff" offset="0" ></stop><stop id="SvgjsStop9071" stop-opacity="0" stop-color="#ffffff" offset="1" ></stop></radialGradient><radialGradient id="SvgjsRadialGradient9073" cx="-565.337" cy="-492.691" r="84.644" gradientTransform="matrix(0.0991 8.856325e-004 -0.0011 0.0991 130.3774 136.3533)" gradientUnits="userSpaceOnUse" class="svga-on-canvas-eyesiris-gradient-left-2"><stop id="SvgjsStop9074" stop-opacity="0.8" stop-color="#ffffff" offset="0" ></stop><stop id="SvgjsStop9075" stop-opacity="0" stop-color="#ffffff" offset="1" ></stop></radialGradient><linearGradient id="SvgjsLinearGradient9079" x1="122.283" y1="93.047" x2="123.61" y2="91.466" gradientTransform="matrix(1 0 0 1 -52 0)" gradientUnits="userSpaceOnUse" class="svga-on-canvas-eyesiris-gradient-left-5"><stop id="SvgjsStop9080" stop-opacity="1" stop-color="#ffffff" offset="0" ></stop><stop id="SvgjsStop9081" stop-opacity="0" stop-color="#ffffff" offset="1" ></stop></linearGradient><linearGradient id="SvgjsLinearGradient9083" x1="127" y1="85" x2="125" y2="87" gradientTransform="matrix(1 0 0 1 -50 0)" gradientUnits="userSpaceOnUse" class="svga-on-canvas-eyesiris-gradient-left-6"><stop id="SvgjsStop9084" stop-opacity="1" stop-color="#ffffff" offset="0" ></stop><stop id="SvgjsStop9085" stop-opacity="0" stop-color="#ffffff" offset="1" ></stop></linearGradient><linearGradient id="SvgjsLinearGradient9087" x1="130" y1="81" x2="126" y2="85" gradientTransform="matrix(1 0 0 1 -50 0)" gradientUnits="userSpaceOnUse" class="svga-on-canvas-eyesiris-gradient-left-7"><stop id="SvgjsStop9088" stop-opacity="1" stop-color="#ffffff" offset="0" ></stop><stop id="SvgjsStop9089" stop-opacity="0" stop-color="#ffffff" offset="1" ></stop></linearGradient><radialGradient id="SvgjsRadialGradient9092" cx="-578.76" cy="-490.73" r="84.646" gradientTransform="matrix(0.096 -0.0248 0.0245 0.0961 192.4794 119.8404)" gradientUnits="userSpaceOnUse" class="svga-on-canvas-eyesiris-gradient-right-1"><stop id="SvgjsStop9093" stop-opacity="0.8" stop-color="#ffffff" offset="0" ></stop><stop id="SvgjsStop9094" stop-opacity="0" stop-color="#ffffff" offset="1" ></stop></radialGradient><radialGradient id="SvgjsRadialGradient9096" cx="-584.778" cy="-487.329" r="84.644" gradientTransform="matrix(0.0991 8.856325e-004 -0.0011 0.0991 182.3104 135.839)" gradientUnits="userSpaceOnUse" class="svga-on-canvas-eyesiris-gradient-right-2"><stop id="SvgjsStop9097" stop-opacity="0.8" stop-color="#ffffff" offset="0" ></stop><stop id="SvgjsStop9098" stop-opacity="0" stop-color="#ffffff" offset="1" ></stop></radialGradient><linearGradient id="SvgjsLinearGradient9102" x1="120.284" y1="93.047" x2="121.611" y2="91.467" gradientUnits="userSpaceOnUse" class="svga-on-canvas-eyesiris-gradient-right-5"><stop id="SvgjsStop9103" stop-opacity="1" stop-color="#ffffff" offset="0" ></stop><stop id="SvgjsStop9104" stop-opacity="0" stop-color="#ffffff" offset="1" ></stop></linearGradient><linearGradient id="SvgjsLinearGradient9106" x1="127" y1="85" x2="125" y2="87" gradientUnits="userSpaceOnUse" class="svga-on-canvas-eyesiris-gradient-right-6"><stop id="SvgjsStop9107" stop-opacity="1" stop-color="#ffffff" offset="0" ></stop><stop id="SvgjsStop9108" stop-opacity="0" stop-color="#ffffff" offset="1" ></stop></linearGradient><linearGradient id="SvgjsLinearGradient9110" x1="130" y1="81" x2="126" y2="85" gradientUnits="userSpaceOnUse" class="svga-on-canvas-eyesiris-gradient-right-7"><stop id="SvgjsStop9111" stop-opacity="1" stop-color="#ffffff" offset="0" ></stop><stop id="SvgjsStop9112" stop-opacity="0" stop-color="#ffffff" offset="1" ></stop></linearGradient><radialGradient id="SvgjsRadialGradient9175" cx="126.443" cy="86.829" r="13.737" gradientTransform="matrix(-1.0172 0 0 1.0172 202.565 -1.469)" gradientUnits="userSpaceOnUse" class="svga-on-canvas-eyesback-gradient-left-0"><stop id="SvgjsStop9176" stop-opacity="1" stop-color="#ffffff" offset="0" ></stop><stop id="SvgjsStop9177" stop-opacity="1" stop-color="#fdfefe" offset="0.544" ></stop><stop id="SvgjsStop9178" stop-opacity="1" stop-color="#f6f8f9" offset="0.74" ></stop><stop id="SvgjsStop9179" stop-opacity="1" stop-color="#eaeff2" offset="0.879" ></stop><stop id="SvgjsStop9180" stop-opacity="1" stop-color="#d9e3e8" offset="0.992" ></stop><stop id="SvgjsStop9181" stop-opacity="1" stop-color="#d8e2e7" offset="1" ></stop></radialGradient><radialGradient id="SvgjsRadialGradient9183" cx="126.443" cy="86.829" r="13.737" gradientTransform="matrix(1.0172 0 0 1.0172 -2.565 -1.469)" gradientUnits="userSpaceOnUse" class="svga-on-canvas-eyesback-gradient-right-0"><stop id="SvgjsStop9184" stop-opacity="1" stop-color="#ffffff" offset="0" ></stop><stop id="SvgjsStop9185" stop-opacity="1" stop-color="#fdfefe" offset="0.544" ></stop><stop id="SvgjsStop9186" stop-opacity="1" stop-color="#f6f8f9" offset="0.74" ></stop><stop id="SvgjsStop9187" stop-opacity="1" stop-color="#eaeff2" offset="0.879" ></stop><stop id="SvgjsStop9188" stop-opacity="1" stop-color="#d9e3e8" offset="0.992" ></stop><stop id="SvgjsStop9189" stop-opacity="1" stop-color="#d8e2e7" offset="1" ></stop></radialGradient><radialGradient id="SvgjsRadialGradient9191" cx="126.443" cy="86.829" r="13.737" gradientTransform="matrix(-1.0172 0 0 1.0172 202.565 -1.469)" gradientUnits="userSpaceOnUse" class="svga-on-canvas-eyesfront-gradient-left-0"><stop id="SvgjsStop9192" stop-opacity="1" stop-color="#ffffff" offset="0" ></stop><stop id="SvgjsStop9193" stop-opacity="1" stop-color="#fdfefe" offset="0.544" ></stop><stop id="SvgjsStop9194" stop-opacity="1" stop-color="#f6f8f9" offset="0.74" ></stop><stop id="SvgjsStop9195" stop-opacity="1" stop-color="#eaeff2" offset="0.879" ></stop><stop id="SvgjsStop9196" stop-opacity="1" stop-color="#d9e3e8" offset="0.992" ></stop><stop id="SvgjsStop9197" stop-opacity="1" stop-color="#d8e2e7" offset="1" ></stop></radialGradient><radialGradient id="SvgjsRadialGradient9201" cx="122.915" cy="85.449" fx="134.942" fy="85.483" r="17.105" gradientTransform="matrix(0.9998 0.0208 0.0166 -0.7998 -47.2259 151.2362)" gradientUnits="userSpaceOnUse" class="svga-on-canvas-eyesfront-gradient-left-3"><stop id="SvgjsStop9202" stop-opacity="1" stop-color="#dda696" offset="0" ></stop><stop id="SvgjsStop9203" stop-opacity="0.3" stop-color="#dda696" offset="0.7" ></stop><stop id="SvgjsStop9204" stop-opacity="0" stop-color="#ecc4b8" offset="1" ></stop></radialGradient><radialGradient id="SvgjsRadialGradient9206" cx="74.869" cy="108.958" r="29.944" gradientTransform="matrix(0.875 -0.0456 0.0459 0.8698 2.8908 16.3064)" gradientUnits="userSpaceOnUse" class="svga-on-canvas-eyesfront-gradient-left-4"><stop id="SvgjsStop9207" stop-opacity="0" stop-color="#000000" offset="0.95" ></stop><stop id="SvgjsStop9208" stop-opacity="0.3" stop-color="#000000" offset="1" ></stop></radialGradient><radialGradient id="SvgjsRadialGradient9212" cx="126.443" cy="86.829" r="13.737" gradientTransform="matrix(1.0172 0 0 1.0172 -2.565 -1.469)" gradientUnits="userSpaceOnUse" class="svga-on-canvas-eyesfront-gradient-right-0"><stop id="SvgjsStop9213" stop-opacity="1" stop-color="#ffffff" offset="0" ></stop><stop id="SvgjsStop9214" stop-opacity="1" stop-color="#fdfefe" offset="0.544" ></stop><stop id="SvgjsStop9215" stop-opacity="1" stop-color="#f6f8f9" offset="0.74" ></stop><stop id="SvgjsStop9216" stop-opacity="1" stop-color="#eaeff2" offset="0.879" ></stop><stop id="SvgjsStop9217" stop-opacity="1" stop-color="#d9e3e8" offset="0.992" ></stop><stop id="SvgjsStop9218" stop-opacity="1" stop-color="#d8e2e7" offset="1" ></stop></radialGradient><radialGradient id="SvgjsRadialGradient9222" cx="122.915" cy="85.449" fx="134.942" fy="85.483" r="17.105" gradientTransform="matrix(-0.9998 0.0208 -0.0166 -0.7998 247.2259 151.2362)" gradientUnits="userSpaceOnUse" class="svga-on-canvas-eyesfront-gradient-right-3"><stop id="SvgjsStop9223" stop-opacity="1" stop-color="#dda696" offset="0" ></stop><stop id="SvgjsStop9224" stop-opacity="0.3" stop-color="#dda696" offset="0.7" ></stop><stop id="SvgjsStop9225" stop-opacity="0" stop-color="#ecc4b8" offset="1" ></stop></radialGradient><radialGradient id="SvgjsRadialGradient9227" cx="74.869" cy="108.958" r="29.944" gradientTransform="matrix(-0.875 -0.0456 -0.0459 0.8698 197.1092 16.3064)" gradientUnits="userSpaceOnUse" class="svga-on-canvas-eyesfront-gradient-right-4"><stop id="SvgjsStop9228" stop-opacity="0" stop-color="#000000" offset="0.95" ></stop><stop id="SvgjsStop9229" stop-opacity="0.3" stop-color="#000000" offset="1" ></stop></radialGradient><linearGradient id="SvgjsLinearGradient9235" x1="100" y1="142" x2="100" y2="139" gradientUnits="userSpaceOnUse" class="svga-on-canvas-mouth-gradient-single-0"><stop id="SvgjsStop9236" stop-opacity="1" stop-color="#e4b5a7" offset="0.1" ></stop><stop id="SvgjsStop9237" stop-opacity="1" stop-color="#dda696" offset="1" ></stop></linearGradient><linearGradient id="SvgjsLinearGradient9262" x1="99.98" y1="171.27" x2="99.98" y2="136.351" gradientUnits="userSpaceOnUse" class="svga-on-canvas-chinshadow-gradient-single-0"><stop id="SvgjsStop9263" stop-opacity="0.8" stop-color="#dda696" offset="0" ></stop><stop id="SvgjsStop9264" stop-opacity="1" stop-color="#be725b" offset="0.7" ></stop></linearGradient></defs></svg>