<svg xmlns="http://www.w3.org/2000/svg" version="1.1" width="600px" height="600px" xlink="http://www.w3.org/1999/xlink" style="overflow:hidden!important;"><g id="svga-group-wrapper" transform="scale(3 3)"><g id="svga-group-backs-single"><path id="SvgjsPath81645" d="M225,225H-25V-25h250V225z" fill="#ece5ce" stroke-width="none" opacity="1" stroke="none"></path><path id="SvgjsPath81646" d="M16,9.999c0,3.313-2.687,6-6,6s-6-2.687-6-6s2.687-6,6-6S16,6.686,16,9.999z M28,3.999c-3.313,0-6,2.687-6,6s2.687,6,6,6s6-2.687,6-6S31.313,3.999,28,3.999z M46,3.999c-3.313,0-6,2.687-6,6s2.687,6,6,6s6-2.687,6-6S49.313,3.999,46,3.999z M64,3.999c-3.313,0-6,2.687-6,6s2.687,6,6,6s6-2.687,6-6S67.313,3.999,64,3.999z M82,3.999c-3.313,0-6,2.687-6,6s2.687,6,6,6s6-2.687,6-6S85.313,3.999,82,3.999z M100,3.999c-3.313,0-6,2.687-6,6s2.687,6,6,6s6-2.687,6-6S103.313,3.999,100,3.999z M118,3.999c-3.313,0-6,2.687-6,6s2.687,6,6,6s6-2.687,6-6S121.313,3.999,118,3.999z M136,3.999c-3.313,0-6,2.687-6,6s2.687,6,6,6s6-2.687,6-6S139.313,3.999,136,3.999z M154,3.999c-3.313,0-6,2.687-6,6s2.687,6,6,6s6-2.687,6-6S157.313,3.999,154,3.999z M172,3.999c-3.313,0-6,2.687-6,6s2.687,6,6,6s6-2.687,6-6S175.313,3.999,172,3.999z M190,3.999c-3.313,0-6,2.687-6,6s2.687,6,6,6s6-2.687,6-6S193.313,3.999,190,3.999z M16,27.999c0,3.313-2.687,6-6,6s-6-2.687-6-6s2.687-6,6-6S16,24.686,16,27.999z M28,21.999c-3.313,0-6,2.687-6,6s2.687,6,6,6s6-2.687,6-6S31.313,21.999,28,21.999z M46,21.999c-3.313,0-6,2.687-6,6s2.687,6,6,6s6-2.687,6-6S49.313,21.999,46,21.999z M64,21.999c-3.313,0-6,2.687-6,6s2.687,6,6,6s6-2.687,6-6S67.313,21.999,64,21.999z M82,21.999c-3.313,0-6,2.687-6,6s2.687,6,6,6s6-2.687,6-6S85.313,21.999,82,21.999z M100,21.999c-3.313,0-6,2.687-6,6s2.687,6,6,6s6-2.687,6-6S103.313,21.999,100,21.999z M118,21.999c-3.313,0-6,2.687-6,6s2.687,6,6,6s6-2.687,6-6S121.313,21.999,118,21.999z M136,21.999c-3.313,0-6,2.687-6,6s2.687,6,6,6s6-2.687,6-6S139.313,21.999,136,21.999z M154,21.999c-3.313,0-6,2.687-6,6s2.687,6,6,6s6-2.687,6-6S157.313,21.999,154,21.999z M172,21.999c-3.313,0-6,2.687-6,6s2.687,6,6,6s6-2.687,6-6S175.313,21.999,172,21.999z M190,21.999c-3.313,0-6,2.687-6,6s2.687,6,6,6s6-2.687,6-6S193.313,21.999,190,21.999z M16,45.999c0,3.313-2.687,6-6,6s-6-2.687-6-6s2.687-6,6-6S16,42.686,16,45.999z M28,39.999c-3.313,0-6,2.687-6,6s2.687,6,6,6s6-2.687,6-6S31.313,39.999,28,39.999z M46,39.999c-3.313,0-6,2.687-6,6s2.687,6,6,6s6-2.687,6-6S49.313,39.999,46,39.999z M64,39.999c-3.313,0-6,2.687-6,6s2.687,6,6,6s6-2.687,6-6S67.313,39.999,64,39.999z M82,39.999c-3.313,0-6,2.687-6,6s2.687,6,6,6s6-2.687,6-6S85.313,39.999,82,39.999z M100,39.999c-3.313,0-6,2.687-6,6s2.687,6,6,6s6-2.687,6-6S103.313,39.999,100,39.999z M118,39.999c-3.313,0-6,2.687-6,6s2.687,6,6,6s6-2.687,6-6S121.313,39.999,118,39.999z M136,39.999c-3.313,0-6,2.687-6,6s2.687,6,6,6s6-2.687,6-6S139.313,39.999,136,39.999z M154,39.999c-3.313,0-6,2.687-6,6s2.687,6,6,6s6-2.687,6-6S157.313,39.999,154,39.999z M172,39.999c-3.313,0-6,2.687-6,6s2.687,6,6,6s6-2.687,6-6S175.313,39.999,172,39.999z M190,39.999c-3.313,0-6,2.687-6,6s2.687,6,6,6s6-2.687,6-6S193.313,39.999,190,39.999z M16,63.999c0,3.313-2.687,6-6,6s-6-2.687-6-6s2.687-6,6-6S16,60.686,16,63.999z M28,57.999c-3.313,0-6,2.687-6,6s2.687,6,6,6s6-2.687,6-6S31.313,57.999,28,57.999z M46,57.999c-3.313,0-6,2.687-6,6s2.687,6,6,6s6-2.687,6-6S49.313,57.999,46,57.999z M64,57.999c-3.313,0-6,2.687-6,6s2.687,6,6,6s6-2.687,6-6S67.313,57.999,64,57.999z M82,57.999c-3.313,0-6,2.687-6,6s2.687,6,6,6s6-2.687,6-6S85.313,57.999,82,57.999z M100,57.999c-3.313,0-6,2.687-6,6s2.687,6,6,6s6-2.687,6-6S103.313,57.999,100,57.999z M118,57.999c-3.313,0-6,2.687-6,6s2.687,6,6,6s6-2.687,6-6S121.313,57.999,118,57.999z M136,57.999c-3.313,0-6,2.687-6,6s2.687,6,6,6s6-2.687,6-6S139.313,57.999,136,57.999z M154,57.999c-3.313,0-6,2.687-6,6s2.687,6,6,6s6-2.687,6-6S157.313,57.999,154,57.999z M172,57.999c-3.313,0-6,2.687-6,6s2.687,6,6,6s6-2.687,6-6S175.313,57.999,172,57.999z M190,57.999c-3.313,0-6,2.687-6,6s2.687,6,6,6s6-2.687,6-6S193.313,57.999,190,57.999z M16,81.999c0,3.313-2.687,6-6,6s-6-2.687-6-6s2.687-6,6-6S16,78.686,16,81.999z M28,75.999c-3.313,0-6,2.687-6,6s2.687,6,6,6s6-2.687,6-6S31.313,75.999,28,75.999z M46,75.999c-3.313,0-6,2.687-6,6s2.687,6,6,6s6-2.687,6-6S49.313,75.999,46,75.999z M64,75.999c-3.313,0-6,2.687-6,6s2.687,6,6,6s6-2.687,6-6S67.313,75.999,64,75.999z M82,75.999c-3.313,0-6,2.687-6,6s2.687,6,6,6s6-2.687,6-6S85.313,75.999,82,75.999z M100,75.999c-3.313,0-6,2.687-6,6s2.687,6,6,6s6-2.687,6-6S103.313,75.999,100,75.999z M118,75.999c-3.313,0-6,2.687-6,6s2.687,6,6,6s6-2.687,6-6S121.313,75.999,118,75.999z M136,75.999c-3.313,0-6,2.687-6,6s2.687,6,6,6s6-2.687,6-6S139.313,75.999,136,75.999z M154,75.999c-3.313,0-6,2.687-6,6s2.687,6,6,6s6-2.687,6-6S157.313,75.999,154,75.999z M172,75.999c-3.313,0-6,2.687-6,6s2.687,6,6,6s6-2.687,6-6S175.313,75.999,172,75.999z M190,75.999c-3.313,0-6,2.687-6,6s2.687,6,6,6s6-2.687,6-6S193.313,75.999,190,75.999z M16,99.999c0,3.313-2.687,6-6,6s-6-2.687-6-6s2.687-6,6-6S16,96.686,16,99.999z M28,93.999c-3.313,0-6,2.687-6,6s2.687,6,6,6s6-2.687,6-6S31.313,93.999,28,93.999z M46,93.999c-3.313,0-6,2.687-6,6s2.687,6,6,6s6-2.687,6-6S49.313,93.999,46,93.999z M64,93.999c-3.313,0-6,2.687-6,6s2.687,6,6,6s6-2.687,6-6S67.313,93.999,64,93.999z M82,93.999c-3.313,0-6,2.687-6,6s2.687,6,6,6s6-2.687,6-6S85.313,93.999,82,93.999z M100,93.999c-3.313,0-6,2.687-6,6s2.687,6,6,6s6-2.687,6-6S103.313,93.999,100,93.999z M118,93.999c-3.313,0-6,2.687-6,6s2.687,6,6,6s6-2.687,6-6S121.313,93.999,118,93.999z M136,93.999c-3.313,0-6,2.687-6,6s2.687,6,6,6s6-2.687,6-6S139.313,93.999,136,93.999z M154,93.999c-3.313,0-6,2.687-6,6s2.687,6,6,6s6-2.687,6-6S157.313,93.999,154,93.999z M172,93.999c-3.313,0-6,2.687-6,6s2.687,6,6,6s6-2.687,6-6S175.313,93.999,172,93.999z M190,93.999c-3.313,0-6,2.687-6,6s2.687,6,6,6s6-2.687,6-6S193.313,93.999,190,93.999z M16,171.999c0,3.313-2.687,6-6,6s-6-2.687-6-6s2.687-6,6-6S16,168.686,16,171.999z M28,165.999c-3.313,0-6,2.687-6,6s2.687,6,6,6s6-2.687,6-6S31.313,165.999,28,165.999z M46,165.999c-3.313,0-6,2.687-6,6s2.687,6,6,6s6-2.687,6-6S49.313,165.999,46,165.999z M64,165.999c-3.313,0-6,2.687-6,6s2.687,6,6,6s6-2.687,6-6S67.313,165.999,64,165.999z M82,165.999c-3.313,0-6,2.687-6,6s2.687,6,6,6s6-2.687,6-6S85.313,165.999,82,165.999z M100,165.999c-3.313,0-6,2.687-6,6s2.687,6,6,6s6-2.687,6-6S103.313,165.999,100,165.999z M118,165.999c-3.313,0-6,2.687-6,6s2.687,6,6,6s6-2.687,6-6S121.313,165.999,118,165.999z M136,165.999c-3.313,0-6,2.687-6,6s2.687,6,6,6s6-2.687,6-6S139.313,165.999,136,165.999z M154,165.999c-3.313,0-6,2.687-6,6s2.687,6,6,6s6-2.687,6-6S157.313,165.999,154,165.999z M172,165.999c-3.313,0-6,2.687-6,6s2.687,6,6,6s6-2.687,6-6S175.313,165.999,172,165.999z M190,165.999c-3.313,0-6,2.687-6,6s2.687,6,6,6s6-2.687,6-6S193.313,165.999,190,165.999z M16,189.999c0,3.313-2.687,6-6,6s-6-2.687-6-6s2.687-6,6-6S16,186.686,16,189.999z M28,183.999c-3.313,0-6,2.687-6,6s2.687,6,6,6s6-2.687,6-6S31.313,183.999,28,183.999z M46,183.999c-3.313,0-6,2.687-6,6s2.687,6,6,6s6-2.687,6-6S49.313,183.999,46,183.999z M64,183.999c-3.313,0-6,2.687-6,6s2.687,6,6,6s6-2.687,6-6S67.313,183.999,64,183.999z M82,183.999c-3.313,0-6,2.687-6,6s2.687,6,6,6s6-2.687,6-6S85.313,183.999,82,183.999z M100,183.999c-3.313,0-6,2.687-6,6s2.687,6,6,6s6-2.687,6-6S103.313,183.999,100,183.999z M118,183.999c-3.313,0-6,2.687-6,6s2.687,6,6,6s6-2.687,6-6S121.313,183.999,118,183.999z M136,183.999c-3.313,0-6,2.687-6,6s2.687,6,6,6s6-2.687,6-6S139.313,183.999,136,183.999z M154,183.999c-3.313,0-6,2.687-6,6s2.687,6,6,6s6-2.687,6-6S157.313,183.999,154,183.999z M172,183.999c-3.313,0-6,2.687-6,6s2.687,6,6,6s6-2.687,6-6S175.313,183.999,172,183.999z M190,183.999c-3.313,0-6,2.687-6,6s2.687,6,6,6s6-2.687,6-6S193.313,183.999,190,183.999z M16,117.999c0,3.313-2.687,6-6,6s-6-2.687-6-6s2.687-6,6-6S16,114.686,16,117.999z M28,111.999c-3.313,0-6,2.687-6,6s2.687,6,6,6s6-2.687,6-6S31.313,111.999,28,111.999z M46,111.999c-3.313,0-6,2.687-6,6s2.687,6,6,6s6-2.687,6-6S49.313,111.999,46,111.999z M64,111.999c-3.313,0-6,2.687-6,6s2.687,6,6,6s6-2.687,6-6S67.313,111.999,64,111.999z M82,111.999c-3.313,0-6,2.687-6,6s2.687,6,6,6s6-2.687,6-6S85.313,111.999,82,111.999z M100,111.999c-3.313,0-6,2.687-6,6s2.687,6,6,6s6-2.687,6-6S103.313,111.999,100,111.999z M118,111.999c-3.313,0-6,2.687-6,6s2.687,6,6,6s6-2.687,6-6S121.313,111.999,118,111.999z M136,111.999c-3.313,0-6,2.687-6,6s2.687,6,6,6s6-2.687,6-6S139.313,111.999,136,111.999z M154,111.999c-3.313,0-6,2.687-6,6s2.687,6,6,6s6-2.687,6-6S157.313,111.999,154,111.999z M172,111.999c-3.313,0-6,2.687-6,6s2.687,6,6,6s6-2.687,6-6S175.313,111.999,172,111.999z M190,111.999c-3.313,0-6,2.687-6,6s2.687,6,6,6s6-2.687,6-6S193.313,111.999,190,111.999z M16,135.999c0,3.313-2.687,6-6,6s-6-2.687-6-6s2.687-6,6-6S16,132.686,16,135.999z M28,129.999c-3.313,0-6,2.687-6,6s2.687,6,6,6s6-2.687,6-6S31.313,129.999,28,129.999z M46,129.999c-3.313,0-6,2.687-6,6s2.687,6,6,6s6-2.687,6-6S49.313,129.999,46,129.999z M64,129.999c-3.313,0-6,2.687-6,6s2.687,6,6,6s6-2.687,6-6S67.313,129.999,64,129.999z M82,129.999c-3.313,0-6,2.687-6,6s2.687,6,6,6s6-2.687,6-6S85.313,129.999,82,129.999z M100,129.999c-3.313,0-6,2.687-6,6s2.687,6,6,6s6-2.687,6-6S103.313,129.999,100,129.999z M118,129.999c-3.313,0-6,2.687-6,6s2.687,6,6,6s6-2.687,6-6S121.313,129.999,118,129.999z M136,129.999c-3.313,0-6,2.687-6,6s2.687,6,6,6s6-2.687,6-6S139.313,129.999,136,129.999z M154,129.999c-3.313,0-6,2.687-6,6s2.687,6,6,6s6-2.687,6-6S157.313,129.999,154,129.999z M172,129.999c-3.313,0-6,2.687-6,6s2.687,6,6,6s6-2.687,6-6S175.313,129.999,172,129.999z M190,129.999c-3.313,0-6,2.687-6,6s2.687,6,6,6s6-2.687,6-6S193.313,129.999,190,129.999z M16,153.999c0,3.313-2.687,6-6,6s-6-2.687-6-6s2.687-6,6-6S16,150.686,16,153.999z M28,147.999c-3.313,0-6,2.687-6,6s2.687,6,6,6s6-2.687,6-6S31.313,147.999,28,147.999z M46,147.999c-3.313,0-6,2.687-6,6s2.687,6,6,6s6-2.687,6-6S49.313,147.999,46,147.999z M64,147.999c-3.313,0-6,2.687-6,6s2.687,6,6,6s6-2.687,6-6S67.313,147.999,64,147.999z M82,147.999c-3.313,0-6,2.687-6,6s2.687,6,6,6s6-2.687,6-6S85.313,147.999,82,147.999z M100,147.999c-3.313,0-6,2.687-6,6s2.687,6,6,6s6-2.687,6-6S103.313,147.999,100,147.999z M118,147.999c-3.313,0-6,2.687-6,6s2.687,6,6,6s6-2.687,6-6S121.313,147.999,118,147.999z M136,147.999c-3.313,0-6,2.687-6,6s2.687,6,6,6s6-2.687,6-6S139.313,147.999,136,147.999z M154,147.999c-3.313,0-6,2.687-6,6s2.687,6,6,6s6-2.687,6-6S157.313,147.999,154,147.999z M172,147.999c-3.313,0-6,2.687-6,6s2.687,6,6,6s6-2.687,6-6S175.313,147.999,172,147.999z M190,147.999c-3.313,0-6,2.687-6,6s2.687,6,6,6s6-2.687,6-6S193.313,147.999,190,147.999z" fill="#ddd1ab" stroke-width="none" opacity="1" stroke="none"></path></g><g id="svga-group-subwrapper" ><g id="svga-group-hair-back" ><path id="SvgjsPath81493" d="M100.5,100.5h-1v-1h1V100.5z" fill="#b7513b" stroke-width="none" opacity="1" stroke="none"></path></g><g id="svga-group-humanbody-single"><path id="SvgjsPath81333" d="M195.417 199.778c-2.196-4.746-8.195-11.779-14.86-13.722 -8.239-2.403-26.837-5.308-33.733-6.923 -5.528-1.296-16.662-11.294-20.564-14.65 -0.7-0.6-1.273-1.839-1.287-2.76 -0.139-10.864 4.195-39.724 4.195-39.724H100 70.833c0 0 4.334 28.859 4.193 39.724 -0.011 0.921-0.587 2.16-1.285 2.76 -3.902 3.356-15.036 13.354-20.564 14.65 -6.897 1.615-25.495 4.619-33.733 7.022 -6.667 1.942-12.664 8.876-14.86 13.622 -3.708 8.008-4.584 22.5-4.584 35h100 100C200 222.278 199.123 207.786 195.417 199.778z" fill="#f2aa92" stroke-width="none" opacity="1" stroke="none"></path><path id="SvgjsPath81334" d="M159.156 184.058c24.342 3.542 34.586 8.708 37.794 50.721H200c0-12.5-0.877-26.992-4.583-35 -2.196-4.746-8.195-11.779-14.86-13.722 -8.239-2.403-26.837-5.308-33.733-6.923 -5.528-1.296-18.242-12.069-21.643-16.35 3.36 4.704 12.791 15.605 21.054 18.46C150.188 182.61 153.48 183.232 159.156 184.058zM53.766 181.244c8.263-2.854 17.693-13.756 21.054-18.46 -3.4 4.28-16.114 15.054-21.643 16.35 -6.896 1.615-25.494 4.619-33.733 7.022 -6.665 1.942-12.664 8.876-14.86 13.622 -3.706 8.008-4.583 22.5-4.583 35h3.05c3.188-41.744 13.475-47.183 37.794-50.721C46.52 183.232 49.813 182.61 53.766 181.244z" fill="#ffc6b3" stroke-width="none" opacity="1" stroke="none"></path><path id="SvgjsPath81335" d="M95.646 197.62c0 0-5.074-1.609-7.083-2.379 -10.449-4.009-44.395-6.607-44.395-6.607s35.754 1.419 43.644 2.779c-0.458-4.767-3.017-20.004-3.017-20.004s5.149 16.815 6.409 21.057C91.878 194.734 95.646 197.62 95.646 197.62zM106.445 196.278c-0.089 0.073-0.191 0.168-0.302 0.268C106.256 196.461 106.358 196.372 106.445 196.278zM95.646 197.62c0 0 2.893 2.992 4.347 3.03 1.91 0.051 4.828-2.899 6.151-4.104 -1.265 0.957-4.159 1.391-5.31 1.436C99.504 198.033 95.646 197.62 95.646 197.62zM116.664 190.101c-1.545 0.248-4.386 0.789-4.386 0.789l2.287-14.89c-0.646 3.071-4.474 16.211-8.12 20.278 1.91-1.616 6.158-2.391 8.324-2.704 10.236-1.484 10.232-1.483 41.062-4.94C155.831 188.634 126.76 188.479 116.664 190.101z" fill="#e38e72" stroke-width="none" opacity="1" stroke="none"></path><path id="SvgjsPath81336" d="M195.417 199.778c-2.196-4.746-8.195-11.779-14.86-13.722 -8.239-2.403-26.837-5.308-33.733-6.923 -5.528-1.296-16.662-11.294-20.564-14.65 -0.7-0.6-1.273-1.839-1.287-2.76 -0.139-10.864 4.195-39.724 4.195-39.724H100 70.833c0 0 4.334 28.859 4.193 39.724 -0.011 0.921-0.587 2.16-1.285 2.76 -3.902 3.356-15.036 13.354-20.564 14.65 -6.897 1.615-25.495 4.619-33.733 7.022 -6.667 1.942-12.664 8.876-14.86 13.622 -3.708 8.008-4.584 22.5-4.584 35h100 100C200 222.278 199.123 207.786 195.417 199.778z" fill="none" stroke="#c45e3b" stroke-width="1.5" opacity="1"></path></g><g id="svga-group-chinshadow-single"><path id="SvgjsPath81641" d="M75.464 163.188c5.276 4.256 10.716 8.678 24.538 8.678 13.815 0 19.256-4.418 24.531-8.672 -0.188-0.49-0.305-0.997-0.312-1.461 -0.088-6.889 1.573-20.711 2.835-30.131 -15.695-2.201-38.418-2.201-54.113 0 1.261 9.421 2.922 23.242 2.833 30.13C75.771 162.188 75.654 162.695 75.464 163.188z" fill="url(#SvgjsLinearGradient81642)" opacity="1"></path></g><g id="svga-group-clothes-single" ><path id="SvgjsPath81626" d="M-4.807 234.6c1.472-10.806-0.208-11.777 4.116-33.015 1.228-7.384 2.66-13.32 8.141-10.607 4.045-6.008 15.513-6.566 57.339-20.658v-0.258c0.278-1.001 2.706-4.267 3.099-9.897 0.383-5.449 2.718-9.56 5.614-11.604 -6.746 23.685 23.144 14.953 24.208 31.108 0.084 1.273-0.974 10.149-0.813 10.969 3.355-0.679 6.721-0.684 10.359-0.645 -3.928-15.24-0.545-16.872 7.344-19.838 9.564-3.591 12.873-7.169 12.01-20.697 4.57 4.109 1.516 9.7 7.174 17.534 36.249 13.159 50.02 16.863 56.963 21.507 5.981-4.517 9.697 2.65 17.292 46.103C136.218 235.212 54.269 235.12-4.807 234.6z" fill="#1e78a2" stroke-width="none" opacity="1" stroke="none"></path><path id="SvgjsPath81627" d="M92.119 197.235c0.304-0.029 3.375-5.505 3.375-5.505 5.764-2.145 18.375 2.005 34.019-10.176C117.994 199.61 97.143 186.737 92.119 197.235zM70.115 179.378c8.754 10.018 23.629 13.732 26.773 10.686C96.885 190.135 79.619 189.396 70.115 179.378z" fill="#0c6893" stroke-width="none" opacity="1" stroke="none"></path><path id="SvgjsPath81628" d="M73.607 149.423c0 0 0.705 6.944 0.82 11.739C72.326 156.482 71.897 155.232 73.607 149.423z" fill="#005a83" stroke-width="none" opacity="1" stroke="none"></path><path id="SvgjsPath81629" d="M4.781 194.15C0 207.902-0.398 222.744-3.298 234.612c-0.693-0.006-0.823 0.293-1.509 0.287 1.472-10.806-0.208-12.355 4.116-33.593 1.228-7.384 2.66-13.32 8.141-10.607 4.045-6.008 15.513-6.566 57.339-20.658v-0.258c0.278-1.001 2.706-4.267 3.099-9.897 0.345-4.904 2.622-9.431 5.25-11.325 -5.936 6.453-1.918 18.345-8.092 22.976C53.103 178.967 18.588 187.846 4.781 194.15zM190.747 188.499c-6.943-4.644-20.714-8.348-56.963-21.507 -5.658-7.834-2.604-13.425-7.174-17.534 0.063 1.001-0.018 0.613 0 1.51 2.161-0.43 2.695 15.819 7.443 18.193 19 9 45.261 17.317 59.521 22.632 6.636 10.021 8.157 26.964 13.401 42.817 1.067-0.009 0 0 1.063-0.009C200.444 191.149 196.729 183.982 190.747 188.499zM125.992 162.465c-7.33 12.798-21.646 4.662-20.242 19.81C108.488 167.635 121.171 175.921 125.992 162.465zM97.372 184.295c2.628-16.491-15.517-13.785-23.633-23.296C78.812 171.409 95.553 168.227 97.372 184.295z" fill="#3389b1" stroke-width="none" opacity="1" stroke="none"></path><path id="SvgjsPath81630" d="M196.139 187.915c-1.581-1.609-3.779-1.259-5.409-0.029 -7.133-4.756-26.235-9.496-56.63-21.609 0 0-2.289-2.963-3.469-8.017 -0.783-3.353-0.308-7.087-4.192-9.838 -0.749 9.286-0.411 16.736-9.51 20.304 -8.959 3.582-14.71 3.744-10.319 20.76 -2.301-0.026-6.457-0.018-9.318 0.563 -0.058-0.295 1.027-8.769 0.918-10.412 -1.014-15.376-28.515-9.625-24.93-27.551 0.33-1.649 0.454-2.542 0.187-3.81 -3.67 1.92-5.337 6.074-5.847 9.51 -0.556 3.889 0.319 4.852-3.32 12.13 0 0.011-0.01 0.021-0.01 0.03 -0.17 0.05-0.35 0.11-0.53 0.17 -41.434 13.791-52.827 14.785-56.48 20.22 -5.931-2.941-7.458 5.121-8.46 11.15 -4.398 21.597-2.602 22.344-4.2 33.61 1 0 109.661 0.96 212.96 0.01 0.36 0 0.71-0.01 1.06-0.01C208.319 233.75 202.222 193.853 196.139 187.915zM117.52 170.155c9.877-4.015 9.506-9.654 9.367-19.766 3.437 1.52 0.914 8.914 6.792 16.516 0 4.854-1.267 9.955-4.229 13.46 -5.51 6.101-14.719 9.317-22.23 9.13C104.685 173.337 107.914 174.091 117.52 170.155zM68.349 159.005c0.062-2.714 2.16-8.263 4.9-10.1 -8.723 23.076 22.427 15.489 23.73 31.92 0.027 0.457-0.38 8.333-0.39 8.84 -16.104-1.896-23.674-5.555-31.64-19.189 0.02-0.04 0.04-0.08 0.06-0.12 0.01 0.01 0.01 0 0.01 0C67.547 165.299 68.017 164.151 68.349 159.005zM-4.591 234.455c1.436-5.179 1.375-14.908 4.04-28.63 1.58-7.847 1.629-17.345 7.48-15.03 0.02 0 0.03 0.011 0.04 0.011 3.516 8.49 11.016 31.499 11.33 32.5 0.155 0.456 2.074 8.248 2.56 9.89 -2.124-16.99-11.493-39.731-12.99-42.14 4.051-4.15 3.094-2.325 35.92-12.7 7.099-2.245 19.409-7.106 20.27-7.601 9.185 19.855 28.548 19.105 32.33 19.521 -11.02 3.397-4.729 31.249-3.77 40.96 -0.163-7.896-3.465-29.31 1.25-36.84 0 0 0.648-1.301 3.14-2.38 6.946-2.627 15.325 2.951 29.95-7.34 4.758-4.518 7.13-7.39 7.13-17.53 24.029 11.337 46.962 16.747 56.11 21.7 -0.013 0.081-0.05 0.414-0.05 0.42 -1.544 13.248 1.243-1.169-4.4 28.689 -1.47 8.541-0.406 5.667-1.13 13.28 1.481-7.851-0.067-3.756 2.12-13.12 4.586-19.338 3.858-22.946 4.16-29.39 3.326-2.396 5.107 0.213 6.399 3.96 4.836 14.695 7.982 34.133 10.09 41.76C141.558 233.843 61.242 233.874-4.591 234.455zM107.847 202.681c-3.239 1.259-7.306 0.944-10.905 0.433C103.167 202.238 107.208 202.645 107.847 202.681z" fill="#004f74" stroke-width="none" opacity="1" stroke="none"></path></g><g id="svga-group-head" ><g id="svga-group-ears-left" ><path id="SvgjsPath81621" d="M47.69 83.08c-1.588-2.376-8.025-7.833-11.703-6.994 -4.355 0.993-5.708 4.372-5.603 6.475 0.606 12.025 4.426 12.016 6.71 16.64 1.709 3.459 3.126 5.044 4.172 11.958 0.598 3.953 4.427 6.984 7.217 6.835 3.908-0.21 6.994-3.716 8.291-7.173C59.463 103.643 51.823 89.265 47.69 83.08z" fill="#f2aa92" stroke="#c45e3b" stroke-width="1.5" opacity="1"></path><path id="SvgjsPath81622" d="M43.274 100.336c-0.15-0.554-0.062-1.507 0.024-2.43 0.077-0.84 1.438-3.888 1.348-4.44 -0.344-2.068-1.931-5.94-2.949-8.031 -1.169-2.403-3.604-5.409-5.79-6.078 -0.904-0.278-3.479 0.04-3.781 0.639 -1.131 2.241-0.615 4.411 1.1 10.21 0.85 2.873 3.915 6.207 3.998 6.54 1.067 4.343 5.099 11.284 6.488 12.839 0.256 0.288 0.519 0.452 0.579 0.376 0.059-0.077-0.104-0.368-0.361-0.656 -1.372-1.547-5.367-8.471-6.396-12.662 -1.092-4.446 2.313-11.346 2.93-12.8 0.379 0.642 0.703 1.261 0.954 1.777 0.198 0.406 0.417 0.881 0.645 1.396 -0.367 0.76-4.245 6.367-3.026 10.606 0.451 1.563 2.054 4.592 3.432 6.187 0.483 0.559 0.893 0.717 1.19 1.234 0.341 0.599 0.732 1.279 1.792 1.726 0.215 0.091 0.408 0.121 0.577 0.111 0.293-0.02 0.51-0.161 0.667-0.326 0.029 0.271 0.044 0.617 0.051 0.94 0.007 0.413 0.073 0.752 0.162 0.755s0.168-0.333 0.161-0.746c-0.009-0.509-0.04-1.14-0.132-1.437 -0.273-0.873-1.028-1.832-1.829-2.844C44.319 102.226 43.505 101.193 43.274 100.336zM36.96 94.639c-2.347-6.779-1.518-13.668-1.103-14.643 1.345 0 3.778 2.495 4.397 3.498C39.874 84.351 36.837 89.99 36.96 94.639zM45.559 106.414c-0.961-0.403-1.303-1.001-1.635-1.58 -0.299-0.524-1.018-1.022-1.346-1.378 -0.191-0.209-0.531-0.767-0.715-0.892 -1.762-7.606 1.345-10.382 1.967-10.964 0.231 0.729 0.411 1.399 0.5 1.939 0.082 0.496-1.28 3.552-1.352 4.327 -0.089 0.961-0.182 1.954-0.012 2.583 0.253 0.938 1.093 2 1.904 3.028 0.72 0.912 1.459 1.852 1.732 2.639C46.509 106.282 46.204 106.686 45.559 106.414z" fill="#c45e3b" stroke-width="none" opacity="1"></path></g><g id="svga-group-ears-right" ><path id="SvgjsPath81623" d="M152.049 83.08c1.588-2.376 8.025-7.833 11.701-6.994 4.357 0.993 5.709 4.372 5.604 6.475 -0.605 12.025-4.426 12.016-6.709 16.64 -1.711 3.459-3.127 5.044-4.174 11.958 -0.598 3.953-4.428 6.984-7.217 6.835 -3.908-0.21-6.994-3.716-8.291-7.173C140.275 103.643 147.916 89.265 152.049 83.08z" fill="#f2aa92" stroke="#c45e3b" stroke-width="1.5" opacity="1"></path><path id="SvgjsPath81624" d="M154.633 103.222c-0.801 1.013-1.557 1.972-1.83 2.844 -0.092 0.297-0.123 0.928-0.131 1.437 -0.008 0.413 0.072 0.749 0.16 0.746 0.09-0.003 0.154-0.342 0.162-0.755 0.008-0.323 0.021-0.67 0.051-0.94 0.156 0.165 0.373 0.307 0.666 0.326 0.17 0.01 0.361-0.021 0.578-0.111 1.061-0.446 1.449-1.126 1.791-1.726 0.297-0.517 0.709-0.675 1.191-1.234 1.377-1.594 2.98-4.624 3.432-6.187 1.219-4.239-2.66-9.846-3.027-10.606 0.229-0.515 0.447-0.989 0.645-1.396 0.252-0.516 0.576-1.136 0.955-1.777 0.617 1.454 4.021 8.354 2.93 12.8 -1.029 4.191-5.025 11.115-6.396 12.662 -0.256 0.288-0.42 0.579-0.361 0.656 0.061 0.076 0.322-0.088 0.578-0.376 1.391-1.556 5.422-8.496 6.49-12.839 0.082-0.333 3.146-3.667 3.996-6.54 1.715-5.799 2.232-7.969 1.102-10.21 -0.303-0.599-2.877-0.917-3.783-0.639 -2.186 0.669-4.619 3.675-5.789 6.078 -1.018 2.09-2.605 5.963-2.949 8.031 -0.09 0.552 1.271 3.6 1.348 4.44 0.086 0.922 0.176 1.875 0.025 2.43C156.232 101.193 155.42 102.226 154.633 103.222zM159.484 83.494c0.619-1.003 3.053-3.498 4.396-3.498 0.416 0.975 1.244 7.864-1.104 14.643C162.902 89.99 159.863 84.351 159.484 83.494zM153.137 106.116c0.273-0.788 1.012-1.728 1.732-2.639 0.811-1.028 1.65-2.09 1.904-3.028 0.168-0.629 0.076-1.623-0.014-2.583 -0.07-0.775-1.434-3.831-1.352-4.327 0.09-0.54 0.27-1.21 0.5-1.939 0.623 0.582 3.729 3.358 1.967 10.964 -0.184 0.125-0.523 0.683-0.715 0.892 -0.328 0.356-1.047 0.854-1.346 1.378 -0.332 0.579-0.674 1.177-1.635 1.58C153.533 106.686 153.23 106.282 153.137 106.116z" fill="#c45e3b" stroke-width="none" opacity="1"></path></g><g id="svga-group-faceshape-wrap" ><g id="svga-group-faceshape-single" ><path id="SvgjsPath81638" d="M100.002 0.867C66.384 0.92 39.082 28.536 39.134 62.56c0.008 5.403 0.704 10.643 2.002 15.634h0.001c0.012 0.054 11.542 38.591 14.02 51.25 1.382 7.06 9.063 15.656 16.531 20.849 6.967 4.845 11.263 11.574 28.313 11.574s21.346-6.729 28.313-11.574c7.468-5.192 15.149-13.789 16.531-20.849 2.479-12.658 14.009-51.196 14.02-51.25h0.002c1.298-4.992 1.994-10.231 2.002-15.634C160.923 28.536 133.62 0.92 100.002 0.867z" fill="#f2aa92" stroke-width="none" opacity="1"></path><path id="SvgjsPath81639" d="M146.772 23.096c7.478 10.35 11.917 23.245 11.898 37.227 -0.009 5.403-0.679 10.643-1.93 15.634h-0.002c-0.011 0.054-11.124 38.591-13.512 51.25 -1.335 7.06-8.737 15.656-15.935 20.849 -6.718 4.845-10.854 11.575-27.291 11.575 -16.434 0-20.575-6.73-27.291-11.575 -7.197-5.192-14.602-13.789-15.931-20.849 -2.391-12.658-13.504-51.195-13.515-51.25h0c-1.252-4.992-1.922-10.231-1.931-15.634 -0.021-13.978 4.416-26.868 11.889-37.217 -8.812 10.697-14.112 24.45-14.089 39.453 0.008 5.403 0.704 10.643 2.002 15.634h0.001c0.012 0.054 11.542 38.591 14.02 51.25 1.382 7.06 9.063 15.656 16.531 20.849 6.967 4.845 11.263 11.574 28.313 11.574s21.346-6.729 28.313-11.574c7.468-5.192 15.149-13.789 16.531-20.849 2.479-12.658 14.009-51.196 14.02-51.25h0.002c1.298-4.992 1.994-10.231 2.002-15.634C160.894 47.552 155.589 33.795 146.772 23.096z" fill="#ea9c82" stroke-width="none" opacity="1"></path><path id="SvgjsPath81640" d="M100.002 0.867C66.384 0.92 39.082 28.536 39.134 62.56c0.008 5.403 0.704 10.643 2.002 15.634h0.001c0.012 0.054 11.542 38.591 14.02 51.25 1.382 7.06 9.063 15.656 16.531 20.849 6.967 4.845 11.263 11.574 28.313 11.574s21.346-6.729 28.313-11.574c7.468-5.192 15.149-13.789 16.531-20.849 2.479-12.658 14.009-51.196 14.02-51.25h0.002c1.298-4.992 1.994-10.231 2.002-15.634C160.923 28.536 133.62 0.92 100.002 0.867z" fill="none" stroke="#c45e3b" stroke-width="1.5" opacity="1"></path></g></g><g id="svga-group-mouth-single" ><path id="SvgjsPath81611" d="M99.999 139.499c-5.771 0-7.125-2.385-7.125-2.385h14.253C107.127 137.114 105.074 139.499 99.999 139.499z" fill="url(#SvgjsLinearGradient81612)" opacity="1"></path><path id="SvgjsPath81615" d="M82.714 133.245c3.826-0.701 8.662-2.674 11.707-2.744 1.573-0.038 3.262 0.642 4.961 0.859 1.18 0.153 4.529-0.853 5.732-0.859 3.155-0.018 8.781 2.043 12.174 2.744 0.185 0.043 0 0 0 0s-7.021 4.444-17.287 4.444C88.381 137.689 82.714 133.245 82.714 133.245S82.525 133.283 82.714 133.245z" fill="#da7c87" stroke-width="none" opacity="1" stroke="none"></path><path id="SvgjsPath81616" d="M117.761 133.204c-0.258-0.056-0.84-0.021-1.045-0.016 -0.422 0.013-0.756-0.085-1.682-0.094 -1.033-0.009-5.48-0.199-6.948-0.25 -2.954-0.106-5.31 0.49-8.118 0.49 -2.811 0-5.368-0.653-8.323-0.548 -1.466 0.056-5.709 0.293-6.743 0.308 -0.921 0.013-1.282 0.098-1.709 0.089 -0.199-0.007-0.827-0.037-1.072 0.034 -0.203 0.064-0.124 0.414 0.04 0.505 0.395 0.22 1.938-0.171 2.719-0.161 1.078 0.011 5.335-0.037 6.826-0.09 2.888-0.104 5.464 0.606 8.262 0.606 2.801 0 5.173-0.657 8.063-0.553 1.485 0.053 5.941 0.044 7.021 0.036 0.783-0.01 2.45 0.33 2.849 0.161C118.091 133.641 117.989 133.254 117.761 133.204z" fill="#ac2e3d" stroke-width="none" opacity="1" stroke="none"></path><path id="SvgjsPath81617" d="M87.409 134.113c1.815-0.054 3.684-0.205 5.5-0.162 2.239 0.052 4.365 0.521 6.604 0.6 2.417 0.085 4.659-0.36 7.028-0.515 1.975-0.123 4.068 0.044 6.05 0.084C103.299 137.905 93.387 136.744 87.409 134.113zM106.888 132.305c1.823-0.063 3.693 0.062 5.516 0.103 -9.196-2.434-7.134-0.943-11.926-0.519 -2.092 0.186-3.736-0.851-5.776-0.851 -2.21 0.052-4.438 0.812-6.352 1.335 1.779-0.06 3.608-0.194 5.392-0.104 2.181 0.105 4.295 0.526 6.498 0.526C102.489 132.796 104.64 132.375 106.888 132.305z" fill="#e28c96" stroke-width="none" opacity="1" stroke="none"></path><path id="SvgjsPath81618" d="M87.409 134.113c1.815-0.054 3.684-0.205 5.5-0.162 2.239 0.052 4.365 0.521 6.604 0.6 2.417 0.085 4.659-0.36 7.028-0.515 1.975-0.123 4.068 0.044 6.05 0.084C103.299 137.905 93.387 136.744 87.409 134.113zM106.888 132.305c1.823-0.063 3.693 0.062 5.516 0.103 -9.196-2.434-7.134-0.943-11.926-0.519 -2.092 0.186-3.736-0.851-5.776-0.851 -2.21 0.052-4.438 0.812-6.352 1.335 1.779-0.06 3.608-0.194 5.392-0.104 2.181 0.105 4.295 0.526 6.498 0.526C102.489 132.796 104.64 132.375 106.888 132.305z" fill="#e99ca5" stroke-width="none" opacity="1" stroke="none"></path></g><g id="svga-group-eyes-left" ><g id="svga-group-eyesback-left"><path id="SvgjsPath81517" d="M86.729 84.747c0.161 0.571 0.257 1.157 0.257 1.758 0 1.481-0.523 2.881-1.44 4.135 -4.077 0.038-16.966 0.706-18.935-0.303 -2.813-1.441-5.323-7.369-5.506-8.827C71.1 75.761 78.475 76.879 86.729 84.747z" fill="url(#SvgjsRadialGradient81518)" opacity="1"></path></g><g id="svga-group-eyesiriswrapper-left" transform="translate(0.75 0.5)"><g id="svga-group-eyesiriscontrol-left" ><g id="svga-group-eyesiris-left" ><path id="SvgjsPath81575" d="M72.59 83.677l-4.437-1.012C68.056 83.095 68 83.54 68 83.999c0 0.459 0.057 0.905 0.154 1.334L74 83.999 72.59 83.677z" fill="#ea2e2e" stroke-width="none" opacity="1"></path><path id="SvgjsPath81576" d="M69.313 87.738c0.559 0.7 1.271 1.268 2.086 1.661l2.6-5.399L69.313 87.738z" fill="#f09330" stroke-width="none" opacity="1"></path><path id="SvgjsPath81577" d="M74 89.999c0.933 0 1.813-0.219 2.6-0.599L74 84 74 89.999z" fill="#64398e" stroke-width="none" opacity="1"></path><path id="SvgjsPath81578" d="M74 84l4.688 3.738c0.554-0.693 0.955-1.51 1.158-2.404L74 84z" fill="#393b97" stroke-width="none" opacity="1"></path><path id="SvgjsPath81579" d="M74 83.999l1.826-0.416 4.02-0.918c-0.203-0.894-0.604-1.711-1.158-2.404L74 83.999z" fill="#00aa4f" stroke-width="none" opacity="1"></path><path id="SvgjsPath81580" d="M76.6 78.598c-0.788-0.38-1.667-0.599-2.6-0.599v5.999L76.6 78.598z" fill="#fae636" stroke-width="none" opacity="1"></path><path id="SvgjsPath81581" d="M71.398 78.599c-0.814 0.393-1.527 0.961-2.086 1.662l4.687 3.738L71.398 78.599z" fill="#9c2d91" stroke-width="none" opacity="1"></path><path id="SvgjsPath81582" d="M74 83.999l5.846 1.334C79.943 84.904 80 84.458 80 83.999s-0.057-0.905-0.154-1.334l-4.02 0.918L74 83.999z" fill="#ea2e2e" stroke-width="none" opacity="1"></path><path id="SvgjsPath81583" d="M74 83.999L74 83.999 74 83.999l2.601 5.401c0.815-0.394 1.528-0.962 2.087-1.662L74 83.999 74 83.999z" fill="#9b328d" stroke-width="none" opacity="1"></path><path id="SvgjsPath81584" d="M74 84L74 84 74 84 74 84 74 84 74 84 74 84l-2.6 5.4c0.787 0.38 1.667 0.599 2.6 0.599h0L74 84 74 84z" fill="#fde92b" stroke-width="none" opacity="1"></path><path id="SvgjsPath81585" d="M74 84L74 84 74 84 74 84 74 84 74 84 74 84 74 84 74 84 74 84 74 84l-5.845 1.334c0.203 0.894 0.605 1.712 1.158 2.405L74 84 74 84z" fill="#00aa4f" stroke-width="none" opacity="1"></path><path id="SvgjsPath81586" d="M74 83.999L74 83.999 74 83.999 74 83.999 74 83.999 74 83.999 74 83.999v-6c-0.934 0-1.813 0.219-2.601 0.599L74 83.999 74 83.999z" fill="#65378f" stroke-width="none" opacity="1"></path><path id="SvgjsPath81587" d="M74 83.999L74 83.999 74 83.999l4.688-3.739c-0.559-0.7-1.272-1.269-2.087-1.662L74 83.999 74 83.999z" fill="#ec9236" stroke-width="none" opacity="1"></path><path id="SvgjsPath81588" d="M74 83.999L74 83.999l-4.688-3.739c-0.554 0.693-0.955 1.511-1.158 2.404l4.436 1.013L74 83.999z" fill="#393b97" stroke-width="none" opacity="1"></path><path id="SvgjsPath81589" d="M74 77.999c3.314 0 6 2.686 6 6s-2.686 6-6 6 -6-2.686-6-6S70.686 77.999 74 77.999z" fill="#000000" stroke-width="none" opacity="0.3"></path><path id="SvgjsPath81590" d="M76.333 83.999c0 1.289-1.044 2.333-2.333 2.333s-2.333-1.045-2.333-2.333 1.044-2.333 2.333-2.333S76.333 82.71 76.333 83.999z" fill="#000000" stroke-width="none" opacity="1"></path><path id="SvgjsPath81591" d="M71.769 88.072c-0.313 0.313-0.931 0.202-1.38-0.246 -0.449-0.449-0.56-1.067-0.246-1.38 0.313-0.313 0.93-0.203 1.379 0.246C71.971 87.141 72.082 87.759 71.769 88.072z" fill="#ffffff" stroke-width="none" opacity="0.6"></path><path id="SvgjsPath81592" d="M78.539 82.884c-0.468 0.469-1.602 0.094-2.533-0.836s-1.305-2.065-0.837-2.533c0.469-0.469 1.604-0.095 2.533 0.836C78.633 81.281 79.008 82.416 78.539 82.884z" fill="#ffffff" stroke-width="none" opacity="0.9"></path></g></g></g><g id="svga-group-eyesfront-left"><path id="SvgjsPath81542" d="M55.8 79.995c0 13.808 8.06 31.404 18 31.404s18-11.191 18-24.999c0-13.809-8.06-25.001-18-25.001S55.8 66.187 55.8 79.995zM61.104 81.51c9.995-5.749 17.37-4.63 25.624 3.237 0.161 0.571 0.257 1.157 0.257 1.758 0 1.481-0.523 2.881-1.44 4.135 -4.077 0.038-16.966 0.706-18.935-0.303C63.798 88.896 61.287 82.968 61.104 81.51z" fill="#f2aa92" stroke-width="none" opacity="1" stroke="none"></path><path id="SvgjsPath81543" d="M61.209 81.995c0.522 1.979 2.833 7.026 5.401 8.342 1.969 1.009 14.857 0.341 18.935 0.303 0.917-1.253 1.44-2.653 1.44-4.135 0-0.601-0.096-1.187-0.257-1.758 -8.166-7.784-15.476-8.95-25.31-3.407 1.968-5.724 8.522-9.952 16.34-9.987 9.393-0.04 17.018 5.981 17.041 13.451 0.023 7.469-7.572 13.554-16.961 13.596 -9.393 0.04-17.016-5.981-17.039-13.45C60.797 83.934 60.945 82.948 61.209 81.995z" fill="url(#SvgjsRadialGradient81544)" opacity="1"></path><path id="SvgjsPath81548" d="M66.61 90.337c-2.813-1.441-5.323-7.369-5.506-8.827 9.995-5.749 17.37-4.63 25.624 3.237 0.161 0.571 0.257 1.157 0.257 1.758 0 1.481-0.523 2.881-1.44 4.135C81.468 90.678 68.579 91.346 66.61 90.337z" fill="url(#SvgjsRadialGradient81549)" opacity="1"></path><path id="SvgjsPath81552" d="M61.138 78.389c3.414-1.34 17.798-6.314 25.648 4.274C77.8 72.562 65.582 77.218 61.138 78.389z" fill="#c45e3b" stroke-width="none" opacity="1" stroke="none"></path><path id="SvgjsPath81553" d="M58.8 80.972c1.217 2.342 6.361 10.159 7.561 10.218 10.059 0.608 16.311-0.248 20.313-0.813 -1.499-0.19-17.826 0.781-20.063-0.313 -2.813-1.375-5.323-7.031-5.506-8.423 10.251-5.626 17.743-4.379 26.256 3.659C79.06 72.701 61.853 78.441 58.8 80.972z" fill="#092e0c" stroke-width="none" opacity="1" stroke="none"></path></g></g><g id="svga-group-eyes-right" ><g id="svga-group-eyesback-right"><path id="SvgjsPath81525" d="M112.872 84.747c-0.161 0.571-0.257 1.157-0.257 1.758 0 1.481 0.523 2.881 1.44 4.135 4.077 0.038 16.966 0.706 18.935-0.303 2.813-1.441 5.323-7.369 5.506-8.827C128.501 75.761 121.126 76.879 112.872 84.747z" fill="url(#SvgjsRadialGradient81526)" opacity="1"></path></g><g id="svga-group-eyesiriswrapper-right" transform="translate(-0.75 0.5)"><g id="svga-group-eyesiriscontrol-right" ><g id="svga-group-eyesiris-right" ><path id="SvgjsPath81593" d="M124.591 83.677l-4.438-1.012c-0.098 0.43-0.153 0.875-0.153 1.334 0 0.459 0.057 0.905 0.154 1.334l5.845-1.334L124.591 83.677z" fill="#ea2e2e" stroke-width="none" opacity="1"></path><path id="SvgjsPath81594" d="M121.313 87.738c0.559 0.7 1.272 1.268 2.086 1.661L125.999 84 121.313 87.738z" fill="#f09330" stroke-width="none" opacity="1"></path><path id="SvgjsPath81595" d="M126.001 89.999c0.933 0 1.813-0.219 2.6-0.599L126 84 126.001 89.999z" fill="#64398e" stroke-width="none" opacity="1"></path><path id="SvgjsPath81596" d="M126 84l4.688 3.738c0.553-0.693 0.953-1.51 1.157-2.404L126 84z" fill="#393b97" stroke-width="none" opacity="1"></path><path id="SvgjsPath81597" d="M126 83.999l1.825-0.416 4.021-0.918c-0.204-0.894-0.604-1.711-1.157-2.404L126 83.999z" fill="#00aa4f" stroke-width="none" opacity="1"></path><path id="SvgjsPath81598" d="M128.601 78.598c-0.788-0.38-1.668-0.599-2.601-0.599v5.999L128.601 78.598z" fill="#fae636" stroke-width="none" opacity="1"></path><path id="SvgjsPath81599" d="M123.398 78.599c-0.813 0.393-1.527 0.961-2.087 1.662l4.688 3.738L123.398 78.599z" fill="#9c2d91" stroke-width="none" opacity="1"></path><path id="SvgjsPath81600" d="M126 83.999l5.846 1.334c0.098-0.43 0.154-0.875 0.154-1.334s-0.057-0.905-0.154-1.334l-4.021 0.918L126 83.999z" fill="#ea2e2e" stroke-width="none" opacity="1"></path><path id="SvgjsPath81601" d="M126 83.999L126 83.999 126 83.999l2.601 5.401c0.814-0.394 1.529-0.962 2.088-1.662L126 83.999 126 83.999z" fill="#9b328d" stroke-width="none" opacity="1"></path><path id="SvgjsPath81602" d="M126 84L126 84 126 84 126 84 126 84 126 84 126 84l-2.601 5.4c0.787 0.38 1.668 0.599 2.601 0.599h0.001L126 84 126 84z" fill="#fde92b" stroke-width="none" opacity="1"></path><path id="SvgjsPath81603" d="M125.999 84L125.999 84 125.999 84 125.999 84 125.999 84 125.999 84 125.999 84 125.999 84 125.999 84 125.999 84 125.999 84l-5.845 1.334c0.204 0.894 0.604 1.712 1.158 2.405L125.999 84 125.999 84z" fill="#00aa4f" stroke-width="none" opacity="1"></path><path id="SvgjsPath81604" d="M126 83.999L126 83.999 126 83.999 126 83.999 126 83.999 126 83.999 126 83.999v-6c-0.934 0-1.813 0.219-2.601 0.599L126 83.999 126 83.999z" fill="#65378f" stroke-width="none" opacity="1"></path><path id="SvgjsPath81605" d="M126 83.999L126 83.999 126 83.999l4.688-3.739c-0.559-0.7-1.273-1.269-2.088-1.662L126 83.999 126 83.999z" fill="#ec9236" stroke-width="none" opacity="1"></path><path id="SvgjsPath81606" d="M125.999 83.999L125.999 83.999l-4.688-3.739c-0.553 0.693-0.953 1.511-1.157 2.404l4.437 1.013L125.999 83.999z" fill="#393b97" stroke-width="none" opacity="1"></path><path id="SvgjsPath81607" d="M126 77.999c3.313 0 6 2.686 6 6s-2.687 6-6 6 -6-2.686-6-6S122.687 77.999 126 77.999z" fill="#000000" stroke-width="none" opacity="0.3"></path><path id="SvgjsPath81608" d="M128.333 83.999c0 1.289-1.044 2.333-2.333 2.333s-2.333-1.045-2.333-2.333 1.044-2.333 2.333-2.333S128.333 82.71 128.333 83.999z" fill="#000000" stroke-width="none" opacity="1"></path><path id="SvgjsPath81609" d="M123.769 88.072c-0.313 0.313-0.93 0.202-1.379-0.246 -0.449-0.449-0.561-1.067-0.246-1.38 0.313-0.313 0.93-0.203 1.379 0.246C123.971 87.141 124.081 87.759 123.769 88.072z" fill="#ffffff" stroke-width="none" opacity="0.6"></path><path id="SvgjsPath81610" d="M130.539 82.884c-0.468 0.469-1.603 0.094-2.533-0.836s-1.305-2.064-0.837-2.533c0.469-0.469 1.604-0.095 2.533 0.836C130.633 81.281 131.008 82.416 130.539 82.884z" fill="#ffffff" stroke-width="none" opacity="0.9"></path></g></g></g><g id="svga-group-eyesfront-right"><path id="SvgjsPath81563" d="M125.801 61.399c-9.94 0-18 11.193-18 25.001 0 13.808 8.06 24.999 18 24.999s18-16.226 18-30.033C143.801 67.558 135.741 61.399 125.801 61.399zM132.99 90.337c-1.969 1.009-14.857 0.341-18.935 0.303 -0.917-1.253-1.44-2.653-1.44-4.135 0-0.601 0.096-1.187 0.257-1.758 8.254-7.868 15.629-8.986 25.624-3.237C138.313 82.968 135.803 88.896 132.99 90.337z" fill="#f2aa92" stroke-width="none" opacity="1" stroke="none"></path><path id="SvgjsPath81564" d="M138.392 81.995c-0.522 1.979-2.833 7.026-5.401 8.342 -1.969 1.009-14.857 0.341-18.935 0.303 -0.917-1.253-1.44-2.653-1.44-4.135 0-0.601 0.096-1.187 0.257-1.758 8.166-7.784 15.476-8.95 25.31-3.407 -1.968-5.724-8.522-9.952-16.34-9.987 -9.393-0.04-17.018 5.981-17.041 13.451 -0.023 7.469 7.572 13.554 16.961 13.596 9.393 0.04 17.016-5.981 17.039-13.45C138.804 83.934 138.655 82.948 138.392 81.995z" fill="url(#SvgjsRadialGradient81565)" opacity="1"></path><path id="SvgjsPath81569" d="M132.99 90.337c2.813-1.441 5.323-7.369 5.506-8.827 -9.995-5.749-17.37-4.63-25.624 3.237 -0.161 0.571-0.257 1.157-0.257 1.758 0 1.481 0.523 2.881 1.44 4.135C118.133 90.678 131.021 91.346 132.99 90.337z" fill="url(#SvgjsRadialGradient81570)" opacity="1"></path><path id="SvgjsPath81573" d="M112.814 82.664c7.85-10.588 22.234-5.615 25.648-4.274C134.019 77.218 121.801 72.562 112.814 82.664z" fill="#c45e3b" stroke-width="none" opacity="1" stroke="none"></path><path id="SvgjsPath81574" d="M140.801 80.972c-1.217 2.342-6.361 10.159-7.561 10.218 -10.059 0.608-16.311-0.248-20.313-0.813 1.499-0.19 17.826 0.781 20.063-0.313 2.813-1.375 5.323-7.031 5.506-8.423 -10.251-5.626-17.743-4.379-26.256 3.659C120.541 72.701 137.748 78.441 140.801 80.972z" fill="#092e0c" stroke-width="none" opacity="1" stroke="none"></path></g></g><g id="svga-group-facehighlight-single" ><path id="SvgjsPath81325" d="M141 113.974c0.035 22.622-18.292 40.994-40.938 41.025 -22.642 0.037-41.028-18.273-41.063-40.9 -0.035-22.62 18.292-41.064 40.937-41.1C122.579 72.964 140.967 91.349 141 113.974z" fill="url(#SvgjsRadialGradient81326)" opacity="1"></path><path id="SvgjsPath81329" d="M137.5 53.999c0 20.711-16.789 37.5-37.499 37.5 -20.711 0-37.501-16.789-37.501-37.5s16.79-37.5 37.501-37.5C120.711 16.499 137.5 33.288 137.5 53.999z" fill="url(#SvgjsRadialGradient81330)" opacity="1"></path></g><g id="svga-group-eyebrows-left" ><path id="SvgjsPath81459" d="M54 74.189c9.954-9.974 16.761-5.915 30.589-3.264 0.845 0.162 6.32 1.539 5.31 3.469 -0.483 0.924-2.036 0.814-2.903 0.798C73.308 74.936 66.652 65.197 54 74.189z" fill="#2a232b" stroke-width="none" opacity="1"></path></g><g id="svga-group-eyebrows-right" ><path id="SvgjsPath81460" d="M146 74.189c-9.953-9.974-16.761-5.915-30.589-3.264 -0.846 0.162-6.32 1.539-5.311 3.469 0.483 0.924 2.036 0.814 2.903 0.798C126.691 74.936 133.348 65.197 146 74.189z" fill="#2a232b" stroke-width="none" opacity="1"></path></g><g id="svga-group-nose-single" ><path id="SvgjsPath81619" d="M98.633 89.999c0 0-1.71 11.42-2.512 14.455 -0.805 3.047-4.078 8.052-3.862 10.964 0.322 4.314 6.351 4.581 8.585 4.581l-3.713-4.472c0 0 1.735-7.615 1.916-10.528C99.237 101.924 98.633 89.999 98.633 89.999z" fill="#e38e72" stroke-width="none" opacity="1" stroke="none"></path><path id="SvgjsPath81620" d="M98 86.058c0 0 1.369 10.941-0.117 19.334 -0.477 2.694-3.909 7.452-3.38 10.135 0.377 1.904 6.342 4.472 6.342 4.472s-2.572-3.011-2.623-4.472c-0.09-2.581 1.564-7.416 1.726-9.995C100.193 101.622 98 86.058 98 86.058z" fill="#c45e3b" stroke-width="none" opacity="1" stroke="none"></path></g><g id="svga-group-beardwrap" ><g id="svga-group-beard-single" ><path id="SvgjsPath81343" d="M100,18.13L100,18.13L100,18.13L100,18.13z" fill="#2a232b" stroke-width="none" opacity="1"></path></g></g><g id="svga-group-mustache-single" ><path id="SvgjsPath81498" d="M78.2 160.83c-0.04-14.14-4.74-21.27-3.37-28.71 2.09-11.38 22.61-11.79 23.85-8.24 0.87 2.5-0.94 4.93-3.21 5.69 -4.48 1.59-13.58 1.37-14.33 6.91 -0.25 1.51 0.13 3.84 0.57 6.54C82.77 149.45 84.07 157.43 78.2 160.83zM121.8 160.83c-8.41-4.87-2.08-19.26-2.94-24.34 -0.75-5.54-9.85-5.32-14.33-6.91 -2.27-0.76-4.08-3.19-3.21-5.69 1.23-3.55 21.75-3.14 23.85 8.24C126.54 139.55 121.84 146.7 121.8 160.83z" fill="#b7513b" stroke-width="none" opacity="1" stroke="none"></path><path id="SvgjsPath81499" d="M121.9 161c-8.68-4.81-2.29-19.45-3.14-24.5 -0.3-2.26-2.05-3.54-4.29-4.39 11.73-1.49 0.96 18.23 6.28 26.47 -1.23-6.82 1.2-13.2 1.98-20 0.66-5.71 0.02-11.12-7.66-15.23 4.08 1.09 9.58 5.38 10.2 8.74C126.65 139.59 121.9 146.75 121.9 161zM120.89 137.31c0.58-6.91-6.79-9.4-13.59-9.73 -1.09-0.07-2.2-0.17-3.11-0.51 -1.83-0.61-2.54-2.25-2.54-2.25 0.02-0.01 0.1 0.38 0.44 0.93 1.43 2.42 4.46 2.51 8.22 3.01 0 0 3.31 0.38 7.1 2.66 2.53 2.05 3.08 2.19 3.41 6.89C120.82 138.32 120.85 137.94 120.89 137.31zM114.05 124.72c-0.08-0.04-2.51-0.93-2.51-0.84 -2.82-0.74-5.5-0.89-8.27-0.24 4.91-0.54 15.27 1.71 18.17 8.72C120.46 128.5 118.01 126.3 114.05 124.72zM121.1 145.03c0.78-3.6 0.83-4.17 0.83-4.17 0.48-3.09 0.07-5.2-0.22-6.72 0.11 1.76 0.19 3.08-0.36 6.63 -0.06 0-1.63 7.67-1.5 9.4 0.05 0.82-0.04 0.13 0.15 1.42C119.96 149.14 120.5 147.72 121.1 145.03zM103.49 124.65c4.5 2.57 10.51 1.75 14.75 4.69C114.35 125.68 107.75 126.38 103.49 124.65zM74.73 132.1c0.62-3.36 6.12-7.64 10.2-8.74 -7.68 4.11-8.31 9.52-7.66 15.23 0.78 6.8 3.21 13.18 1.98 20 5.32-8.24-5.45-27.96 6.28-26.47 -2.25 0.85-3.99 2.13-4.29 4.39 -0.85 5.05 5.54 19.69-3.14 24.5C78.1 146.75 73.35 139.59 74.73 132.1zM79.18 138.32c0.33-4.7 0.88-4.84 3.41-6.89 3.79-2.28 7.1-2.66 7.1-2.66 3.76-0.5 6.79-0.6 8.22-3.01 0.34-0.55 0.42-0.94 0.44-0.93 0 0-0.71 1.65-2.54 2.25 -0.91 0.34-2.02 0.44-3.11 0.51 -6.8 0.33-14.17 2.82-13.59 9.73C79.15 137.94 79.18 138.32 79.18 138.32zM78.57 132.36c2.89-7.01 13.25-9.26 18.17-8.72 -2.77-0.66-5.45-0.5-8.27 0.24 0-0.08-2.44 0.81-2.51 0.84C81.99 126.3 79.55 128.5 78.57 132.36zM80.01 151.58c0.19-1.28 0.09-0.6 0.15-1.42 0.13-1.73-1.45-9.4-1.5-9.4 -0.55-3.55-0.47-4.87-0.36-6.63 -0.3 1.52-0.7 3.63-0.22 6.72 0 0 0.05 0.57 0.83 4.17C79.5 147.72 80.04 149.14 80.01 151.58zM81.77 129.34c4.24-2.94 10.24-2.12 14.75-4.69C92.25 126.38 85.65 125.68 81.77 129.34z" fill="#a83c25" stroke-width="none" opacity="1" stroke="none"></path><path id="SvgjsPath81500" d="M125.27 132.1c-2.1-11.41-22.76-11.94-24.04-8.25 -0.9 2.58 0.99 5.05 3.27 5.82 4.46 1.59 13.53 1.38 14.26 6.83 0.85 5.05-5.54 19.69 3.14 24.5C121.9 146.75 126.65 139.59 125.27 132.1zM121.56 160.37c0 0.02 0 0.05 0.01 0.07 -3.67-2.78-4.24-5.62-2.09-19.21 0.24-1.83 2.43-8.04-4.27-10.28 -2.8-1.09-8.75-1.65-10.39-2.12 -1.83-0.49-4.49-2.71-3.24-4.87 1.94-3.36 18.53-1.19 21.7 5.68C126.67 136.97 120.51 145.69 121.56 160.37zM78.1 161c8.68-4.81 2.29-19.45 3.14-24.5 0.73-5.45 9.8-5.24 14.26-6.83 2.28-0.77 4.17-3.24 3.27-5.82 -1.28-3.69-21.94-3.16-24.04 8.25C73.35 139.59 78.1 146.75 78.1 161zM76.72 129.64c3.17-6.87 19.76-9.04 21.7-5.68 1.24 2.16-1.41 4.38-3.24 4.87 -1.64 0.47-7.59 1.03-10.39 2.12 -6.71 2.25-4.51 8.45-4.27 10.28 2.15 13.59 1.58 16.43-2.09 19.21 0.01-0.02 0.01-0.05 0.01-0.07C79.49 145.69 73.33 136.97 76.72 129.64z" fill="#891b03" stroke-width="none" opacity="1" stroke="none"></path></g><g id="svga-group-hair-front" ><path id="SvgjsPath81495" d="M57.01 18.11c-9.29 3.25-23.25 29-19.24 55.05 1.43 9.27 0.15 4.2 6.29 19.67l4.49 0.3c1.51-4.33-7.32-18.26-4.23-29.88C46.7 54.28 47.46 35.3 57.01 18.11zM155.68 63.24c3.09 11.62-5.74 25.56-4.23 29.88l4.49-0.3c6.13-15.47 4.86-10.4 6.29-19.67 4.01-26.05-9.95-51.8-19.24-55.05C152.54 35.3 153.3 54.28 155.68 63.24z" fill="#b7513b" stroke-width="none" opacity="1" stroke="none"></path><path id="SvgjsPath81496" d="M57.01 18.11c-0.91 1.47-1.71 2.96-2.42 4.45 -4.5 3.24-7.95 7.8-11.32 12.53C47.33 26.04 52.68 19.63 57.01 18.11zM38.53 63.85c0-0.01 0.01-0.02 0.01-0.03C38.43 63.98 38.44 63.96 38.53 63.85zM38.26 75c2.63-4.58 2.68-8.41 4.71-10.92 -0.54 4.46 0.81 9.25 1.01 11.92 0.25 3.33 4.14 16.26 4.58 17.12C50.06 88.8 42.2 75 44.72 63.24c1.42-6.64 3.09-15.94 4.72-25.93l-0.05-0.11c-1 0.35-8.23 5.87-10.63 14.29 3.27-5.93 9.35-13.16 10.46-14 -1.37 4.54-3.62 7.54-4.24 14.98 -2.93 2.1-5.68 7.93-7.3 12.72 0.94-1.3 1.04-5.26 7.19-12.14 -0.57 4.24-0.24 6.21-1.78 10.23C40.4 65.55 39.68 69.97 38.26 75zM156.74 35.09c-3.37-4.72-6.83-9.29-11.32-12.53 -0.71-1.49-1.51-2.98-2.42-4.45C147.32 19.63 152.67 26.04 156.74 35.09zM161.46 63.82c0 0.01 0.01 0.02 0.01 0.03C161.56 63.96 161.57 63.98 161.46 63.82zM156.92 63.27c-1.54-4.02-1.21-5.99-1.78-10.23 6.16 6.88 6.25 10.84 7.19 12.14 -1.62-4.79-4.37-10.62-7.3-12.72 -0.62-7.45-2.87-10.44-4.24-14.98 1.11 0.84 7.18 8.07 10.46 14 -2.4-8.41-9.63-13.93-10.63-14.29l-0.05 0.11c1.63 9.99 3.29 19.29 4.72 25.93 2.52 11.76-5.34 25.56-3.83 29.88 0.44-0.86 4.33-13.8 4.58-17.12 0.2-2.67 1.56-7.46 1.01-11.92 2.02 2.52 2.07 6.34 4.71 10.92C160.32 69.97 159.6 65.55 156.92 63.27z" fill="#a83c25" stroke-width="none" opacity="1" stroke="none"></path><path id="SvgjsPath81497" d="M44.06 92.83c-2.53-7.48-4.06-9.89-4.99-17.47 -2.24-20.53 1.92-31.89 1.92-31.89 2.25-7.64 8.02-22.11 16.02-25.2 -9.45 3.14-22.48 23.89-19.5 54.51C38.19 81.36 41.43 86.18 44.06 92.83zM162.49 72.79c2.98-30.63-10.05-51.38-19.5-54.51 8 3.08 13.77 17.56 16.02 25.2 0 0 4.16 11.37 1.92 31.89 -0.93 7.58-2.46 9.99-4.99 17.47C158.57 86.18 161.81 81.36 162.49 72.79z" fill="#891b03" stroke-width="none" opacity="1" stroke="none"></path></g><g id="svga-group-glasses-single" ><path id="SvgjsPath81461" d="M100,18.13L100,18.13L100,18.13L100,18.13z" fill="#26120b" stroke-width="none" opacity="1"></path></g></g></g><rect id="SvgjsRect81310" width="200" height="15" x="0" y="185" fill="#ecf0f1" opacity="0.5" style="display:none;"></rect><text id="SvgjsText81311" font-family="&quot;Roboto&quot;, &quot;Helvetica Neue&quot;, Helvetica, Arial, sans-serif" style="font-size:0.84em;font-family:&quot;Roboto&quot;, &quot;Helvetica Neue&quot;, Helvetica, Arial, sans-serif;text-anchor:middle;font-weight:400;display:none;" font-size="0.84em" text-anchor="middle" font-weight="400" fill="#000000" x="100" y="185"><tspan id="SvgjsTspan81312" dy="1.2em" x="100" style="font-size:0.84em;font-family:&quot;Roboto&quot;, &quot;Helvetica Neue&quot;, Helvetica, Arial, sans-serif;text-anchor:middle;font-weight:400;">Created on AvatarMaker.com</tspan></text></g><defs id="SvgjsDefs81275"><radialGradient id="SvgjsRadialGradient81326" cx="100" cy="114" r="41" gradientUnits="userSpaceOnUse" class="svga-on-canvas-facehighlight-gradient-single-0"><stop id="SvgjsStop81327" stop-opacity="0.5" stop-color="#ffc6b3" offset="0" ></stop><stop id="SvgjsStop81328" stop-opacity="0" stop-color="#f2aa92" offset="0.9" ></stop></radialGradient><radialGradient id="SvgjsRadialGradient81330" cx="100" cy="54" r="37" gradientUnits="userSpaceOnUse" class="svga-on-canvas-facehighlight-gradient-single-1"><stop id="SvgjsStop81331" stop-opacity="0.5" stop-color="#ffc6b3" offset="0" ></stop><stop id="SvgjsStop81332" stop-opacity="0" stop-color="#f2aa92" offset="0.9" ></stop></radialGradient><radialGradient id="SvgjsRadialGradient81415" cx="-568.659" cy="-521.042" r="59.751" gradientTransform="matrix(0.096 -0.0248 0.0245 0.0961 141.2814 119.9893)" gradientUnits="userSpaceOnUse" class="svga-on-canvas-eyesiris-gradient-left-1"><stop id="SvgjsStop81416" stop-opacity="1" stop-color="#ffffff" offset="0" ></stop><stop id="SvgjsStop81417" stop-opacity="0" stop-color="#ffffff" offset="1" ></stop></radialGradient><radialGradient id="SvgjsRadialGradient81419" cx="-582.838" cy="-519.099" r="59.745" gradientTransform="matrix(0.0991 8.856319e-004 -0.0011 0.0991 131.1134 135.9855)" gradientUnits="userSpaceOnUse" class="svga-on-canvas-eyesiris-gradient-left-2"><stop id="SvgjsStop81420" stop-opacity="1" stop-color="#ffffff" offset="0" ></stop><stop id="SvgjsStop81421" stop-opacity="0" stop-color="#ffffff" offset="1" ></stop></radialGradient><linearGradient id="SvgjsLinearGradient81425" x1="122.67" y1="88.268" x2="123.606" y2="87.152" gradientTransform="matrix(1 0 0 1 -52 0)" gradientUnits="userSpaceOnUse" class="svga-on-canvas-eyesiris-gradient-left-5"><stop id="SvgjsStop81426" stop-opacity="1" stop-color="#ffffff" offset="0" ></stop><stop id="SvgjsStop81427" stop-opacity="0" stop-color="#ffffff" offset="1" ></stop></linearGradient><linearGradient id="SvgjsLinearGradient81429" x1="127.212" y1="82.296" x2="126.463" y2="83.189" gradientTransform="matrix(1 0 0 1 -52 0)" gradientUnits="userSpaceOnUse" class="svga-on-canvas-eyesiris-gradient-left-6"><stop id="SvgjsStop81430" stop-opacity="1" stop-color="#ffffff" offset="0" ></stop><stop id="SvgjsStop81431" stop-opacity="0" stop-color="#ffffff" offset="1" ></stop></linearGradient><linearGradient id="SvgjsLinearGradient81433" x1="129.636" y1="79.822" x2="127.91" y2="81.879" gradientTransform="matrix(1 0 0 1 -52 0)" gradientUnits="userSpaceOnUse" class="svga-on-canvas-eyesiris-gradient-left-7"><stop id="SvgjsStop81434" stop-opacity="1" stop-color="#ffffff" offset="0" ></stop><stop id="SvgjsStop81435" stop-opacity="0" stop-color="#ffffff" offset="1" ></stop></linearGradient><radialGradient id="SvgjsRadialGradient81438" cx="-568.654" cy="-521.042" r="59.752" gradientTransform="matrix(0.096 -0.0248 0.0245 0.0961 193.2804 119.9894)" gradientUnits="userSpaceOnUse" class="svga-on-canvas-eyesiris-gradient-right-1"><stop id="SvgjsStop81439" stop-opacity="1" stop-color="#ffffff" offset="0" ></stop><stop id="SvgjsStop81440" stop-opacity="0" stop-color="#ffffff" offset="1" ></stop></radialGradient><radialGradient id="SvgjsRadialGradient81442" cx="-582.833" cy="-519.102" r="59.747" gradientTransform="matrix(0.0991 8.856319e-004 -0.0011 0.0991 183.1126 135.9856)" gradientUnits="userSpaceOnUse" class="svga-on-canvas-eyesiris-gradient-right-2"><stop id="SvgjsStop81443" stop-opacity="1" stop-color="#ffffff" offset="0" ></stop><stop id="SvgjsStop81444" stop-opacity="0" stop-color="#ffffff" offset="1" ></stop></radialGradient><linearGradient id="SvgjsLinearGradient81448" x1="122.67" y1="88.268" x2="123.606" y2="87.152" gradientUnits="userSpaceOnUse" class="svga-on-canvas-eyesiris-gradient-right-5"><stop id="SvgjsStop81449" stop-opacity="1" stop-color="#ffffff" offset="0" ></stop><stop id="SvgjsStop81450" stop-opacity="0" stop-color="#ffffff" offset="1" ></stop></linearGradient><linearGradient id="SvgjsLinearGradient81452" x1="127.212" y1="82.296" x2="126.463" y2="83.189" gradientUnits="userSpaceOnUse" class="svga-on-canvas-eyesiris-gradient-right-6"><stop id="SvgjsStop81453" stop-opacity="1" stop-color="#ffffff" offset="0" ></stop><stop id="SvgjsStop81454" stop-opacity="0" stop-color="#ffffff" offset="1" ></stop></linearGradient><linearGradient id="SvgjsLinearGradient81456" x1="129.636" y1="79.822" x2="127.91" y2="81.879" gradientUnits="userSpaceOnUse" class="svga-on-canvas-eyesiris-gradient-right-7"><stop id="SvgjsStop81457" stop-opacity="1" stop-color="#ffffff" offset="0" ></stop><stop id="SvgjsStop81458" stop-opacity="0" stop-color="#ffffff" offset="1" ></stop></linearGradient><radialGradient id="SvgjsRadialGradient81518" cx="126.682" cy="84.862" r="13.37" gradientTransform="matrix(-1.0172 0 0 1.0172 202.5653 -1.4692)" gradientUnits="userSpaceOnUse" class="svga-on-canvas-eyesback-gradient-left-0"><stop id="SvgjsStop81519" stop-opacity="1" stop-color="#ffffff" offset="0" ></stop><stop id="SvgjsStop81520" stop-opacity="1" stop-color="#fdfefe" offset="0.544" ></stop><stop id="SvgjsStop81521" stop-opacity="1" stop-color="#f6f8f9" offset="0.74" ></stop><stop id="SvgjsStop81522" stop-opacity="1" stop-color="#eaeff2" offset="0.879" ></stop><stop id="SvgjsStop81523" stop-opacity="1" stop-color="#d9e3e8" offset="0.992" ></stop><stop id="SvgjsStop81524" stop-opacity="1" stop-color="#d8e2e7" offset="1" ></stop></radialGradient><radialGradient id="SvgjsRadialGradient81526" cx="126.289" cy="84.862" r="13.371" gradientTransform="matrix(1.0172 0 0 1.0172 -2.5653 -1.4692)" gradientUnits="userSpaceOnUse" class="svga-on-canvas-eyesback-gradient-right-0"><stop id="SvgjsStop81527" stop-opacity="1" stop-color="#ffffff" offset="0" ></stop><stop id="SvgjsStop81528" stop-opacity="1" stop-color="#fdfefe" offset="0.544" ></stop><stop id="SvgjsStop81529" stop-opacity="1" stop-color="#f6f8f9" offset="0.74" ></stop><stop id="SvgjsStop81530" stop-opacity="1" stop-color="#eaeff2" offset="0.879" ></stop><stop id="SvgjsStop81531" stop-opacity="1" stop-color="#d9e3e8" offset="0.992" ></stop><stop id="SvgjsStop81532" stop-opacity="1" stop-color="#d8e2e7" offset="1" ></stop></radialGradient><radialGradient id="SvgjsRadialGradient81534" cx="126.682" cy="84.862" r="13.37" gradientTransform="matrix(-1.0172 0 0 1.0172 202.5653 -1.4692)" gradientUnits="userSpaceOnUse" class="svga-on-canvas-eyesfront-gradient-left-0"><stop id="SvgjsStop81535" stop-opacity="1" stop-color="#ffffff" offset="0" ></stop><stop id="SvgjsStop81536" stop-opacity="1" stop-color="#fdfefe" offset="0.544" ></stop><stop id="SvgjsStop81537" stop-opacity="1" stop-color="#f6f8f9" offset="0.74" ></stop><stop id="SvgjsStop81538" stop-opacity="1" stop-color="#eaeff2" offset="0.879" ></stop><stop id="SvgjsStop81539" stop-opacity="1" stop-color="#d9e3e8" offset="0.992" ></stop><stop id="SvgjsStop81540" stop-opacity="1" stop-color="#d8e2e7" offset="1" ></stop></radialGradient><radialGradient id="SvgjsRadialGradient81544" cx="122.115" cy="84.345" fx="133.972" fy="84.379" r="16.863" gradientTransform="matrix(0.9998 0.0208 0.0166 -0.7998 -45.6081 149.2658)" gradientUnits="userSpaceOnUse" class="svga-on-canvas-eyesfront-gradient-left-3"><stop id="SvgjsStop81545" stop-opacity="1" stop-color="#e38e72" offset="0" ></stop><stop id="SvgjsStop81546" stop-opacity="0.3" stop-color="#e38e72" offset="0.7" ></stop><stop id="SvgjsStop81547" stop-opacity="0" stop-color="#f2aa92" offset="1" ></stop></radialGradient><radialGradient id="SvgjsRadialGradient81549" cx="72.882" cy="102.392" r="22.097" gradientTransform="matrix(1.0455 -0.0545 0.0548 1.0391 -8.9534 0.4299)" gradientUnits="userSpaceOnUse" class="svga-on-canvas-eyesfront-gradient-left-4"><stop id="SvgjsStop81550" stop-opacity="0" stop-color="#000000" offset="0.95" ></stop><stop id="SvgjsStop81551" stop-opacity="0.2" stop-color="#000000" offset="1" ></stop></radialGradient><radialGradient id="SvgjsRadialGradient81555" cx="126.289" cy="84.862" r="13.371" gradientTransform="matrix(1.0172 0 0 1.0172 -2.5653 -1.4692)" gradientUnits="userSpaceOnUse" class="svga-on-canvas-eyesfront-gradient-right-0"><stop id="SvgjsStop81556" stop-opacity="1" stop-color="#ffffff" offset="0" ></stop><stop id="SvgjsStop81557" stop-opacity="1" stop-color="#fdfefe" offset="0.544" ></stop><stop id="SvgjsStop81558" stop-opacity="1" stop-color="#f6f8f9" offset="0.74" ></stop><stop id="SvgjsStop81559" stop-opacity="1" stop-color="#eaeff2" offset="0.879" ></stop><stop id="SvgjsStop81560" stop-opacity="1" stop-color="#d9e3e8" offset="0.992" ></stop><stop id="SvgjsStop81561" stop-opacity="1" stop-color="#d8e2e7" offset="1" ></stop></radialGradient><radialGradient id="SvgjsRadialGradient81565" cx="121.716" cy="84.345" fx="133.573" fy="84.379" r="16.863" gradientTransform="matrix(-0.9998 0.0208 -0.0166 -0.7998 244.8094 149.2741)" gradientUnits="userSpaceOnUse" class="svga-on-canvas-eyesfront-gradient-right-3"><stop id="SvgjsStop81566" stop-opacity="1" stop-color="#e38e72" offset="0" ></stop><stop id="SvgjsStop81567" stop-opacity="0.3" stop-color="#e38e72" offset="0.7" ></stop><stop id="SvgjsStop81568" stop-opacity="0" stop-color="#f2aa92" offset="1" ></stop></radialGradient><radialGradient id="SvgjsRadialGradient81570" cx="73.264" cy="102.408" r="22.097" gradientTransform="matrix(-1.0455 -0.0545 -0.0548 1.0391 208.9532 0.4342)" gradientUnits="userSpaceOnUse" class="svga-on-canvas-eyesfront-gradient-right-4"><stop id="SvgjsStop81571" stop-opacity="0" stop-color="#000000" offset="0.95" ></stop><stop id="SvgjsStop81572" stop-opacity="0.2" stop-color="#000000" offset="1" ></stop></radialGradient><linearGradient id="SvgjsLinearGradient81612" x1="100" y1="140" x2="100" y2="137" gradientUnits="userSpaceOnUse" class="svga-on-canvas-mouth-gradient-single-0"><stop id="SvgjsStop81613" stop-opacity="1" stop-color="#ea9c82" offset="0.1" ></stop><stop id="SvgjsStop81614" stop-opacity="1" stop-color="#e38e72" offset="1" ></stop></linearGradient><linearGradient id="SvgjsLinearGradient81642" x1="100" y1="172" x2="100" y2="130" gradientUnits="userSpaceOnUse" class="svga-on-canvas-chinshadow-gradient-single-0"><stop id="SvgjsStop81643" stop-opacity="0.8" stop-color="#e38e72" offset="0" ></stop><stop id="SvgjsStop81644" stop-opacity="1" stop-color="#c45e3b" offset="0.7" ></stop></linearGradient></defs></svg>