<?xml version="1.0" encoding="utf-8"?>
<!-- Generator: Adobe Illustrator 23.0.2, SVG Export Plug-In . SVG Version: 6.00 Build 0)  -->
<svg version="1.1" id="Layer_1" xmlns="http://www.w3.org/2000/svg" xmlns:xlink="http://www.w3.org/1999/xlink" x="0px" y="0px"
	 viewBox="0 0 925 226" enable-background="new 0 0 925 226" xml:space="preserve">
<g>
	<path d="M295.2,24.7c5.7,0,7.5,4.2,7.5,7.3v153.4c0,12.5-9.9,22.6-22.4,22.9v0.3h-11.7c-12.7,0-22.6-10.4-22.6-23.1v-3.6
		c0-6,2.6-8.8,5.2-9.9c1.3-0.8,8.3-3.9,13-6v16.4c0,5.5,4.4,9.9,9.9,9.9s9.9-4.4,9.9-9.9V24.7H295.2z"/>
	<path d="M462.1,206.7h-20.5L425.2,81.4l-16.4,125.3h-20.5l27.6-182H426c7.8,0,9.1,4.9,9.9,9.9L462.1,206.7z"/>
	<path d="M605.9,206.7h-8.6c-10.1,0-11.7-8.1-12.5-11.7l-20-90v101.7h-18.7v-182h8.6c10.4,0,12.2,4.9,13.3,10.1l19.2,94.6V24.7h18.7
		V206.7z"/>
	<path d="M761.9,185.4c0,12.5-10.1,21.8-22.4,22.1v0.3h-14.3c-12.7,0-23.1-9.6-23.1-22.4V29.9c0.3-2.9,2.6-5.2,5.5-5.2h13.3V182
		c0,5.5,4.2,9.9,9.6,9.9h2.9c5.5,0,9.9-4.4,9.9-9.9V24.7h18.7V185.4z"/>
	<path d="M897.9,70.5V49.4c0-5.7-4.4-10.1-9.9-10.1s-9.9,4.4-9.9,10.1v17.4c0,10.7,8.1,24.4,8.1,24.4l22.4,42.1
		c9.1,16.6,8.3,28.9,8.3,28.9v23.1c0,12.7-10.4,23.1-23.4,23.1h-11.7c-12.5-0.5-22.4-10.7-22.6-23.1v-18.7c0-6,2.9-8.8,5.2-10.1
		c1.6-0.5,9.1-3.9,13.8-6v31.7c0,5.5,4.4,9.9,9.9,9.9s9.9-4.4,9.9-10.1v-20.8c0-10.7-8.1-24.7-8.1-24.7l-22.4-41.9
		c-9.1-16.6-8.3-28.9-8.3-28.9V47.1c0-12.7,10.4-24.2,23.4-24.2h11.7c12.5,0.3,22.6,11.7,22.6,24.2v7c0,6-2.9,8.8-5.2,10.1
		C910.1,65,902.8,68.4,897.9,70.5z"/>
</g>
<g>
	<ellipse fill="none" stroke="#000000" stroke-width="14.6149" stroke-miterlimit="10" cx="116.1" cy="113" rx="100.8" ry="103"/>
	<g>
		<line fill="none" stroke="#000000" stroke-width="12" stroke-miterlimit="10" x1="142.8" y1="183.8" x2="190.8" y2="100.7"/>
		<line fill="none" stroke="#000000" stroke-width="12" stroke-miterlimit="10" x1="109" y1="164.3" x2="157" y2="81.2"/>
		<line fill="none" stroke="#000000" stroke-width="12" stroke-miterlimit="10" x1="75.3" y1="144.8" x2="123.3" y2="61.7"/>
		<line fill="none" stroke="#000000" stroke-width="12" stroke-miterlimit="10" x1="41.5" y1="125.3" x2="89.5" y2="42.2"/>
	</g>
</g>
</svg>
