<?xml version="1.0" encoding="utf-8"?>
<!-- Generator: Adobe Illustrator 23.0.2, SVG Export Plug-In . SVG Version: 6.00 Build 0)  -->
<svg version="1.1" id="Layer_1" xmlns="http://www.w3.org/2000/svg" xmlns:xlink="http://www.w3.org/1999/xlink" x="0px" y="0px"
	 viewBox="0 0 396.9 113.4" style="enable-background:new 0 0 396.9 113.4;" xml:space="preserve">
<style type="text/css">
	.st0{fill:none;stroke:#FFFFFF;stroke-width:6;stroke-miterlimit:10;}
	.st1{enable-background:new    ;}
	.st2{fill:#FFFFFF;}
</style>
<circle class="st0" cx="55.7" cy="57.6" r="48.6"/>
<g class="st1">
	<path class="st2" d="M141.8,22.7c2.2,0,2.9,1.6,2.9,2.8v59c0,4.8-3.8,8.7-8.6,8.8v0.1h-4.5c-4.9,0-8.7-4-8.7-8.9v-1.4
		c0-2.3,1-3.4,2-3.8c0.5-0.3,3.2-1.5,5-2.3v6.3c0,2.1,1.7,3.8,3.8,3.8s3.8-1.7,3.8-3.8V22.7H141.8z"/>
	<path class="st2" d="M206,92.7h-7.9l-6.3-48.2l-6.3,48.2h-7.9l10.6-70h3.9c3,0,3.5,1.9,3.8,3.8L206,92.7z"/>
	<path class="st2" d="M261.3,92.7H258c-3.9,0-4.5-3.1-4.8-4.5l-7.7-34.6v39.1h-7.2v-70h3.3c4,0,4.7,1.9,5.1,3.9l7.4,36.4V22.7h7.2
		V92.7z"/>
	<path class="st2" d="M321.3,84.5c0,4.8-3.9,8.4-8.6,8.5v0.1h-5.5c-4.9,0-8.9-3.7-8.9-8.6V24.7c0.1-1.1,1-2,2.1-2h5.1v60.5
		c0,2.1,1.6,3.8,3.7,3.8h1.1c2.1,0,3.8-1.7,3.8-3.8V22.7h7.2L321.3,84.5L321.3,84.5z"/>
	<path class="st2" d="M373.6,40.3v-8.1c0-2.2-1.7-3.9-3.8-3.9c-2.1,0-3.8,1.7-3.8,3.9v6.7c0,4.1,3.1,9.4,3.1,9.4l8.6,16.2
		c3.5,6.4,3.2,11.1,3.2,11.1v8.9c0,4.9-4,8.9-9,8.9h-4.5c-4.8-0.2-8.6-4.1-8.7-8.9v-7.2c0-2.3,1.1-3.4,2-3.9
		c0.6-0.2,3.5-1.5,5.3-2.3v12.2c0,2.1,1.7,3.8,3.8,3.8c2.1,0,3.8-1.7,3.8-3.9v-8c0-4.1-3.1-9.5-3.1-9.5l-8.6-16.1
		c-3.5-6.4-3.2-11.1-3.2-11.1v-7.2c0-4.9,4-9.3,9-9.3h4.5c4.8,0.1,8.7,4.5,8.7,9.3V34c0,2.3-1.1,3.4-2,3.9
		C378.3,38.2,375.5,39.5,373.6,40.3z"/>
</g>
<g>
	<line class="st0" x1="71.6" y1="89.9" x2="91.5" y2="55.3"/>
	<line class="st0" x1="58.6" y1="82.4" x2="78.6" y2="47.8"/>
	<line class="st0" x1="45.7" y1="74.9" x2="65.6" y2="40.4"/>
	<line class="st0" x1="32.7" y1="67.4" x2="52.7" y2="32.9"/>
	<line class="st0" x1="19.8" y1="59.9" x2="39.7" y2="25.4"/>
</g>
</svg>
